<svg width="182" height="158" viewBox="0 0 182 158" fill="none" xmlns="http://www.w3.org/2000/svg">
<path d="M49.4331 36.2514C-1.02368 81.8749 0.00156353 80.8496 0.00156353 84.2915C0.00156353 87.294 1.6859 89.491 4.98133 90.7359C6.07981 91.1753 10.4737 91.395 15.0141 91.2486L23.0696 91.0289L23.4358 121.933L23.8019 152.91L26.2186 155.253L28.562 157.67L89.4177 157.89C122.885 158.036 151.445 157.963 152.837 157.67C154.301 157.45 156.205 156.425 157.157 155.473L158.915 153.715V122.079V90.5163L165.432 91.0289C173.488 91.688 177.296 91.1021 179.713 88.8319C181.763 86.9279 182.203 83.8521 180.811 80.9961C179.639 78.5794 92.9329 0.294479 91.1021 0.0015564C90.0768 -0.144913 78.3597 10.0343 49.4331 36.2514ZM99.0843 55.1452C107.213 56.8296 112.266 59.5391 117.099 64.7386C126.473 74.6982 129.329 86.5617 125.521 99.5238C122.592 109.483 106.334 131.526 96.6677 138.63C93.9581 140.607 92.4935 141.193 90.0768 141.193C87.294 141.193 86.6349 140.753 82.4607 136.579C75.284 129.476 62.3952 112.779 59.6856 107.14C56.1704 99.9632 54.4861 90.0036 55.5846 82.9734C58.7336 63.5669 78.6526 50.8245 99.0843 55.1452Z" fill="#898B8F"/>
<path d="M84.2208 68.9858C74.5542 72.1348 67.8168 82.314 68.8421 92.2003C70.8193 110.874 93.0819 119.003 106.483 105.895C110.95 101.501 112.928 96.6674 112.855 89.9301C112.855 85.4629 112.488 83.7054 110.877 80.6296C108.461 76.016 104.653 72.208 100.332 70.0843C96.2308 68.107 88.5415 67.5944 84.2208 68.9858Z" fill="#898B8F"/>
</svg>
