<svg width="48" height="48" viewBox="0 0 48 48" fill="none" xmlns="http://www.w3.org/2000/svg">
<path fill-rule="evenodd" clip-rule="evenodd" d="M48 24C48 37.2548 37.2548 48 24 48C10.7452 48 0 37.2548 0 24C0 10.7452 10.7452 0 24 0C37.2548 0 48 10.7452 48 24ZM24.8598 17.7179C22.5255 18.6888 17.86 20.6984 10.8635 23.7466C9.72742 24.1984 9.13227 24.6404 9.07809 25.0726C8.98653 25.803 9.90118 26.0906 11.1467 26.4822C11.3161 26.5355 11.4917 26.5907 11.6716 26.6492C12.897 27.0475 14.5454 27.5135 15.4023 27.5321C16.1796 27.5489 17.0472 27.2284 18.005 26.5707C24.5421 22.158 27.9165 19.9276 28.1284 19.8795C28.2778 19.8456 28.485 19.803 28.6253 19.9277C28.7656 20.0524 28.7518 20.2886 28.737 20.352C28.6463 20.7383 25.056 24.0762 23.198 25.8036C22.6188 26.3421 22.2079 26.724 22.1239 26.8113C21.9358 27.0067 21.744 27.1915 21.5597 27.3692C20.4213 28.4667 19.5676 29.2896 21.607 30.6336C22.587 31.2794 23.3712 31.8135 24.1536 32.3463C25.0081 32.9281 25.8603 33.5085 26.963 34.2313C27.2439 34.4155 27.5122 34.6067 27.7735 34.793C28.7679 35.5019 29.6612 36.1388 30.7649 36.0373C31.4062 35.9782 32.0687 35.3752 32.4051 33.5767C33.2002 29.3263 34.763 20.1169 35.1242 16.3219C35.1558 15.9895 35.116 15.5639 35.0841 15.3771C35.0521 15.1904 34.9853 14.9242 34.7425 14.7272C34.4549 14.4939 34.011 14.4447 33.8125 14.4482C32.9098 14.4641 31.5249 14.9456 24.8598 17.7179Z" fill="#787878" fill-opacity="0.83"/>
</svg>
