<svg width="49" height="34" viewBox="0 0 49 34" fill="none" xmlns="http://www.w3.org/2000/svg">
<path fill-rule="evenodd" clip-rule="evenodd" d="M45.493 2.66813C46.2378 3.41766 46.7726 4.34965 47.044 5.37082C48.0476 9.13991 48.0476 16.9999 48.0476 16.9999C48.0476 16.9999 48.0476 24.8599 47.044 28.629C46.7726 29.6502 46.2378 30.5822 45.493 31.3317C44.7483 32.0812 43.8197 32.622 42.8003 32.8999C39.0476 33.909 24.0476 33.909 24.0476 33.909C24.0476 33.909 9.04761 33.909 5.29488 32.8999C4.27547 32.622 3.34693 32.0812 2.60218 31.3317C1.85744 30.5822 1.32262 29.6502 1.05124 28.629C0.0476074 24.8599 0.0476074 16.9999 0.0476074 16.9999C0.0476074 16.9999 0.0476074 9.13991 1.05124 5.37082C1.32262 4.34965 1.85744 3.41766 2.60218 2.66813C3.34693 1.9186 4.27547 1.37782 5.29488 1.09991C9.04761 0.0908203 24.0476 0.0908203 24.0476 0.0908203C24.0476 0.0908203 39.0476 0.0908203 42.8003 1.09991C43.8197 1.37782 44.7483 1.9186 45.493 2.66813ZM31.684 17L19.1385 9.8627V24.1372L31.684 17Z" fill="#787878" fill-opacity="0.83"/>
</svg>
