<svg aria-hidden="true" style="position: absolute; width: 0; height: 0; overflow: hidden;" version="1.1" xmlns="http://www.w3.org/2000/svg" xmlns:xlink="http://www.w3.org/1999/xlink">
<defs>
<symbol id="arrow" viewBox="0 0 28 16">
<path d="M1.308 15.015c-0.378 0.378-0.611 0.899-0.611 1.475s0.234 1.098 0.611 1.476l13.28 13.281c0.378 0.378 0.9 0.612 1.476 0.612 1.153 0 2.087-0.934 2.087-2.087 0-0.576-0.233-1.098-0.611-1.476l-11.808-11.807 11.807-11.805c0.378-0.378 0.611-0.899 0.611-1.475 0-1.153-0.934-2.087-2.087-2.087-0.577 0-1.098 0.234-1.476 0.612l-13.279 13.281zM58.435 14.403h-55.652v4.174h55.652v-4.174z"></path>
</symbol>
</defs>
</svg>
