<svg width="16" height="23" viewBox="0 0 16 23" fill="none" xmlns="http://www.w3.org/2000/svg">
<rect width="16" height="23" fill="#E5E5E5"/>
<g id="Rectangle 444" filter="url(#filter0_d_15_120)">
<path d="M-82 -327C-82 -332.523 -77.5228 -337 -72 -337H307C312.523 -337 317 -332.523 317 -327V206C317 211.523 312.523 216 307 216H-72C-77.5228 216 -82 211.523 -82 206V-327Z" fill="white"/>
</g>
<rect id="Rectangle 557" x="-28" y="-12" width="298" height="47" rx="7" fill="#6AFF79" fill-opacity="0.9"/>
<path id="Vector" d="M6.78155 20.8963C10.2535 20.8963 13.068 16.6651 13.068 11.4457C13.068 6.22628 10.2535 1.99512 6.78155 1.99512C3.30965 1.99512 0.495117 6.22628 0.495117 11.4457C0.495117 16.6651 3.30965 20.8963 6.78155 20.8963Z" fill="#EAE9E8"/>
<path id="Vector_2" d="M5.50996 14.3401C3.38043 15.5696 0.74288 14.1426 0.512782 11.7728C0.237438 8.9349 3.42742 7.04436 5.78518 8.72878C7.71587 10.1081 7.65155 13.1036 5.50996 14.3401Z" fill="#656566"/>
<path id="Vector_3" d="M1.90734 10.9669C1.80609 9.92336 2.20299 8.91486 2.91249 8.2334C1.34177 8.6856 0.35834 10.191 0.511803 11.7726C0.774901 14.4842 4.10255 15.8245 6.16415 13.8495C4.72124 14.2679 2.10766 13.0316 1.90734 10.9669Z" fill="#4F4F51"/>
<path id="Vector_4" d="M2.21627 19.4616C5.25137 24.0245 10.2832 24.0416 13.3298 19.4616C16.5366 14.6404 16.2165 6.78199 12.6746 2.55084C12.5032 2.34613 12.1983 2.31913 11.9935 2.49044C11.7888 2.66183 11.7618 2.96669 11.9332 3.17146C13.6144 5.17988 14.5787 8.19551 14.5787 11.4452C14.5787 18.8571 9.62825 24.0587 5.10551 21.0816C9.521 22.6951 13.5395 17.7799 13.5395 11.4451C13.5395 5.13051 9.5326 0.19095 5.10557 1.80866C6.75886 0.720433 8.65655 0.678667 10.3507 1.75568C10.5758 1.89889 10.8747 1.83244 11.0181 1.60711C11.1613 1.38179 11.0948 1.08305 10.8694 0.939767C5.83447 -2.26156 -0.138013 3.08032 0.00243079 11.6902C0.0437452 14.62 0.826013 17.3715 2.21627 19.4616ZM6.76995 2.47807C8.28195 2.47807 9.71758 3.38454 10.8124 5.03035C14.5786 10.6922 11.8772 20.412 6.76995 20.412C3.83146 20.412 1.89774 17.198 1.26571 14.2874C3.23566 16.0627 6.33263 15.3036 7.30864 13.03C7.30955 13.0122 8.27841 11.1717 6.97736 9.27601V9.27594C5.67701 7.38379 2.98526 7.05476 1.26552 8.6035C1.9038 5.66315 3.84848 2.47807 6.76995 2.47807ZM1.46345 9.83559C1.47022 9.82992 2.35839 8.44173 4.03713 8.59435C5.89983 8.72738 7.11941 10.5897 6.54101 12.3431C5.92097 14.1088 3.98157 14.7712 2.47795 13.9665C0.983407 13.1669 0.506841 11.2405 1.46345 9.83559Z" fill="black"/>
<defs>
<filter id="filter0_d_15_120" x="-92" y="-347" width="419" height="573" filterUnits="userSpaceOnUse" color-interpolation-filters="sRGB">
<feFlood flood-opacity="0" result="BackgroundImageFix"/>
<feColorMatrix in="SourceAlpha" type="matrix" values="0 0 0 0 0 0 0 0 0 0 0 0 0 0 0 0 0 0 127 0" result="hardAlpha"/>
<feOffset/>
<feGaussianBlur stdDeviation="5"/>
<feColorMatrix type="matrix" values="0 0 0 0 0 0 0 0 0 0 0 0 0 0 0 0 0 0 0.2 0"/>
<feBlend mode="normal" in2="BackgroundImageFix" result="effect1_dropShadow_15_120"/>
<feBlend mode="normal" in="SourceGraphic" in2="effect1_dropShadow_15_120" result="shape"/>
</filter>
</defs>
</svg>
