<svg width="16" height="23" viewBox="0 0 16 23" fill="none" xmlns="http://www.w3.org/2000/svg">
<rect width="16" height="23" fill="#E5E5E5"/>
<g id="Rectangle 444" filter="url(#filter0_d_15_120)">
<path d="M-99 -327C-99 -332.523 -94.5228 -337 -89 -337H290C295.523 -337 300 -332.523 300 -327V206C300 211.523 295.523 216 290 216H-89C-94.5228 216 -99 211.523 -99 206V-327Z" fill="white"/>
</g>
<rect id="Rectangle 557" x="-45" y="-12" width="298" height="47" rx="7" fill="#6AFF79" fill-opacity="0.9"/>
<path id="Vector" d="M7.23565 20.8963C10.7076 20.8963 13.5221 16.6651 13.5221 11.4457C13.5221 6.22628 10.7076 1.99512 7.23565 1.99512C3.76375 1.99512 0.949219 6.22628 0.949219 11.4457C0.949219 16.6651 3.76375 20.8963 7.23565 20.8963Z" fill="#EAE9E8"/>
<path id="Vector_2" d="M5.96309 14.3401C3.83775 15.5671 1.19646 14.1475 0.965907 11.7728C0.690563 8.9349 3.88054 7.04436 6.2383 8.72878C8.16899 10.1081 8.10467 13.1036 5.96309 14.3401Z" fill="#656566"/>
<path id="Vector_3" d="M2.36144 10.9669C2.26019 9.92336 2.65709 8.91486 3.36659 8.2334C1.79587 8.6856 0.812442 10.191 0.965905 11.7726C1.22945 14.4888 4.56045 15.8208 6.61825 13.8494C5.17534 14.2679 2.56176 13.0316 2.36144 10.9669Z" fill="#4F4F51"/>
<path id="Vector_4" d="M2.67095 3.4285C-0.281 7.86635 -0.286092 15.0159 2.67095 19.4615C4.99881 22.961 8.31595 23.6106 10.9499 22.1709C11.1842 22.0429 11.2703 21.7492 11.1422 21.5149C11.0143 21.2806 10.7206 21.1945 10.4862 21.3226C8.85136 22.2161 7.08515 22.0852 5.56006 21.0814C9.97549 22.695 13.9941 17.7797 13.9941 11.4449C13.9941 5.12078 9.978 0.194112 5.56013 1.80847C10.094 -1.17571 15.0334 4.04428 15.0334 11.445C15.0334 14.837 13.9492 18.0383 12.1331 20.0087C11.9521 20.2051 11.9646 20.5109 12.1609 20.6919C12.3572 20.8729 12.6631 20.8604 12.844 20.664C16.6456 16.5394 17.0791 8.38166 13.7845 3.42856C10.7494 -1.1342 5.71752 -1.15148 2.67095 3.4285ZM13.0273 11.445C13.0273 13.8751 12.4022 16.1532 11.267 17.8597C10.1723 19.5056 8.73657 20.412 7.22457 20.412C4.28048 20.412 2.34978 17.1884 1.71988 14.2854C4.15885 16.4881 8.11022 14.7713 8.11022 11.445C8.11022 11.1781 7.89385 10.9616 7.62682 10.9616C7.35979 10.9616 7.14342 11.1781 7.14342 11.445C7.14342 13.0224 5.86009 14.3057 4.28267 14.3057C2.36834 14.3057 0.876256 12.4097 1.6203 10.4008C2.31659 8.63457 4.11219 8.59184 4.1187 8.58932C5.00873 8.53918 5.86925 8.90218 6.45764 9.59131C6.63095 9.79427 6.93607 9.81851 7.13917 9.64507C7.34219 9.47175 7.3663 9.16663 7.19299 8.96347C5.79506 7.32585 3.32432 7.15505 1.7195 8.60711C2.00915 7.27074 2.50486 6.04871 3.18226 5.03029C6.9063 -0.568433 13.0273 3.672 13.0273 11.445Z" fill="black"/>
<defs>
<filter id="filter0_d_15_120" x="-109" y="-347" width="419" height="573" filterUnits="userSpaceOnUse" color-interpolation-filters="sRGB">
<feFlood flood-opacity="0" result="BackgroundImageFix"/>
<feColorMatrix in="SourceAlpha" type="matrix" values="0 0 0 0 0 0 0 0 0 0 0 0 0 0 0 0 0 0 127 0" result="hardAlpha"/>
<feOffset/>
<feGaussianBlur stdDeviation="5"/>
<feColorMatrix type="matrix" values="0 0 0 0 0 0 0 0 0 0 0 0 0 0 0 0 0 0 0.2 0"/>
<feBlend mode="normal" in2="BackgroundImageFix" result="effect1_dropShadow_15_120"/>
<feBlend mode="normal" in="SourceGraphic" in2="effect1_dropShadow_15_120" result="shape"/>
</filter>
</defs>
</svg>
