<svg xmlns="http://www.w3.org/2000/svg" fill="none" viewBox="0 0 35 21">
  <path fill="url(#a)" stroke="#4C4C4C" stroke-width=".5" d="M.25 2.45c0-1.22.98-2.2 2.18-2.2H22.6c1.2 0 2.18.98 2.18 2.2v16.1a2.2 2.2 0 0 1-2.18 2.2H2.43a2.2 2.2 0 0 1-2.18-2.2V2.45Zm32.71 14.59-5.43-2.99a1.22 1.22 0 0 1-.63-1.07v-4.9c0-.45.24-.86.63-1.08l5.43-2.99a1.2 1.2 0 0 1 1.79 1.07v10.89a1.2 1.2 0 0 1-1.79 1.07Z"/>
  <defs>
    <linearGradient id="a" x1="17.5" x2="17.5" y1="13.95" y2="0" gradientUnits="userSpaceOnUse">
      <stop stop-color="#fff"/>
      <stop offset="1" stop-color="#0090FF"/>
    </linearGradient>
  </defs>
</svg>
