<svg width="0" height="0" class="hidden">
  <symbol fill="none" xmlns="http://www.w3.org/2000/svg" viewBox="0 0 16 13" id="cash">
    <path d="M14.9611 8.61035C14.8299 8.7693 14.675 8.91235 14.5041 9.02759V10.8078H14.7266C15.1955 10.8078 15.573 10.4303 15.577 9.96538V7.81562L14.9611 8.61035Z" fill="#006BBE"></path>
    <path d="M11.2058 4.8076H13.4987C13.5662 4.8076 13.6378 4.79966 13.7093 4.78376V2.5108C13.7093 2.04191 13.3278 1.66838 12.8629 1.66838H0.850373C0.381476 1.66838 0.00397371 2.04588 0 2.5108V11.6225C0.00397371 12.0914 0.381476 12.4729 0.850373 12.4769H12.8629C13.3318 12.4729 13.7093 12.0914 13.7093 11.6225L13.7053 9.31379C13.6378 9.32173 13.5662 9.32968 13.4947 9.33366H11.2058C9.9581 9.32968 8.94481 8.31639 8.94481 7.06864C8.94481 5.8209 9.9581 4.8076 11.2058 4.8076Z" fill="#006BBE"></path>
    <path d="M14.7266 0H2.71406C2.24516 0.00397371 1.86766 0.385449 1.86766 0.854347V0.874215H12.8629C13.7689 0.874215 14.504 1.60538 14.504 2.51138V4.17239L15.5769 2.78954V0.854347C15.573 0.385449 15.1955 0.00397371 14.7266 0Z" fill="#006BBE"></path>
    <path d="M15.5734 4.08837L14.9574 4.88311C14.7786 5.11359 14.5481 5.30035 14.2859 5.42353C14.0395 5.54275 13.7693 5.60235 13.4951 5.60235H11.2063C10.3956 5.60633 9.73996 6.26199 9.73996 7.07262C9.73996 7.88326 10.3956 8.53892 11.2063 8.54289H13.4991C13.8249 8.53892 14.1349 8.38792 14.3336 8.12963L15.5773 6.5163L15.5734 4.08837ZM12.0964 7.46999H11.1427C10.9241 7.46999 10.7453 7.29118 10.7453 7.07262C10.7453 6.85407 10.9241 6.67525 11.1427 6.67525H12.0964C12.3149 6.67525 12.4937 6.85407 12.4937 7.07262C12.4937 7.29118 12.3149 7.46999 12.0964 7.46999Z" fill="#006BBE"></path>
  </symbol>
  <symbol fill="none" xmlns="http://www.w3.org/2000/svg" viewBox="0 0 19 16" id="checkout">
    <g clip-path="url(#clip0)">
      <path d="M6.86278 8.41549C4.74597 8.00091 2.73252 7.87269 1.01839 9.49469C0.846118 9.37288 0.671691 9.24893 0.434814 9.08011C0.723373 8.83435 0.96671 8.58432 1.24881 8.39198C2.42888 7.58205 3.76185 7.33202 5.16373 7.46238C6.19522 7.55855 7.21594 7.76797 8.24743 7.87483C8.86116 7.93894 9.48996 7.9368 10.108 7.89833C10.5301 7.87269 10.8875 7.61411 10.7239 7.19953C9.66869 7.41109 8.61782 7.25936 7.51096 7.11618C8.01486 6.44943 8.48646 5.82756 8.98606 5.16508C8.49508 5.04113 8.04932 4.91932 7.59925 4.82529C7.51742 4.8082 7.39037 4.89154 7.31931 4.9642C6.82187 5.45999 6.33304 5.96646 5.83991 6.46653C5.56858 6.7422 5.25633 6.75716 4.95916 6.51354C4.65337 6.26137 4.58877 5.90663 4.82134 5.61386C5.37261 4.91719 5.93466 4.22906 6.49024 3.53667C6.67974 3.3016 6.92093 3.21184 7.22671 3.22253C8.38741 3.26527 9.55026 3.28877 10.7131 3.32724C11.6132 3.35502 12.4272 4.17991 12.438 5.07319C12.4466 5.71216 12.4402 6.35113 12.466 6.98796C12.4725 7.129 12.5564 7.30424 12.6641 7.394C13.2757 7.90047 13.9045 8.38771 14.5311 8.87709C14.8003 9.08865 14.8563 9.42203 14.6646 9.72335C14.4687 10.0311 14.1435 10.1379 13.8377 9.97125C12.9441 9.49042 12.0547 9.00317 11.1675 8.50738C11.0017 8.41336 10.866 8.3984 10.6786 8.46464C10.3987 8.56295 10.0994 8.60782 9.80221 8.6527C9.49211 8.69758 9.44043 8.78306 9.61917 9.04378C10.0175 9.62291 10.4116 10.202 10.8208 10.7726C10.9995 11.0227 11.034 11.262 10.9241 11.5526C10.4784 12.7387 10.0499 13.9312 9.61055 15.1193C9.44474 15.5681 9.12818 15.707 8.64366 15.5489C8.21944 15.41 8.05578 15.1022 8.17637 14.6535C8.40679 13.7987 8.63936 12.9438 8.88269 12.0912C8.93653 11.9053 8.91069 11.7685 8.79225 11.6103C8.2582 10.9009 7.74353 10.1764 7.20948 9.46905C6.97907 9.16345 6.80249 8.84717 6.86278 8.41549Z" fill="#656565"></path>
      <path d="M16.4309 13.6769C16.3276 13.6234 16.25 13.5914 16.1811 13.5486C15.4361 13.0828 14.6953 12.6083 13.9437 12.151C13.7413 12.0292 13.7305 11.933 13.8576 11.7386C14.5252 10.7128 15.1798 9.67848 15.8344 8.64629C16.1531 8.14409 16.1488 8.14623 16.6721 8.47106C17.3225 8.87282 17.9728 9.27458 18.6317 9.66352C18.86 9.79815 18.8988 9.92423 18.748 10.155C18.0331 11.2513 17.3354 12.3562 16.6269 13.4567C16.5752 13.5401 16.4977 13.6042 16.4309 13.6769Z" fill="#656565"></path>
      <path d="M15.0597 2.24792C15.0575 3.20317 14.278 3.97036 13.3154 3.97036C12.3485 3.9725 11.5647 3.17752 11.5733 2.20732C11.5819 1.27771 12.3658 0.506245 13.3068 0.501971C14.2845 0.497697 15.064 1.27344 15.0597 2.24792Z" fill="#656565"></path>
      <path d="M6.49057 9.87061C6.94925 10.4968 7.38209 11.0844 7.80846 11.6743C7.83431 11.7106 7.84938 11.7704 7.83861 11.8132C7.7654 12.1572 7.36486 12.4756 7.00524 12.4842C5.77133 12.5098 4.53741 12.5333 3.3035 12.5547C2.82975 12.5633 2.58857 12.3474 2.54765 11.8901C2.50889 11.4413 2.72423 11.1571 3.18291 11.1037C4.03782 11.0011 4.89273 10.9028 5.74764 10.8259C5.99744 10.8023 6.14387 10.7211 6.21924 10.4797C6.28599 10.2873 6.38721 10.1057 6.49057 9.87061Z" fill="#656565"></path>
    </g>
    <defs>
      <clipPath id="clip0">
        <rect width="18.401" height="15.1109" fill="white" transform="translate(0.434814 0.501953)"></rect>
      </clipPath>
    </defs>
  </symbol>
  <symbol fill="none" xmlns="http://www.w3.org/2000/svg" viewBox="0 0 19 19" id="checkin">
    <path d="M9.94376 2.98146V1.96685C9.94376 1.90652 9.89315 1.85716 9.82969 1.85716C9.76624 1.85716 9.71563 1.90584 9.71563 1.96685V2.98146C9.71563 3.04179 9.76624 3.09115 9.82969 3.09115C9.89315 3.09115 9.94376 3.04179 9.94376 2.98146Z" fill="#505050"></path>
    <path d="M9.71635 16.8906V17.9052C9.71635 17.9655 9.76697 18.0149 9.83042 18.0149C9.89387 18.0149 9.94449 17.9662 9.94449 17.9052V16.8906C9.94449 16.8302 9.89387 16.7809 9.83042 16.7809C9.76697 16.7809 9.71635 16.8296 9.71635 16.8906Z" fill="#505050"></path>
    <path d="M17.1107 9.87054C17.048 9.87054 16.9967 9.91922 16.9967 9.98023C16.9967 10.0406 17.0473 10.0899 17.1107 10.0899H18.1659C18.2286 10.0899 18.2799 10.0412 18.2799 9.98023C18.2799 9.9199 18.2293 9.87054 18.1659 9.87054H17.1107Z" fill="#505050"></path>
    <path d="M1.32748 9.87054C1.26475 9.87054 1.21342 9.91922 1.21342 9.98023C1.21342 10.0406 1.26403 10.0899 1.32748 10.0899H2.3826C2.44534 10.0899 2.49667 10.0412 2.49667 9.98023C2.49667 9.9199 2.44605 9.87054 2.3826 9.87054H1.32748Z" fill="#505050"></path>
    <path d="M5.60498 7.96266L4.10643 8.89981C7.25182 11.3609 9.61586 13.5574 9.61586 13.5574C12.896 10.1317 16.1177 7.60549 19 5.6359C19 5.6359 18.0711 3.97687 17.9092 3.64644C12.4832 8.09428 9.37276 10.9571 9.37276 10.9571C7.52416 9.52366 5.60498 7.96266 5.60498 7.96266Z" fill="#505050"></path>
    <path d="M9.91669 18.5482C5.02251 18.5482 1.05441 14.7475 1.05441 10.0591C1.05441 5.37059 5.02179 1.56991 9.91669 1.56991C10.7822 1.56991 11.6184 1.68919 12.409 1.91131C12.0597 2.45358 11.7204 2.93141 11.5543 3.06646C11.9642 3.0692 15.0454 3.09046 15.1944 3.09183C15.0019 2.74357 13.5576 0.126141 13.4877 0C13.4592 0.134368 13.2061 0.604655 12.8874 1.13938C11.8066 0.710915 10.626 0.473714 9.38984 0.473714C4.20408 0.473714 0 4.6206 0 9.73686C0 14.8531 4.20408 19 9.38913 19C12.5295 19 15.3099 17.4781 17.0145 15.1417C15.3983 17.21 12.8204 18.5482 9.91669 18.5482Z" fill="#505050"></path>
    <path d="M17.0145 15.1424C18.1224 13.7254 18.7782 11.9656 18.7782 10.0591C18.7782 10.0063 18.7768 9.9535 18.7761 9.90071C18.7419 11.8552 18.0946 13.6623 17.0145 15.1424Z" fill="#505050"></path>
  </symbol>
  <symbol fill="none" xmlns="http://www.w3.org/2000/svg" viewBox="0 0 23 21" id="Clock">
    <g clip-path="url(#clip0)">
      <path d="M12.6858 18.8562C11.641 19.4045 10.6271 20.0085 9.55133 20.4911C7.69882 21.3183 5.86005 21.0754 4.10378 20.1989C1.11364 18.7052 -0.49141 15.5866 0.134113 12.3301C0.419379 10.843 0.869618 9.37555 1.37485 7.94097C2.1516 5.72181 2.43343 3.47966 2.11379 1.16201C1.97288 0.154196 2.31657 -0.141255 3.37171 0.0589951C4.13127 0.200155 4.75336 0.600655 5.08674 1.24736C5.58166 2.20922 5.9666 3.22032 6.39965 4.20844C6.52338 4.48748 6.3481 4.6352 6.14532 4.79934C3.16549 7.22861 2.32001 11.0596 4.02129 14.3949C5.47168 17.2378 8.57867 18.9514 11.9778 18.784C12.2046 18.7742 12.4315 18.7578 12.6549 18.7446C12.6686 18.7807 12.6755 18.8168 12.6858 18.8562Z" fill="#4C4C4C"></path>
      <path d="M14.4357 16.2601C14.4529 16.5851 14.5113 16.8575 14.4667 17.1136C14.4426 17.2515 14.2673 17.4222 14.123 17.4714C11.7206 18.3085 9.40405 18.1247 7.30408 16.7229C4.71607 14.9929 3.60937 12.5472 4.19365 9.57958C4.77793 6.61194 6.75073 4.7703 9.7993 3.98243C10.2186 3.8741 10.222 3.88394 10.2014 3.45718C9.60683 3.27006 9.60339 3.27006 9.61027 2.61679C9.62402 1.39887 9.42811 1.58271 10.717 1.56958C11.4284 1.56301 12.1433 1.58271 12.8547 1.56301C13.2053 1.55316 13.3359 1.68448 13.3153 2.00619C13.3015 2.24255 13.2947 2.48219 13.3187 2.71855C13.3565 3.13547 13.2947 3.45718 12.7379 3.38824C12.6245 3.72637 12.6726 3.90036 13.0644 3.97586C14.1642 4.18596 15.1506 4.6554 16.0752 5.33165C16.1026 4.52737 16.8313 4.29101 17.2368 3.82485C17.2678 3.78874 17.4877 3.84127 17.5633 3.90692C18.0789 4.3501 18.5772 4.81297 19.1306 5.31196C18.5394 5.79124 18.2404 6.44452 17.419 6.59881C17.6218 6.94022 17.8521 7.32431 18.1098 7.75435C17.7593 7.85284 17.4534 7.94147 17.1028 8.03995C15.9961 6.23442 14.3773 5.10186 12.1708 4.84252C10.686 4.66853 9.30094 4.99353 8.04302 5.7617C5.46876 7.32759 4.41362 10.4594 5.56499 13.1348C6.27644 14.7861 7.52061 15.9416 9.27001 16.5686C11.0125 17.1957 12.7379 17.0381 14.4357 16.2601Z" fill="#4C4C4C"></path>
      <path d="M17.3732 14.7925C16.6034 14.8024 16.05 14.3723 15.9091 13.6961C15.7751 13.0493 16.1566 12.3337 16.8302 12.1499C17.4935 11.9693 18.1844 11.8446 18.8683 11.7756C19.5729 11.7067 20.164 12.2319 20.2809 12.9147C20.3874 13.5582 19.9681 14.2673 19.3082 14.4445C18.7858 14.5857 18.2428 14.6546 17.7066 14.7498C17.5795 14.7761 17.4454 14.7859 17.3732 14.7925Z" fill="#4C4C4C"></path>
      <path d="M19.251 4.04722C19.8318 3.75834 20.3508 3.44319 20.911 3.22981C21.674 2.94092 22.4611 3.21996 22.8082 3.82399C23.176 4.46414 23.0144 5.31766 22.3614 5.77069C21.8046 6.15806 21.1894 6.4732 20.5948 6.81133C20.0999 7.09365 19.5981 7.35956 19.1032 7.63203C18.7732 7.3136 18.7148 7.04113 19.1066 6.75881C19.3025 6.61765 19.4641 6.43381 19.6394 6.26311C20.2305 5.68205 20.2374 5.05832 19.66 4.46742C19.5397 4.34596 19.4194 4.22121 19.251 4.04722Z" fill="#4C4C4C"></path>
      <path d="M19.0236 8.46973C19.9035 8.46973 20.4637 8.92932 20.5737 9.59901C20.6871 10.2917 20.2747 10.9679 19.5839 11.1518C19.1405 11.2699 18.6834 11.3619 18.2263 11.421C17.5526 11.5063 16.9237 11.0566 16.7518 10.4099C16.5731 9.73688 16.9202 9.01795 17.6076 8.79144C18.1163 8.62074 18.6628 8.54851 19.0236 8.46973Z" fill="#4C4C4C"></path>
      <path d="M17.8723 15.1534C18.6765 15.1468 19.1989 15.5736 19.2986 16.194C19.3948 16.8014 18.9961 17.4284 18.3603 17.5794C17.8173 17.7107 17.2605 17.8092 16.7037 17.8814C16.085 17.9602 15.5076 17.5498 15.3667 16.9819C15.2052 16.3352 15.5317 15.6688 16.1744 15.4915C16.7793 15.3241 17.4048 15.2453 17.8723 15.1534Z" fill="#4C4C4C"></path>
      <path d="M11.2523 11.9392C11.0426 12.0476 10.8089 12.1296 10.6267 12.2741C10.3965 12.4513 10.1731 12.5827 9.93248 12.3561C9.67471 12.1132 9.81219 11.8933 10.0081 11.6503C10.1387 11.4895 10.2418 11.2466 10.2246 11.0496C10.149 10.2584 10.7883 9.5986 11.6166 9.72007C11.9293 9.76603 12.1081 9.67411 12.304 9.48042C12.8333 8.95846 13.3763 8.44635 13.9125 7.93095C14.1255 7.72742 14.3696 7.55343 14.6376 7.80292C14.9229 8.06554 14.7648 8.31175 14.5277 8.53498C13.9743 9.05694 13.4107 9.57234 12.8848 10.1206C12.7542 10.2552 12.6752 10.4981 12.6855 10.6852C12.7439 11.5223 12.1802 12.0935 11.2523 11.9392Z" fill="#4C4C4C"></path>
      <path d="M11.4586 5.86328C11.8367 5.86328 12.1426 6.16858 12.1288 6.52969C12.1151 6.86453 11.8058 7.15342 11.4552 7.15342" fill="#4C4C4C"></path>
    </g>
    <defs>
      <clipPath id="clip0">
        <rect width="23" height="21" fill="white"></rect>
      </clipPath>
    </defs>
  </symbol>
  <symbol  xmlns="http://www.w3.org/2000/svg" viewBox="0 0 22 22" id="Close">
    <path d="M1 1L21 21"  stroke-width="2" stroke-linecap="round" stroke-linejoin="round"></path>
    <path d="M21 1L0.999999 21" stroke-width="2" stroke-linecap="round" stroke-linejoin="round"></path>
  </symbol>
  <symbol fill="none" xmlns="http://www.w3.org/2000/svg" viewBox="0 0 14 14" id="correct">
    <path d="M0 11.0829V14H2.91707L11.5244 5.39269L8.60729 2.47562L0 11.0829Z" fill="#4C4C4C"></path>
    <path d="M13.7724 2.04388L11.956 0.227531C11.6527 -0.0758438 11.1587 -0.0758438 10.8553 0.227531L9.43179 1.65106L12.3489 4.56813L13.7724 3.1446C14.0758 2.84123 14.0758 2.34726 13.7724 2.04388Z" fill="#4C4C4C"></path>
  </symbol>
  <symbol xmlns="http://www.w3.org/2000/svg" viewBox="0 0 15 16" id="GooglePay">
    <path d="M2.91279 0.249117C2.30338 -0.0877145 1.58785 -0.0799265 0.982336 0.253985L8.07917 6.80079L10.4633 4.41668L2.91279 0.249117Z" ></path>
    <path d="M0.272581 0.923051C0.0992973 1.20634 0 1.53052 0 1.87416V13.6983C0 14.0313 0.0905357 14.3486 0.254084 14.6261L7.39083 7.48933L0.272581 0.923051Z"></path>
    <path d="M13.6247 6.1607L11.3506 4.90586L8.79516 7.46033L11.9269 10.3487L13.6257 9.41124C14.237 9.07246 14.6031 8.46499 14.6031 7.78548C14.6021 7.10598 14.237 6.49851 13.6247 6.1607Z" ></path>
    <path d="M8.10591 8.14904L0.949697 15.3053C1.26024 15.4824 1.60097 15.5759 1.94364 15.5759C2.27463 15.5759 2.60757 15.4922 2.91228 15.3237L11.0284 10.8447L8.10591 8.14904Z"></path>
  </symbol>
  <symbol xmlns="http://www.w3.org/2000/svg" viewBox="0 0 71 70" id="home">
    <path d="M7.1 70V35.3933H0L35.5 0L71 35.3933H63.9V70H7.1Z" ></path>
  </symbol>
  <symbol xmlns="http://www.w3.org/2000/svg" viewBox="0 0 16 13" id="JCB">
    <path d="M14.3093 12.1397H2.74212C2.04313 12.1397 1.47451 11.5704 1.47451 10.8705V10.6628H1.2676C0.568619 10.6628 0 10.0934 0 9.39361V1.26918C0 0.569378 0.568619 0 1.2676 0H12.8348C13.5338 0 14.1024 0.569348 14.1024 1.26918V1.47692H14.3093C15.0083 1.47692 15.5769 2.04626 15.5769 2.7461V10.8705C15.5769 11.5703 15.0083 12.1397 14.3093 12.1397ZM1.2676 10.0543H12.8348C13.1982 10.0543 13.4939 9.75794 13.4939 9.39361V8.60123H0.608474V9.39361C0.608474 9.75794 0.904161 10.0543 1.2676 10.0543ZM0.608474 7.99278H13.4939V6.7114H0.608474V7.99278ZM12.8348 0.608473H1.2676C0.904161 0.608473 0.608474 0.90486 0.608474 1.26918V6.1029H13.4939V1.26918C13.4939 0.90486 13.1982 0.608473 12.8348 0.608473ZM14.9684 2.74607C14.9684 2.38175 14.6728 2.08536 14.3093 2.08536H14.1024V9.39361C14.1024 10.0934 13.5338 10.6628 12.8348 10.6628H2.08299V10.8705C2.08299 11.2349 2.37867 11.5312 2.74212 11.5312H14.3093C14.6728 11.5312 14.9684 11.2349 14.9684 10.8705V2.74607Z" ></path>
    <path d="M5.09981 4.77881H2.00554C1.83754 4.77881 1.70131 4.6426 1.70131 4.47457V2.1398C1.70131 1.97177 1.83754 1.83556 2.00554 1.83556H5.09981C5.26781 1.83556 5.40405 1.97177 5.40405 2.1398V4.47457C5.40405 4.6426 5.26781 4.77881 5.09981 4.77881ZM4.79558 2.44406H2.30978V4.17037H4.79558V2.44406Z" ></path>
    <path d="M10.8191 4.89035C9.94668 4.89035 9.23692 4.18002 9.23692 3.30692C9.23692 2.43383 9.94668 1.7235 10.8191 1.7235C11.6915 1.7235 12.4013 2.43383 12.4013 3.30692C12.4013 4.18005 11.6915 4.89035 10.8191 4.89035ZM10.8191 2.33197C10.2822 2.33197 9.8454 2.76934 9.8454 3.30692C9.8454 3.84451 10.2822 4.28188 10.8191 4.28188C11.356 4.28188 11.7928 3.84451 11.7928 3.30692C11.7928 2.76934 11.356 2.33197 10.8191 2.33197Z" ></path>
  </symbol>
  <symbol xmlns="http://www.w3.org/2000/svg" viewBox="0 0 15 23" id="location">
    <path d="M7.20177 0C3.22449 0 0 3.22403 0 7.20177C0 10.5244 5.0267 19.6525 6.68106 22.5664C6.91063 22.9706 7.49291 22.9706 7.72247 22.5664C9.37683 19.6525 14.4035 10.5244 14.4035 7.20177C14.4035 3.22403 11.1788 0 7.20177 0ZM7.20177 9.76868C5.56732 9.76868 4.24233 8.44368 4.24233 6.80923C4.24233 5.17433 5.56732 3.84933 7.20177 3.84933C8.83621 3.84933 10.1612 5.17433 10.1612 6.80923C10.1612 8.44368 8.83621 9.76868 7.20177 9.76868Z" ></path>
    <path d="M7.20166 0V3.84911C8.83565 3.84911 10.1609 5.17433 10.1609 6.80969C10.1609 8.44368 8.83565 9.76891 7.20166 9.76891V22.8694C7.40468 22.8694 7.6077 22.7689 7.7226 22.5664C7.84001 22.3599 7.97459 22.1217 8.12268 21.8564C8.40764 21.3467 8.74478 20.7378 9.11191 20.0599C10.5021 17.4886 14.4034 10.1221 14.4034 7.20177C14.4034 3.22403 11.1789 0 7.20166 0Z" ></path>
  </symbol>
  <symbol xmlns="http://www.w3.org/2000/svg" viewBox="0 0 14 16" id="PayPal">
    <path d="M11.3287 1.17508C10.6025 0.352428 9.28816 0 7.60679 0H2.72732C2.38366 0 2.09159 0.248257 2.03707 0.584135L0.00528427 13.3679C-0.0346316 13.6201 0.162027 13.8479 0.419046 13.8479H3.43123L4.18769 9.08719L4.16432 9.23711C4.21787 8.90124 4.50896 8.65298 4.85263 8.65298H6.28376C9.09637 8.65298 11.2976 7.51976 11.9411 4.24179C11.9606 4.14443 11.9908 3.95751 11.9908 3.95751C12.1738 2.74446 11.9897 1.9218 11.3287 1.17508Z" ></path>
    <path d="M12.7537 4.57848C12.0547 7.80581 9.82425 9.51342 6.28439 9.51342H5.00125L4.04326 15.5767H6.12473C6.42556 15.5767 6.68161 15.3596 6.72834 15.0646L6.75268 14.9361L7.23167 11.9269L7.26282 11.7614C7.30955 11.4664 7.5656 11.2493 7.86545 11.2493H8.24611C10.7063 11.2493 12.632 10.2582 13.1947 7.39108C13.4206 6.24033 13.3115 5.27554 12.7537 4.57848Z" ></path>
  </symbol>
  <symbol xmlns="http://www.w3.org/2000/svg" viewBox="0 0 15 15" id="plushome">
    <path d="M7.9067 0.899414L7.9067 14.9133M14.9136 7.90634L0.89978 7.90633" stroke-width="2"></path>
  </symbol>
  <symbol xmlns="http://www.w3.org/2000/svg" viewBox="0 0 55 45" id="right">
    <path d="M29.59 30.9394L30.33 30.9394L30.33 31.6794L30.33 43.2508C30.33 43.3434 30.3925 43.4714 30.5605 43.5364C30.73 43.6019 30.9185 43.5599 31.0308 43.4559L31.534 43.9984L31.0308 43.4558L53.8076 22.3306C53.808 22.3302 53.8084 22.3299 53.8087 22.3295C53.8789 22.2632 53.9061 22.1874 53.9061 22.1227C53.9061 22.0585 53.8793 21.9839 53.8089 21.9182C53.8087 21.918 53.8085 21.9178 53.8082 21.9176L31.0293 0.851659L31.0284 0.850829C30.9187 0.74903 30.7306 0.705498 30.5575 0.77073C30.3929 0.835626 30.3301 0.963051 30.3301 1.056L30.3301 12.6717L30.3301 13.4117L29.5901 13.4117L1.13811 13.4117C0.865431 13.4117 0.739999 13.6047 0.739999 13.7277L0.739999 30.6234C0.739999 30.7464 0.86543 30.9394 1.13811 30.9394L29.59 30.9394Z" stroke="#FF6000" stroke-width="1.48"></path>
  </symbol>
  <symbol fill="none" xmlns="http://www.w3.org/2000/svg" viewBox="0 0 11 10" id="Star">
    <path d="M5.5 0L6.73483 3.80041H10.7308L7.49799 6.14919L8.73282 9.94959L5.5 7.60081L2.26718 9.94959L3.50201 6.14919L0.269189 3.80041H4.26517L5.5 0Z" fill="white"></path>
  </symbol>
  <symbol fill="none" xmlns="http://www.w3.org/2000/svg" viewBox="0 0 16 13" id="UnionPay">
    <path d="M14.3093 12.1397H2.74212C2.04313 12.1397 1.47451 11.5704 1.47451 10.8705V10.6628H1.2676C0.568619 10.6628 0 10.0934 0 9.39361V1.26918C0 0.569378 0.568619 0 1.2676 0H12.8348C13.5338 0 14.1024 0.569348 14.1024 1.26918V1.47692H14.3093C15.0083 1.47692 15.5769 2.04626 15.5769 2.7461V10.8705C15.5769 11.5703 15.0083 12.1397 14.3093 12.1397ZM1.2676 10.0543H12.8348C13.1982 10.0543 13.4939 9.75794 13.4939 9.39361V8.60123H0.608474V9.39361C0.608474 9.75794 0.904161 10.0543 1.2676 10.0543ZM0.608474 7.99278H13.4939V6.7114H0.608474V7.99278ZM12.8348 0.608473H1.2676C0.904161 0.608473 0.608474 0.90486 0.608474 1.26918V6.1029H13.4939V1.26918C13.4939 0.90486 13.1982 0.608473 12.8348 0.608473ZM14.9684 2.74607C14.9684 2.38175 14.6728 2.08536 14.3093 2.08536H14.1024V9.39361C14.1024 10.0934 13.5338 10.6628 12.8348 10.6628H2.08299V10.8705C2.08299 11.2349 2.37867 11.5312 2.74212 11.5312H14.3093C14.6728 11.5312 14.9684 11.2349 14.9684 10.8705V2.74607Z" fill="#4C4C4C"></path>
    <path d="M5.09981 4.77881H2.00554C1.83754 4.77881 1.70131 4.6426 1.70131 4.47457V2.1398C1.70131 1.97177 1.83754 1.83556 2.00554 1.83556H5.09981C5.26781 1.83556 5.40405 1.97177 5.40405 2.1398V4.47457C5.40405 4.6426 5.26781 4.77881 5.09981 4.77881ZM4.79558 2.44406H2.30978V4.17037H4.79558V2.44406Z" fill="#4C4C4C"></path>
    <path d="M10.8191 4.89035C9.94668 4.89035 9.23692 4.18002 9.23692 3.30692C9.23692 2.43383 9.94668 1.7235 10.8191 1.7235C11.6915 1.7235 12.4013 2.43383 12.4013 3.30692C12.4013 4.18005 11.6915 4.89035 10.8191 4.89035ZM10.8191 2.33197C10.2822 2.33197 9.8454 2.76934 9.8454 3.30692C9.8454 3.84451 10.2822 4.28188 10.8191 4.28188C11.356 4.28188 11.7928 3.84451 11.7928 3.30692C11.7928 2.76934 11.356 2.33197 10.8191 2.33197Z" fill="#4C4C4C"></path>
  </symbol>
  <symbol fill="none" xmlns="http://www.w3.org/2000/svg" viewBox="0 0 16 13" id="UseExpress">
    <path d="M14.3093 12.1397H2.74212C2.04313 12.1397 1.47451 11.5704 1.47451 10.8705V10.6628H1.2676C0.568619 10.6628 0 10.0934 0 9.39361V1.26918C0 0.569378 0.568619 0 1.2676 0H12.8348C13.5338 0 14.1024 0.569348 14.1024 1.26918V1.47692H14.3093C15.0083 1.47692 15.5769 2.04626 15.5769 2.7461V10.8705C15.5769 11.5703 15.0083 12.1397 14.3093 12.1397ZM1.2676 10.0543H12.8348C13.1982 10.0543 13.4939 9.75794 13.4939 9.39361V8.60123H0.608474V9.39361C0.608474 9.75794 0.904161 10.0543 1.2676 10.0543ZM0.608474 7.99278H13.4939V6.7114H0.608474V7.99278ZM12.8348 0.608473H1.2676C0.904161 0.608473 0.608474 0.90486 0.608474 1.26918V6.1029H13.4939V1.26918C13.4939 0.90486 13.1982 0.608473 12.8348 0.608473ZM14.9684 2.74607C14.9684 2.38175 14.6728 2.08536 14.3093 2.08536H14.1024V9.39361C14.1024 10.0934 13.5338 10.6628 12.8348 10.6628H2.08299V10.8705C2.08299 11.2349 2.37867 11.5312 2.74212 11.5312H14.3093C14.6728 11.5312 14.9684 11.2349 14.9684 10.8705V2.74607Z" fill="#656565"></path>
    <path d="M5.09981 4.77881H2.00554C1.83754 4.77881 1.70131 4.6426 1.70131 4.47457V2.1398C1.70131 1.97177 1.83754 1.83556 2.00554 1.83556H5.09981C5.26781 1.83556 5.40405 1.97177 5.40405 2.1398V4.47457C5.40405 4.6426 5.26781 4.77881 5.09981 4.77881ZM4.79558 2.44406H2.30978V4.17037H4.79558V2.44406Z" fill="#656565"></path>
    <path d="M10.8191 4.89035C9.94668 4.89035 9.23692 4.18002 9.23692 3.30692C9.23692 2.43383 9.94668 1.7235 10.8191 1.7235C11.6915 1.7235 12.4013 2.43383 12.4013 3.30692C12.4013 4.18005 11.6915 4.89035 10.8191 4.89035ZM10.8191 2.33197C10.2822 2.33197 9.8454 2.76934 9.8454 3.30692C9.8454 3.84451 10.2822 4.28188 10.8191 4.28188C11.356 4.28188 11.7928 3.84451 11.7928 3.30692C11.7928 2.76934 11.356 2.33197 10.8191 2.33197Z" fill="#656565"></path>
  </symbol>
  <symbol fill="none" xmlns="http://www.w3.org/2000/svg" viewBox="0 0 29 29" id="verific">
    <path d="M1.90074 19.742C1.04124 19.9946 0.242746 19.1961 0.495413 18.3366L1.57231 14.6734C1.81468 13.8489 2.85118 13.5846 3.45882 14.1922L6.04518 16.7786C6.65282 17.3862 6.38844 18.4227 5.564 18.6651L1.90074 19.742Z" fill="#AEAFBC"></path>
    <path d="M0.000244141 10.0749C0.000244141 4.51053 4.51077 0 10.0751 0C15.6395 0 20.15 4.51053 20.15 10.0749C20.15 15.6392 15.6395 20.1498 10.0751 20.1498C8.18915 20.1498 6.42491 19.6319 4.91504 18.7298C1.97161 16.971 0.000244141 13.7533 0.000244141 10.0749Z" fill="#AEAFBC"></path>
    <path d="M9.82481 27.8169C8.96532 28.0696 8.16682 27.2711 8.41949 26.4116L9.49639 22.7483C9.73875 21.9239 10.7753 21.6595 11.3829 22.2671L13.9693 24.8535C14.5769 25.4612 14.3125 26.4977 13.4881 26.74L9.82481 27.8169Z" fill="#4C4C4C"></path>
    <path d="M7.92432 18.1498C7.92432 12.5855 12.4348 8.07495 17.9992 8.07495C23.5635 8.07495 28.0741 12.5855 28.0741 18.1498C28.0741 23.7142 23.5635 28.2247 17.9992 28.2247C16.1132 28.2247 14.349 27.7069 12.8391 26.8048C9.89569 25.046 7.92432 21.8282 7.92432 18.1498Z" fill="#4C4C4C"></path>
  </symbol>
  <symbol fill="none" xmlns="http://www.w3.org/2000/svg" viewBox="0 0 53 54" id="plusHead">
    <path d="M26.5355 0.936523L26.5355 53.2418M52.6881 27.0892L0.382812 27.0892" stroke-width="4.10156"></path>
  </symbol>
  <symbol fill="none" xmlns="http://www.w3.org/2000/svg" viewBox="0 0 16 13" id="visaAndMaster">
    <path d="M14.3093 12.1397H2.74212C2.04313 12.1397 1.47451 11.5704 1.47451 10.8705V10.6628H1.2676C0.568619 10.6628 0 10.0934 0 9.39361V1.26918C0 0.569378 0.568619 0 1.2676 0H12.8348C13.5338 0 14.1024 0.569348 14.1024 1.26918V1.47692H14.3093C15.0083 1.47692 15.5769 2.04626 15.5769 2.7461V10.8705C15.5769 11.5703 15.0083 12.1397 14.3093 12.1397ZM1.2676 10.0543H12.8348C13.1982 10.0543 13.4939 9.75794 13.4939 9.39361V8.60123H0.608474V9.39361C0.608474 9.75794 0.904161 10.0543 1.2676 10.0543ZM0.608474 7.99278H13.4939V6.7114H0.608474V7.99278ZM12.8348 0.608473H1.2676C0.904161 0.608473 0.608474 0.90486 0.608474 1.26918V6.1029H13.4939V1.26918C13.4939 0.90486 13.1982 0.608473 12.8348 0.608473ZM14.9684 2.74607C14.9684 2.38175 14.6728 2.08536 14.3093 2.08536H14.1024V9.39361C14.1024 10.0934 13.5338 10.6628 12.8348 10.6628H2.08299V10.8705C2.08299 11.2349 2.37867 11.5312 2.74212 11.5312H14.3093C14.6728 11.5312 14.9684 11.2349 14.9684 10.8705V2.74607Z" fill="#4C4C4C"></path>
    <path d="M5.09981 4.77881H2.00554C1.83754 4.77881 1.70131 4.6426 1.70131 4.47457V2.1398C1.70131 1.97177 1.83754 1.83556 2.00554 1.83556H5.09981C5.26781 1.83556 5.40405 1.97177 5.40405 2.1398V4.47457C5.40405 4.6426 5.26781 4.77881 5.09981 4.77881ZM4.79558 2.44406H2.30978V4.17037H4.79558V2.44406Z" fill="#4C4C4C"></path>
    <path d="M10.8191 4.89035C9.94667 4.89035 9.23692 4.18002 9.23692 3.30692C9.23692 2.43383 9.94667 1.7235 10.8191 1.7235C11.6915 1.7235 12.4013 2.43383 12.4013 3.30692C12.4013 4.18005 11.6915 4.89035 10.8191 4.89035ZM10.8191 2.33197C10.2822 2.33197 9.8454 2.76934 9.8454 3.30692C9.8454 3.84451 10.2822 4.28188 10.8191 4.28188C11.356 4.28188 11.7928 3.84451 11.7928 3.30692C11.7928 2.76934 11.356 2.33197 10.8191 2.33197Z" fill="#4C4C4C"></path>
  </symbol>
  <symbol fill="none" xmlns="http://www.w3.org/2000/svg" viewBox="0 0 17 16" id="strel">
    <g filter="url(#filter0_d)">
      <path d="M8.02605 11.6229L12.0531 4.00195H3.99902L8.02605 11.6229Z" fill="black"></path>
    </g>
    <defs>
      <filter id="filter0_d" x="-0.000976562" y="0.00195312" width="16.0541" height="15.621" filterUnits="userSpaceOnUse" color-interpolation-filters="sRGB">
        <feFlood flood-opacity="0" result="BackgroundImageFix"></feFlood>
        <feColorMatrix in="SourceAlpha" type="matrix" values="0 0 0 0 0 0 0 0 0 0 0 0 0 0 0 0 0 0 127 0" result="hardAlpha"></feColorMatrix>
        <feOffset></feOffset>
        <feGaussianBlur stdDeviation="2"></feGaussianBlur>
        <feColorMatrix type="matrix" values="0 0 0 0 0 0 0 0 0 0 0 0 0 0 0 0 0 0 0.25 0"></feColorMatrix>
        <feBlend mode="normal" in2="BackgroundImageFix" result="effect1_dropShadow"></feBlend>
        <feBlend mode="normal" in="SourceGraphic" in2="effect1_dropShadow" result="shape"></feBlend>
      </filter>
    </defs>
  </symbol>
   <symbol fill="none" xmlns="http://www.w3.org/2000/svg" viewBox="0 0 68 68" id="files">
    <path d="M49.9517 43.2792L53.4225 42.5V11.7017C53.4235 11.4132 53.3606 11.128 53.2384 10.8667C53.1161 10.6053 52.9376 10.3743 52.7155 10.1901C52.4934 10.0059 52.2333 9.87321 51.9539 9.80144C51.6744 9.72967 51.3825 9.72064 51.0992 9.775L20.5275 15.5833V12.75C20.5264 12.4627 20.462 12.1791 20.3389 11.9196C20.2157 11.66 20.0369 11.4307 19.815 11.2481C19.5932 11.0655 19.3338 10.934 19.0554 10.8631C18.777 10.7921 18.4864 10.7834 18.2042 10.8375L10.0584 12.325C9.61716 12.4137 9.2205 12.6529 8.93623 13.0018C8.65197 13.3507 8.49777 13.7875 8.50002 14.2375V49.725C8.5001 50.3746 8.66204 51.014 8.97121 51.5854C9.28039 52.1568 9.72706 52.6421 10.2709 52.9975L13.7275 55.25L56.3409 46.9483L49.9517 43.2792Z" fill="#ADC4D9"></path>
    <path d="M10.0583 18.4167L18.2041 17C18.4863 16.9459 18.7769 16.9546 19.0553 17.0256C19.3338 17.0965 19.5931 17.228 19.815 17.4106C20.0368 17.5932 20.2156 17.8225 20.3388 18.0821C20.4619 18.3416 20.5264 18.6252 20.5275 18.9125V21.7458L51.0991 15.9942C51.3821 15.9424 51.6731 15.9533 51.9514 16.0261C52.2298 16.0989 52.4888 16.2318 52.7103 16.4154C52.9318 16.5991 53.1103 16.8291 53.2333 17.0891C53.3564 17.3492 53.4209 17.6331 53.4224 17.9208V11.7017C53.4234 11.4132 53.3605 11.128 53.2383 10.8667C53.1161 10.6053 52.9375 10.3743 52.7154 10.1901C52.4933 10.0059 52.2332 9.87321 51.9538 9.80144C51.6743 9.72967 51.3825 9.72064 51.0991 9.775L20.5275 15.5833V12.75C20.5264 12.4627 20.4619 12.1791 20.3388 11.9196C20.2156 11.66 20.0368 11.4307 19.815 11.2481C19.5931 11.0655 19.3338 10.934 19.0553 10.8631C18.7769 10.7921 18.4863 10.7834 18.2041 10.8375L10.0583 12.325C9.61709 12.4137 9.22042 12.6529 8.93616 13.0018C8.65189 13.3507 8.4977 13.7875 8.49995 14.2375V20.4C8.48083 19.938 8.62732 19.4843 8.91301 19.1207C9.19871 18.7571 9.60485 18.5074 10.0583 18.4167V18.4167Z" fill="#C0DCEB"></path>
    <path d="M49.9517 43.2792L53.4225 42.5V11.7017C53.4235 11.4132 53.3606 11.128 53.2384 10.8667C53.1161 10.6053 52.9376 10.3743 52.7155 10.1901C52.4934 10.0059 52.2333 9.87321 51.9539 9.80144C51.6744 9.72967 51.3825 9.72064 51.0992 9.775L20.5275 15.5833V12.75C20.5264 12.4627 20.462 12.1791 20.3389 11.9196C20.2157 11.66 20.0369 11.4307 19.815 11.2481C19.5932 11.0655 19.3338 10.934 19.0554 10.8631C18.777 10.7921 18.4864 10.7834 18.2042 10.8375L10.0584 12.325C9.61716 12.4137 9.2205 12.6529 8.93623 13.0018C8.65197 13.3507 8.49777 13.7875 8.50002 14.2375V49.725C8.5001 50.3746 8.66204 51.014 8.97121 51.5854C9.28039 52.1568 9.72706 52.6421 10.2709 52.9975L13.7275 55.25L56.3409 46.9483L49.9517 43.2792Z" stroke="#45413C" stroke-linecap="round" stroke-linejoin="round"></path>
    <path opacity="0.15" d="M33.2917 65.1666C45.7006 65.1666 55.76 63.8537 55.76 62.2341C55.76 60.6146 45.7006 59.3016 33.2917 59.3016C20.8828 59.3016 10.8234 60.6146 10.8234 62.2341C10.8234 63.8537 20.8828 65.1666 33.2917 65.1666Z" fill="#45413C"></path>
    <path d="M13.7274 55.2501L18.0483 23.3184C18.1015 22.9076 18.2839 22.5243 18.5691 22.2239C18.8542 21.9234 19.2275 21.7213 19.6349 21.6467L59.9957 14.2376C60.3148 14.1667 60.6466 14.1769 60.9607 14.2674C61.2748 14.3578 61.5612 14.5255 61.7937 14.7552C62.0262 14.9849 62.1974 15.2693 62.2917 15.5823C62.386 15.8952 62.4002 16.2268 62.3333 16.5467L56.3408 46.9626L13.7274 55.2501Z" fill="#C0DCEB"></path>
    <path d="M14.5916 48.8749L13.7274 55.2641L56.3408 46.9624L57.6016 40.5024L14.5916 48.8749Z" fill="#ADC4D9"></path>
    <path d="M13.7274 55.2501L18.0483 23.3184C18.1015 22.9076 18.2839 22.5243 18.5691 22.2239C18.8542 21.9234 19.2275 21.7213 19.6349 21.6467L59.9957 14.2376C60.3148 14.1667 60.6466 14.1769 60.9607 14.2674C61.2748 14.3578 61.5612 14.5255 61.7937 14.7552C62.0262 14.9849 62.1974 15.2693 62.2917 15.5823C62.386 15.8952 62.4002 16.2268 62.3333 16.5467L56.3408 46.9626L13.7274 55.2501Z" stroke="#45413C" stroke-linecap="round" stroke-linejoin="round"></path>
  </symbol>
  <symbol xmlns="http://www.w3.org/2000/svg" viewBox="0 0 21 14" id="galka">
    <path d="M20.6 0.999207L19.92 0.319214C19.6982 0.113991 19.4071 0 19.105 0C18.8028 0 18.5118 0.113991 18.29 0.319214L8.63995 9.74921L2.63995 3.85925C2.53282 3.75499 2.40607 3.67297 2.26703 3.61804C2.12799 3.56311 1.97943 3.53635 1.82996 3.53925C1.52884 3.5377 1.23872 3.65233 1.01996 3.85925L0.329956 4.52924C0.119082 4.74216 0.000574838 5.02955 2.889e-08 5.32922C-3.3493e-05 5.47619 0.0291057 5.62171 0.0857544 5.75732C0.142403 5.89294 0.225389 6.01593 0.329956 6.1192L7.13995 12.7692L7.82996 13.4292C8.04857 13.6352 8.33966 13.7466 8.63995 13.7392C8.93988 13.7445 9.23019 13.6334 9.44995 13.4292L10.1299 12.7592L20.56 2.56921C20.6682 2.47024 20.7553 2.35046 20.8161 2.21704C20.8769 2.08362 20.9101 1.9393 20.9139 1.79272C20.9176 1.64614 20.8918 1.5003 20.8378 1.36395C20.7839 1.22761 20.703 1.10356 20.6 0.999207Z"></path>
  </symbol>
  <svg xmlns="http://www.w3.org/2000/svg" fill="none" viewBox="0 0 35 21" id="camera">
    <path fill="url(#a)" stroke="#4C4C4C" stroke-width=".5" d="M.25 2.45c0-1.22.98-2.2 2.18-2.2H22.6c1.2 0 2.18.98 2.18 2.2v16.1a2.2 2.2 0 0 1-2.18 2.2H2.43a2.2 2.2 0 0 1-2.18-2.2V2.45Zm32.71 14.59-5.43-2.99a1.22 1.22 0 0 1-.63-1.07v-4.9c0-.45.24-.86.63-1.08l5.43-2.99a1.2 1.2 0 0 1 1.79 1.07v10.89a1.2 1.2 0 0 1-1.79 1.07Z"/>

      <linearGradient id="a" x1="17.5" x2="17.5" y1="13.95" y2="0" gradientUnits="userSpaceOnUse">
        <stop stop-color="#fff"/>
        <stop offset="1" stop-color="#0090FF"/>
      </linearGradient>

  </svg>
  <symbol fill="none" xmlns="http://www.w3.org/2000/svg" viewBox="0 0 54 59" id="selfi">
    <rect width="14.7215" height="10.2088" rx="1.20269" transform="matrix(0.971946 0.235206 -0.236815 0.971555 37.8848 10.616)" fill="#4C4C4C"></rect>
    <path d="M40.6937 15.3845L40.3335 15.2951L40.7343 13.6972L41.0945 13.7865L40.6937 15.3845ZM41.0355 15.4693L41.4362 13.8714L42.0027 14.0119C42.5706 14.1529 42.7894 14.483 42.6592 15.0023C42.5968 15.2511 42.4692 15.4306 42.2766 15.5406C42.0847 15.6508 41.8598 15.6739 41.6019 15.6099L41.0355 15.4693ZM41.7229 14.2538L41.4688 15.2667L41.6472 15.311C41.8033 15.3497 41.9374 15.3333 42.0493 15.2616C42.162 15.1902 42.2385 15.0738 42.279 14.9126C42.3171 14.7603 42.3029 14.6298 42.2363 14.5209C42.1705 14.4115 42.0581 14.337 41.899 14.2975L41.7229 14.2538ZM43.4047 15.5412L42.7947 15.3898L42.8565 15.1436L43.4664 15.2949L43.4047 15.5412ZM44.4377 16.2699C44.3466 16.2962 44.226 16.2907 44.0759 16.2534C43.9004 16.2099 43.7718 16.1215 43.6899 15.9884C43.608 15.8552 43.5881 15.7047 43.6302 15.5368C43.6789 15.3429 43.7751 15.2046 43.919 15.122C44.0639 15.0388 44.2337 15.0213 44.4284 15.0697C44.563 15.103 44.6559 15.145 44.7071 15.1956L44.6322 15.4943C44.5724 15.421 44.4972 15.3732 44.4065 15.3507C44.3054 15.3256 44.2177 15.3354 44.1433 15.38C44.0699 15.4242 44.0201 15.4982 43.994 15.6022C43.9687 15.7033 43.977 15.7898 44.0189 15.8617C44.0611 15.9329 44.1316 15.9808 44.2305 16.0054C44.3182 16.0271 44.4109 16.0209 44.5087 15.9868L44.4377 16.2699ZM45.5865 16.5987L45.2531 16.516L45.2942 16.3522L45.2897 16.3511C45.1811 16.4599 45.0517 16.4956 44.9016 16.4583C44.7908 16.4309 44.7113 16.378 44.663 16.2997C44.6157 16.2209 44.6051 16.1291 44.6314 16.0244C44.6869 15.803 44.8502 15.7078 45.1211 15.7387L45.4414 15.7744C45.4727 15.6496 45.4207 15.5704 45.2855 15.5368C45.1494 15.5031 45.0099 15.5115 44.867 15.562L44.9335 15.2968C44.9889 15.2837 45.0614 15.278 45.151 15.2797C45.2413 15.2816 45.3214 15.2913 45.3913 15.3086C45.7168 15.3894 45.8389 15.5921 45.7575 15.9168L45.5865 16.5987ZM45.3716 16.053L45.3909 15.9761L45.1768 15.9514C45.0586 15.9378 44.9884 15.9752 44.9662 16.0637C44.9561 16.1038 44.9616 16.1402 44.9826 16.1731C45.0045 16.2053 45.0392 16.2274 45.0868 16.2392C45.153 16.2556 45.2125 16.2463 45.2655 16.2113C45.3187 16.1756 45.3541 16.1228 45.3716 16.053ZM46.7938 16.0236C46.7572 15.9901 46.7106 15.9663 46.6541 15.9523C46.5776 15.9332 46.5106 15.9466 46.4534 15.9924C46.3963 16.0374 46.3556 16.1082 46.3314 16.2048L46.1947 16.7497L45.8424 16.6622L46.1286 15.5212L46.4809 15.6086L46.4278 15.8203L46.4323 15.8214C46.5268 15.6808 46.6465 15.6284 46.7915 15.6644C46.8286 15.6736 46.8565 15.6852 46.8751 15.6993L46.7938 16.0236ZM47.8377 17.1574L47.4854 17.07L47.5248 16.9129L47.5203 16.9118C47.4091 17.0152 47.2758 17.0476 47.1205 17.009C46.9778 16.9736 46.8755 16.895 46.8137 16.7731C46.752 16.6505 46.7439 16.4989 46.7891 16.3184C46.8365 16.1297 46.9223 15.9904 47.0467 15.9005C47.1711 15.8107 47.311 15.785 47.4664 15.8236C47.6135 15.8601 47.7029 15.9383 47.7344 16.0582L47.7389 16.0593L47.9091 15.3807L48.2614 15.4681L47.8377 17.1574ZM47.6313 16.5167L47.6528 16.4309C47.6714 16.3566 47.6653 16.2896 47.6345 16.2299C47.6037 16.1701 47.5537 16.1317 47.4846 16.1145C47.4065 16.0952 47.3378 16.1109 47.2785 16.1617C47.2194 16.2117 47.1764 16.2902 47.1496 16.3972C47.1244 16.4975 47.1262 16.58 47.155 16.6447C47.1838 16.7095 47.2357 16.7512 47.3108 16.7698C47.3821 16.7875 47.4473 16.7733 47.5062 16.7272C47.5659 16.6812 47.6076 16.6111 47.6313 16.5167Z" fill="white"></path>
    <path d="M40.7006 17.0437L40.3847 17.0091L40.5443 17.2985L40.3064 17.3874L40.2247 17.0664L40.0009 17.3116L39.8318 17.1216L40.1104 16.941L39.8152 16.824L39.9509 16.6185L40.2017 16.8086L40.2339 16.4769L40.4948 16.5417L40.3667 16.8496L40.6756 16.7984L40.7006 17.0437ZM41.7169 17.2959L41.4011 17.2613L41.5606 17.5507L41.3228 17.6396L41.241 17.3187L41.0173 17.5638L40.8482 17.3739L41.1268 17.1933L40.8316 17.0762L40.9672 16.8708L41.218 17.0608L41.2503 16.7291L41.5112 16.7939L41.3831 17.1018L41.692 17.0506L41.7169 17.2959ZM42.7333 17.5482L42.4174 17.5136L42.577 17.8029L42.3391 17.8919L42.2574 17.5709L42.0336 17.816L41.8645 17.6261L42.1431 17.4455L41.848 17.3284L41.9836 17.123L42.2344 17.3131L42.2667 16.9814L42.5276 17.0461L42.3994 17.354L42.7083 17.3029L42.7333 17.5482ZM43.7497 17.8004L43.4338 17.7658L43.5934 18.0552L43.3555 18.1441L43.2737 17.8231L43.05 18.0683L42.8809 17.8783L43.1595 17.6977L42.8643 17.5807L42.9999 17.3752L43.2507 17.5653L43.283 17.2336L43.5439 17.2983L43.4158 17.6063L43.7247 17.5551L43.7497 17.8004ZM44.766 18.0526L44.4502 18.018L44.6097 18.3074L44.3719 18.3963L44.2901 18.0754L44.0663 18.3205L43.8972 18.1306L44.1759 17.95L43.8807 17.8329L44.0163 17.6275L44.2671 17.8175L44.2994 17.4858L44.5603 17.5506L44.4321 17.8585L44.7411 17.8073L44.766 18.0526ZM45.7824 18.3048L45.4665 18.2703L45.6261 18.5596L45.3882 18.6485L45.3065 18.3276L45.0827 18.5727L44.9136 18.3828L45.1922 18.2022L44.897 18.0851L45.0327 17.8797L45.2835 18.0698L45.3157 17.7381L45.5766 17.8028L45.4485 18.1107L45.7574 18.0595L45.7824 18.3048ZM46.7987 18.5571L46.4829 18.5225L46.6425 18.8118L46.4046 18.9008L46.3228 18.5798L46.0991 18.825L45.93 18.635L46.2086 18.4544L45.9134 18.3374L46.049 18.1319L46.2998 18.322L46.3321 17.9903L46.593 18.055L46.4649 18.3629L46.7738 18.3118L46.7987 18.5571ZM47.8151 18.8093L47.4992 18.7747L47.6588 19.0641L47.4209 19.153L47.3392 18.8321L47.1154 19.0772L46.9463 18.8873L47.2249 18.7066L46.9298 18.5896L47.0654 18.3841L47.3162 18.5742L47.3485 18.2425L47.6094 18.3073L47.4812 18.6152L47.7902 18.564L47.8151 18.8093Z" fill="white"></path>
    <rect x="21" y="35" width="12" height="23" fill="#C4C4C4"></rect>
    <path d="M32.6592 40.824L30.147 35.74L43.519 29.2017C44.9258 28.5139 46.6286 29.0943 47.3223 30.4982C48.0161 31.9021 47.438 33.5978 46.0312 34.2857L32.6592 40.824Z" fill="#C4C4C4"></path>
    <path d="M47.7662 30.7666C48.2042 32.2711 47.33 33.8449 45.8243 34.2787C44.3186 34.7124 42.7341 33.847 42.2961 32.3425L40.0098 24.4897C39.5718 22.9852 40.446 21.4114 41.9517 20.9776C43.4574 20.5439 45.0419 21.4093 45.4799 22.9138L47.7662 30.7666Z" fill="#C4C4C4"></path>
    <rect width="14.7194" height="10.2103" rx="1.20269" transform="matrix(0.95776 -0.287568 0.288449 0.957495 2.19995 14.2329)" fill="#4C4C4C"></rect>
    <path d="M6.2156 16.5985C5.83922 16.7086 5.573 16.4996 5.41694 15.9715C5.33597 15.6975 5.32505 15.4741 5.38417 15.3012C5.44381 15.1274 5.57029 15.0122 5.76363 14.9556C6.13118 14.8482 6.39429 15.0629 6.55296 15.5998C6.63197 15.8671 6.64218 16.0868 6.58358 16.2587C6.52571 16.4305 6.40305 16.5437 6.2156 16.5985ZM5.82666 15.2257C5.67596 15.2697 5.6565 15.4809 5.76829 15.8592C5.87356 16.2154 6.00008 16.3719 6.14783 16.3287C6.29191 16.2866 6.30969 16.0819 6.20116 15.7146C6.09263 15.3474 5.9678 15.1844 5.82666 15.2257ZM7.78585 15.1686C7.82731 15.3089 7.84899 15.439 7.85089 15.559C7.85257 15.6782 7.83493 15.7847 7.79796 15.8785C7.76173 15.9721 7.70705 16.0519 7.63393 16.118C7.5606 16.1833 7.4699 16.2318 7.36184 16.2634C7.23246 16.3012 7.11501 16.3132 7.0095 16.2994L6.92485 16.0129C7.02398 16.043 7.13198 16.0409 7.24886 16.0067C7.36869 15.9717 7.45037 15.9035 7.4939 15.8022C7.53744 15.7009 7.53678 15.573 7.49194 15.4186L7.48467 15.4183C7.44544 15.5423 7.35452 15.6251 7.21191 15.6668C7.14722 15.6857 7.08373 15.6911 7.02143 15.683C6.95987 15.6747 6.90258 15.6551 6.84956 15.6244C6.79706 15.5926 6.75062 15.5504 6.71025 15.4975C6.67061 15.4445 6.64027 15.3823 6.61921 15.3111C6.59469 15.2281 6.58593 15.1485 6.59294 15.0722C6.59995 14.9959 6.62045 14.9261 6.65442 14.8627C6.68913 14.7991 6.73676 14.7441 6.79731 14.6977C6.85765 14.6505 6.92935 14.6148 7.01241 14.5905C7.09842 14.5653 7.1806 14.5596 7.25895 14.5734C7.33708 14.5865 7.40937 14.6176 7.47582 14.6668C7.54301 14.7158 7.60266 14.7825 7.65479 14.867C7.70765 14.9513 7.75134 15.0519 7.78585 15.1686ZM7.3794 15.0864C7.36746 15.046 7.35114 15.0097 7.33043 14.9774C7.3095 14.9445 7.28605 14.9178 7.26007 14.8975C7.2341 14.8771 7.20571 14.8635 7.1749 14.8565C7.14388 14.8489 7.11257 14.8496 7.08096 14.8589C7.05082 14.8677 7.02484 14.8825 7.00302 14.9032C6.98193 14.9238 6.96567 14.9485 6.95424 14.9773C6.94259 15.0055 6.93639 15.0372 6.93565 15.0725C6.93491 15.1079 6.94008 15.1443 6.95115 15.1817C6.9633 15.2228 6.9793 15.2581 6.99914 15.2874C7.01877 15.3159 7.04102 15.3386 7.06591 15.3552C7.09154 15.3717 7.11932 15.3819 7.14926 15.3859C7.17898 15.3892 7.21001 15.3861 7.24235 15.3766C7.27323 15.3676 7.29943 15.3536 7.32095 15.3345C7.34225 15.3147 7.35868 15.292 7.37025 15.2662C7.38255 15.2403 7.38935 15.212 7.39066 15.1813C7.3927 15.1503 7.38895 15.1187 7.3794 15.0864ZM8.68031 14.1315L8.45393 16.199L8.14298 16.2899L8.36605 14.2234L8.68031 14.1315ZM9.74694 15.5659C9.37057 15.676 9.10435 15.4669 8.94828 14.9388C8.86732 14.6649 8.8564 14.4415 8.91552 14.2686C8.97515 14.0947 9.10164 13.9795 9.29497 13.923C9.66253 13.8155 9.92564 14.0302 10.0843 14.5672C10.1633 14.8345 10.1735 15.0542 10.1149 15.2261C10.0571 15.3978 9.9344 15.5111 9.74694 15.5659ZM9.358 14.193C9.2073 14.2371 9.18785 14.4483 9.29963 14.8265C9.40491 15.1828 9.53142 15.3393 9.67918 15.2961C9.82326 15.2539 9.84104 15.0492 9.73251 14.682C9.62398 14.3147 9.49914 14.1518 9.358 14.193ZM11.1732 13.6203C11.1402 13.768 11.1122 13.9059 11.0893 14.0339C11.0663 14.1611 11.0495 14.2853 11.0389 14.4065C11.0282 14.5269 11.0244 14.6477 11.0275 14.7689C11.0303 14.8894 11.0413 15.0171 11.0604 15.1519L10.6965 15.2583C10.6808 15.1296 10.6731 15.0034 10.6732 14.8797C10.6734 14.756 10.6798 14.6344 10.6925 14.515C10.7056 14.3946 10.724 14.2759 10.7477 14.1589C10.7722 14.0416 10.8002 13.9257 10.8318 13.8111L10.0975 14.0259L10.0135 13.7416L11.1139 13.4198L11.1732 13.6203ZM12.2117 13.0988L11.9853 15.1663L11.6743 15.2573L11.8974 13.1907L12.2117 13.0988ZM13.0172 14.2661L13.6877 14.07L13.773 14.3587L12.721 14.6663L12.6859 14.5473C12.662 14.4665 12.6542 14.3902 12.6625 14.3183C12.6706 14.2458 12.6878 14.1781 12.7139 14.1154C12.7399 14.0519 12.7714 13.9936 12.8084 13.9405C12.846 13.8865 12.8821 13.8372 12.9169 13.7927C12.9534 13.7461 12.9845 13.7027 13.0102 13.6625C13.0366 13.6221 13.0572 13.5837 13.072 13.5475C13.0874 13.5103 13.0965 13.4749 13.0993 13.4413C13.102 13.407 13.0982 13.3726 13.088 13.3381C13.068 13.2705 13.0338 13.2251 12.9854 13.2017C12.937 13.1784 12.8734 13.1782 12.7948 13.2012C12.6588 13.241 12.5446 13.333 12.4523 13.4773L12.3618 13.171C12.473 13.042 12.615 12.9522 12.7877 12.9017C12.8679 12.8782 12.9427 12.8679 13.0122 12.8707C13.0822 12.8726 13.145 12.8865 13.2006 12.9126C13.2563 12.9386 13.3037 12.9762 13.343 13.0254C13.3828 13.0736 13.4128 13.1318 13.433 13.2001C13.4545 13.2728 13.4622 13.3408 13.4561 13.404C13.4508 13.467 13.4362 13.5272 13.4124 13.5844C13.3893 13.6414 13.3592 13.6965 13.3222 13.7496C13.285 13.802 13.2456 13.8538 13.204 13.905C13.1761 13.9403 13.1493 13.9753 13.1236 14.0099C13.0985 14.0436 13.0769 14.0763 13.0591 14.1078C13.0411 14.1386 13.0281 14.1676 13.0201 14.1946C13.0121 14.2217 13.0112 14.2455 13.0172 14.2661ZM14.346 12.4364L14.8233 14.0516L14.4759 14.1531L14.1145 12.9302C14.1004 12.9527 14.0824 12.9755 14.0605 12.9987C14.0391 13.0209 14.0156 13.0425 13.9898 13.0636C13.9639 13.084 13.9364 13.1032 13.9074 13.1212C13.8782 13.1386 13.8487 13.1536 13.8189 13.1663L13.7323 12.8732C13.8149 12.8203 13.8902 12.7616 13.9582 12.697C14.0261 12.6325 14.0852 12.5661 14.1354 12.498L14.346 12.4364Z" fill="white"></path>
    <path d="M6.05649 19.5616L5.91163 20.2938L6.02164 20.6661L5.90354 20.7006L5.79436 20.3312L5.28181 19.7882L5.41608 19.7489L5.77624 20.1381C5.78071 20.1429 5.795 20.1611 5.81911 20.1927L5.82122 20.1921C5.8212 20.1748 5.82402 20.1516 5.82967 20.1225L5.93136 19.5982L6.05649 19.5616ZM6.64421 20.5024C6.53782 20.5335 6.44287 20.5249 6.35934 20.4765C6.27615 20.4276 6.21815 20.3477 6.18535 20.2367C6.14965 20.1159 6.15481 20.0119 6.20082 19.9246C6.24684 19.8374 6.32608 19.7774 6.43856 19.7445C6.54588 19.7131 6.63929 19.7216 6.71879 19.7701C6.79876 19.8185 6.85604 19.9012 6.89064 20.0182C6.92454 20.133 6.91916 20.2345 6.8745 20.3229C6.83017 20.4106 6.7534 20.4704 6.64421 20.5024ZM6.45877 19.8439C6.38472 19.8655 6.33361 19.9079 6.30544 19.9711C6.27713 20.0338 6.27606 20.1094 6.30221 20.1979C6.32739 20.2832 6.36905 20.344 6.42716 20.3804C6.48528 20.4168 6.55089 20.4243 6.624 20.403C6.69851 20.3812 6.74856 20.3403 6.77415 20.2805C6.8002 20.2204 6.80008 20.146 6.77378 20.057C6.74721 19.9671 6.70658 19.9037 6.65189 19.8668C6.59766 19.8297 6.53329 19.8221 6.45877 19.8439ZM7.7496 20.1608L7.63431 20.1945L7.60068 20.0807L7.59787 20.0816C7.57581 20.1826 7.51463 20.2478 7.41434 20.2772C7.24281 20.3273 7.12688 20.2503 7.06655 20.0462L6.93951 19.6163L7.0541 19.5828L7.17573 19.9944C7.22057 20.1461 7.3011 20.205 7.41733 20.171C7.47357 20.1545 7.51364 20.1204 7.53755 20.0687C7.56179 20.0163 7.56401 19.9567 7.54423 19.8897L7.42176 19.4753L7.53705 19.4416L7.7496 20.1608ZM8.16589 19.3844C8.14117 19.3748 8.10983 19.3756 8.07187 19.3867C8.02266 19.4011 7.98827 19.4363 7.96869 19.4924C7.94959 19.5483 7.95187 19.6163 7.97553 19.6964L8.08388 20.0631L7.96859 20.0968L7.75604 19.3775L7.87133 19.3438L7.91513 19.492L7.91794 19.4912C7.9194 19.4358 7.93285 19.3892 7.95829 19.3512C7.98359 19.3128 8.01709 19.2875 8.0588 19.2753C8.0888 19.2665 8.11273 19.263 8.1306 19.2649L8.16589 19.3844ZM8.85646 19.4236L8.96897 19.8042L8.85087 19.8388L8.55321 18.8316L8.83018 18.7506C8.93797 18.719 9.02914 18.7209 9.10369 18.756C9.17871 18.7911 9.23033 18.8564 9.25856 18.9519C9.28679 19.0474 9.27686 19.1353 9.22877 19.2155C9.18115 19.2955 9.10133 19.3519 8.98933 19.3847L8.85646 19.4236ZM8.70286 18.9038L8.82491 19.3168L8.94864 19.2806C9.03018 19.2568 9.08681 19.2201 9.11853 19.1706C9.15057 19.1206 9.15656 19.0616 9.1365 18.9937C9.0972 18.8607 8.99881 18.8172 8.84135 18.8633L8.70286 18.9038ZM9.82532 18.8991C9.8006 18.8895 9.76926 18.8903 9.7313 18.9014C9.68209 18.9158 9.6477 18.951 9.62813 19.0071C9.60902 19.0631 9.6113 19.1311 9.63496 19.2112L9.74332 19.5778L9.62803 19.6115L9.41547 18.8923L9.53076 18.8586L9.57456 19.0068L9.57737 19.0059C9.57883 18.9506 9.59228 18.9039 9.61772 18.8659C9.64302 18.8275 9.67653 18.8022 9.71824 18.79C9.74823 18.7812 9.77216 18.7778 9.79003 18.7797L9.82532 18.8991ZM9.90668 18.5502C9.88606 18.5563 9.86641 18.5544 9.84773 18.5446C9.82905 18.5348 9.81653 18.5191 9.81016 18.4976C9.8038 18.476 9.8058 18.4561 9.81618 18.4378C9.82642 18.4191 9.84185 18.4067 9.86247 18.4006C9.88356 18.3945 9.90351 18.3965 9.92233 18.4068C9.94148 18.4164 9.95423 18.432 9.9606 18.4536C9.96669 18.4742 9.96438 18.4939 9.95367 18.5128C9.94343 18.5316 9.92777 18.5441 9.90668 18.5502ZM10.2294 19.4357L10.1142 19.4694L9.9016 18.7501L10.0169 18.7164L10.2294 19.4357ZM10.9294 19.1951C10.8839 19.2445 10.8232 19.2804 10.7473 19.3026C10.6446 19.3326 10.5519 19.3236 10.4689 19.2756C10.3863 19.227 10.3293 19.1495 10.2979 19.0432C10.2629 18.9248 10.2688 18.8198 10.3156 18.7283C10.3622 18.6363 10.4423 18.5737 10.5557 18.5405C10.6189 18.522 10.6782 18.5174 10.7334 18.5267L10.7682 18.6447C10.7037 18.6229 10.641 18.6209 10.5801 18.6387C10.5065 18.6602 10.4539 18.7044 10.4222 18.7711C10.3908 18.8373 10.3878 18.9132 10.4131 18.9989C10.438 19.0832 10.4797 19.1432 10.5382 19.179C10.5971 19.2147 10.6638 19.2217 10.7383 19.1999C10.8011 19.1815 10.854 19.1434 10.897 19.0856L10.9294 19.1951ZM11.5798 18.6814L11.0716 18.83C11.0971 18.9095 11.137 18.965 11.1911 18.9965C11.2452 19.028 11.3083 19.0332 11.3805 19.0121C11.4616 18.9884 11.5282 18.9399 11.5804 18.8666L11.6123 18.9748C11.5626 19.0392 11.4858 19.0866 11.3817 19.117C11.28 19.1468 11.1905 19.1376 11.1132 19.0895C11.0357 19.0409 10.9794 18.9574 10.9444 18.8389C10.9113 18.727 10.9161 18.6267 10.9586 18.538C11.0014 18.4486 11.0699 18.3902 11.1641 18.3626C11.2583 18.3351 11.3402 18.3442 11.4097 18.39C11.4793 18.4358 11.53 18.5128 11.562 18.621L11.5798 18.6814ZM11.4329 18.6183C11.4128 18.5519 11.3813 18.5049 11.3385 18.4772C11.2962 18.4494 11.2469 18.4437 11.1907 18.4602C11.1363 18.4761 11.0959 18.509 11.0694 18.559C11.0429 18.6089 11.0345 18.6666 11.0441 18.7319L11.4329 18.6183ZM12.2344 18.8494L11.9367 17.8421L12.2236 17.7583C12.3107 17.7328 12.3862 17.7339 12.4498 17.7615C12.5135 17.7892 12.5554 17.8372 12.5757 17.9056C12.5925 17.9627 12.5917 18.0169 12.5733 18.0681C12.5548 18.1193 12.521 18.1617 12.4719 18.1954L12.4727 18.1982C12.543 18.1863 12.605 18.1962 12.6586 18.2278C12.7121 18.2589 12.7491 18.3092 12.7696 18.3785C12.7951 18.4646 12.7848 18.5434 12.7387 18.6149C12.6926 18.6864 12.6225 18.7359 12.5283 18.7634L12.2344 18.8494ZM12.0864 17.9144L12.1825 18.2396L12.3034 18.2042C12.3681 18.1853 12.4144 18.155 12.4423 18.1133C12.47 18.0711 12.4755 18.0216 12.4588 17.965C12.4299 17.8671 12.351 17.837 12.2221 17.8747L12.0864 17.9144ZM12.2138 18.3456L12.321 18.7081L12.4812 18.6612C12.5506 18.6409 12.5994 18.6088 12.6277 18.565C12.6564 18.5209 12.6624 18.4704 12.6455 18.4132C12.6103 18.2943 12.5117 18.2585 12.3495 18.306L12.2138 18.3456ZM13.3357 18.5456C13.2293 18.5768 13.1344 18.5681 13.0508 18.5198C12.9676 18.4709 12.9096 18.3909 12.8768 18.28C12.8411 18.1592 12.8463 18.0551 12.8923 17.9679C12.9383 17.8807 13.0176 17.8206 13.1301 17.7877C13.2374 17.7564 13.3308 17.7649 13.4103 17.8134C13.4903 17.8617 13.5475 17.9445 13.5821 18.0615C13.616 18.1762 13.6107 18.2778 13.566 18.3661C13.5217 18.4539 13.4449 18.5137 13.3357 18.5456ZM13.1503 17.8871C13.0762 17.9088 13.0251 17.9512 12.9969 18.0144C12.9686 18.0771 12.9676 18.1527 12.9937 18.2412C13.0189 18.3264 13.0605 18.3873 13.1187 18.4237C13.1768 18.4601 13.2424 18.4676 13.3155 18.4463C13.39 18.4245 13.4401 18.3836 13.4656 18.3237C13.4917 18.2637 13.4916 18.1892 13.4653 18.1003C13.4387 18.0104 13.3981 17.9469 13.3434 17.91C13.2892 17.873 13.2248 17.8654 13.1503 17.8871ZM14.1649 18.3032C14.0585 18.3343 13.9635 18.3257 13.88 18.2774C13.7968 18.2284 13.7388 18.1485 13.706 18.0375C13.6703 17.9167 13.6755 17.8127 13.7215 17.7254C13.7675 17.6382 13.8468 17.5782 13.9592 17.5453C14.0666 17.5139 14.16 17.5224 14.2395 17.5709C14.3194 17.6193 14.3767 17.702 14.4113 17.819C14.4452 17.9338 14.4398 18.0353 14.3952 18.1237C14.3508 18.2114 14.2741 18.2712 14.1649 18.3032ZM13.9794 17.6447C13.9054 17.6663 13.8543 17.7087 13.8261 17.7719C13.7978 17.8346 13.7967 17.9102 13.8229 17.9987C13.8481 18.084 13.8897 18.1448 13.9478 18.1812C14.006 18.2176 14.0716 18.2252 14.1447 18.2038C14.2192 18.182 14.2692 18.1412 14.2948 18.0813C14.3209 18.0213 14.3208 17.9468 14.2945 17.8578C14.2679 17.7679 14.2273 17.7045 14.1726 17.6676C14.1183 17.6305 14.054 17.6229 13.9794 17.6447ZM15.2857 17.9571L15.1241 18.0044L14.7042 17.7517L14.7014 17.7525L14.8035 18.0981L14.6882 18.1318L14.3735 17.067L14.4888 17.0333L14.6883 17.7083L14.6911 17.7075L14.896 17.2897L15.0472 17.2455L14.8158 17.6901L15.2857 17.9571ZM15.182 17.0076C15.1614 17.0137 15.1417 17.0118 15.123 17.002C15.1043 16.9922 15.0918 16.9765 15.0855 16.955C15.0791 16.9334 15.0811 16.9135 15.0915 16.8952C15.1017 16.8765 15.1171 16.8641 15.1378 16.858C15.1589 16.8519 15.1788 16.8539 15.1976 16.8642C15.2168 16.8738 15.2295 16.8894 15.2359 16.911C15.242 16.9316 15.2397 16.9513 15.229 16.9702C15.2187 16.989 15.2031 17.0015 15.182 17.0076ZM15.5047 17.8931L15.3894 17.9268L15.1769 17.2075L15.2922 17.1738L15.5047 17.8931ZM16.3213 17.6543L16.206 17.688L16.0848 17.2778C16.0396 17.1252 15.9613 17.0651 15.8498 17.0978C15.7921 17.1146 15.7508 17.1504 15.7257 17.205C15.7009 17.2591 15.6983 17.3191 15.7178 17.3851L15.839 17.7953L15.7237 17.829L15.5112 17.1098L15.6265 17.0761L15.6618 17.1955L15.6646 17.1946C15.6921 17.0879 15.7574 17.0195 15.8605 16.9893C15.9392 16.9663 16.007 16.9742 16.0638 17.013C16.1204 17.0514 16.163 17.1186 16.1913 17.2146L16.3213 17.6543ZM17.1222 17.3575C17.2002 17.6216 17.1127 17.7907 16.8596 17.8647C16.7706 17.8907 16.6878 17.8966 16.6113 17.8824L16.5773 17.7672C16.6716 17.7884 16.7556 17.7883 16.8292 17.7668C17.0063 17.715 17.0671 17.5949 17.0115 17.4067L16.9882 17.328L16.9854 17.3288C16.9577 17.4367 16.8888 17.5067 16.7786 17.5389C16.6891 17.565 16.6075 17.5543 16.5339 17.5067C16.4606 17.4584 16.408 17.3804 16.3762 17.2727C16.34 17.1505 16.3406 17.0448 16.3779 16.9555C16.4156 16.8662 16.4856 16.8065 16.5877 16.7767C16.6848 16.7483 16.7682 16.7661 16.838 16.8301L16.8408 16.8293L16.8114 16.7296L16.9266 16.6959L17.1222 17.3575ZM16.9278 17.1236L16.8965 17.0176C16.8796 16.9604 16.8457 16.9172 16.7947 16.8878C16.7443 16.8583 16.6902 16.852 16.6326 16.8689C16.5613 16.8897 16.5132 16.932 16.4883 16.9957C16.4632 17.059 16.4644 17.1373 16.492 17.2305C16.5156 17.3105 16.5538 17.3691 16.6065 17.4061C16.6595 17.4425 16.7179 17.4513 16.7816 17.4327C16.8463 17.4138 16.892 17.3755 16.9187 17.3178C16.946 17.26 16.949 17.1953 16.9278 17.1236Z" fill="white"></path>
    <path d="M21.4939 40.8237L24.0061 35.7398L10.634 29.2015C9.22725 28.5136 7.52445 29.0941 6.83073 30.498C6.13701 31.9019 6.71506 33.5976 8.12184 34.2854L21.4939 40.8237Z" fill="#C4C4C4"></path>
    <path d="M6.38636 30.7666C5.94834 32.2711 6.82262 33.8449 8.32832 34.2787C9.83402 34.7124 11.4185 33.847 11.8565 32.3425L14.1428 24.4897C14.5808 22.9852 13.7065 21.4114 12.2008 20.9776C10.6951 20.5439 9.1107 21.4093 8.67268 22.9138L6.38636 30.7666Z" fill="#C4C4C4"></path>
    <ellipse cx="26.8778" cy="27.6383" rx="5.37852" ry="5.35021" fill="#C4C4C4"></ellipse>
    <rect x="0.5" y="0.5" width="53" height="58" rx="2.15487" stroke="#4C4C4C"></rect>
  </symbol>
  <symbol fill="none" xmlns="http://www.w3.org/2000/svg" viewBox="0 0 48 48" id="document">
    <path fill-rule="evenodd" clip-rule="evenodd" d="M3.8454 5.27751C2.07014 5.27751 0.794422 6.42477 0.794434 8.20003L0.849485 44.5646C0.849473 46.3398 2.04261 47.7659 3.81787 47.7659H33.7339C35.3489 47.7659 36.6754 46.4393 36.6754 44.8244V39.274C36.6771 39.0853 36.6088 38.9025 36.4838 38.7612L6.51139 5.18805C6.36612 5.02274 6.15663 4.92842 5.93662 4.92871L3.8454 5.27751Z" fill="#FFB240"></path>
    <path fill-rule="evenodd" clip-rule="evenodd" d="M8.91862 0.672119C7.14337 0.672119 5.68978 2.12572 5.68979 3.90095L5.44849 40.3152C5.44849 41.9301 6.50252 43.1788 8.11745 43.1788H32.7141C32.7311 43.1775 32.7479 43.1759 32.7648 43.173C32.8008 43.1701 32.8366 43.1644 32.8719 43.1558C32.8756 43.1558 32.8794 43.1558 32.8831 43.1558C32.9079 43.15 32.9324 43.1413 32.9564 43.1327C32.9717 43.1269 32.9866 43.1211 33.0015 43.1153C33.0405 43.1009 33.0782 43.081 33.1141 43.0591C33.1478 43.0389 33.1798 43.0164 33.2099 42.9916C33.2119 42.9896 33.2137 42.9887 33.2157 42.9858C33.2272 42.9772 33.2385 42.9656 33.2495 42.957L33.272 42.9339L41.037 35.3098C41.0448 35.3011 41.0523 35.2896 41.0595 35.2809C41.0884 35.2512 41.1147 35.2191 41.1384 35.1851C41.1548 35.1591 41.17 35.1335 41.1835 35.1064C41.1939 35.0862 41.2034 35.0654 41.2118 35.0443C41.2227 35.0155 41.2322 34.9886 41.24 34.9598C41.2475 34.9301 41.2533 34.9001 41.2571 34.8698C41.2592 34.8583 41.2611 34.8467 41.2628 34.836C41.266 34.8129 41.2677 34.7873 41.2686 34.7627V15.0235V5.08901L40.8649 4.00798C40.2438 2.34492 39.4057 0.779139 37.6304 0.779139L8.91862 0.672119Z" fill="#FED883"></path>
    <path d="M38.0342 1.14673L8.99242 1.14978C7.21716 1.14978 5.76308 2.60239 5.7631 4.37762L5.57959 13.4003C10.1778 16.9528 16.2878 16.4897 22.1977 20.1834C29.6085 24.8152 26.0656 37.0687 27.7275 43.1793H32.7146C32.7316 43.1779 32.7485 43.1759 32.7653 43.1734C32.801 43.17 32.8364 43.1639 32.8712 43.1555C32.875 43.1555 32.8791 43.1555 32.8831 43.1555C32.9078 43.1492 32.9322 43.1418 32.9561 43.1331C32.9712 43.1276 32.9861 43.1217 33.0009 43.1152C33.0401 43.0995 33.078 43.0806 33.1142 43.0586C33.1476 43.0387 33.1795 43.0163 33.2096 42.9915C33.2119 42.9895 33.2134 42.9875 33.2157 42.9855C33.2274 42.9764 33.2388 42.967 33.25 42.9572L33.2723 42.9334L41.037 35.3103C41.0447 35.3005 41.0522 35.2906 41.0594 35.2805C41.0883 35.2509 41.1147 35.2189 41.1384 35.1851C41.1549 35.1596 41.1698 35.1332 41.1832 35.106C41.1935 35.0861 41.2029 35.0657 41.2115 35.0449C41.2225 35.0172 41.232 34.9888 41.2398 34.9599C41.2475 34.9305 41.2535 34.9006 41.2577 34.8705C41.2592 34.8591 41.2607 34.8476 41.2622 34.8362C41.2653 34.8119 41.2676 34.7876 41.2684 34.7631V15.0234V5.08939V3.56716C41.2684 1.79193 39.8078 1.23119 38.0345 1.14675L38.0342 1.14673Z" fill="#F0C561"></path>
    <path d="M8.1587 3.46475C7.36207 3.24981 6.82281 3.03317 5.91043 3.49072C5.53164 3.67854 5.37753 4.13822 5.5667 4.51629C5.75441 4.89507 5.90225 5.04004 6.28031 4.85086C6.89786 4.54207 7.49038 4.50821 7.84119 4.60301C8.192 4.69764 8.41914 4.77961 8.41914 4.93904C8.41747 5.36079 8.57462 5.6948 8.99636 5.69624C9.4203 5.69791 9.76439 5.35378 9.76271 4.92984C9.7627 4.03318 8.95533 3.68116 8.1587 3.46616V3.46475Z" fill="#143441"></path>
    <path d="M8.24126 8.03913C7.44462 7.82419 6.7127 7.61673 5.80031 8.07289C5.42154 8.26071 5.26743 8.72035 5.45658 9.09841C5.64633 9.47509 5.90373 9.62649 6.28029 9.43651C6.89784 9.12772 7.49037 9.09393 7.84117 9.1887C8.19198 9.28333 8.465 9.3615 8.465 9.52117C8.46645 9.94069 8.5768 10.2804 8.99634 10.2819C9.41807 10.2836 9.76124 9.94291 9.7627 9.52117C9.76268 8.62448 9.0379 8.25412 8.24126 8.03913Z" fill="#143441"></path>
    <path d="M8.18634 12.6077C7.3897 12.3927 6.76789 12.2219 5.8555 12.6783C5.47671 12.8662 5.3226 13.3259 5.51177 13.704C5.69947 14.0827 5.90237 14.2185 6.28042 14.0293C6.89798 13.7205 7.4905 13.6867 7.84131 13.7815C8.19212 13.8761 8.43761 13.9396 8.43762 14.0991C8.43594 14.5209 8.57474 14.8732 8.99648 14.8747C9.42042 14.8763 9.76451 14.5322 9.76283 14.1083C9.76282 13.2116 8.98298 12.8229 8.18634 12.6079V12.6077Z" fill="#143441"></path>
    <path d="M8.19551 17.1634C7.39887 16.9484 6.65778 16.796 5.74539 17.2522C5.3666 17.4401 5.21249 17.8998 5.40166 18.2779C5.59142 18.6545 6.05068 18.8059 6.42723 18.6159C7.04477 18.3071 7.4905 18.2732 7.8413 18.368C8.19211 18.4626 8.44677 18.5319 8.44678 18.6913C8.44822 19.1108 8.57693 19.4598 8.99647 19.4613C9.41821 19.463 9.76137 19.1223 9.76283 18.7006C9.76281 17.8039 8.99216 17.3785 8.19551 17.1635V17.1634Z" fill="#143441"></path>
    <path d="M8.19552 21.787C7.39887 21.572 6.65778 21.3829 5.74539 21.8392C5.3666 22.027 5.21249 22.4867 5.40166 22.8648C5.58937 23.2435 6.04917 23.3977 6.42723 23.2085C7.04477 22.8997 7.49051 22.8658 7.84131 22.9606C8.1921 23.0553 8.42843 23.1372 8.42843 23.2966C8.42676 23.7184 8.57473 24.0524 8.99647 24.0538C9.42042 24.0555 9.76451 23.7114 9.76283 23.2875C9.76281 22.3908 8.99216 22.0021 8.19552 21.7871V21.787Z" fill="#143441"></path>
    <path d="M8.14963 26.2511C7.35299 26.0361 6.65779 25.9755 5.74539 26.4316C5.3666 26.6195 5.21249 27.0791 5.40166 27.4572C5.59142 27.8338 6.05068 27.9853 6.42723 27.7953C7.04476 27.4865 7.49051 27.4527 7.8413 27.5474C8.1921 27.6421 8.43761 27.6928 8.43761 27.8524C8.43906 28.2719 8.57693 28.6392 8.99647 28.6406C9.41821 28.6423 9.76137 28.3017 9.76283 27.8799C9.76281 26.9832 8.94628 26.4661 8.14963 26.2511Z" fill="#143441"></path>
    <path d="M8.21386 30.792C7.41721 30.5771 6.65779 30.5624 5.74539 31.0185C5.3666 31.2063 5.21249 31.666 5.40166 32.0441C5.58937 32.4228 6.04917 32.577 6.42723 32.3878C7.04476 32.0789 7.49052 32.0451 7.84131 32.1399C8.1921 32.2346 8.49266 32.234 8.49266 32.3933C8.49099 32.815 8.57474 33.2316 8.99647 33.233C9.42042 33.2347 9.76451 32.8906 9.76283 32.4667C9.76281 31.57 9.01052 31.007 8.21386 30.792V30.792Z" fill="#143441"></path>
    <path d="M8.27729 35.5725C7.51041 35.3168 6.69243 35.1372 5.74539 35.6109C5.3666 35.7987 5.21249 36.2584 5.40166 36.6364C5.59142 37.0131 6.05068 37.1645 6.42723 36.9745C7.01013 36.683 7.42128 36.7013 7.80186 36.8279C8.18243 36.9549 8.3642 37.0841 8.3642 36.9581C8.36565 37.3776 8.70539 37.7173 9.12492 37.7188C9.54665 37.7204 9.63293 37.3615 9.63438 36.9397C9.63438 36.0484 9.04417 35.8281 8.27729 35.5725Z" fill="#143441"></path>
    <path d="M38.2506 9.53625C37.9681 9.5276 37.7037 9.67443 37.5631 9.91943L33.6415 16.4493C33.4313 16.815 33.5575 17.2818 33.9232 17.4918L37.7066 19.867C38.0708 20.0782 38.5371 19.9547 38.749 19.5909L42.8288 12.5303C43.0389 12.1647 42.9127 11.6978 42.547 11.4878L38.6056 9.63768C38.4973 9.57536 38.3754 9.54049 38.2506 9.53616V9.53625Z" fill="#2276BC"></path>
    <path d="M46.1703 0.539003C45.0556 -0.104576 43.6221 0.311381 42.9865 1.41242L41.7412 3.57061C41.6912 3.65756 41.6589 3.75348 41.646 3.85294C41.6331 3.95239 41.6399 4.05342 41.6661 4.15022C41.6923 4.24703 41.7372 4.33776 41.7985 4.41718C41.8597 4.4966 41.936 4.56315 42.0229 4.61308L44.7165 6.16833C44.8034 6.2183 44.8993 6.25064 44.9988 6.26351C45.0983 6.27639 45.1993 6.26957 45.2961 6.24339C45.3929 6.21722 45.4836 6.17221 45.563 6.11097C45.6424 6.04973 45.709 5.97343 45.7589 5.88645L47.0324 3.67759C47.6681 2.57666 47.2537 1.16452 46.1703 0.538915L46.1703 0.539003Z" fill="#F5F6E8"></path>
    <path d="M29.4118 24.1833C29.221 24.1769 29.0348 24.2422 28.8898 24.3663C28.7449 24.4905 28.6516 24.6644 28.6285 24.8538L28.1777 28.6067C28.0938 29.3104 28.4706 29.9542 29.0061 30.2634C29.5415 30.5726 30.2869 30.5752 30.8543 30.1506L33.8803 27.891C33.9818 27.8155 34.063 27.716 34.1165 27.6014C34.17 27.4868 34.1943 27.3607 34.187 27.2344C34.1797 27.1082 34.1412 26.9857 34.0749 26.878C34.0086 26.7703 33.9165 26.6808 33.8071 26.6175L29.7668 24.2846C29.6585 24.2222 29.5366 24.1873 29.4118 24.183V24.1833Z" fill="#F5F6E8"></path>
    <path d="M29.3482 24.1837C29.1683 24.1926 28.9973 24.2648 28.8656 24.3876C28.7338 24.5104 28.6497 24.6758 28.628 24.8546L28.4954 25.9594L32.2808 28.1451C32.396 28.212 32.4918 28.3079 32.5585 28.4232C32.6252 28.5386 32.6605 28.6694 32.661 28.8026L33.8806 27.8916C33.982 27.8161 34.0631 27.7166 34.1166 27.6021C34.1701 27.4875 34.1944 27.3615 34.1871 27.2353C34.1799 27.1091 34.1414 26.9866 34.0751 26.879C34.0089 26.7713 33.9169 26.6817 33.8075 26.6183L29.7671 24.285C29.6589 24.2228 29.5371 24.188 29.4123 24.1838C29.3909 24.1829 29.3695 24.1829 29.3482 24.1838L29.3482 24.1837Z" fill="#DDDEC9"></path>
    <path d="M32.5407 19.0533C32.3167 19.0446 32.1003 19.1355 31.9491 19.3012L31.8364 19.4252C30.5665 20.8096 29.7315 22.1853 29.1953 23.4735C28.6052 24.8911 28.7731 26.2396 29.7725 26.8769C30.3531 27.2472 30.948 27.5905 31.5588 27.9081C32.6105 28.4551 33.911 28.1926 34.6412 27.2376C35.7777 25.751 36.6467 24.0763 37.2107 22.2844L37.2614 22.1211C37.3405 21.8661 37.2807 21.5883 37.1036 21.3886L36.9402 21.2024C35.8778 20.0044 34.4758 19.4419 32.907 19.1208L32.6647 19.0701C32.624 19.0615 32.5825 19.0557 32.5408 19.0528L32.5407 19.0533Z" fill="#2276BC"></path>
    <path d="M38.0762 9.05978C37.8168 9.0742 37.8022 9.346 37.6732 9.57141L36.9993 10.7388C37.0656 10.7561 37.1293 10.7821 37.1886 10.8164L41.0207 13.0153C41.3863 13.2253 41.5124 13.6919 41.3025 14.0575L37.9002 19.9466C38.2305 20.0309 38.5767 19.8862 38.7486 19.5917L42.8292 12.5307C43.0392 12.1651 42.913 11.6986 42.5474 11.4886L38.4951 9.16125C38.3869 9.09893 38.265 9.06432 38.1403 9.06C38.1189 9.0591 38.0975 9.0591 38.0762 9.06V9.05978Z" fill="#1E69A9"></path>
    <path d="M32.5223 18.7954V18.7969C32.2982 18.7883 32.2469 18.9524 32.0956 19.1178L31.9838 19.2416C31.6372 19.6195 31.3157 20.0111 31.0132 20.406C31.062 20.3973 31.1114 20.3944 31.1608 20.3973V20.3958C31.2024 20.3982 31.2438 20.4045 31.2845 20.4132L31.5275 20.4639C33.0963 20.7849 34.3508 21.5302 35.4132 22.7283L35.5772 22.9147C35.7547 23.1146 35.8146 23.3929 35.7352 23.6483L35.6845 23.8106C35.2141 25.3052 34.5196 26.7113 33.6465 28.0016C34.0277 27.8435 34.3729 27.5874 34.6409 27.2368C35.7774 25.7502 36.6473 24.0759 37.2112 22.284L37.2619 22.1215C37.3413 21.8662 37.2813 21.5879 37.1039 21.3879L36.9399 21.2016C35.8775 20.0036 34.4578 19.1848 32.8891 18.8638L32.6461 18.8131C32.6054 18.8045 32.564 18.7986 32.5223 18.7958V18.7954Z" fill="#1E69A9"></path>
    <path d="M34.4079 16.1761C34.1838 16.1675 33.9675 16.2584 33.8162 16.424L33.7035 16.548C33.0922 17.2145 32.8328 17.521 32.6554 17.9116C32.478 18.3022 32.448 18.5496 32.1201 19.3373C31.9703 19.6919 32.108 20.1026 32.4413 20.2952L36.1512 22.5548C36.4829 22.7455 36.9045 22.6609 37.1373 22.3574C37.6556 21.6795 37.8626 21.5286 38.1122 21.1797C38.3618 20.8308 38.4943 20.4532 38.7658 19.5906L38.8166 19.4274C38.8957 19.1723 38.8359 18.8946 38.6588 18.6948L38.4954 18.5087C37.433 17.3106 36.3429 16.5646 34.7741 16.2436L34.5319 16.1928C34.4911 16.1842 34.4496 16.1784 34.4079 16.1755L34.4079 16.1761Z" fill="#1D5C87"></path>
    <path d="M41.4618 3.33187C41.2377 3.32321 41.0214 3.41411 40.8701 3.57972L40.7517 3.70377C39.1558 5.44366 38.4751 7.10557 37.7662 9.35763L37.7155 9.52095C37.6086 9.86292 37.7539 10.2332 38.0649 10.4112L40.4281 12.0399L41.7748 12.8175C42.0843 12.9944 42.4749 12.9335 42.7159 12.671C42.7497 12.6341 43.3271 12.0193 43.8711 11.2904C44.9524 9.84136 45.6049 8.55166 46.15 6.81973H46.1443L46.195 6.65641C46.2777 6.40079 46.2201 6.12036 46.0429 5.91823L45.8794 5.73791C44.8171 4.53981 43.391 3.71479 41.8223 3.39376L41.5856 3.34877C41.5448 3.34011 41.5033 3.33435 41.4616 3.33147L41.4618 3.33187Z" fill="#1D5C87"></path>
    <path d="M21.5657 29.724C21.1439 29.7224 20.8008 30.063 20.7993 30.4847C20.8008 30.9065 20.9752 30.8319 21.397 30.8302L25.6854 30.8692C26.1071 30.8708 26.2686 30.7768 26.2701 30.355C26.2686 29.9332 25.9255 29.5926 25.5037 29.5942L21.5657 29.724Z" fill="#5B6571"></path>
    <path d="M16.8174 29.6331C16.3978 29.6345 16.0581 29.9742 16.0566 30.3938C16.0581 30.8133 16.2291 30.9325 16.6487 30.9339H18.1814C18.6009 30.9325 18.9407 30.5927 18.9421 30.1732C18.9407 29.7537 18.536 29.6605 18.1165 29.659L16.8174 29.6331Z" fill="#5B6571"></path>
    <path d="M12.4782 29.5684C12.0587 29.5698 11.719 29.7539 11.7175 30.1734C11.719 30.5929 12.0587 30.9327 12.4782 30.9341H13.5889C14.0084 30.9327 14.3482 30.5929 14.3496 30.1734C14.3482 29.7539 14.0084 29.5698 13.5889 29.5684H12.4782Z" fill="#5B6571"></path>
    <path d="M12.5881 32.8098C12.1686 32.8112 11.8159 33.0602 11.8144 33.4796C11.8128 33.9014 11.6863 33.8293 12.108 33.8308L18.0968 33.9996C18.5185 33.9981 18.4959 33.8235 18.4942 33.4019C18.4928 32.9823 18.153 32.6426 17.7335 32.6412L12.5881 32.8098ZM21.7212 32.5244C21.2995 32.5227 20.9563 32.8634 20.9549 33.2851C20.9532 33.7091 20.8172 34.0012 21.2411 33.9996H28.8878C29.3117 34.0012 29.4222 33.6702 29.4206 33.2462C29.4191 32.8245 29.2836 32.6784 28.8618 32.6801L21.7212 32.5244Z" fill="#5B6571"></path>
    <path d="M12.2855 35.7339C11.866 35.7353 11.5171 35.8732 11.5156 36.2928C11.514 36.7145 11.8546 37.0577 12.2764 37.0591H24.3009C24.7227 37.0577 25.0633 36.7145 25.0616 36.2928C25.0602 35.8732 24.6654 35.6711 24.2459 35.6697L12.2855 35.7339Z" fill="#5B6571"></path>
    <path d="M27.3608 35.5322C27.2606 35.5318 27.1612 35.5512 27.0684 35.5892C26.9756 35.6272 26.8912 35.6832 26.8201 35.7538C26.7489 35.8245 26.6923 35.9085 26.6536 36.001C26.6149 36.0935 26.5948 36.1927 26.5945 36.293C26.5941 36.3937 26.6136 36.4935 26.652 36.5867C26.6904 36.6798 26.7468 36.7645 26.8181 36.8358C26.8893 36.907 26.974 36.9634 27.0671 37.0018C27.1603 37.0402 27.2601 37.0597 27.3608 37.0593H28.8879C28.9887 37.0597 29.0885 37.0402 29.1817 37.0018C29.2748 36.9634 29.3594 36.907 29.4307 36.8358C29.5019 36.7645 29.5584 36.6798 29.5967 36.5867C29.6351 36.4935 29.6547 36.3937 29.6543 36.293C29.6539 36.1927 29.6338 36.0935 29.5951 36.001C29.5564 35.9085 29.4999 35.8245 29.4287 35.7538C29.3575 35.6832 29.2732 35.6272 29.1804 35.5892C29.0876 35.5512 28.9882 35.5318 28.8879 35.5322H27.3608Z" fill="#5B6571"></path>
    <path d="M16.7038 3.95215C13.9483 3.95215 11.6992 6.23427 11.6992 9.03013C11.6992 11.826 13.9483 14.1081 16.7038 14.1081C19.4592 14.1081 21.7083 11.826 21.7083 9.03013C21.7083 6.23427 19.4592 3.95218 16.7038 3.95215Z" fill="#7CAD39"></path>
    <path d="M24.2203 3.63514C24.0695 3.64957 23.9263 3.70812 23.809 3.80419L16.966 9.38677L15.8565 8.30547C15.6234 7.95337 15.3303 7.46817 14.9788 7.70209C14.6286 7.93694 14.5352 8.41134 14.7703 8.76142L16.0119 10.7102C16.2615 11.084 16.7784 11.1624 17.1276 10.8792L24.7742 4.75967C25.1017 4.49626 25.1416 4.25118 24.8796 3.92257C24.7216 3.72263 24.4743 3.61501 24.2203 3.63523L24.2203 3.63514Z" fill="#2276BC"></path>
    <path d="M21.6434 20.363C21.2217 20.3614 20.8785 20.702 20.8771 21.1238C20.8785 21.5455 20.8195 21.7564 21.2412 21.7547H25.828C26.2498 21.7564 26.3594 21.701 26.3608 21.2794C26.3594 20.8577 26.0162 20.5171 25.5945 20.5187L21.6434 20.363Z" fill="#5B6571"></path>
    <path d="M16.8174 20.4409C16.3978 20.4423 16.0581 20.7821 16.0566 21.2016C16.0581 21.6211 16.2291 21.7533 16.6487 21.7547H18.1814C18.6009 21.7533 18.6422 21.5433 18.6437 21.1238C18.6422 20.7042 18.3025 20.3645 17.8829 20.363L16.8174 20.4409Z" fill="#5B6571"></path>
    <path d="M12.2248 20.4409C11.8053 20.4423 11.4656 20.7821 11.4641 21.2016C11.4656 21.6211 11.6366 21.7533 12.0561 21.7547H13.5889C14.0084 21.7533 14.0497 21.5433 14.0511 21.1238C14.0497 20.7042 13.7099 20.3645 13.2904 20.363L12.2248 20.4409Z" fill="#5B6571"></path>
    <path d="M12.3801 23.5315C11.9844 23.5327 11.664 23.8192 11.6626 24.173C11.664 24.5267 11.9844 24.8132 12.3801 24.8144H18.0775C18.4732 24.8132 18.7937 24.5268 18.795 24.173C18.7937 23.8193 18.4732 23.5327 18.0775 23.5315H12.3801ZM21.4836 23.5315C21.0858 23.5301 20.7621 23.8175 20.7608 24.173C20.7621 24.5286 21.0858 24.8158 21.4836 24.8144H24.6466C25.0444 24.8158 25.368 24.5285 25.3694 24.173C25.368 23.8174 25.0444 23.5301 24.6466 23.5315H21.4836Z" fill="#5B6571"></path>
    <path d="M12.3681 26.573C11.9486 26.5745 11.6089 26.6938 11.6074 27.1135C11.6089 27.533 11.9486 27.8728 12.3681 27.8742H23.4201C23.8397 27.8728 24.1794 27.7716 24.1809 27.3521C24.1794 26.9326 24.7205 26.5928 24.301 26.5913L12.3681 26.573Z" fill="#5B6571"></path>
    <path d="M12.9256 17.3494C12.5039 17.3508 12.1632 17.694 12.1649 18.1157C12.1663 18.5353 11.6367 18.6934 12.0562 18.6948H29.6542C30.0738 18.6934 30.1151 18.5612 30.1165 18.1417C30.1181 17.72 29.7775 17.3768 29.3558 17.3753L12.9256 17.3494Z" fill="#5B6571"></path>
    <path d="M25.8292 6.46313C25.6271 6.4634 25.4334 6.54378 25.2905 6.68668C25.1476 6.82959 25.0672 7.02334 25.0669 7.22544C25.0672 7.42754 25.1476 7.62129 25.2905 7.7642C25.4334 7.9071 25.6271 7.98752 25.8292 7.98779C26.0313 7.98752 26.2251 7.9071 26.368 7.7642C26.5109 7.62129 26.5913 7.42754 26.5916 7.22544C26.5913 7.02334 26.5109 6.82959 26.368 6.68668C26.2251 6.54378 26.0313 6.4634 25.8292 6.46313Z" fill="black"></path>
    <path d="M28.8898 6.46313C28.6877 6.4634 28.4939 6.54378 28.351 6.68668C28.2081 6.82959 28.1277 7.02334 28.1274 7.22544C28.1277 7.42754 28.2081 7.62129 28.351 7.7642C28.4939 7.9071 28.6877 7.98752 28.8898 7.98779C29.0919 7.98752 29.2856 7.9071 29.4285 7.7642C29.5714 7.62129 29.6518 7.42754 29.6521 7.22544C29.6518 7.02334 29.5714 6.82959 29.4285 6.68668C29.2856 6.54378 29.0919 6.4634 28.8898 6.46313Z" fill="black"></path>
    <path d="M31.9489 6.46313C31.7468 6.4634 31.553 6.54381 31.4101 6.68672C31.2672 6.82962 31.1868 7.02337 31.1865 7.22547C31.1868 7.42757 31.2672 7.62131 31.4101 7.76422C31.553 7.90712 31.7468 7.98753 31.9489 7.9878C32.151 7.98753 32.3447 7.90712 32.4876 7.76422C32.6305 7.62131 32.7109 7.42757 32.7112 7.22547C32.7109 7.02337 32.6305 6.82962 32.4876 6.68672C32.3447 6.54381 32.151 6.4634 31.9489 6.46313Z" fill="black"></path>
    <path d="M35.0094 6.46313C34.8073 6.4634 34.6136 6.54381 34.4707 6.68672C34.3277 6.82962 34.2473 7.02337 34.2471 7.22547C34.2473 7.42757 34.3277 7.62131 34.4707 7.76422C34.6136 7.90712 34.8073 7.98753 35.0094 7.9878C35.2115 7.98753 35.4052 7.90712 35.5482 7.76422C35.6911 7.62131 35.7715 7.42757 35.7717 7.22547C35.7715 7.02337 35.6911 6.82962 35.5482 6.68672C35.4052 6.54381 35.2115 6.4634 35.0094 6.46313Z" fill="black"></path>
    <path d="M25.2727 9.67713C24.8532 9.67857 24.5134 10.0183 24.512 10.4378C24.5103 10.8596 24.6399 11.0468 25.0617 11.0482H26.5944C27.0161 11.0468 27.1733 10.8503 27.1716 10.4286C27.1701 10.0091 26.8304 9.66941 26.4109 9.66797L25.2727 9.67713Z" fill="#5B6571"></path>
    <path d="M29.8836 9.70452C29.4618 9.70288 29.1187 10.0435 29.1172 10.4652C29.1155 10.8892 29.2302 11.0498 29.6542 11.0481H35.0074C35.4313 11.0498 35.7479 10.8618 35.7462 10.4377C35.7448 10.016 35.4016 9.67536 34.9799 9.67701L29.8836 9.70452Z" fill="#5B6571"></path>
    <path fill-rule="evenodd" clip-rule="evenodd" d="M33.0253 34.2329C32.6014 34.2313 32.2573 34.5754 32.2589 34.9993L31.9475 42.4124C31.9429 43.094 32.7659 43.4396 33.2492 42.959L41.0367 35.3123C41.0445 35.3037 41.052 35.2921 41.0592 35.2835C41.0881 35.2537 41.1145 35.2217 41.1381 35.1877C41.1546 35.1617 41.1698 35.1361 41.1832 35.109C41.1936 35.0888 41.2031 35.0679 41.2115 35.0469C41.2224 35.018 41.232 34.9909 41.2398 34.9624C41.2473 34.9326 41.253 34.9027 41.2568 34.8724C41.259 34.8608 41.2608 34.8492 41.2625 34.8386C41.2657 34.8155 41.2674 34.7898 41.2683 34.7653C41.2684 34.7595 41.2684 34.7538 41.2683 34.748C41.2666 34.7394 41.2646 34.7278 41.2625 34.7192C41.2608 34.6871 41.2571 34.6551 41.2513 34.6234C41.2464 34.5873 41.2389 34.5515 41.2288 34.5163C41.2269 34.5134 41.225 34.5077 41.223 34.5048C41.2074 34.4655 41.1885 34.4281 41.1667 34.392C41.1502 34.3588 41.1314 34.3268 41.1103 34.2962C41.1066 34.2933 41.1028 34.2875 41.0991 34.2847C41.0936 34.2789 41.0878 34.2731 41.082 34.2673C41.0714 34.2529 41.0598 34.2413 41.0482 34.2278C41.041 34.2191 41.0335 34.2134 41.0257 34.2047C41.0024 34.1845 40.978 34.1658 40.9525 34.1485C40.9187 34.1225 40.8829 34.1006 40.8454 34.081C40.8091 34.0637 40.7714 34.048 40.7327 34.0359C40.6923 34.0215 40.6508 34.0129 40.6088 34.0071C40.5734 34.0014 40.5376 33.9956 40.5017 33.9956L33.0253 34.2329Z" fill="#E5B32E"></path>
    <path d="M39.4879 6.55897C39.2756 6.92337 39.399 7.39088 39.7635 7.60301C40.1298 7.81644 40.5999 7.69049 40.8104 7.32251L42.4208 4.91866C42.6342 4.55236 42.5083 4.08232 42.1403 3.8718C41.7743 3.66219 41.3077 3.78906 41.0983 4.15513L39.4879 6.55897Z" fill="#2673A6"></path>
    <path d="M38.3668 8.34737C38.2659 8.52253 38.2387 8.73052 38.291 8.92574C38.3433 9.12095 38.4709 9.28746 38.6458 9.38874C38.821 9.48956 39.029 9.5168 39.2242 9.46449C39.4194 9.41218 39.5859 9.28459 39.6871 9.1097C39.788 8.93454 39.8152 8.72656 39.7629 8.53135C39.7106 8.33614 39.583 8.16963 39.4081 8.06834C39.233 7.96753 39.025 7.94029 38.8298 7.99259C38.6346 8.0449 38.468 8.17248 38.3668 8.34737Z" fill="#2673A6"></path>
    <path fill-rule="evenodd" clip-rule="evenodd" d="M42.027 3.16014C41.7089 3.00636 41.4369 3.03289 41.2205 3.20196C40.9905 1.64888 39.6519 0.43779 38.0388 0.43779H8.47244C6.70007 0.43779 5.24907 1.89476 5.24907 3.66711C5.24831 4.12215 5.24907 4.56466 5.24907 5.01941H3.89085C2.11848 5.01933 0.667475 6.47028 0.66748 8.24266V44.542C0.667475 46.3144 2.11848 47.7654 3.89085 47.7654H33.7509C35.3634 47.7654 36.6866 46.4422 36.6866 44.8298V39.6041L40.97 35.3967C41.1614 35.2054 41.2573 35.1192 41.2549 34.8587L41.2688 15.2977L42.788 12.6677C42.9067 12.5396 43.3757 12.0296 43.8675 11.3706C44.9694 9.73147 45.8495 8.03362 46.3707 6.41482C46.4526 6.15862 46.3938 5.87834 46.2156 5.67681C46.1578 5.60901 46.0931 5.53887 46.0352 5.47395L47.0192 3.76836C47.654 2.669 47.2379 1.26215 46.156 0.637435C44.7869 -0.00989506 43.5997 0.481347 42.9801 1.50813L42.027 3.16014ZM45.0983 1.86154C45.2004 1.87308 45.3008 1.90337 45.3935 1.95703C45.7958 2.18928 45.9214 2.62182 45.6992 3.00663L44.8777 4.43047C44.4524 4.11992 43.9949 3.85663 43.5135 3.64325L44.3052 2.27312C44.4718 1.98449 44.792 1.83033 45.0983 1.86154ZM38.0388 1.96425C38.9861 1.96425 39.7415 2.71962 39.7415 3.66689V4.9297C38.7353 6.47741 37.895 8.09894 37.4127 9.60522L33.4334 16.4858L33.3827 16.5395C32.7727 17.2046 32.5162 17.5107 32.3391 17.9007C32.1743 18.2634 32.1189 18.541 31.8515 19.2053L31.8308 19.2283C30.5635 20.6099 29.5562 22.1962 28.8385 23.9202C28.6958 24.2549 28.6881 24.5977 28.6477 24.9027L28.2049 28.6465C28.1211 29.3493 28.4945 29.9911 29.0293 30.2999C29.5642 30.6087 30.3114 30.615 30.8781 30.1911L33.8957 27.9308C34.2114 27.7618 34.4432 27.4788 34.6546 27.2794C35.7589 25.6554 36.7121 23.908 37.2236 22.319C37.6713 21.7464 37.8834 21.5628 38.1167 21.2367C38.4806 20.5876 38.6175 20.1332 38.7891 19.5921L39.7418 17.9432V34.0288H32.7315C32.3099 34.0271 31.9668 34.3675 31.9652 34.7891V41.6578H8.18494C7.39765 41.6578 6.77603 41.0362 6.77603 40.2489V36.8361C7.19816 36.7221 7.58418 36.7556 7.87035 36.8505C8.24972 36.9769 8.30421 37.2087 8.30421 37.0817C8.30574 37.5009 8.64533 37.8404 9.06459 37.842C9.48618 37.8437 9.82927 37.5033 9.83092 37.0817C9.83092 36.1911 9.12057 35.6581 8.35491 35.4029C7.77183 35.2217 7.30529 35.2381 6.77603 35.2956V32.2481C7.23252 32.1044 7.64658 32.101 7.91509 32.1737C8.26467 32.268 8.30421 32.3419 8.30421 32.5002C8.30498 32.92 8.64475 33.2604 9.06459 33.262C9.48676 33.2637 9.83009 32.9224 9.83092 32.5002C9.8309 31.6046 9.10414 30.9124 8.30869 30.6977C7.79343 30.5396 7.25423 30.6175 6.77603 30.6717V27.6735C7.23252 27.5281 7.64658 27.5206 7.91509 27.593C8.26467 27.6873 8.30421 27.7626 8.30421 27.921C8.30574 28.3402 8.64533 28.6797 9.06459 28.6813C9.48618 28.683 9.82927 28.3426 9.83092 27.921C9.8309 27.0254 9.10413 26.3317 8.30869 26.117C7.79336 25.9606 7.2541 26.0382 6.77603 26.091V23.0913C7.23251 22.9464 7.64658 22.9398 7.91509 23.0122C8.26467 23.1066 8.30421 23.1804 8.30421 23.3387C8.30269 23.7603 8.643 24.1034 9.06459 24.105C9.48851 24.1067 9.83257 23.7626 9.83092 23.3387C9.8309 22.4432 9.10413 21.7554 8.30869 21.5407C7.79371 21.3835 7.25417 21.4591 6.77603 21.511V18.5098C7.23252 18.365 7.64658 18.3583 7.91509 18.4307C8.26468 18.5251 8.30421 18.599 8.30421 18.7573C8.30269 19.1789 8.643 19.5219 9.06459 19.5236C9.48851 19.5252 9.83257 19.1812 9.83092 18.7573C9.8309 17.8617 9.10413 17.1739 8.30869 16.9592C7.79334 16.8028 7.25401 16.8804 6.77603 16.9332V13.929C7.23253 13.7857 7.64657 13.7819 7.91509 13.8546C8.26468 13.9489 8.30421 14.0228 8.30421 14.1811C8.30574 14.6004 8.64533 14.9398 9.06459 14.9415C9.48851 14.9432 9.83257 14.5991 9.83092 14.1752C9.8309 13.2796 9.10412 12.5933 8.30869 12.3786C7.79343 12.2205 7.25422 12.2984 6.77603 12.3526V9.34843C7.23251 9.20476 7.64657 9.20129 7.91509 9.27399C8.26468 9.36833 8.30421 9.44222 8.30421 9.60055C8.30498 10.0204 8.64475 10.3608 9.06459 10.3624C9.48676 10.3639 9.83009 10.0227 9.83092 9.60055C9.8309 8.70502 9.10412 8.01271 8.30869 7.79803C7.79343 7.63992 7.25423 7.71781 6.77603 7.77205V5.78168V4.77381C7.23251 4.6284 7.64657 4.62087 7.91509 4.69329C8.26469 4.78763 8.30421 4.86294 8.30421 5.02131C8.30574 5.44057 8.64533 5.78003 9.06459 5.78168C9.48618 5.78318 9.82927 5.44288 9.83092 5.02131C9.8309 4.12577 9.10412 3.43196 8.30869 3.21728C7.81891 3.06928 7.31272 3.13272 6.85505 3.18004C7.06223 2.47633 7.69678 1.96642 8.0846 1.96645L38.0388 1.96425ZM23.8558 3.66099L21.1229 5.84665C20.1608 4.42819 18.5359 3.49097 16.6994 3.49097C13.7573 3.49097 11.3574 5.89091 11.3574 8.83297C11.3574 11.775 13.7573 14.1749 16.6994 14.1749C19.6414 14.1749 22.0413 11.775 22.0413 8.83297C22.0413 8.28347 21.9581 7.75363 21.8028 7.25408L24.8085 4.84922C25.1356 4.58552 25.1883 4.10719 24.9262 3.77875C24.6907 3.50149 24.1858 3.42813 23.8558 3.66099ZM41.9048 4.7687C42.9819 5.03557 43.9537 5.59341 44.7211 6.39527C43.996 8.30936 43.1739 9.87669 41.9808 11.2467C41.0263 10.6966 40.0724 10.1456 39.1183 9.59479C39.7355 7.82235 40.6662 6.17975 41.9048 4.7687ZM16.6993 5.01911C18.0667 5.01911 19.2511 5.73305 19.9242 6.80521L16.8738 9.24436L15.8093 7.65055C15.5763 7.29784 15.1011 7.20156 14.7492 7.43589C14.397 7.6693 14.3014 8.14451 14.536 8.49597L16.0627 10.783C16.3104 11.1552 16.8235 11.2358 17.1734 10.9576L20.4758 8.31565C20.4986 8.48558 20.5146 8.65659 20.5146 8.83301C20.5146 10.95 18.8163 12.6542 16.6993 12.6542C14.5823 12.6542 12.8841 10.95 12.8841 8.83301C12.8841 6.71604 14.5823 5.01911 16.6993 5.01911ZM3.89085 6.54579H5.24907C5.24831 17.752 5.24896 29.5496 5.24907 40.248C5.24907 41.8604 6.5723 43.1836 8.18469 43.1836H32.6522C32.9674 43.1894 33.0694 43.1467 33.2665 42.9644L35.1599 41.1037V44.8295C35.1599 45.6168 34.5383 46.2384 33.751 46.2384H3.89088C2.94361 46.2384 2.19571 45.489 2.19571 44.5417V8.24235C2.19571 7.29509 2.94357 6.54579 3.89085 6.54579ZM25.0962 9.59919C24.6757 9.59994 24.3351 9.94064 24.3343 10.3611C24.3328 10.7832 24.674 11.1266 25.0962 11.1274H26.6229C27.0445 11.1259 27.3849 10.7827 27.3832 10.3611C27.3825 9.94121 27.0427 9.60081 26.6229 9.59919H25.0962ZM29.6763 9.59919C29.2541 9.59766 28.9108 9.93888 28.9099 10.3611C28.9084 10.785 29.2524 11.1291 29.6763 11.1274H35.0182C35.4422 11.1289 35.7862 10.785 35.7846 10.3611C35.7838 9.93888 35.4404 9.59752 35.0182 9.59919H29.6763ZM38.3981 10.944C39.3026 11.4664 40.2071 11.9887 41.1116 12.511L37.9375 18.0065C37.1557 17.2962 36.2313 16.762 35.2255 16.4395L38.3981 10.944ZM12.1177 17.2297C11.6961 17.2314 11.3557 17.5744 11.3574 17.996C11.3589 18.4153 11.6985 18.7548 12.1177 18.7564H29.6763C30.0961 18.7556 30.4365 18.4159 30.4381 17.996C30.4397 17.5739 30.0984 17.2305 29.6763 17.2297H12.1177ZM34.31 17.8216C35.4188 18.0859 36.4178 18.6633 37.2009 19.4914C37.0674 19.8883 36.9447 20.2455 36.8729 20.3457C36.8181 20.4225 36.6833 20.5702 36.4942 20.79C35.6543 19.9963 34.6392 19.4104 33.5318 19.08C33.6278 18.8062 33.6897 18.6155 33.7286 18.5298C33.7795 18.4175 34.0329 18.1359 34.31 17.8216ZM12.1177 20.2831C11.6961 20.2848 11.3557 20.6278 11.3574 21.0494C11.3581 21.4693 11.6979 21.8096 12.1177 21.8113H13.6459C14.0658 21.8096 14.4055 21.4693 14.4063 21.0494C14.4078 20.6278 14.0675 20.2848 13.6459 20.2831H12.1177ZM16.6993 20.2831C16.2754 20.2815 15.9313 20.6255 15.933 21.0494C15.9338 21.4716 16.2772 21.8129 16.6993 21.8113H18.226C18.6464 21.8104 18.9871 21.4698 18.9879 21.0494C18.9894 20.6272 18.6482 20.2839 18.226 20.2831H16.6993ZM21.2809 20.2831C20.857 20.2815 20.5129 20.6255 20.5146 21.0494C20.5154 21.4716 20.8588 21.8129 21.2809 21.8113H25.8565C26.2787 21.8129 26.622 21.4716 26.6229 21.0494C26.6244 20.6255 26.2805 20.2815 25.8565 20.2831H21.2809ZM32.7878 20.526C33.8698 20.7906 34.8437 21.3548 35.6146 22.1586C35.1046 23.6617 34.3992 25.0937 33.4379 26.3511C33.2463 26.6015 32.5743 26.7474 32.2794 26.594C31.7089 26.2985 31.1538 25.9787 30.6126 25.6324C30.3322 25.4535 30.1231 24.7979 30.2443 24.5067C30.8526 23.0455 31.7413 21.7192 32.7878 20.526ZM12.1177 23.3379C11.6961 23.3396 11.3557 23.6827 11.3574 24.1043C11.3589 24.5235 11.6985 24.863 12.1177 24.8646H18.1425C18.5641 24.8663 18.9072 24.5259 18.9089 24.1043C18.9104 23.6803 18.5665 23.3362 18.1425 23.3379H12.1177ZM21.2809 23.3379C20.857 23.3362 20.5129 23.6803 20.5146 24.1043C20.5161 24.5259 20.8593 24.8663 21.2809 24.8646H25.0962C25.5154 24.863 25.8549 24.5235 25.8565 24.1043C25.8581 23.6827 25.5178 23.3395 25.0962 23.3379H21.2809ZM12.1177 26.3916C11.6979 26.3932 11.3582 26.7336 11.3574 27.1535C11.3558 27.575 11.6961 27.9182 12.1177 27.9198H24.3343C24.7565 27.919 25.0978 27.5757 25.0962 27.1535C25.0954 26.7331 24.7547 26.3924 24.3343 26.3916H12.1177ZM29.9372 27.0059C30.4256 27.3125 30.9229 27.5994 31.4326 27.8691L29.964 28.9679C29.8853 29.0268 29.8515 29.0089 29.7941 28.9766C29.7366 28.9434 29.7094 28.9249 29.721 28.8274L29.9372 27.0059ZM12.1162 29.4436C11.6947 29.4452 11.3542 29.7883 11.3559 30.2098C11.3574 30.6291 11.697 30.9686 12.1162 30.9702H13.6429C14.0645 30.9719 14.4076 30.6314 14.4093 30.2098C14.4108 29.7859 14.0669 29.4419 13.6429 29.4436H12.1162ZM16.6978 29.4436C16.2757 29.4444 15.9343 29.7877 15.936 30.2098C15.9375 30.6297 16.278 30.9694 16.6978 30.9702H18.2245C18.6461 30.9719 18.9892 30.6314 18.9909 30.2098C18.9924 29.7859 18.6485 29.4419 18.2245 29.4436H16.6978ZM21.2779 29.4436C20.8563 29.4452 20.5159 29.7883 20.5176 30.2098C20.5191 30.6291 20.8587 30.9686 21.2779 30.9702H25.8595C26.2788 30.9686 26.6183 30.6291 26.6199 30.2098C26.6214 29.7883 26.2811 29.4452 25.8595 29.4436H21.2779ZM12.1162 32.4984C11.6947 32.5001 11.3542 32.8432 11.3559 33.2648C11.3574 33.684 11.697 34.0235 12.1162 34.0251H18.1455C18.5648 34.0236 18.9043 33.684 18.9059 33.2648C18.9074 32.8432 18.5671 32.5001 18.1455 32.4984H12.1162ZM21.2779 32.4984C20.8563 32.5001 20.5159 32.8432 20.5176 33.2648C20.5191 33.684 20.8587 34.0235 21.2779 34.0251H28.9144C29.3337 34.0236 29.6732 33.684 29.6748 33.2648C29.6763 32.8432 29.336 32.5001 28.9144 32.4984H21.2779ZM12.1162 35.5518C11.6947 35.5535 11.3542 35.8965 11.3559 36.3181C11.3574 36.7374 11.697 37.0769 12.1162 37.0785H24.3328C24.7521 37.0769 25.0916 36.7374 25.0932 36.3181C25.0947 35.8965 24.7544 35.5534 24.3328 35.5518H12.1162ZM27.3862 35.5518C26.9623 35.5501 26.6182 35.8942 26.6199 36.3181C26.6214 36.7397 26.9646 37.0801 27.3862 37.0785H28.9144C29.3337 37.0769 29.6732 36.7374 29.6748 36.3181C29.6763 35.8965 29.336 35.5534 28.9144 35.5518H27.3862ZM33.4915 35.5547H38.6367L35.3969 38.7348L33.4915 40.603V35.5547Z" fill="black"></path>
  </symbol>
  <symbol fill="none" xmlns="http://www.w3.org/2000/svg" viewBox="0 0 26 22" id="www">
    <path d="M24.4748 0H6.23779C5.14883 0 4.2763 0.714627 4.25122 1.63765V5.20772C4.25122 5.43869 4.45152 5.62563 4.69898 5.62563C4.94644 5.62563 5.14674 5.43869 5.14674 5.20772V1.64824C5.15898 1.20024 5.64853 0.835821 6.23779 0.835821H24.4748C25.0772 0.835821 25.567 1.20776 25.567 1.66523V15.3019C25.567 15.7597 25.0769 16.1319 24.4748 16.1319H6.23779C5.6363 16.1319 5.14674 15.7597 5.14674 15.3019V13.3497C5.14674 13.119 4.94644 12.9318 4.69898 12.9318C4.45152 12.9318 4.25122 13.119 4.25122 13.3497V15.3019C4.25122 16.2205 5.14227 16.9677 6.23779 16.9677H14.8402V20.5715H9.15629C8.90883 20.5715 8.70853 20.7587 8.70853 20.9894C8.70853 21.2201 8.90883 21.4073 9.15629 21.4073H21.3694C21.6166 21.4073 21.8172 21.2201 21.8172 20.9894C21.8172 20.7587 21.6166 20.5715 21.3694 20.5715H15.7357V16.9674H24.4748C25.5709 16.9674 26.4626 16.2202 26.4626 15.3017V1.66523C26.4626 0.746945 25.5709 0 24.4748 0Z" fill="#4C4C4C"></path>
    <path d="M12.3743 6.81873H21.9716C22.2188 6.81873 22.4194 6.63179 22.4194 6.40082C22.4194 6.16986 22.2188 5.98291 21.9716 5.98291H12.3743C12.1268 5.98291 11.9265 6.16986 11.9265 6.40082C11.9265 6.63179 12.1268 6.81873 12.3743 6.81873Z" fill="#4C4C4C"></path>
    <path d="M12.3743 9.46522H21.9716C22.2188 9.46522 22.4194 9.27827 22.4194 9.04731C22.4194 8.81634 22.2188 8.62939 21.9716 8.62939H12.3743C12.1268 8.62939 11.9265 8.81634 11.9265 9.04731C11.9265 9.27827 12.1268 9.46522 12.3743 9.46522Z" fill="#4C4C4C"></path>
    <path d="M12.3743 12.2582H21.9716C22.2188 12.2582 22.4194 12.071 22.4194 11.8403C22.4194 11.6096 22.2188 11.4224 21.9716 11.4224H12.3743C12.1268 11.4224 11.9265 11.6096 11.9265 11.8403C11.9265 12.071 12.1268 12.2582 12.3743 12.2582Z" fill="#4C4C4C"></path>
    <path d="M4.60774 10.3483C4.72327 10.3483 4.83789 10.3068 4.92446 10.226L11.3937 4.18774C11.5686 4.02447 11.5686 3.7598 11.3937 3.59681C11.2188 3.43355 10.9355 3.43355 10.7606 3.59681L4.55909 9.38515L0.707444 6.82587C0.505653 6.69214 0.226549 6.73616 0.0829666 6.92394C-0.060317 7.112 -0.0134513 7.37305 0.18834 7.50678L4.34864 10.2708C4.42655 10.3229 4.51759 10.3483 4.60774 10.3483Z" fill="#4C4C4C"></path>
  </symbol>
  <symbol fill="none" xmlns="http://www.w3.org/2000/svg" viewBox="0 0 35 35" id="add">
    <path d="M17.168 0.710938L17.168 34.8906M34.2578 17.8008L0.078125 17.8008" stroke-width="4.10156"></path>
  </symbol>
  <symbol  xmlns="http://www.w3.org/2000/svg" viewBox="0 0 27 29" id="addhome">
    <path d="M2.25 13.92V29H24.75V13.92H27L13.5 0L0 13.92H2.25Z" ></path>
  </symbol>
  <symbol xmlns="http://www.w3.org/2000/svg" viewBox="0 0 13 16" id="ApplePay">
    <path d="M4.23598 15.5766C1.91767 15.5632 0 10.8307 0 8.42061C0 4.48367 2.95338 3.62177 4.09159 3.62177C4.60453 3.62177 5.15225 3.8232 5.63535 4.00145C5.97317 4.12579 6.32256 4.25415 6.51687 4.25415C6.63318 4.25415 6.90727 4.14496 7.14926 4.04916C7.66534 3.84371 8.30752 3.58836 9.05533 3.58836H9.05978C9.61817 3.58836 11.3112 3.71091 12.3291 5.23951L12.5676 5.59781L12.2244 5.85675C11.7342 6.22664 10.8397 6.90138 10.8397 8.23792C10.8397 9.82089 11.8527 10.4297 12.3394 10.7225C12.5542 10.8517 12.7766 10.985 12.7766 11.2764C12.7766 11.4667 11.2578 15.553 9.0522 15.553C8.51251 15.553 8.13103 15.3907 7.79455 15.2477C7.45407 15.1028 7.16036 14.9781 6.67505 14.9781C6.42904 14.9781 6.11796 15.0944 5.78862 15.2178C5.33856 15.3858 4.82915 15.5766 4.25113 15.5766H4.23598Z" ></path>
    <path d="M9.2887 0C9.34614 2.07112 7.86496 3.50797 6.38551 3.41786C6.14173 1.76503 7.86478 0 9.2887 0Z" ></path>
  </symbol>
  <symbol xmlns="http://www.w3.org/2000/svg" viewBox="0 0 16 16" id="Bitcoin">
    <path d="M8.25587 5.35457H6.72363C6.63963 5.35457 6.57151 5.42269 6.57151 5.50669V7.14956C6.57151 7.23356 6.63963 7.30168 6.72363 7.30168H8.27525C8.80645 7.30168 9.23965 6.87405 9.24866 6.34498C9.25797 5.80033 8.80058 5.35457 8.25587 5.35457Z" ></path>
    <path d="M8.25587 8.27524H6.72363C6.63963 8.27524 6.57151 8.34336 6.57151 8.42736V10.0702C6.57151 10.1542 6.63963 10.2224 6.72363 10.2224H8.27525C8.80645 10.2224 9.23965 9.79472 9.24866 9.26565C9.25797 8.72101 8.80058 8.27524 8.25587 8.27524Z" ></path>
    <path d="M13.2958 2.28117C11.8247 0.810122 9.86883 0 7.78846 0C5.70809 0 3.75221 0.810122 2.28117 2.28117C0.810122 3.75221 0 5.70809 0 7.78846C0 9.86883 0.810152 11.8247 2.28117 13.2958C3.75218 14.7668 5.70809 15.5769 7.78846 15.5769C9.86883 15.5769 11.8247 14.7668 13.2958 13.2958C14.7668 11.8247 15.5769 9.86883 15.5769 7.78846C15.5769 5.70809 14.7668 3.75224 13.2958 2.28117ZM10.2224 9.2488C10.2224 10.0303 9.7594 10.7053 9.09352 11.015C9.03985 11.0399 9.00541 11.0935 9.00541 11.1527V11.6689C9.00541 11.9311 8.80397 12.1566 8.54215 12.1689C8.26258 12.1821 8.03185 11.9593 8.03185 11.6827V11.348C8.03185 11.264 7.96373 11.1959 7.87973 11.1959H7.21041C7.12641 11.1959 7.05829 11.264 7.05829 11.348V11.6689C7.05829 11.9311 6.85686 12.1566 6.59503 12.1689C6.31547 12.1821 6.08474 11.9593 6.08474 11.6827V11.348C6.08474 11.264 6.01662 11.1959 5.93262 11.1959H5.12493C4.86283 11.1959 4.6373 10.9945 4.62495 10.7327C4.61177 10.4531 4.83451 10.2224 5.11118 10.2224H5.44584C5.52984 10.2224 5.59796 10.1542 5.59796 10.0702V5.50669C5.59796 5.42269 5.52984 5.35457 5.44584 5.35457H5.12493C4.86283 5.35457 4.6373 5.15313 4.62495 4.89134C4.61177 4.6118 4.83451 4.38101 5.11118 4.38101H5.93262C6.01662 4.38101 6.08474 4.31289 6.08474 4.22889V3.90798C6.08474 3.64585 6.28617 3.42032 6.548 3.408C6.82756 3.39486 7.05829 3.61759 7.05829 3.89423V4.22889C7.05829 4.31289 7.12641 4.38101 7.21041 4.38101H7.87973C7.96373 4.38101 8.03185 4.31289 8.03185 4.22889V3.90798C8.03185 3.64585 8.23329 3.42032 8.49511 3.408C8.77468 3.39486 9.00541 3.61759 9.00541 3.89423V4.42424C9.00541 4.48342 9.03985 4.53699 9.09352 4.56194C9.7594 4.87165 10.2224 5.54666 10.2224 6.32812C10.2224 6.85397 10.0126 7.33153 9.67254 7.68216C9.61492 7.74158 9.61492 7.83531 9.67254 7.89473C10.0126 8.2454 10.2224 8.72295 10.2224 9.2488Z" ></path>
  </symbol>
</svg>
