<svg width="23" height="22" viewBox="0 0 23 22" fill="none" xmlns="http://www.w3.org/2000/svg">
<path d="M2.39581 9.56519C1.07525 9.56519 0 10.6384 0 11.9565V19.6087C0 20.9268 1.07525 22 2.39581 22H5.27081C5.81036 22 6.30675 21.8183 6.7083 21.516V9.56519H2.39581Z" fill="#6AFF79"/>
<path d="M23 13.1522C23 12.5773 22.7719 12.0417 22.3761 11.6466C22.8237 11.1578 23.0518 10.5026 22.9894 9.82063C22.8773 8.60487 21.78 7.65217 20.4901 7.65217H14.5705C14.8638 6.76354 15.3333 5.13461 15.3333 3.82608C15.3333 1.75138 13.5671 0 12.4583 0C11.4627 0 10.7515 0.559567 10.7209 0.582524C10.6078 0.673409 10.5417 0.811148 10.5417 0.95651V4.20007L7.78172 10.1678L7.66672 10.2262V20.4782C8.44678 20.8455 9.43385 21.0435 10.0625 21.0435H18.8591C19.9027 21.0435 20.816 20.3414 21.0306 19.3725C21.1408 18.8741 21.0766 18.372 20.8572 17.9358C21.5654 17.58 22.0417 16.852 22.0417 16.0218C22.0417 15.6832 21.9641 15.3589 21.8165 15.0653C22.5247 14.7094 23 13.9815 23 13.1522Z" fill="#6AFF79"/>
</svg>
