<svg width="23" height="24" viewBox="0 0 23 24" fill="none" xmlns="http://www.w3.org/2000/svg">
<path d="M2.39581 13.1551C1.07525 13.1551 0 12.0331 0 10.6551V2.65502C0 1.27703 1.07525 0.155029 2.39581 0.155029H5.27081C5.81036 0.155029 6.30675 0.345015 6.7083 0.661047V13.1551H2.39581Z" fill="#FF6A6A"/>
<path d="M23 9.405C23 10.006 22.7719 10.566 22.3761 10.979C22.8237 11.49 23.0518 12.175 22.9894 12.888C22.8773 14.159 21.78 15.155 20.4901 15.155H14.5705C14.8638 16.0841 15.3333 17.787 15.3333 19.155C15.3333 21.324 13.5671 23.155 12.4583 23.155C11.4627 23.155 10.7515 22.57 10.7209 22.546C10.6078 22.451 10.5417 22.307 10.5417 22.155V18.764L7.78172 12.525L7.66672 12.464V1.74597C8.44678 1.36197 9.43385 1.15497 10.0625 1.15497H18.8591C19.9027 1.15497 20.816 1.88899 21.0306 2.90196C21.1408 3.42298 21.0766 3.94798 20.8572 4.40398C21.5654 4.77598 22.0417 5.537 22.0417 6.40499C22.0417 6.75899 21.9641 7.09799 21.8165 7.40498C22.5247 7.77698 23 8.538 23 9.405Z" fill="#FF6A6A"/>
</svg>
