<svg xmlns="http://www.w3.org/2000/svg" aria-hidden="true" overflow="hidden" style="position:absolute;width:0;height:0">
  <defs>
    <symbol id="thumb-up" viewBox="0 0 33 32">
      <path fill="currentColor" d="M3.48 13.91A3.49 3.49 0 0 0 0 17.4v11.13A3.49 3.49 0 0 0 3.48 32h4.19c.78 0 1.5-.26 2.09-.7V13.9H3.48zm29.97 5.22a3.1 3.1 0 0 0-.9-2.19c.65-.71.98-1.66.89-2.66a3.6 3.6 0 0 0-3.63-3.15H21.2c.42-1.3 1.1-3.66 1.1-5.57C22.3 2.55 19.75 0 18.13 0c-1.44 0-2.48.81-2.52.85a.7.7 0 0 0-.26.54v4.72l-4.02 8.68-.17.08V29.8c1.14.53 2.57.82 3.49.82h12.8a3.2 3.2 0 0 0 3.15-2.43c.16-.73.07-1.46-.25-2.1a3.12 3.12 0 0 0 1.4-4.17 3.11 3.11 0 0 0 1.72-2.78z"/>
    </symbol>
    <symbol id="close-black" viewBox="0 0 32 32">
      <path fill="currentColor" d="M15.2 0a15.8 15.8 0 1 0 16.4 15.79v-.2.01A16 16 0 0 0 15.18 0h.02zm8 20.8a1.8 1.8 0 0 1 0 2.6 1.99 1.99 0 0 1-2.6 0l-5.4-5-5.2 5a2 2 0 0 1-2.8 0 1.8 1.8 0 0 1 0-2.6l5.4-5.2-5.4-5a1.8 1.8 0 0 1 0-2.6A2 2 0 0 1 10 8l5.4 5 5.2-5a2 2 0 0 1 3.2.59v.01a1.8 1.8 0 0 1-.6 2l-5.2 5 5.2 5.2z"/>
    </symbol>
    <symbol id="envelope" viewBox="0 0 47 32">
      <path fill="currentColor" d="M42.342 0h-37.751c-2.534 0.004-4.587 2.057-4.591 4.591v22.447c0 2.532 2.063 4.591 4.591 4.591h37.751c2.534-0.004 4.587-2.057 4.591-4.591v-22.447c-0.004-2.534-2.057-4.587-4.591-4.591h-0zM42.219 3.061l-17.67 17.668c-0.277 0.277-0.659 0.448-1.082 0.448s-0.805-0.171-1.082-0.448l-17.67-17.668h37.504zM3.061 26.912v-21.175l10.588 10.59-10.588 10.59zM5.734 28.567l10.080-10.078 4.405 4.405c1.792 1.79 4.704 1.79 6.494 0l4.405-4.405 10.078 10.078h-35.462zM43.872 26.914l-10.59-10.59 10.59-10.59v21.18z"></path>
    </symbol>
    <symbol id="gear" viewBox="0 0 32 32">
      <path fill="currentColor" d="M16 0c-.69 0-1.23.55-1.23 1.23v.23c0 .57-.41 1.1-.99 1.2l-.84.15a1.2 1.2 0 0 1-1.37-.72l-.1-.21a1.24 1.24 0 0 0-2.38.48c0 .17.04.33.1.48l.09.18a1.2 1.2 0 0 1-.46 1.5l-.68.46a1.2 1.2 0 0 1-1.56-.13l-.16-.16a1.23 1.23 0 1 0-1.74 1.73l.16.16c.42.41.48 1.08.14 1.56l-.46.68a1.21 1.21 0 0 1-1.51.46l-.18-.07a1.24 1.24 0 0 0-.95 2.28h.02l.18.08c.52.23.87.8.73 1.37l-.16.84c-.11.57-.6.99-1.19.99h-.25a1.23 1.23 0 0 0 0 2.47h.23c.6 0 1.12.4 1.2.98l.17.84a1.2 1.2 0 0 1-.73 1.38l-.2.09a1.24 1.24 0 0 0 .47 2.38c.17 0 .34-.04.49-.1l.17-.09a1.22 1.22 0 0 1 1.51.46l.46.68c.34.48.27 1.15-.14 1.56l-.16.16a1.23 1.23 0 1 0 1.74 1.74l.16-.14a1.2 1.2 0 0 1 1.56-.16l.68.46c.53.32.69.96.46 1.5l-.07.19c-.25.64.04 1.37.68 1.6.62.27 1.33 0 1.6-.64l.07-.2c.23-.53.8-.88 1.37-.74l.85.16c.57.1.98.62.98 1.21v.23a1.23 1.23 0 0 0 2.47 0v-.23c0-.6.41-1.12.98-1.2l.85-.17c.57-.14 1.14.2 1.37.73l.1.2a1.24 1.24 0 0 0 2.38-.47c0-.18-.04-.34-.1-.49l-.1-.18a1.21 1.21 0 0 1 .45-1.5h.02l.68-.46a1.21 1.21 0 0 1 1.56.14l.16.16a1.23 1.23 0 1 0 1.73-1.74l-.13-.16a1.2 1.2 0 0 1-.16-1.56l.45-.68a1.2 1.2 0 0 1 1.51-.46l.18.07c.64.25 1.38-.04 1.6-.68a1.24 1.24 0 0 0-.63-1.6l-.21-.07a1.21 1.21 0 0 1-.73-1.38l.16-.84c.1-.56.6-.98 1.19-.98h.25a1.23 1.23 0 0 0 0-2.47h-.25c-.59 0-1.08-.42-1.19-.98a13.4 13.4 0 0 0-.18-.94l.02.09a1.2 1.2 0 0 1 .72-1.37h.01l.2-.1a1.24 1.24 0 0 0-.47-2.37c-.18 0-.34.03-.5.1h.02l-.19.08a1.21 1.21 0 0 1-1.5-.45l-.46-.7a1.2 1.2 0 0 1 .13-1.55l.16-.16a1.23 1.23 0 1 0-1.73-1.73l-.16.16a1.2 1.2 0 0 1-1.56.13l-.68-.45A1.21 1.21 0 0 1 22.72 3v.01l.07-.18c.06-.14.1-.3.1-.47a1.24 1.24 0 0 0-2.38-.48l-.05.17a1.21 1.21 0 0 1-1.38.73c-.19-.05-.47-.1-.76-.15l-.08-.01c-.56-.11-.98-.6-.98-1.19v-.25A1.28 1.28 0 0 0 16 0zm0 6.17a9.83 9.83 0 0 1 9.76 8.6h-7.63A2.47 2.47 0 0 0 16 13.53L12.18 6.9a9.66 9.66 0 0 1 3.72-.73h.1zm-5.94 1.99 3.81 6.63a2.44 2.44 0 0 0 .01 2.46v-.02l-3.82 6.61a9.83 9.83 0 0 1-.03-15.66l.03-.02zm8.07 9.07h7.63a9.84 9.84 0 0 1-13.64 7.82l.06.02L16 18.44c.9 0 1.69-.48 2.12-1.2z"/>
    </symbol>
    <symbol id="eye-triangle" fill="currentColor" viewBox="0 0 32 32">
      <path d="M24.96 17.67 16 2.08 7.04 17.67a15.06 15.06 0 0 1 8.92-3.54H16c3.63 0 6.86 1.92 8.96 3.54z"/>
      <path d="M16.05 24.46h.04a4.11 4.11 0 0 0 3.06-6.86 3.13 3.13 0 0 1-6.23.01v-.01a4.11 4.11 0 0 0 3.1 6.81z"/>
      <path d="m32 29.92-5.05-8.8c-1.4 1.4-5.78 5.3-10.97 5.3-5.17 0-9.53-3.88-10.93-5.3L0 29.94h32z"/>
      <path d="M6.86 20.27c.84.76 2.21 1.9 3.88 2.8a5.87 5.87 0 0 1 .09-5.66l-.02.03a20.2 20.2 0 0 0-3.93 2.83zm7.9-2.78a1.28 1.28 0 1 0 2.57 0 1.28 1.28 0 1 0-2.56 0zm10.38 2.78a19.95 19.95 0 0 0-3.74-2.69l-.1-.05a5.87 5.87 0 0 1 .06 5.52l.01-.03a19.92 19.92 0 0 0 3.75-2.75z"/>
    </symbol>
    <symbol id="star" viewBox="0 0 32 32">
      <path fill="currentColor" d="m16 1.14 3.59 11.07h11.63l-9.41 6.83 3.58 11.04L16 23.25 6.6 30.1l3.6-11.06-9.42-6.86H12.4L16 1.14z"/>
    </symbol>
    <symbol id="slidersH" viewBox="0 0 32 32">
      <path fill="currentColor" d="M30.58 25.67h-3.56a4.96 4.96 0 0 0-1.66-2.6h-.01a4.41 4.41 0 0 0-5.61 0 4.98 4.98 0 0 0-1.64 2.6H1.35c-.35 0-.69.14-.92.39a1.43 1.43 0 0 0-.02 1.96c.24.25.57.4.94.41H18.1A4.76 4.76 0 0 0 19.77 31a4.43 4.43 0 0 0 5.59 0h-.01a5.04 5.04 0 0 0 1.67-2.55h3.56c.35 0 .69-.16.92-.42a1.4 1.4 0 0 0-.01-1.96 1.3 1.3 0 0 0-.9-.4zm-7.95 3.43c-.4-.01-.78-.15-1.08-.37-.3-.24-.54-.55-.68-.92v-.01a2.19 2.19 0 0 1 .46-2.24 1.81 1.81 0 0 1 2.14-.4l-.02-.02c.34.16.64.41.85.76a2.15 2.15 0 0 1-.28 2.63c-.35.35-.83.57-1.37.57h-.02zM1.49 6.35h16.73a5.04 5.04 0 0 0 1.67 2.59 4.43 4.43 0 0 0 5.58-.01 4.98 4.98 0 0 0 1.66-2.58h3.57c.34 0 .68-.16.91-.4.24-.26.4-.6.4-.97v-.02c0-.38-.16-.73-.4-.98a1.22 1.22 0 0 0-.91-.41h-3.57A4.98 4.98 0 0 0 25.47 1a4.43 4.43 0 0 0-5.6 0h.02a5.04 5.04 0 0 0-1.67 2.56H1.49c-.35 0-.69.16-.92.4a1.49 1.49 0 0 0-.02 1.97c.25.25.6.41.91.41zM22.63 2.9c.37 0 .75.14 1.07.37a2.12 2.12 0 0 1 .83 1.68c0 .58-.23 1.1-.6 1.5a1.82 1.82 0 0 1-2.11.42v.01a1.99 1.99 0 0 1-.85-.77h-.01a2.2 2.2 0 0 1-.32-1.14v-.01c.02-.55.23-1.05.62-1.42.34-.36.83-.59 1.37-.6V2.9zm7.95 11.7H13.81a4.98 4.98 0 0 0-1.64-2.57 4.43 4.43 0 0 0-5.62 0h.01A5.1 5.1 0 0 0 4.9 14.6H1.33c-.37 0-.69.15-.92.38a1.41 1.41 0 0 0 0 1.97c.23.25.57.39.92.39h3.56a4.88 4.88 0 0 0 1.67 2.6 4.4 4.4 0 0 0 5.61 0 4.98 4.98 0 0 0 1.64-2.6H30.6c.36 0 .67-.15.9-.39.24-.25.39-.58.39-.96v-.02c0-.37-.16-.69-.41-.94a1.28 1.28 0 0 0-.91-.39v-.02zM9.42 18.04c-.4 0-.78-.14-1.08-.37-.3-.23-.54-.55-.68-.91v-.02a2.19 2.19 0 0 1 .46-2.24c.25-.28.58-.49.97-.57a1.8 1.8 0 0 1 1.14.14h-.01a1.99 1.99 0 0 1 1.17 1.92V16c0 .57-.22 1.09-.58 1.48-.35.36-.84.59-1.39.59v-.02z"/>
    </symbol>
    <symbol id="karma" fill="currentColor" viewBox="0 0 32 32">
      <path d="M16 9.14v7c0 .27.1.52.3.7l5 5.01 1.4-1.42-4.71-4.7V9.14h-2z"/>
      <path d="M18.01 1.14A14.02 14.02 0 0 0 4.17 13.07l-.01.07H0l5 5 5.01-5H6.17a12 12 0 1 1 2.38 9.4l-.02-.03-1.56 1.24a14 14 0 1 0 11.07-22.6H18z"/>
    </symbol>
    <symbol id="exit" fill="currentColor" viewBox="0 0 25 32">
      <path d="M15.95 29.26H3.98c-.74 0-1.33-.6-1.33-1.33V4c0-.73.6-1.33 1.33-1.33h11.97a1.33 1.33 0 0 0 0-2.65h-12A3.95 3.95 0 0 0 0 3.98V27.9a3.98 3.98 0 0 0 3.98 3.97h11.97a1.33 1.33 0 0 0 0-2.65z"/>
      <path d="m24.85 15.25-6.06-5.88a1 1 0 0 0-1.4 0 .96.96 0 0 0 0 1.4l4.35 4.2H10.13a1 1 0 0 0-1 .98 1 1 0 0 0 1 .99h11.59l-4.32 4.18a.96.96 0 0 0 0 1.37 1 1 0 0 0 1.4.02l6.05-5.87a.98.98 0 0 0 0-1.37z"/>
    </symbol>
    <symbol id="arrow-up-chevron" viewBox="0 0 43 32">
      <path fill="currentColor" d="m22.5 4.96 19.7 19.73a1.65 1.65 0 0 1-1.2 2.83c-.45 0-.87-.18-1.17-.48L21.34 8.48 2.82 27.04a1.65 1.65 0 0 1-2.84-1.17c0-.46.2-.88.5-1.18L20.15 4.96a1.65 1.65 0 0 1 2.35 0z"/>
    </symbol>
    <symbol id="house-small-grey" viewBox="0 0 13 14">
      <path fill="currentColor" d="M1.08333 6.72V14H11.9167V6.72H13L6.5 0L0 6.72H1.08333Z" />
    </symbol>
    <symbol id="simple-house-with-door" viewBox="0 0 22 22">
      <path fill="#787878" d="M21.4 9.57 12.44.59a2.01 2.01 0 0 0-2.86 0L.6 9.56l-.01.01a2.03 2.03 0 0 0 1.4 3.46h.37v6.6c0 1.3 1.06 2.37 2.37 2.37h3.5c.36 0 .65-.29.65-.64v-5.18c0-.6.49-1.08 1.08-1.08h2.07c.6 0 1.09.48 1.09 1.08v5.18c0 .35.28.64.64.64h3.51c1.3 0 2.37-1.06 2.37-2.37v-6.6h.33a2.03 2.03 0 0 0 1.43-3.46Zm-.9 1.95a.73.73 0 0 1-.53.22H19a.64.64 0 0 0-.65.64v7.25c0 .6-.48 1.08-1.08 1.08H14.4v-4.53c0-1.3-1.06-2.37-2.37-2.37H9.96a2.37 2.37 0 0 0-2.37 2.37v4.53H4.73c-.6 0-1.09-.48-1.09-1.08v-7.25a.64.64 0 0 0-.64-.64h-.99a.74.74 0 0 1-.5-1.26l8.97-8.98a.73.73 0 0 1 1.04 0l8.97 8.98c.3.29.3.75 0 1.04Z"/>
    </symbol>
    <symbol id="friends" viewBox="0 0 22 22">
      <path fill="#4C4C4C" d="M17.37 13.55c-.43-.9-1.98-2.15-3.47-3.35-.83-.68-1.62-1.31-2.12-1.81a.46.46 0 0 0-.48-.11l-.65.26c-.23.1-.3.14-.61.17a.46.46 0 0 0-.34.2c-.65.97-1.32.89-1.77.74-.14-.05-.16-.11-.18-.17-.1-.4.39-1.34 1.02-1.96 1.49-1.5 2.25-1.87 3.88-1.14 1.84.82 3.68 1.46 3.7 1.47a.46.46 0 1 0 .3-.87c-.02 0-1.83-.63-3.63-1.44-2.1-.94-3.25-.32-4.9 1.33-.63.62-1.48 1.9-1.26 2.82.1.4.37.7.79.83 1.04.34 1.98.01 2.69-.92.3-.05.45-.11.69-.22.08-.04.18-.09.32-.14a31 31 0 0 0 1.98 1.67c1.34 1.09 2.87 2.32 3.22 3.04a.54.54 0 0 1-.14.69c-.18.15-.43.2-.57.1a.46.46 0 0 0-.71.43c.03.3-.24.46-.35.52-.3.15-.6.12-.72.02a.46.46 0 0 0-.77.3.87.87 0 0 1-.54.7c-.14.04-.34.08-.52-.09a.46.46 0 0 0-.74.18c-.02.05-.06.16-.49.16-.3 0-.85-.2-1.12-.39A73.6 73.6 0 0 1 5.8 13.4c-.25-.2-.67-.65-1.05-1.04-.33-.35-.63-.66-.79-.8a.46.46 0 0 0-.6.7c.15.13.43.42.73.73.4.43.83.87 1.12 1.11a73.13 73.13 0 0 0 4.16 3.24c.34.22 1.07.53 1.63.53.45 0 .8-.1 1.04-.3.32.12.69.13 1.04-.01.42-.16.76-.49.96-.88.36.07.77.02 1.15-.17.37-.18.63-.47.76-.8.37.02.74-.1 1.05-.38.53-.45.68-1.15.37-1.78Z"/>
     <path fill="#4C4C4C" d="M9.17 5.96H5.04a.46.46 0 0 0 0 .91h4.13a.46.46 0 0 0 0-.91Zm9.54 6.62a.46.46 0 0 0-.63-.13l-1.34.9a.46.46 0 0 0 .5.76l1.35-.9a.46.46 0 0 0 .12-.63Zm-2.84 2.18c-.33-.25-1.8-1.76-2.7-2.7a.46.46 0 1 0-.66.63c.23.25 2.3 2.41 2.79 2.8a.46.46 0 0 0 .64-.08.46.46 0 0 0-.07-.65Zm-1.83.92a33.7 33.7 0 0 1-2.24-2.24.46.46 0 0 0-.68.62c.02.02 1.66 1.8 2.34 2.34a.46.46 0 0 0 .65-.07.46.46 0 0 0-.07-.65Zm-1.83.92a39 39 0 0 1-2.25-2.25.46.46 0 1 0-.67.63c.38.4 1.66 1.76 2.33 2.33a.46.46 0 0 0 .65-.06.46.46 0 0 0-.06-.64Z"/>
     <path fill="#4C4C4C" d="M5.36 5.17c-.79-.75-3.93-.99-4.87-1.04a.46.46 0 0 0-.49.45v8.25c0 .26.2.46.46.46H3.2c.2 0 .37-.13.43-.31.07-.21 1.65-5.06 1.86-7.44a.46.46 0 0 0-.14-.37Zm-2.49 7.2H.92v-7.3c1.47.12 3.06.37 3.64.65a48.1 48.1 0 0 1-1.69 6.65Zm18.67-7.33c-3.6 0-5.6.92-5.68.96a.46.46 0 0 0-.2.66c.57.91 2.35 5.98 2.69 7.21.05.2.24.34.44.34h2.75c.25 0 .46-.2.46-.46V5.5c0-.25-.2-.46-.46-.46Zm-.46 8.25h-1.95a73.51 73.51 0 0 0-2.43-6.63c.7-.24 2.2-.64 4.38-.7v7.33Z"/>
    </symbol>
    <symbol id="radar" viewBox="0 0 22 22">
      <path fill="currentColor" d="M22 10.36h-1.21a9.73 9.73 0 0 0-1.26-4.21 2.94 2.94 0 0 0-4.29-4 9.74 9.74 0 0 0-3.6-.94V0h-1.28v1.21a9.74 9.74 0 0 0-6.3 2.85 9.74 9.74 0 0 0-2.85 6.3H0v1.28h1.21c.1 1.48.52 2.9 1.23 4.16a2.35 2.35 0 0 0 3.17 3.4 9.72 9.72 0 0 0 4.75 1.59V22h1.28v-1.21a9.74 9.74 0 0 0 6.3-2.85 9.74 9.74 0 0 0 2.85-6.3H22v-1.28ZM17.29 2.6a1.65 1.65 0 1 1 0 3.3 1.65 1.65 0 0 1 0-3.3Zm-2.76.63a2.94 2.94 0 0 0 3.96 3.69c.56 1.03.92 2.2 1 3.43h-3.76a4.78 4.78 0 0 0-4.09-4.09V2.5c1.03.08 2 .34 2.89.74Zm-4.17 7.12H7.58a3.49 3.49 0 0 1 2.78-2.78v2.78Zm0 1.28v2.78a3.49 3.49 0 0 1-2.78-2.78h2.78Zm1.28 0h2.78a3.49 3.49 0 0 1-2.78 2.78v-2.78Zm0-1.28V7.58a3.49 3.49 0 0 1 2.78 2.78h-2.78ZM10.36 2.5v3.77a4.78 4.78 0 0 0-4.09 4.09H2.5a8.54 8.54 0 0 1 7.86-7.86Zm-6.1 15.85a1.06 1.06 0 1 1 0-2.12 1.06 1.06 0 0 1 0 2.12Zm2.16-.16a2.35 2.35 0 0 0-2.91-3.13 8.46 8.46 0 0 1-1-3.42h3.76a4.78 4.78 0 0 0 4.09 4.09v3.77a8.47 8.47 0 0 1-3.94-1.31Zm5.22 1.3v-3.76a4.78 4.78 0 0 0 4.09-4.09h3.77a8.54 8.54 0 0 1-7.86 7.86Z"/>
    </symbol>
    <symbol id="person" viewBox="0 0 13 13">
      <path fill="#787878" d="M11.096 8.404a6.475 6.475 0 0 0-2.47-1.55A3.756 3.756 0 0 0 6.5 0a3.756 3.756 0 0 0-2.126 6.854 6.475 6.475 0 0 0-2.47 1.55A6.458 6.458 0 0 0 0 13h1.016A5.49 5.49 0 0 1 6.5 7.516 5.49 5.49 0 0 1 11.984 13H13a6.457 6.457 0 0 0-1.904-4.596ZM6.5 6.5a2.745 2.745 0 0 1-2.742-2.742A2.745 2.745 0 0 1 6.5 1.016a2.745 2.745 0 0 1 2.742 2.742A2.745 2.745 0 0 1 6.5 6.5Z"/>
    </symbol>
    <symbol id="two-persons" viewBox="0 0 21 26">
      <path fill="#8894FF" d="M6.8 22a6.8 6.8 0 1 1 13.7 0v1.3c0 1-.8 1.8-1.8 1.8h-10c-1 0-1.9-.8-1.9-1.8V22Z"/>
      <circle cx="13.7" cy="10.6" r="3.5" fill="#8894FF"/>
      <path fill="#6AFF79" d="M0 15a6.8 6.8 0 0 1 13.7 0v1.2c0 1-.8 1.8-1.8 1.8h-10c-1 0-1.9-.8-1.9-1.8v-1.3Z" style="mix-blend-mode:darken"/>
      <circle cx="6.8" cy="3.5" r="3.5" fill="#6AFF79" style="mix-blend-mode:darken"/>
    </symbol>
    <symbol id="dollar" viewBox="0 0 16 25">
      <path fill="currentColor" d="M5.58 2.92C4.27 3.03 1.97 4.4 1.4 5.5c-1.86 3.61-.42 5.66-.3 5.9 1.58 2.99 6.08 3.29 8.86 4.38.98.38.67 1.48.3 1.65-3.5 1.61-7.63-1.57-7.63-1.57S.92 18.52 0 20.02c1.96 1.47 5.56 2.26 5.56 2.26V25h5.26l-.02-2.76s3.26-.72 4.41-2.89c1.68-3.16.2-5.82 0-6.2-1.31-2.68-9.08-3.6-9.25-4.62-.04-.26.08-.92.32-1.03.3-.13 3.18-1.02 6.9 1.5.87-1.38 2.52-4.1 2.52-4.1s-1.92-1.66-4.88-2.1V0H5.56s0 1.59.02 2.92Z"/>
    </symbol>
    <symbol id="old-phone" viewBox="0 0 14 14">
      <path fill="currentColor" d="M13.6329 10.2746L11.675 8.32084C10.9758 7.62307 9.7871 7.90221 9.50741 8.80927C9.29764 9.43729 8.5984 9.78617 7.96909 9.64659C6.57063 9.29771 4.6827 7.48352 4.33308 6.01822C4.12331 5.3902 4.54285 4.69244 5.17216 4.48313C6.08116 4.20403 6.36086 3.01783 5.66162 2.32007L3.70377 0.366326C3.14439 -0.122109 2.30531 -0.122109 1.81584 0.366326L0.4873 1.69208C-0.841242 3.08761 0.627147 6.78576 3.91354 10.0652C7.19994 13.3447 10.9059 14.8798 12.3043 13.4843L13.6329 12.1585C14.1224 11.6003 14.1224 10.763 13.6329 10.2746Z"/>
    </symbol>
    <symbol id="two-arrows-up-overlap" fill="none" viewBox="0 0 23 23">
      <path fill="#FD4304" d="M4.5 9.77h6.83v4.66c0 .52-.42.94-.94.94H5.44a.93.93 0 0 1-.94-.94V9.77Z"/>
      <path fill="#FD4304" d="M7.2.32a.94.94 0 0 1 1.42 0l6.98 8c.52.6.1 1.54-.7 1.54H.93a.93.93 0 0 1-.7-1.54l6.97-8Z"/>
      <path fill="#14D8C4" d="M11.43 16.4h6.82v4.7c0 .5-.42.93-.93.93h-4.96a.94.94 0 0 1-.93-.94v-4.68Z" style="mix-blend-mode:darken"/>
      <path fill="#14D8C4" d="M14.13 6.92a.93.93 0 0 1 1.42 0l6.97 8.03c.53.6.1 1.55-.7 1.55H7.86a.94.94 0 0 1-.7-1.55l6.97-8.03Z" style="mix-blend-mode:darken"/>
    </symbol>
  </defs>
</svg>
