<svg aria-hidden="true" style="position: absolute; width: 0; height: 0; overflow: hidden;" version="1.1" xmlns="http://www.w3.org/2000/svg" xmlns:xlink="http://www.w3.org/1999/xlink">
<defs>
<symbol id="home" viewBox="0 0 38 32">
<path fill="#535252" style="fill: var(--color1, #535252)" d="M10.37 7.344c-10.585 9.242-10.37 9.035-10.37 9.732 0 0.608 0.354 1.053 1.045 1.305 0.231 0.089 1.152 0.134 2.104 0.104l1.69-0.045 0.077 6.261 0.076 6.275 0.507 0.475 0.491 0.489 12.765 0.045c7.020 0.029 13.011 0.014 13.303-0.045 0.307-0.044 0.706-0.251 0.907-0.445l0.368-0.356v-12.803l1.367 0.104c1.69 0.133 2.489 0.015 2.996-0.445 0.43-0.386 0.522-1.009 0.23-1.587-0.245-0.49-18.433-16.349-18.817-16.408-0.215-0.030-2.673 2.033-8.741 7.344zM20.783 11.171c1.705 0.341 2.766 0.891 3.779 1.944 1.966 2.018 2.565 4.421 1.767 7.047-0.615 2.018-4.025 6.483-6.053 7.922-0.568 0.4-0.876 0.519-1.382 0.519-0.584 0-0.722-0.089-1.598-0.935-1.506-1.438-4.209-4.821-4.777-5.963-0.738-1.454-1.091-3.471-0.861-4.896 0.661-3.931 4.84-6.512 9.125-5.637z"></path>
<path fill="#C4C4C4" style="fill: var(--color2, #C4C4C4)" d="M17.557 13.975c-2.027 0.638-3.441 2.7-3.226 4.703 0.415 3.783 5.085 5.429 7.896 2.773 0.937-0.889 1.352-1.869 1.336-3.234 0-0.905-0.076-1.261-0.414-1.884-0.507-0.934-1.306-1.706-2.212-2.136-0.861-0.4-2.473-0.504-3.38-0.222z"></path>
</symbol>
</defs>
</svg>
