<svg width="336" height="17" viewBox="0 0 336 17" fill="none" xmlns="http://www.w3.org/2000/svg">
<path d="M9.63965 10.6504V16H4.99902V10.7148L0.250977 0.595703H5.5791L7.24414 5.44043C7.35872 5.76986 7.4375 6.05632 7.48047 6.2998C7.5306 6.54329 7.58431 6.79036 7.6416 7.04102H7.68457C7.77767 6.38932 7.88151 5.88444 7.99609 5.52637L9.63965 0.595703H14.5488L9.63965 10.6504ZM30.7266 8.25488C30.7266 9.80176 30.3936 11.1875 29.7275 12.4121C29.0615 13.6296 28.1305 14.5785 26.9346 15.2588C25.7386 15.932 24.3994 16.2686 22.917 16.2686C21.4704 16.2686 20.1527 15.9427 18.9639 15.291C17.7822 14.6322 16.862 13.7119 16.2031 12.5303C15.5443 11.3415 15.2148 9.9987 15.2148 8.50195C15.2148 6.93359 15.5479 5.52279 16.2139 4.26953C16.8799 3.01628 17.8145 2.04948 19.0176 1.36914C20.2207 0.681641 21.5885 0.337891 23.1211 0.337891C24.5964 0.337891 25.9141 0.667318 27.0742 1.32617C28.2415 1.97786 29.1403 2.91243 29.7705 4.12988C30.4079 5.34017 30.7266 6.71517 30.7266 8.25488ZM25.8066 8.38379C25.8066 7.11621 25.5632 6.11719 25.0762 5.38672C24.5892 4.65625 23.9232 4.29102 23.0781 4.29102C22.1543 4.29102 21.4346 4.64193 20.9189 5.34375C20.4033 6.04557 20.1455 7.03743 20.1455 8.31934C20.1455 9.57259 20.3997 10.5501 20.9082 11.252C21.4238 11.9538 22.1221 12.3047 23.0029 12.3047C23.54 12.3047 24.0234 12.1471 24.4531 11.832C24.8828 11.5169 25.2158 11.0658 25.4521 10.4785C25.6885 9.89128 25.8066 9.19303 25.8066 8.38379ZM46.3457 8.96387C46.3457 11.4346 45.7799 13.2715 44.6484 14.4746C43.5241 15.6706 41.7874 16.2686 39.4385 16.2686C37.2471 16.2686 35.582 15.6706 34.4434 14.4746C33.3118 13.2715 32.7461 11.4632 32.7461 9.0498V0.595703H37.4082V9.22168C37.4082 10.21 37.5908 10.9727 37.9561 11.5098C38.3285 12.0397 38.8584 12.3047 39.5459 12.3047C40.2406 12.3047 40.7669 12.054 41.125 11.5527C41.4902 11.0514 41.6729 10.3102 41.6729 9.3291V0.595703H46.3457V8.96387ZM57.1953 16L56.0459 12.6807C55.8239 12.029 55.5339 11.5169 55.1758 11.1445C54.8249 10.7721 54.4417 10.5859 54.0264 10.5859H53.8438V16H49.2031V0.595703H55.3691C57.5247 0.595703 59.1146 0.950195 60.1387 1.65918C61.1699 2.361 61.6855 3.41732 61.6855 4.82812C61.6855 5.88802 61.3848 6.77604 60.7832 7.49219C60.1888 8.20833 59.3008 8.72754 58.1191 9.0498V9.09277C58.7708 9.29329 59.3115 9.61914 59.7412 10.0703C60.1781 10.5215 60.5684 11.1911 60.9121 12.0791L62.4268 16H57.1953ZM56.7549 5.4834C56.7549 4.96777 56.5973 4.55957 56.2822 4.25879C55.9671 3.95801 55.473 3.80762 54.7998 3.80762H53.8438V7.33105H54.6816C55.3047 7.33105 55.806 7.1556 56.1855 6.80469C56.5651 6.45378 56.7549 6.01335 56.7549 5.4834ZM82.9336 5.67676C82.9336 6.72949 82.665 7.66406 82.1279 8.48047C81.598 9.29688 80.8389 9.93066 79.8506 10.3818C78.8623 10.8258 77.7129 11.0479 76.4023 11.0479H74.9844V16H70.3438V0.595703H76.6602C78.8301 0.595703 80.4163 1.00749 81.4189 1.83105C82.4287 2.65462 82.9336 3.93652 82.9336 5.67676ZM78.0244 5.83789C78.0244 5.20768 77.8418 4.73145 77.4766 4.40918C77.1113 4.08691 76.5742 3.92578 75.8652 3.92578H74.9844V7.72852H76.0264C77.3584 7.72852 78.0244 7.09831 78.0244 5.83789ZM92.7734 16L91.624 12.6807C91.402 12.029 91.112 11.5169 90.7539 11.1445C90.403 10.7721 90.0199 10.5859 89.6045 10.5859H89.4219V16H84.7812V0.595703H90.9473C93.1029 0.595703 94.6927 0.950195 95.7168 1.65918C96.748 2.361 97.2637 3.41732 97.2637 4.82812C97.2637 5.88802 96.9629 6.77604 96.3613 7.49219C95.7669 8.20833 94.8789 8.72754 93.6973 9.0498V9.09277C94.349 9.29329 94.8896 9.61914 95.3193 10.0703C95.7562 10.5215 96.1465 11.1911 96.4902 12.0791L98.0049 16H92.7734ZM92.333 5.4834C92.333 4.96777 92.1755 4.55957 91.8604 4.25879C91.5452 3.95801 91.0511 3.80762 90.3779 3.80762H89.4219V7.33105H90.2598C90.8828 7.33105 91.3841 7.1556 91.7637 6.80469C92.1432 6.45378 92.333 6.01335 92.333 5.4834ZM99.7988 16V0.595703H104.439V16H99.7988ZM118.931 15.5811C117.656 16.0394 116.184 16.2686 114.516 16.2686C112.876 16.2686 111.461 15.957 110.272 15.334C109.084 14.7038 108.174 13.8122 107.544 12.6592C106.921 11.499 106.609 10.1634 106.609 8.65234C106.609 7.02669 106.96 5.58008 107.662 4.3125C108.364 3.04492 109.356 2.06738 110.638 1.37988C111.92 0.685221 113.395 0.337891 115.063 0.337891C116.396 0.337891 117.685 0.499023 118.931 0.821289V5.10742C118.501 4.84961 117.989 4.64909 117.395 4.50586C116.8 4.36263 116.199 4.29102 115.59 4.29102C114.329 4.29102 113.334 4.65267 112.604 5.37598C111.88 6.09928 111.519 7.0804 111.519 8.31934C111.519 9.55111 111.88 10.5251 112.604 11.2412C113.334 11.9502 114.308 12.3047 115.525 12.3047C116.65 12.3047 117.785 12.0182 118.931 11.4453V15.5811ZM121.326 16V0.595703H130.919V4.22656H125.967V6.47168H130.618V10.1025H125.967V12.3691H131.273V16H121.326Z" fill="#FF6000"/>
<path d="M152.747 11.2734C152.747 12.7845 152.217 13.9518 151.157 14.7754C150.097 15.5918 148.583 16 146.613 16H139.588V0.595703H146.13C150.219 0.595703 152.264 1.83822 152.264 4.32324C152.264 4.86035 152.135 5.35449 151.877 5.80566C151.619 6.24967 151.225 6.63997 150.695 6.97656C150.173 7.31315 149.596 7.54232 148.966 7.66406V7.70703C149.696 7.79297 150.352 8.01139 150.932 8.3623C151.512 8.70605 151.959 9.13932 152.274 9.66211C152.59 10.1777 152.747 10.7148 152.747 11.2734ZM147.333 5.12891C147.333 4.17643 146.585 3.7002 145.088 3.7002H144.229V6.61133H145.571C146.087 6.61133 146.509 6.47526 146.839 6.20312C147.168 5.92383 147.333 5.56576 147.333 5.12891ZM147.816 11.252C147.816 10.8079 147.655 10.4427 147.333 10.1562C147.011 9.86979 146.585 9.72656 146.055 9.72656H144.229V12.874H145.775C146.406 12.874 146.903 12.7308 147.269 12.4443C147.634 12.1507 147.816 11.7533 147.816 11.252ZM169.451 8.25488C169.451 9.80176 169.118 11.1875 168.452 12.4121C167.786 13.6296 166.855 14.5785 165.659 15.2588C164.463 15.932 163.124 16.2686 161.642 16.2686C160.195 16.2686 158.877 15.9427 157.688 15.291C156.507 14.6322 155.587 13.7119 154.928 12.5303C154.269 11.3415 153.939 9.9987 153.939 8.50195C153.939 6.93359 154.272 5.52279 154.938 4.26953C155.604 3.01628 156.539 2.04948 157.742 1.36914C158.945 0.681641 160.313 0.337891 161.846 0.337891C163.321 0.337891 164.639 0.667318 165.799 1.32617C166.966 1.97786 167.865 2.91243 168.495 4.12988C169.132 5.34017 169.451 6.71517 169.451 8.25488ZM164.531 8.38379C164.531 7.11621 164.288 6.11719 163.801 5.38672C163.314 4.65625 162.648 4.29102 161.803 4.29102C160.879 4.29102 160.159 4.64193 159.644 5.34375C159.128 6.04557 158.87 7.03743 158.87 8.31934C158.87 9.57259 159.124 10.5501 159.633 11.252C160.148 11.9538 160.847 12.3047 161.728 12.3047C162.265 12.3047 162.748 12.1471 163.178 11.832C163.607 11.5169 163.94 11.0658 164.177 10.4785C164.413 9.89128 164.531 9.19303 164.531 8.38379ZM186.295 8.25488C186.295 9.80176 185.962 11.1875 185.296 12.4121C184.63 13.6296 183.699 14.5785 182.503 15.2588C181.307 15.932 179.968 16.2686 178.485 16.2686C177.039 16.2686 175.721 15.9427 174.532 15.291C173.351 14.6322 172.43 13.7119 171.771 12.5303C171.113 11.3415 170.783 9.9987 170.783 8.50195C170.783 6.93359 171.116 5.52279 171.782 4.26953C172.448 3.01628 173.383 2.04948 174.586 1.36914C175.789 0.681641 177.157 0.337891 178.689 0.337891C180.165 0.337891 181.482 0.667318 182.643 1.32617C183.81 1.97786 184.709 2.91243 185.339 4.12988C185.976 5.34017 186.295 6.71517 186.295 8.25488ZM181.375 8.38379C181.375 7.11621 181.132 6.11719 180.645 5.38672C180.158 4.65625 179.492 4.29102 178.646 4.29102C177.723 4.29102 177.003 4.64193 176.487 5.34375C175.972 6.04557 175.714 7.03743 175.714 8.31934C175.714 9.57259 175.968 10.5501 176.477 11.252C176.992 11.9538 177.69 12.3047 178.571 12.3047C179.108 12.3047 179.592 12.1471 180.021 11.832C180.451 11.5169 180.784 11.0658 181.021 10.4785C181.257 9.89128 181.375 9.19303 181.375 8.38379ZM197.005 16L193.589 9.49023C193.36 8.97461 193.224 8.62012 193.181 8.42676H193.127V16H188.486V0.595703H193.127V7.92188H193.181C193.317 7.53516 193.471 7.17708 193.643 6.84766L196.715 0.595703H202.215L197.843 7.94336L202.634 16H197.005ZM203.676 16V0.595703H208.316V16H203.676ZM222.109 16L216.674 8.56641C216.244 7.97917 215.893 7.44922 215.621 6.97656H215.578C215.621 7.73568 215.643 8.58789 215.643 9.5332V16H211.346V0.595703H215.729L220.938 7.66406C221.003 7.75716 221.082 7.86816 221.175 7.99707C221.268 8.12598 221.361 8.25846 221.454 8.39453C221.547 8.5306 221.633 8.66309 221.712 8.79199C221.798 8.9209 221.862 9.03548 221.905 9.13574H221.948C221.905 8.82064 221.884 8.27637 221.884 7.50293V0.595703H226.181V16H222.109ZM242.713 14.9902C242.133 15.3197 241.266 15.6169 240.113 15.8818C238.96 16.1396 237.861 16.2686 236.815 16.2686C234.116 16.2686 232.032 15.5954 230.563 14.249C229.095 12.8955 228.361 11.0013 228.361 8.56641C228.361 6.93359 228.73 5.4834 229.468 4.21582C230.213 2.94824 231.258 1.98503 232.604 1.32617C233.951 0.667318 235.537 0.337891 237.363 0.337891C238.702 0.337891 240.131 0.527669 241.649 0.907227V4.95703C240.94 4.63477 240.26 4.41276 239.608 4.29102C238.957 4.16211 238.244 4.09766 237.471 4.09766C236.196 4.09766 235.179 4.48079 234.42 5.24707C233.668 6.01335 233.292 7.06608 233.292 8.40527C233.292 9.68717 233.607 10.6898 234.237 11.4131C234.875 12.1364 235.763 12.498 236.901 12.498C237.431 12.498 237.822 12.4694 238.072 12.4121V10.21H235.118V6.69727H242.713V14.9902Z" fill="#0090FF"/>
<path d="M267.56 16H265.766V5.66602C265.766 4.84961 265.816 3.85059 265.916 2.66895H265.873C265.701 3.36361 265.547 3.86133 265.411 4.16211L260.147 16H259.267L254.014 4.24805C253.863 3.9043 253.709 3.37793 253.552 2.66895H253.509C253.566 3.28483 253.595 4.29102 253.595 5.6875V16H251.854V0.595703H254.239L258.966 11.3379C259.331 12.1615 259.567 12.7773 259.675 13.1855H259.739C260.047 12.3405 260.294 11.7103 260.48 11.2949L265.304 0.595703H267.56V16ZM273.425 16H271.62V0.595703H273.425V16ZM276.766 15.377V13.25C277.009 13.4648 277.299 13.6582 277.636 13.8301C277.979 14.002 278.338 14.1488 278.71 14.2705C279.09 14.3851 279.469 14.4746 279.849 14.5391C280.228 14.6035 280.579 14.6357 280.901 14.6357C282.011 14.6357 282.839 14.4316 283.383 14.0234C283.934 13.6081 284.21 13.0137 284.21 12.2402C284.21 11.8249 284.117 11.4632 283.931 11.1553C283.752 10.8473 283.501 10.568 283.179 10.3174C282.856 10.0596 282.473 9.81608 282.029 9.58691C281.592 9.35059 281.12 9.10352 280.611 8.8457C280.074 8.57357 279.573 8.29785 279.107 8.01855C278.642 7.73926 278.237 7.43132 277.894 7.09473C277.55 6.75814 277.278 6.37858 277.077 5.95605C276.884 5.52637 276.787 5.02507 276.787 4.45215C276.787 3.75033 276.941 3.1416 277.249 2.62598C277.557 2.10319 277.962 1.6735 278.463 1.33691C278.964 1.00033 279.534 0.749674 280.171 0.584961C280.815 0.420247 281.471 0.337891 282.137 0.337891C283.655 0.337891 284.761 0.520508 285.456 0.885742V2.91602C284.547 2.28581 283.379 1.9707 281.954 1.9707C281.56 1.9707 281.166 2.01367 280.772 2.09961C280.379 2.17839 280.028 2.31087 279.72 2.49707C279.412 2.68327 279.161 2.92318 278.968 3.2168C278.774 3.51042 278.678 3.86849 278.678 4.29102C278.678 4.6849 278.749 5.02507 278.893 5.31152C279.043 5.59798 279.261 5.85938 279.548 6.0957C279.834 6.33203 280.182 6.5612 280.59 6.7832C281.005 7.00521 281.481 7.2487 282.019 7.51367C282.57 7.78581 283.093 8.07227 283.587 8.37305C284.081 8.67383 284.514 9.00684 284.887 9.37207C285.259 9.7373 285.553 10.1419 285.768 10.5859C285.99 11.0299 286.101 11.5384 286.101 12.1113C286.101 12.8704 285.95 13.515 285.649 14.0449C285.356 14.5677 284.955 14.9938 284.446 15.3232C283.945 15.6527 283.365 15.889 282.706 16.0322C282.047 16.1826 281.353 16.2578 280.622 16.2578C280.379 16.2578 280.078 16.2363 279.72 16.1934C279.362 16.1576 278.996 16.1003 278.624 16.0215C278.252 15.9499 277.897 15.8604 277.561 15.7529C277.231 15.6383 276.966 15.513 276.766 15.377ZM288.453 15.377V13.25C288.697 13.4648 288.987 13.6582 289.323 13.8301C289.667 14.002 290.025 14.1488 290.397 14.2705C290.777 14.3851 291.157 14.4746 291.536 14.5391C291.916 14.6035 292.267 14.6357 292.589 14.6357C293.699 14.6357 294.526 14.4316 295.07 14.0234C295.622 13.6081 295.897 13.0137 295.897 12.2402C295.897 11.8249 295.804 11.4632 295.618 11.1553C295.439 10.8473 295.188 10.568 294.866 10.3174C294.544 10.0596 294.161 9.81608 293.717 9.58691C293.28 9.35059 292.807 9.10352 292.299 8.8457C291.762 8.57357 291.26 8.29785 290.795 8.01855C290.329 7.73926 289.925 7.43132 289.581 7.09473C289.237 6.75814 288.965 6.37858 288.765 5.95605C288.571 5.52637 288.475 5.02507 288.475 4.45215C288.475 3.75033 288.629 3.1416 288.937 2.62598C289.244 2.10319 289.649 1.6735 290.15 1.33691C290.652 1.00033 291.221 0.749674 291.858 0.584961C292.503 0.420247 293.158 0.337891 293.824 0.337891C295.342 0.337891 296.449 0.520508 297.144 0.885742V2.91602C296.234 2.28581 295.067 1.9707 293.642 1.9707C293.248 1.9707 292.854 2.01367 292.46 2.09961C292.066 2.17839 291.715 2.31087 291.407 2.49707C291.099 2.68327 290.849 2.92318 290.655 3.2168C290.462 3.51042 290.365 3.86849 290.365 4.29102C290.365 4.6849 290.437 5.02507 290.58 5.31152C290.73 5.59798 290.949 5.85938 291.235 6.0957C291.522 6.33203 291.869 6.5612 292.277 6.7832C292.693 7.00521 293.169 7.2487 293.706 7.51367C294.257 7.78581 294.78 8.07227 295.274 8.37305C295.769 8.67383 296.202 9.00684 296.574 9.37207C296.947 9.7373 297.24 10.1419 297.455 10.5859C297.677 11.0299 297.788 11.5384 297.788 12.1113C297.788 12.8704 297.638 13.515 297.337 14.0449C297.043 14.5677 296.642 14.9938 296.134 15.3232C295.632 15.6527 295.052 15.889 294.394 16.0322C293.735 16.1826 293.04 16.2578 292.31 16.2578C292.066 16.2578 291.765 16.2363 291.407 16.1934C291.049 16.1576 290.684 16.1003 290.312 16.0215C289.939 15.9499 289.585 15.8604 289.248 15.7529C288.919 15.6383 288.654 15.513 288.453 15.377ZM302.665 16H300.86V0.595703H302.665V16ZM312.935 16.2578C310.75 16.2578 308.999 15.5381 307.682 14.0986C306.371 12.6592 305.716 10.7865 305.716 8.48047C305.716 6.0026 306.385 4.02604 307.725 2.55078C309.064 1.07552 310.886 0.337891 313.192 0.337891C315.319 0.337891 317.031 1.05404 318.327 2.48633C319.631 3.91862 320.282 5.79134 320.282 8.10449C320.282 10.6182 319.616 12.6055 318.284 14.0664C316.952 15.5273 315.169 16.2578 312.935 16.2578ZM313.063 1.9707C311.445 1.9707 310.131 2.55436 309.121 3.72168C308.111 4.889 307.606 6.42155 307.606 8.31934C307.606 10.2171 308.097 11.7461 309.078 12.9062C310.066 14.0592 311.352 14.6357 312.935 14.6357C314.625 14.6357 315.957 14.0843 316.931 12.9814C317.905 11.8786 318.392 10.3353 318.392 8.35156C318.392 6.31771 317.919 4.74577 316.974 3.63574C316.028 2.52572 314.725 1.9707 313.063 1.9707ZM335.729 16H333.517L325.589 3.72168C325.388 3.41374 325.224 3.09147 325.095 2.75488H325.03C325.088 3.08431 325.116 3.78971 325.116 4.87109V16H323.312V0.595703H325.653L333.366 12.6807C333.688 13.182 333.896 13.5257 333.989 13.7119H334.032C333.961 13.2679 333.925 12.5124 333.925 11.4453V0.595703H335.729V16Z" fill="#656565"/>
</svg>
