<svg width="39" height="39" viewBox="0 0 39 39" fill="none" xmlns="http://www.w3.org/2000/svg">
<path d="M31.2889 1.73801V6.08342C30.0193 6.40649 28.8983 7.11364 28.099 8.09541C27.2997 9.07718 26.8666 10.2789 26.8666 11.5152C26.8666 12.7515 27.2997 13.9535 28.099 14.9352C28.8983 15.917 30.0193 16.6239 31.2889 16.947V37.3487C31.2827 37.7715 31.4539 38.1797 31.7654 38.4847C32.0769 38.7897 32.5036 38.9669 32.9532 38.9783C33.1779 38.9754 33.3997 38.9312 33.6061 38.8478C33.8125 38.7643 33.9994 38.6434 34.1561 38.4921C34.3128 38.3408 34.4362 38.1618 34.5194 37.9656C34.6025 37.7695 34.6438 37.5599 34.6407 37.3487V16.947C35.8966 16.6098 37.0014 15.8973 37.7879 14.9172C38.5745 13.9371 39 12.7428 39 11.5152C39 10.2875 38.5745 9.09351 37.7879 8.11344C37.0014 7.13337 35.8966 6.42062 34.6407 6.08342V1.73801C34.6407 1.31533 34.4637 0.909859 34.1479 0.608952C33.8321 0.308048 33.4029 0.135937 32.9532 0.130226C32.7316 0.13306 32.5128 0.177052 32.3092 0.259388C32.1057 0.341728 31.9213 0.460976 31.7668 0.610279C31.6122 0.759583 31.4905 0.936054 31.4085 1.12959C31.3265 1.32312 31.2859 1.52972 31.2889 1.73801ZM35.4729 11.4285C35.4593 11.8939 35.3 12.3451 35.0149 12.7259C34.7299 13.1067 34.3318 13.4001 33.8704 13.5693C33.4089 13.7386 32.9047 13.7764 32.4206 13.6778C31.9365 13.5792 31.4941 13.3487 31.1486 13.015C30.8031 12.6814 30.57 12.2594 30.4782 11.8019C30.3865 11.3444 30.4403 10.8716 30.6329 10.4426C30.8254 10.0137 31.1482 9.64742 31.5609 9.38996C31.9736 9.1325 32.4579 8.99522 32.9532 8.99504C33.2891 8.99786 33.6211 9.06323 33.93 9.18733C34.2388 9.31143 34.5185 9.49178 34.7528 9.71804C34.9871 9.9443 35.1713 10.2119 35.2949 10.5055C35.4185 10.7991 35.479 11.1128 35.4729 11.4285ZM7.73415 37.1967V16.795C8.99002 16.4578 10.0948 15.7453 10.8814 14.7652C11.6679 13.7852 12.0934 12.5909 12.0934 11.3632C12.0934 10.1356 11.6679 8.94127 10.8814 7.9612C10.0948 6.98113 8.99002 6.26865 7.73415 5.93145V1.58604C7.73415 1.16538 7.55631 0.761852 7.23986 0.464405C6.9234 0.166958 6.49423 0 6.04669 0C5.59915 0 5.16991 0.166958 4.85345 0.464405C4.53699 0.761852 4.35922 1.16538 4.35922 1.58604V5.93145C3.10336 6.26865 1.99856 6.98113 1.212 7.9612C0.425448 8.94127 0 10.1356 0 11.3632C0 12.5909 0.425448 13.7852 1.212 14.7652C1.99856 15.7453 3.10336 16.4578 4.35922 16.795V37.1967C4.35922 37.6174 4.53699 38.0207 4.85345 38.3181C5.16991 38.6156 5.59915 38.7828 6.04669 38.7828C6.49423 38.7828 6.9234 38.6156 7.23986 38.3181C7.55631 38.0207 7.73415 37.6174 7.73415 37.1967ZM3.52709 11.4285C3.5362 10.962 3.69165 10.5083 3.97399 10.1246C4.25632 9.74093 4.65298 9.44427 5.11411 9.27167C5.57523 9.09907 6.08029 9.05821 6.56596 9.15444C7.05163 9.25067 7.49623 9.47959 7.84399 9.81246C8.19175 10.1453 8.42718 10.5674 8.52071 11.0256C8.61424 11.4838 8.56174 11.9576 8.36975 12.3878C8.17776 12.818 7.85483 13.1855 7.44154 13.4439C7.02826 13.7023 6.54303 13.8401 6.04669 13.8401C5.38642 13.8122 4.76306 13.5457 4.3066 13.0965C3.85013 12.6472 3.59577 12.0497 3.59644 11.4285H3.52709ZM17.7894 1.73801V22.1615C16.5335 22.4987 15.4287 23.2112 14.6422 24.1913C13.8556 25.1713 13.4302 26.3656 13.4302 27.5933C13.4302 28.8209 13.8556 30.0152 14.6422 30.9953C15.4287 31.9754 16.5335 32.6879 17.7894 33.0251V37.3705C17.7863 37.5816 17.8276 37.7912 17.9107 37.9874C17.9939 38.1835 18.1173 38.3625 18.274 38.5138C18.4307 38.6652 18.6176 38.7861 18.824 38.8695C19.0304 38.9529 19.2522 38.9972 19.4769 39C19.9265 38.9886 20.3532 38.8114 20.6647 38.5064C20.9762 38.2014 21.1474 37.7932 21.1412 37.3705V33.0251C22.4108 32.702 23.5318 31.9951 24.3312 31.0133C25.1305 30.0316 25.5636 28.8295 25.5636 27.5933C25.5636 26.357 25.1305 25.1553 24.3312 24.1735C23.5318 23.1917 22.4108 22.4846 21.1412 22.1615V1.73801C21.1442 1.52972 21.1036 1.32312 21.0216 1.12959C20.9396 0.936054 20.8179 0.759583 20.6633 0.610279C20.5088 0.460976 20.3244 0.341728 20.1209 0.259388C19.9173 0.177052 19.6985 0.13306 19.4769 0.130226C19.0394 0.152485 18.6277 0.331825 18.3267 0.630966C18.0256 0.930111 17.8581 1.32623 17.8587 1.73801H17.7894ZM21.9733 27.528C21.9642 27.9954 21.8081 28.4499 21.5247 28.834C21.2414 29.2181 20.8434 29.515 20.3809 29.687C19.9185 29.8589 19.4122 29.8982 18.9259 29.8002C18.4396 29.7022 17.9951 29.4711 17.6483 29.1361C17.3015 28.8011 17.0679 28.377 16.977 27.9174C16.8861 27.4578 16.9419 26.9834 17.1374 26.5536C17.333 26.1238 17.6594 25.758 18.0757 25.5023C18.492 25.2465 18.9796 25.1122 19.4769 25.1164C19.8147 25.1135 20.1497 25.1739 20.4624 25.2941C20.7751 25.4142 21.0592 25.5918 21.2981 25.8163C21.537 26.0408 21.7258 26.308 21.8537 26.6019C21.9815 26.8958 22.0457 27.2105 22.0427 27.528H21.9733Z" fill="#282222"/>
</svg>
