<svg width="40" height="40" viewBox="0 0 40 40" fill="none" xmlns="http://www.w3.org/2000/svg">
<path d="M38.2174 32.0912H33.7606C33.4292 30.7891 32.704 29.6393 31.697 28.8195C30.6901 27.9997 29.4575 27.5554 28.1895 27.5554C26.9216 27.5554 25.6887 27.9997 24.6818 28.8195C23.6749 29.6393 22.9499 30.7891 22.6185 32.0912H1.69362C1.26004 32.0848 0.84135 32.2604 0.528542 32.5799C0.215734 32.8993 0.0339837 33.337 0.0223059 33.7982C0.0252126 34.0286 0.0705734 34.2561 0.156142 34.4678C0.24171 34.6795 0.365726 34.8712 0.520925 35.0319C0.676125 35.1926 0.859694 35.3192 1.06089 35.4045C1.26209 35.4898 1.47706 35.5321 1.69362 35.5289H22.6185C22.9643 36.817 23.6951 37.9501 24.7003 38.7568C25.7055 39.5636 26.9304 40 28.1895 40C29.4487 40 30.6733 39.5636 31.6785 38.7568C32.6837 37.9501 33.4147 36.817 33.7606 35.5289H38.2174C38.6509 35.529 39.0668 35.3474 39.3754 35.0235C39.6841 34.6996 39.8606 34.2594 39.8664 33.7982C39.8635 33.5709 39.8184 33.3465 39.734 33.1377C39.6495 32.9289 39.5272 32.7398 39.3741 32.5813C39.2209 32.4228 39.0399 32.2979 38.8414 32.2138C38.643 32.1297 38.4311 32.0881 38.2174 32.0912ZM28.2785 36.3825C27.8012 36.3685 27.3383 36.2051 26.9478 35.9128C26.5572 35.6204 26.2564 35.2121 26.0827 34.7388C25.9091 34.2656 25.8703 33.7484 25.9715 33.2519C26.0726 32.7554 26.309 32.3016 26.6513 31.9473C26.9935 31.593 27.4262 31.3538 27.8955 31.2597C28.3647 31.1656 28.8497 31.2208 29.2896 31.4183C29.7296 31.6158 30.1052 31.9469 30.3693 32.3702C30.6333 32.7935 30.7741 33.2902 30.7743 33.7982C30.7714 34.1427 30.7044 34.4832 30.5771 34.8C30.4498 35.1168 30.2648 35.4036 30.0328 35.6439C29.8007 35.8842 29.5262 36.0732 29.2251 36.1999C28.924 36.3267 28.6023 36.3887 28.2785 36.3825ZM1.84949 7.93247H22.7744C23.1202 9.22054 23.851 10.3537 24.8562 11.1604C25.8614 11.9671 27.0863 12.4035 28.3454 12.4035C29.6045 12.4035 30.8295 11.9671 31.8347 11.1604C32.8399 10.3537 33.5706 9.22054 33.9165 7.93247H38.3733C38.8047 7.93247 39.2186 7.75007 39.5237 7.4255C39.8288 7.10092 40 6.66074 40 6.20173C40 5.74272 39.8288 5.30247 39.5237 4.9779C39.2186 4.65333 38.8047 4.471 38.3733 4.471H33.9165C33.5706 3.18293 32.8399 2.04981 31.8347 1.24308C30.8295 0.436357 29.6045 0 28.3454 0C27.0863 0 25.8614 0.436357 24.8562 1.24308C23.851 2.04981 23.1202 3.18293 22.7744 4.471H1.84949C1.41805 4.471 1.00445 4.65333 0.699373 4.9779C0.394299 5.30247 0.222787 5.74272 0.222787 6.20173C0.222787 6.66074 0.394299 7.10092 0.699373 7.4255C1.00445 7.75007 1.41805 7.93247 1.84949 7.93247ZM28.2785 3.61753C28.7569 3.62687 29.2222 3.78631 29.6158 4.07588C30.0093 4.36546 30.3136 4.77229 30.4906 5.24524C30.6676 5.71819 30.7095 6.23619 30.6108 6.73432C30.5121 7.23244 30.2773 7.68844 29.9359 8.04512C29.5945 8.4018 29.1616 8.64326 28.6917 8.73919C28.2218 8.83512 27.7358 8.78127 27.2946 8.58436C26.8533 8.38745 26.4764 8.05623 26.2114 7.63235C25.9464 7.20847 25.8051 6.7108 25.805 6.20173C25.8337 5.52453 26.1069 4.88519 26.5677 4.41702C27.0285 3.94885 27.6413 3.68797 28.2785 3.68865V3.61753ZM38.2174 18.2455H17.2702C16.9244 16.9575 16.1936 15.8243 15.1884 15.0176C14.1832 14.2109 12.9583 13.7745 11.6992 13.7745C10.4401 13.7745 9.21515 14.2109 8.20995 15.0176C7.20475 15.8243 6.47399 16.9575 6.12815 18.2455H1.67131C1.45475 18.2424 1.23978 18.2847 1.03859 18.37C0.837388 18.4553 0.653819 18.5819 0.498619 18.7426C0.34342 18.9033 0.219404 19.095 0.133836 19.3067C0.0482674 19.5183 0.0029067 19.7459 0 19.9763C0.0116777 20.4374 0.193428 20.8751 0.506236 21.1946C0.819044 21.5141 1.23774 21.6897 1.67131 21.6833H6.12815C6.4595 22.9854 7.18451 24.1352 8.19145 24.955C9.19839 25.7749 10.4312 26.2191 11.6992 26.2191C12.9672 26.2191 14.1997 25.7749 15.2067 24.955C16.2136 24.1352 16.9389 22.9854 17.2702 21.6833H38.2174C38.4311 21.6864 38.643 21.6447 38.8414 21.5606C39.0399 21.4765 39.2209 21.3517 39.3741 21.1932C39.5272 21.0346 39.6495 20.8456 39.734 20.6368C39.8184 20.428 39.8635 20.2036 39.8664 19.9763C39.8436 19.5276 39.6597 19.1053 39.3529 18.7966C39.046 18.4878 38.6398 18.316 38.2174 18.3167V18.2455ZM11.7661 22.5367C11.2868 22.5274 10.8207 22.3673 10.4267 22.0766C10.0327 21.786 9.72818 21.3779 9.55184 20.9035C9.3755 20.4292 9.33517 19.9099 9.43569 19.4112C9.5362 18.9125 9.77321 18.4565 10.1168 18.1008C10.4605 17.7451 10.8954 17.5056 11.3668 17.4123C11.8381 17.3191 12.3247 17.3763 12.7655 17.5769C13.2064 17.7774 13.5815 18.1122 13.8438 18.5392C14.1061 18.9662 14.2439 19.4662 14.2396 19.9763C14.2426 20.3227 14.1806 20.6664 14.0574 20.9871C13.9341 21.3078 13.752 21.5992 13.5218 21.8442C13.2915 22.0892 13.0175 22.2829 12.716 22.414C12.4146 22.5452 12.0918 22.611 11.7661 22.6079V22.5367Z" fill="#282222"/>
</svg>
