<svg width="23" height="17" viewBox="0 0 23 17" fill="none" xmlns="http://www.w3.org/2000/svg">
<path d="M12.4991 4.78565H11.9993L11.9991 5.28542L11.9973 9.03334V9.03357C11.9973 9.32628 12.1267 9.59446 12.3364 9.7836C12.3364 9.7836 12.3364 9.78361 12.3364 9.78362L15.308 12.4643L15.643 12.7664L15.9779 12.4642L16.8175 11.7067L17.229 11.3354L16.8174 10.9642L14.1849 8.58949L14.1865 5.28589L14.1868 4.78565H13.6865H12.4991ZM7.30751 6.92858C8.07302 4.44672 10.6134 2.57144 13.6875 2.57144C17.3899 2.57144 20.3125 5.27837 20.3125 8.50001C20.3125 11.7217 17.39 14.4286 13.6875 14.4286C11.6138 14.4286 9.70749 13.5822 8.44686 12.1267L8.15075 11.7848L7.78098 12.0453L6.84513 12.7044L6.39322 13.0228L6.75512 13.4406C8.44524 15.3918 10.9758 16.5 13.6875 16.5C18.4976 16.5 22.5 12.9583 22.5 8.50001C22.5 4.04173 18.4976 0.500033 13.6875 0.5C9.45535 0.5 5.86859 3.23724 5.05606 6.92858H3H1.69944L2.66506 7.79981L5.6338 10.4784L5.96875 10.7806L6.30369 10.4784L9.27244 7.79981L10.2381 6.92858H8.9375H7.30751Z" fill="white" stroke="#FF6000"/>
</svg>
