<svg width="17" height="19" viewBox="0 0 17 19" fill="none" xmlns="http://www.w3.org/2000/svg">
<path d="M4.68828 10.7953L1.60034 6.14688L4.68828 1.4985C4.93781 1.12245 4.9087 0.551388 4.62274 0.22294C4.33678 -0.105205 3.90276 -0.0666279 3.65277 0.309124L0.169804 5.55232C-0.0566012 5.89282 -0.0566012 6.4012 0.169804 6.7417L3.6528 11.9849C3.7889 12.1892 3.97933 12.2941 4.17088 12.2941C4.33129 12.2941 4.49236 12.2206 4.62274 12.0708C4.90873 11.7424 4.93804 11.1713 4.68828 10.7953Z" fill="#0090FF"/>
<path d="M11.8238 5.24289H0.687427C0.307742 5.24289 0 5.64754 0 6.14688C0 6.64619 0.307742 7.05088 0.687427 7.05088H11.8238C13.8204 7.05088 15.4445 9.18672 15.4445 11.812C15.4445 14.4372 13.8204 16.5731 11.8238 16.5731H1.60402C1.22433 16.5731 0.916592 16.9778 0.916592 17.4771C0.916592 17.9764 1.22433 18.3811 1.60402 18.3811H11.8238C14.5781 18.3811 16.8194 15.434 16.8194 11.812C16.8194 8.18993 14.5784 5.24289 11.8238 5.24289Z" fill="#0090FF"/>
</svg>
