<svg width="44" height="36" viewBox="0 0 44 36" fill="none" xmlns="http://www.w3.org/2000/svg">
<path d="M34.3236 20.1675L21.9991 0L9.67805 20.1617C12.5475 18.0531 16.9912 15.5652 21.9872 15.5652C26.9879 15.5652 31.4459 18.058 34.3236 20.1675Z" fill="#282222"/>
<path d="M22.0604 28.9303C25.1864 28.9303 27.7295 26.5372 27.7295 23.5956C27.7295 22.2649 27.2078 21.0475 26.3485 20.112C26.2372 22.2471 24.3565 23.9521 22.0604 23.9521C19.7643 23.9521 17.8835 22.2472 17.7722 20.1121C16.9129 21.0475 16.3913 22.2649 16.3913 23.5956C16.3913 26.5371 18.9344 28.9303 22.0604 28.9303Z" fill="#282222"/>
<path d="M44 36L37.0554 24.6362C35.1352 26.4388 29.1119 31.4974 21.9881 31.4974C14.8613 31.4974 8.85775 26.4352 6.9465 24.633L0 36H44Z" fill="#282222"/>
<path d="M9.45754 23.5314C10.5988 24.5212 12.4727 25.9793 14.7731 27.1516C14.1837 26.0867 13.8499 24.8773 13.8499 23.5957C13.8499 22.2411 14.2229 20.9671 14.8765 19.8591C12.5291 21.0399 10.616 22.5267 9.45754 23.5314Z" fill="#282222"/>
<path d="M20.3053 19.9119C20.3053 20.8223 21.0923 21.5629 22.0598 21.5629C23.0272 21.5629 23.8142 20.8223 23.8142 19.9119C23.8142 19.0016 23.0272 18.261 22.0598 18.261C21.0923 18.261 20.3053 19.0016 20.3053 19.9119Z" fill="#282222"/>
<path d="M34.5432 23.5313C33.411 22.5533 31.5627 21.1189 29.2959 19.9543C29.9152 21.0398 30.267 22.2797 30.267 23.5956C30.267 24.8391 29.9527 26.0146 29.3955 27.0563C31.6166 25.9013 33.4275 24.495 34.5432 23.5313Z" fill="#282222"/>
</svg>
