<svg width="24" height="20" viewBox="0 0 24 20" fill="none" xmlns="http://www.w3.org/2000/svg">
<mask id="path-1-outside-1_10266_27004" maskUnits="userSpaceOnUse" x="0" y="0" width="24" height="20" fill="#ffffff">
<rect fill="white" width="24" height="20"/>
<path d="M22.9702 13.3981C23.002 13.3143 23.002 13.223 22.9702 13.1392L21.176 7.88095V3.04021C21.164 2.48981 20.9168 1.96621 20.4885 1.58394C20.0602 1.20167 19.4856 0.99184 18.8904 1.00034H5.17692C4.88201 0.995434 4.58895 1.04431 4.31447 1.14418C4.03999 1.24405 3.78947 1.39295 3.57722 1.58238C3.36498 1.77181 3.19517 1.99805 3.07748 2.24818C2.95979 2.49832 2.89654 2.76745 2.89133 3.04021V7.88095L1.04 13.1656C1.00821 13.2494 1.00821 13.3407 1.04 13.4246C1.01471 13.5125 1.00127 13.6031 1 13.6941V18.593C1.00148 18.6478 1.01464 18.7018 1.0387 18.7519C1.06277 18.8021 1.09728 18.8473 1.14026 18.8851C1.18324 18.9229 1.23385 18.9525 1.2892 18.9722C1.34455 18.9919 1.40355 19.0013 1.46284 18.9999H3.32559C3.44434 19.0013 3.55891 18.9594 3.64448 18.8832C3.73005 18.8071 3.77971 18.7028 3.78271 18.593V17.3405H20.2561V18.5665C20.2591 18.6763 20.3087 18.7806 20.3943 18.8568C20.4799 18.9329 20.5944 18.9749 20.7132 18.9734H22.5417C22.6604 18.9749 22.775 18.9329 22.8606 18.8568C22.9461 18.7806 22.9958 18.6763 22.9988 18.5665V13.6941C23.0036 13.5947 22.994 13.4952 22.9702 13.3981ZM3.78842 3.05606C3.79593 2.72572 3.94427 2.41151 4.20112 2.18187C4.45798 1.95223 4.80256 1.82576 5.15978 1.83001H18.8733C19.2305 1.82576 19.5751 1.95223 19.8319 2.18187C20.0888 2.41151 20.2371 2.72572 20.2446 3.05606V7.54273H18.999L18.5762 6.02603C18.4964 5.75582 18.3217 5.51782 18.0797 5.34945C17.8376 5.18108 17.5419 5.09189 17.2391 5.09593H14.2964C14.1193 5.09313 13.9434 5.12262 13.7786 5.18273C13.6138 5.24283 13.4635 5.33237 13.3361 5.44622C13.2088 5.56007 13.1069 5.69601 13.0364 5.84628C12.9659 5.99654 12.928 6.15819 12.9251 6.32197V7.54273H11.0909V6.32197C11.0834 5.99164 10.935 5.67744 10.6782 5.4478C10.4213 5.21816 10.0767 5.09167 9.71952 5.09593H6.77111C6.46949 5.09397 6.17558 5.18405 5.9349 5.35219C5.69421 5.52034 5.52018 5.75717 5.43975 6.02603L5.01693 7.54273H3.77128L3.78842 3.05606ZM18.0733 8.20331C18.0288 8.253 17.9729 8.29299 17.9097 8.3204C17.8464 8.3478 17.7775 8.36194 17.7076 8.36184H14.2793C14.1605 8.36327 14.0459 8.32138 13.9604 8.24521C13.8748 8.16904 13.8251 8.06475 13.8221 7.95495V6.32197C13.8229 6.26739 13.8353 6.21347 13.8588 6.16338C13.8822 6.11328 13.9162 6.06799 13.9587 6.03013C14.0013 5.99227 14.0515 5.9626 14.1065 5.94285C14.1615 5.92309 14.2203 5.91367 14.2793 5.91508H17.2277C17.3275 5.91318 17.4252 5.94236 17.505 5.99794C17.5848 6.05352 17.6421 6.13226 17.6677 6.22156L18.1819 7.88095C18.1913 7.93837 18.187 7.99701 18.1693 8.05271C18.1515 8.10842 18.1207 8.15983 18.0791 8.20331H18.0733ZM10.1824 6.32197V7.94966C10.1794 8.05946 10.1297 8.16375 10.0441 8.23992C9.95856 8.31609 9.84398 8.35801 9.72523 8.35659H6.29685C6.228 8.35591 6.16014 8.34136 6.09797 8.31398C6.03581 8.2866 5.98084 8.24703 5.93688 8.19802C5.89501 8.1497 5.86597 8.09299 5.85208 8.03242C5.83819 7.97185 5.83982 7.90912 5.85687 7.84925L6.31399 6.21627C6.34159 6.12701 6.40019 6.04866 6.48074 5.99326C6.56129 5.93787 6.65931 5.90853 6.75968 5.90979H9.70238C9.76373 5.90541 9.82538 5.91281 9.88348 5.93156C9.94157 5.9503 9.99484 5.97999 10.0399 6.01871C10.085 6.05743 10.1209 6.10434 10.1455 6.15654C10.17 6.20873 10.1825 6.26507 10.1824 6.32197ZM3.657 8.36184H5.03978C5.08669 8.48635 5.15626 8.60253 5.24548 8.70536C5.3758 8.85367 5.54054 8.97297 5.72748 9.05439C5.91443 9.13581 6.11879 9.17727 6.32542 9.1757H9.7538C10.0323 9.17745 10.3046 9.10044 10.5344 8.95498C10.7642 8.80952 10.9404 8.60254 11.0394 8.36184H13.0393C13.1387 8.60339 13.3158 8.81097 13.5467 8.9565C13.7776 9.10203 14.0513 9.17854 14.3307 9.1757H17.7591C17.9666 9.17768 18.1719 9.13642 18.3599 9.055C18.5478 8.97358 18.7135 8.85408 18.8447 8.70536C18.9319 8.60124 19.0012 8.48539 19.0504 8.36184H20.4275L21.8388 12.4575C21.7856 12.4546 21.7321 12.4546 21.6789 12.4575H2.41707C2.36379 12.4546 2.31036 12.4546 2.25708 12.4575L3.657 8.36184ZM1.94281 18.1543V17.3405H2.85704V18.1543H1.94281ZM22.0731 18.1543H21.1589V17.3405H22.0731V18.1543ZM22.0731 16.5214H1.95995V13.6941C1.96069 13.6395 1.97314 13.5856 1.99659 13.5355C2.02003 13.4854 2.054 13.4401 2.09653 13.4022C2.13906 13.3644 2.18929 13.3347 2.24432 13.315C2.29934 13.2952 2.35806 13.2857 2.41707 13.2871H21.6103C21.6693 13.2857 21.728 13.2952 21.783 13.315C21.8381 13.3347 21.8883 13.3644 21.9308 13.4022C21.9733 13.4401 22.0073 13.4854 22.0308 13.5355C22.0542 13.5856 22.0667 13.6395 22.0674 13.6941L22.0731 16.5214Z"/>
</mask>
<path d="M22.9702 13.3981C23.002 13.3143 23.002 13.223 22.9702 13.1392L21.176 7.88095V3.04021C21.164 2.48981 20.9168 1.96621 20.4885 1.58394C20.0602 1.20167 19.4856 0.99184 18.8904 1.00034H5.17692C4.88201 0.995434 4.58895 1.04431 4.31447 1.14418C4.03999 1.24405 3.78947 1.39295 3.57722 1.58238C3.36498 1.77181 3.19517 1.99805 3.07748 2.24818C2.95979 2.49832 2.89654 2.76745 2.89133 3.04021V7.88095L1.04 13.1656C1.00821 13.2494 1.00821 13.3407 1.04 13.4246C1.01471 13.5125 1.00127 13.6031 1 13.6941V18.593C1.00148 18.6478 1.01464 18.7018 1.0387 18.7519C1.06277 18.8021 1.09728 18.8473 1.14026 18.8851C1.18324 18.9229 1.23385 18.9525 1.2892 18.9722C1.34455 18.9919 1.40355 19.0013 1.46284 18.9999H3.32559C3.44434 19.0013 3.55891 18.9594 3.64448 18.8832C3.73005 18.8071 3.77971 18.7028 3.78271 18.593V17.3405H20.2561V18.5665C20.2591 18.6763 20.3087 18.7806 20.3943 18.8568C20.4799 18.9329 20.5944 18.9749 20.7132 18.9734H22.5417C22.6604 18.9749 22.775 18.9329 22.8606 18.8568C22.9461 18.7806 22.9958 18.6763 22.9988 18.5665V13.6941C23.0036 13.5947 22.994 13.4952 22.9702 13.3981ZM3.78842 3.05606C3.79593 2.72572 3.94427 2.41151 4.20112 2.18187C4.45798 1.95223 4.80256 1.82576 5.15978 1.83001H18.8733C19.2305 1.82576 19.5751 1.95223 19.8319 2.18187C20.0888 2.41151 20.2371 2.72572 20.2446 3.05606V7.54273H18.999L18.5762 6.02603C18.4964 5.75582 18.3217 5.51782 18.0797 5.34945C17.8376 5.18108 17.5419 5.09189 17.2391 5.09593H14.2964C14.1193 5.09313 13.9434 5.12262 13.7786 5.18273C13.6138 5.24283 13.4635 5.33237 13.3361 5.44622C13.2088 5.56007 13.1069 5.69601 13.0364 5.84628C12.9659 5.99654 12.928 6.15819 12.9251 6.32197V7.54273H11.0909V6.32197C11.0834 5.99164 10.935 5.67744 10.6782 5.4478C10.4213 5.21816 10.0767 5.09167 9.71952 5.09593H6.77111C6.46949 5.09397 6.17558 5.18405 5.9349 5.35219C5.69421 5.52034 5.52018 5.75717 5.43975 6.02603L5.01693 7.54273H3.77128L3.78842 3.05606ZM18.0733 8.20331C18.0288 8.253 17.9729 8.29299 17.9097 8.3204C17.8464 8.3478 17.7775 8.36194 17.7076 8.36184H14.2793C14.1605 8.36327 14.0459 8.32138 13.9604 8.24521C13.8748 8.16904 13.8251 8.06475 13.8221 7.95495V6.32197C13.8229 6.26739 13.8353 6.21347 13.8588 6.16338C13.8822 6.11328 13.9162 6.06799 13.9587 6.03013C14.0013 5.99227 14.0515 5.9626 14.1065 5.94285C14.1615 5.92309 14.2203 5.91367 14.2793 5.91508H17.2277C17.3275 5.91318 17.4252 5.94236 17.505 5.99794C17.5848 6.05352 17.6421 6.13226 17.6677 6.22156L18.1819 7.88095C18.1913 7.93837 18.187 7.99701 18.1693 8.05271C18.1515 8.10842 18.1207 8.15983 18.0791 8.20331H18.0733ZM10.1824 6.32197V7.94966C10.1794 8.05946 10.1297 8.16375 10.0441 8.23992C9.95856 8.31609 9.84398 8.35801 9.72523 8.35659H6.29685C6.228 8.35591 6.16014 8.34136 6.09797 8.31398C6.03581 8.2866 5.98084 8.24703 5.93688 8.19802C5.89501 8.1497 5.86597 8.09299 5.85208 8.03242C5.83819 7.97185 5.83982 7.90912 5.85687 7.84925L6.31399 6.21627C6.34159 6.12701 6.40019 6.04866 6.48074 5.99326C6.56129 5.93787 6.65931 5.90853 6.75968 5.90979H9.70238C9.76373 5.90541 9.82538 5.91281 9.88348 5.93156C9.94157 5.9503 9.99484 5.97999 10.0399 6.01871C10.085 6.05743 10.1209 6.10434 10.1455 6.15654C10.17 6.20873 10.1825 6.26507 10.1824 6.32197ZM3.657 8.36184H5.03978C5.08669 8.48635 5.15626 8.60253 5.24548 8.70536C5.3758 8.85367 5.54054 8.97297 5.72748 9.05439C5.91443 9.13581 6.11879 9.17727 6.32542 9.1757H9.7538C10.0323 9.17745 10.3046 9.10044 10.5344 8.95498C10.7642 8.80952 10.9404 8.60254 11.0394 8.36184H13.0393C13.1387 8.60339 13.3158 8.81097 13.5467 8.9565C13.7776 9.10203 14.0513 9.17854 14.3307 9.1757H17.7591C17.9666 9.17768 18.1719 9.13642 18.3599 9.055C18.5478 8.97358 18.7135 8.85408 18.8447 8.70536C18.9319 8.60124 19.0012 8.48539 19.0504 8.36184H20.4275L21.8388 12.4575C21.7856 12.4546 21.7321 12.4546 21.6789 12.4575H2.41707C2.36379 12.4546 2.31036 12.4546 2.25708 12.4575L3.657 8.36184ZM1.94281 18.1543V17.3405H2.85704V18.1543H1.94281ZM22.0731 18.1543H21.1589V17.3405H22.0731V18.1543ZM22.0731 16.5214H1.95995V13.6941C1.96069 13.6395 1.97314 13.5856 1.99659 13.5355C2.02003 13.4854 2.054 13.4401 2.09653 13.4022C2.13906 13.3644 2.18929 13.3347 2.24432 13.315C2.29934 13.2952 2.35806 13.2857 2.41707 13.2871H21.6103C21.6693 13.2857 21.728 13.2952 21.783 13.315C21.8381 13.3347 21.8883 13.3644 21.9308 13.4022C21.9733 13.4401 22.0073 13.4854 22.0308 13.5355C22.0542 13.5856 22.0667 13.6395 22.0674 13.6941L22.0731 16.5214Z" fill="#ffffff"/>
<path d="M22.9702 13.3981C23.002 13.3143 23.002 13.223 22.9702 13.1392L21.176 7.88095V3.04021C21.164 2.48981 20.9168 1.96621 20.4885 1.58394C20.0602 1.20167 19.4856 0.99184 18.8904 1.00034H5.17692C4.88201 0.995434 4.58895 1.04431 4.31447 1.14418C4.03999 1.24405 3.78947 1.39295 3.57722 1.58238C3.36498 1.77181 3.19517 1.99805 3.07748 2.24818C2.95979 2.49832 2.89654 2.76745 2.89133 3.04021V7.88095L1.04 13.1656C1.00821 13.2494 1.00821 13.3407 1.04 13.4246C1.01471 13.5125 1.00127 13.6031 1 13.6941V18.593C1.00148 18.6478 1.01464 18.7018 1.0387 18.7519C1.06277 18.8021 1.09728 18.8473 1.14026 18.8851C1.18324 18.9229 1.23385 18.9525 1.2892 18.9722C1.34455 18.9919 1.40355 19.0013 1.46284 18.9999H3.32559C3.44434 19.0013 3.55891 18.9594 3.64448 18.8832C3.73005 18.8071 3.77971 18.7028 3.78271 18.593V17.3405H20.2561V18.5665C20.2591 18.6763 20.3087 18.7806 20.3943 18.8568C20.4799 18.9329 20.5944 18.9749 20.7132 18.9734H22.5417C22.6604 18.9749 22.775 18.9329 22.8606 18.8568C22.9461 18.7806 22.9958 18.6763 22.9988 18.5665V13.6941C23.0036 13.5947 22.994 13.4952 22.9702 13.3981ZM3.78842 3.05606C3.79593 2.72572 3.94427 2.41151 4.20112 2.18187C4.45798 1.95223 4.80256 1.82576 5.15978 1.83001H18.8733C19.2305 1.82576 19.5751 1.95223 19.8319 2.18187C20.0888 2.41151 20.2371 2.72572 20.2446 3.05606V7.54273H18.999L18.5762 6.02603C18.4964 5.75582 18.3217 5.51782 18.0797 5.34945C17.8376 5.18108 17.5419 5.09189 17.2391 5.09593H14.2964C14.1193 5.09313 13.9434 5.12262 13.7786 5.18273C13.6138 5.24283 13.4635 5.33237 13.3361 5.44622C13.2088 5.56007 13.1069 5.69601 13.0364 5.84628C12.9659 5.99654 12.928 6.15819 12.9251 6.32197V7.54273H11.0909V6.32197C11.0834 5.99164 10.935 5.67744 10.6782 5.4478C10.4213 5.21816 10.0767 5.09167 9.71952 5.09593H6.77111C6.46949 5.09397 6.17558 5.18405 5.9349 5.35219C5.69421 5.52034 5.52018 5.75717 5.43975 6.02603L5.01693 7.54273H3.77128L3.78842 3.05606ZM18.0733 8.20331C18.0288 8.253 17.9729 8.29299 17.9097 8.3204C17.8464 8.3478 17.7775 8.36194 17.7076 8.36184H14.2793C14.1605 8.36327 14.0459 8.32138 13.9604 8.24521C13.8748 8.16904 13.8251 8.06475 13.8221 7.95495V6.32197C13.8229 6.26739 13.8353 6.21347 13.8588 6.16338C13.8822 6.11328 13.9162 6.06799 13.9587 6.03013C14.0013 5.99227 14.0515 5.9626 14.1065 5.94285C14.1615 5.92309 14.2203 5.91367 14.2793 5.91508H17.2277C17.3275 5.91318 17.4252 5.94236 17.505 5.99794C17.5848 6.05352 17.6421 6.13226 17.6677 6.22156L18.1819 7.88095C18.1913 7.93837 18.187 7.99701 18.1693 8.05271C18.1515 8.10842 18.1207 8.15983 18.0791 8.20331H18.0733ZM10.1824 6.32197V7.94966C10.1794 8.05946 10.1297 8.16375 10.0441 8.23992C9.95856 8.31609 9.84398 8.35801 9.72523 8.35659H6.29685C6.228 8.35591 6.16014 8.34136 6.09797 8.31398C6.03581 8.2866 5.98084 8.24703 5.93688 8.19802C5.89501 8.1497 5.86597 8.09299 5.85208 8.03242C5.83819 7.97185 5.83982 7.90912 5.85687 7.84925L6.31399 6.21627C6.34159 6.12701 6.40019 6.04866 6.48074 5.99326C6.56129 5.93787 6.65931 5.90853 6.75968 5.90979H9.70238C9.76373 5.90541 9.82538 5.91281 9.88348 5.93156C9.94157 5.9503 9.99484 5.97999 10.0399 6.01871C10.085 6.05743 10.1209 6.10434 10.1455 6.15654C10.17 6.20873 10.1825 6.26507 10.1824 6.32197ZM3.657 8.36184H5.03978C5.08669 8.48635 5.15626 8.60253 5.24548 8.70536C5.3758 8.85367 5.54054 8.97297 5.72748 9.05439C5.91443 9.13581 6.11879 9.17727 6.32542 9.1757H9.7538C10.0323 9.17745 10.3046 9.10044 10.5344 8.95498C10.7642 8.80952 10.9404 8.60254 11.0394 8.36184H13.0393C13.1387 8.60339 13.3158 8.81097 13.5467 8.9565C13.7776 9.10203 14.0513 9.17854 14.3307 9.1757H17.7591C17.9666 9.17768 18.1719 9.13642 18.3599 9.055C18.5478 8.97358 18.7135 8.85408 18.8447 8.70536C18.9319 8.60124 19.0012 8.48539 19.0504 8.36184H20.4275L21.8388 12.4575C21.7856 12.4546 21.7321 12.4546 21.6789 12.4575H2.41707C2.36379 12.4546 2.31036 12.4546 2.25708 12.4575L3.657 8.36184ZM1.94281 18.1543V17.3405H2.85704V18.1543H1.94281ZM22.0731 18.1543H21.1589V17.3405H22.0731V18.1543ZM22.0731 16.5214H1.95995V13.6941C1.96069 13.6395 1.97314 13.5856 1.99659 13.5355C2.02003 13.4854 2.054 13.4401 2.09653 13.4022C2.13906 13.3644 2.18929 13.3347 2.24432 13.315C2.29934 13.2952 2.35806 13.2857 2.41707 13.2871H21.6103C21.6693 13.2857 21.728 13.2952 21.783 13.315C21.8381 13.3347 21.8883 13.3644 21.9308 13.4022C21.9733 13.4401 22.0073 13.4854 22.0308 13.5355C22.0542 13.5856 22.0667 13.6395 22.0674 13.6941L22.0731 16.5214Z" stroke="#ffffff" mask="url(#path-1-outside-1_10266_27004)"/>
</svg>
