<svg width="12" height="19" viewBox="0 0 12 19" fill="none" xmlns="http://www.w3.org/2000/svg">
<path d="M5.70177 0C2.55288 0 0 2.55252 0 5.70177C0 8.33239 3.97973 15.5592 5.28952 17.8662C5.47127 18.1862 5.93227 18.1862 6.11402 17.8662C7.42381 15.5592 11.4035 8.33239 11.4035 5.70177C11.4035 2.55252 8.85047 0 5.70177 0ZM5.70177 7.73404C4.40775 7.73404 3.35872 6.68501 3.35872 5.39099C3.35872 4.09661 4.40775 3.04759 5.70177 3.04759C6.99579 3.04759 8.04481 4.09661 8.04481 5.39099C8.04481 6.68501 6.99579 7.73404 5.70177 7.73404Z" fill="#006BBE"/>
<path d="M5.70117 0V3.04741C6.99483 3.04741 8.04403 4.09661 8.04403 5.39135C8.04403 6.68501 6.99483 7.73422 5.70117 7.73422V18.1061C5.86191 18.1061 6.02264 18.0266 6.11361 17.8662C6.20657 17.7027 6.31312 17.5141 6.43036 17.3041C6.65597 16.9005 6.92289 16.4185 7.21355 15.8818C8.31422 13.8461 11.4029 8.01382 11.4029 5.70177C11.4029 2.55252 8.85006 0 5.70117 0Z" fill="#006BBE"/>
</svg>
