<svg width="18" height="18" viewBox="0 0 18 18" fill="none" xmlns="http://www.w3.org/2000/svg">
<path d="M17.3793 17.069H0.620684C0.277875 17.069 0 16.7911 0 16.4483V2.17244C0 1.82963 0.277875 1.55176 0.620684 1.55176H17.3793C17.7221 1.55176 18 1.82963 18 2.17244V16.4483C18 16.7911 17.7221 17.069 17.3793 17.069Z" fill="#EFF2FA"/>
<path d="M18 4.65521H0V2.17244C0 1.82963 0.277875 1.55176 0.620684 1.55176H17.3793C17.7221 1.55176 18 1.82963 18 2.17244V4.65521Z" fill="#8894FF"/>
<path d="M18 4.65527H0V5.27596H18V4.65527Z" fill="#E4EAF6"/>
<path d="M2.63807 3.87942C3.15227 3.87942 3.56912 3.46258 3.56912 2.94838C3.56912 2.43418 3.15227 2.01733 2.63807 2.01733C2.12387 2.01733 1.70703 2.43418 1.70703 2.94838C1.70703 3.46258 2.12387 3.87942 2.63807 3.87942Z" fill="#D2555A"/>
<path d="M2.63738 3.41389C2.38028 3.41389 2.17188 3.20544 2.17188 2.94838V1.39666C2.17188 1.13956 2.38032 0.931152 2.63738 0.931152C2.89448 0.931152 3.10288 1.13959 3.10288 1.39666V2.94838C3.10292 3.20548 2.89448 3.41389 2.63738 3.41389Z" fill="#C7CFE2"/>
<path d="M2.63738 2.48287C2.38028 2.48287 2.17188 2.27443 2.17188 2.01737V2.94841C2.17188 3.20551 2.38032 3.41392 2.63738 3.41392C2.89448 3.41392 3.10288 3.20548 3.10288 2.94841V2.01733C3.10292 2.27443 2.89448 2.48287 2.63738 2.48287Z" fill="#AFB9D2"/>
<path d="M15.3627 3.87942C15.8769 3.87942 16.2937 3.46258 16.2937 2.94838C16.2937 2.43418 15.8769 2.01733 15.3627 2.01733C14.8485 2.01733 14.4316 2.43418 14.4316 2.94838C14.4316 3.46258 14.8485 3.87942 15.3627 3.87942Z" fill="#D2555A"/>
<path d="M15.362 3.41389C15.1049 3.41389 14.8965 3.20544 14.8965 2.94838V1.39666C14.8965 1.13956 15.1049 0.931152 15.362 0.931152C15.6191 0.931152 15.8275 1.13959 15.8275 1.39666V2.94838C15.8275 3.20548 15.619 3.41389 15.362 3.41389Z" fill="#C7CFE2"/>
<path d="M15.362 2.48287C15.1049 2.48287 14.8965 2.27443 14.8965 2.01737V2.94841C14.8965 3.20551 15.1049 3.41392 15.362 3.41392C15.619 3.41392 15.8275 3.20548 15.8275 2.94841V2.01733C15.8275 2.27443 15.619 2.48287 15.362 2.48287Z" fill="#AFB9D2"/>
<path d="M8.26503 10.9473C8.23159 10.9396 8.22829 10.8969 8.26028 10.8845C8.99438 10.6002 9.43344 9.97048 9.43344 9.16104C9.43344 8.01646 8.43775 7.18579 7.06623 7.18579C5.87908 7.18579 4.97335 7.80665 4.7024 8.80618C4.66759 8.93372 4.69364 9.06675 4.77338 9.17099C4.85142 9.27309 4.9699 9.33162 5.09829 9.33162C5.28406 9.33162 5.44697 9.2045 5.49419 9.02239C5.66473 8.36054 6.25514 7.94949 7.03508 7.94949C7.97196 7.94949 8.57711 8.4595 8.57711 9.24876C8.57711 10.0472 7.93037 10.6048 7.0045 10.6048H6.43697C6.23194 10.6048 6.06537 10.7714 6.06537 10.9763C6.06537 11.1812 6.23194 11.3479 6.43697 11.3479H7.03508C8.19763 11.3479 8.89158 11.8914 8.89158 12.8019C8.89158 13.6385 8.13906 14.2456 7.10209 14.2456C6.20765 14.2456 5.51538 13.8099 5.33837 13.1352C5.28887 12.948 5.12399 12.8173 4.93738 12.8173C4.80903 12.8173 4.69051 12.8755 4.61159 12.977C4.53129 13.0808 4.50412 13.2139 4.53723 13.342C4.79908 14.3548 5.80778 15.0091 7.10719 15.0091C8.61557 15.0091 9.75294 14.0513 9.75294 12.7812C9.75302 11.8434 9.18243 11.1593 8.26503 10.9473Z" fill="#FF4F67"/>
<path d="M12.7009 7.29419C12.4919 7.29497 12.2909 7.35726 12.1192 7.47461C11.9021 7.6228 11.5859 7.84252 11.2799 8.05518C10.9745 8.26728 10.6795 8.47228 10.5039 8.5916C10.3976 8.66398 10.334 8.78373 10.334 8.91198C10.334 9.05622 10.4132 9.18757 10.5404 9.255C10.6685 9.32316 10.8175 9.31508 10.938 9.23309C11.2478 9.02251 12.0756 8.44022 12.2959 8.28504C12.3193 8.26851 12.3504 8.28616 12.3504 8.31481V14.4779C12.3504 14.7054 12.5357 14.8905 12.763 14.8905C12.9904 14.8905 13.1756 14.7054 13.1756 14.4779V7.76483C13.1757 7.50386 12.9619 7.29324 12.7009 7.29419Z" fill="#FF4F67"/>
</svg>
