<svg id="logo" viewBox="0 0 33 31" fill="none" xmlns="http://www.w3.org/2000/svg">
<path d="M8.98206 7.11428C-0.186004 16.0678 0.000284095 15.8666 0.000284095 16.5421C0.000284095 17.1313 0.30633 17.5625 0.905115 17.8068C1.10471 17.893 1.90309 17.9362 2.72808 17.9074L4.19178 17.8643L4.25831 23.9291L4.32484 30.0084L4.76395 30.4682L5.18975 30.9425L16.2473 30.9856C22.3283 31.0144 27.5178 31 27.7706 30.9425C28.0367 30.8994 28.3827 30.6982 28.5557 30.5114L28.875 30.1664V23.9579V17.7637L30.0593 17.8643C31.523 17.9936 32.2149 17.8787 32.654 17.4331C33.0266 17.0595 33.1064 16.4559 32.8536 15.8954C32.6407 15.4211 16.886 0.0577927 16.5534 0.000305176C16.3671 -0.0284367 14.2381 1.96922 8.98206 7.11428ZM18.0038 10.8222C19.4808 11.1527 20.3989 11.6845 21.2771 12.7049C22.9803 14.6594 23.4993 16.9876 22.8073 19.5314C22.2751 21.486 19.3211 25.8118 17.5646 27.2059C17.0723 27.5939 16.8062 27.7089 16.3671 27.7089C15.8614 27.7089 15.7417 27.6227 14.9832 26.8035C13.6792 25.4094 11.3373 22.1327 10.8449 21.0261C10.2062 19.6176 9.9002 17.6631 10.0998 16.2834C10.672 12.4749 14.2913 9.97425 18.0038 10.8222Z" fill="currentColor"/>
<path d="M15.2085 13.5384C13.4521 14.1564 12.2279 16.154 12.4142 18.0942C12.7735 21.759 16.8186 23.3542 19.2537 20.7817C20.0654 19.9194 20.4246 18.9709 20.4113 17.6487C20.4113 16.772 20.3448 16.4271 20.0521 15.8235C19.6129 14.9181 18.921 14.1708 18.1359 13.754C17.3908 13.3659 15.9936 13.2653 15.2085 13.5384Z" fill="#FF6000"/>
</svg>
