<svg aria-hidden="true" style="position: absolute; width: 0; height: 0; overflow: hidden;" version="1.1" xmlns="http://www.w3.org/2000/svg" xmlns:xlink="http://www.w3.org/1999/xlink">
<defs>
<symbol id="circle" viewBox="0 0 32 32">
<path fill="#14d8c4" style="fill: var(--color1, #14d8c4)" d="M2.142 22.248c-0.968 0.285-1.869-0.615-1.584-1.584l1.214-4.128c0.273-0.929 1.441-1.227 2.126-0.542l2.915 2.915c0.685 0.685 0.387 1.853-0.542 2.126l-4.128 1.213z"></path>
<path fill="#14d8c4" style="fill: var(--color1, #14d8c4)" d="M0 11.354c0-6.271 5.083-11.354 11.354-11.354s11.354 5.083 11.354 11.354-5.083 11.354-11.354 11.354c-2.125 0-4.114-0.584-5.815-1.6-3.318-1.983-5.539-5.608-5.539-9.754z"></path>
<path fill="#fd4304" style="fill: var(--color2, #fd4304)" d="M11.072 31.347c-0.968 0.285-1.869-0.615-1.584-1.583l1.213-4.128c0.273-0.929 1.441-1.227 2.126-0.542l2.914 2.915c0.685 0.685 0.387 1.853-0.542 2.126l-4.128 1.213z"></path>
<path fill="#fd4304" style="fill: var(--color2, #fd4304)" d="M8.93 20.453c0-6.27 5.083-11.354 11.353-11.354s11.354 5.083 11.354 11.354c0 6.271-5.083 11.354-11.354 11.354-2.125 0-4.114-0.584-5.815-1.6-3.317-1.982-5.539-5.608-5.539-9.754z"></path>
</symbol>
<symbol id="people" viewBox="0 0 28 32">
<path fill="#14d8c4" style="fill: var(--color1, #14d8c4)" d="M0 19.924c0-5.078 4.117-9.195 9.195-9.195s9.195 4.117 9.195 9.195v1.634c0 1.329-1.077 2.407-2.407 2.407h-13.578c-1.329 0-2.407-1.077-2.407-2.407v0-1.634z"></path>
<path fill="#14d8c4" style="fill: var(--color1, #14d8c4)" d="M13.863 4.667c0 2.578-2.090 4.667-4.667 4.667s-4.667-2.090-4.667-4.667c0-2.578 2.090-4.667 4.667-4.667s4.667 2.090 4.667 4.667z"></path>
<path fill="#fd4304" style="fill: var(--color2, #fd4304)" d="M9.195 27.656c0-5.078 4.117-9.195 9.195-9.195s9.195 4.117 9.195 9.195v1.634c0 1.329-1.077 2.406-2.406 2.407h-13.578c-1.329 0-2.407-1.077-2.407-2.407v0-1.634z"></path>
<path fill="#fd4304" style="fill: var(--color2, #fd4304)" d="M23.058 12.4c0 2.578-2.090 4.667-4.667 4.667s-4.667-2.090-4.667-4.667c0-2.578 2.090-4.667 4.667-4.667s4.667 2.090 4.667 4.667z"></path>
</symbol>
<symbol id="arows" viewBox="0 0 33 32">
<path fill="#fd4304" style="fill: var(--color2, #fd4304)" d="M26.221 17.608h-9.808v-6.699c0.001-0.74 0.602-1.34 1.342-1.34 0.001 0 0.001 0 0.002 0h7.12c0 0 0.001 0 0.002 0 0.74 0 1.341 0.6 1.342 1.34v6.699z"></path>
<path fill="#fd4304" style="fill: var(--color2, #fd4304)" d="M22.331 31.184c-0.248 0.283-0.61 0.46-1.013 0.46s-0.765-0.178-1.012-0.459l-0.001-0.002-10.024-11.491c-0.756-0.867-0.138-2.219 1.014-2.219h20.047c1.152 0 1.77 1.352 1.014 2.219l-10.024 11.491z"></path>
<path fill="#14d8c4" style="fill: var(--color1, #14d8c4)" d="M16.273 8.073h-9.808v-6.728c0-0 0-0.001 0-0.001 0-0.743 0.602-1.345 1.344-1.345h7.12c0.742 0.001 1.343 0.603 1.343 1.345 0 0 0 0.001 0 0.001v-0 6.728z"></path>
<path fill="#14d8c4" style="fill: var(--color1, #14d8c4)" d="M12.383 21.708c-0.247 0.284-0.61 0.462-1.014 0.462s-0.766-0.178-1.012-0.461l-0.001-0.002-10.024-11.54c-0.756-0.871-0.138-2.229 1.014-2.229h20.046c1.152 0 1.77 1.358 1.014 2.229l-10.023 11.54z"></path>
</symbol>
</defs>
</svg>
