<svg aria-hidden="true" style="position: absolute; width: 0; height: 0; overflow: hidden;" version="1.1" xmlns="http://www.w3.org/2000/svg" xmlns:xlink="http://www.w3.org/1999/xlink">
<defs>
<symbol id="threeDots" viewBox="0 0 132 32">
<path d="M17.876 30.148c-4.468 0-8.192-1.376-11.172-4.124-2.984-2.752-4.468-6.132-4.468-10.144 0-4.128 1.52-7.508 4.552-10.14 3.096-2.64 6.932-3.956 11.52-3.956 4.64 0 8.42 1.348 11.34 4.040 2.98 2.636 4.468 5.988 4.468 10.056 0 4.18-1.52 7.62-4.552 10.312-2.98 2.636-6.88 3.952-11.688 3.952zM65.656 30.148c-4.468 0-8.192-1.376-11.172-4.124-2.98-2.752-4.468-6.132-4.468-10.14 0-4.128 1.52-7.508 4.556-10.14 3.092-2.64 6.932-3.956 11.512-3.956 4.64 0 8.424 1.348 11.344 4.040 2.98 2.636 4.472 5.988 4.472 10.056 0 4.18-1.52 7.62-4.56 10.312-2.976 2.636-6.872 3.952-11.68 3.952zM113.436 30.148c-4.468 0-8.192-1.376-11.172-4.124-2.976-2.752-4.468-6.132-4.468-10.14 0-4.128 1.52-7.508 4.556-10.14 3.092-2.64 6.932-3.956 11.516-3.956 4.64 0 8.42 1.348 11.344 4.040 2.976 2.636 4.468 5.988 4.468 10.056 0 4.18-1.52 7.62-4.556 10.312-2.976 2.636-6.872 3.952-11.688 3.952z"></path>
</symbol>
<symbol id="arrow" viewBox="0 0 58 32">
<path d="M1.308 15.015c-0.378 0.378-0.611 0.899-0.611 1.475s0.234 1.098 0.611 1.476l13.28 13.281c0.378 0.378 0.9 0.612 1.476 0.612 1.153 0 2.087-0.934 2.087-2.087 0-0.576-0.233-1.098-0.611-1.476l-11.808-11.807 11.807-11.805c0.378-0.378 0.611-0.899 0.611-1.475 0-1.153-0.934-2.087-2.087-2.087-0.577 0-1.098 0.234-1.476 0.612l-13.279 13.281zM58.435 14.403h-55.652v4.174h55.652v-4.174z"></path>
</symbol>
<symbol id="singleBed" viewBox="0 0 35 32">
<path d="M5.601 30.106v-1.516h23.357v1.519c0.004 0.256 0.115 0.495 0.305 0.667 0.187 0.172 0.435 0.264 0.687 0.264h2.665c0.001 0 0.003 0 0.004 0 0.264 0 0.504-0.101 0.684-0.266l-0.001 0.001c0.182-0.166 0.296-0.405 0.297-0.669v-7.365c-0.008-0.336-0.096-0.65-0.245-0.926l0.005 0.011c-0.132-0.245-0.3-0.453-0.499-0.625l-0.003-0.002c-0.001-0.008-0.002-0.013-0.003-0.018l0.001 0.004-0.010-0.046-0.022-0.042-5.889-10.845v-7.128c-0.007-0.61-0.272-1.156-0.691-1.536l-0.002-0.002c-0.426-0.387-0.994-0.625-1.617-0.625-0.004 0-0.008 0-0.011 0h-14.7c-0.003 0-0.007-0-0.011-0-0.624 0-1.192 0.237-1.619 0.626l0.002-0.002c-0.42 0.382-0.685 0.928-0.691 1.536v7.13l-5.926 10.909-0.003 0.051c-0.201 0.178-0.365 0.39-0.486 0.627-0.137 0.264-0.219 0.577-0.22 0.908v7.363c0.004 0.256 0.115 0.495 0.303 0.667s0.435 0.264 0.689 0.264h2.665c0.001 0 0.003 0 0.004 0 0.264 0 0.504-0.101 0.684-0.266l-0.001 0.001c0.182-0.166 0.296-0.405 0.297-0.669v-0zM19.756 5.868h-4.968c-0.832 0.005-1.638 0.275-2.285 0.768-0.627 0.473-1.079 1.147-1.261 1.925l-0.005 0.023-0.211 0.964h-1.411l-0.046-6.424c0-0.070 0.031-0.142 0.092-0.2 0.066-0.059 0.153-0.095 0.248-0.095 0.001 0 0.003 0 0.004 0h14.669c0.099 0 0.188 0.037 0.251 0.095v0c0.055 0.049 0.091 0.12 0.092 0.199v6.426h-1.408l-0.211-0.963c-0.185-0.803-0.637-1.479-1.256-1.946l-0.009-0.006c-0.628-0.477-1.424-0.765-2.286-0.765h-0zM19.999 11.997h-5.501c-0.251 0-0.498-0.051-0.723-0.148-0.227-0.1-0.42-0.24-0.576-0.413l-0.001-0.001c-0.148-0.163-0.26-0.362-0.323-0.581l-0.003-0.010c-0.032-0.111-0.050-0.238-0.050-0.369 0-0.101 0.011-0.199 0.031-0.294l-0.002 0.009 0.266-1.229c0.074-0.344 0.275-0.658 0.576-0.887 0.296-0.224 0.67-0.358 1.075-0.358 0.002 0 0.004 0 0.005 0h4.956c0.397 0 0.776 0.128 1.075 0.358 0.301 0.229 0.499 0.543 0.572 0.886v0.001l0.268 1.229c0.047 0.218 0.042 0.44-0.015 0.655-0.064 0.23-0.176 0.428-0.325 0.593l0.001-0.001c-0.158 0.175-0.352 0.316-0.569 0.411l-0.011 0.004c-0.227 0.097-0.475 0.147-0.727 0.146zM11.683 12.634l2.824 0.913v0.32h5.491c0.007 0 0.014 0 0.022 0 0.554 0 1.081-0.117 1.556-0.328l-0.024 0.010c0.486-0.212 0.919-0.525 1.262-0.914 0.314-0.358 0.548-0.773 0.685-1.217h1.856l4.982 9.166h-26.121l4.974-9.165h1.812c0.133 0.445 0.365 0.86 0.681 1.217zM2.904 29.171v-0.581h0.696v0.581h-0.696zM31.599 29.171h-0.696v-0.581h0.696v0.581zM31.597 26.721h-28.691v-3.976c0-0.069 0.029-0.141 0.091-0.198 0.066-0.060 0.153-0.096 0.25-0.096 0.001 0 0.003 0 0.004 0h27.966c0.1 0 0.192 0.038 0.256 0.096 0.057 0.050 0.093 0.122 0.096 0.202v0l0.029 3.971z"></path>
</symbol>
<symbol id="doubleBed" viewBox="0 0 38 32">
<path d="M36.693 21.419c0.024-0.063 0.039-0.137 0.039-0.213s-0.014-0.15-0.040-0.218l0.001 0.004-2.9-8.655v-7.968c-0.027-0.953-0.45-1.803-1.109-2.394l-0.003-0.003c-0.663-0.597-1.545-0.962-2.513-0.962-0.025 0-0.049 0-0.073 0.001l0.004-0h-22.163c-0.020-0-0.043-0.001-0.066-0.001-0.477 0-0.933 0.087-1.354 0.246l0.026-0.009c-0.461 0.172-0.857 0.416-1.195 0.723l0.003-0.003c-0.343 0.312-0.616 0.685-0.807 1.096-0.19 0.412-0.293 0.855-0.301 1.304v7.968l-2.991 8.699c-0.024 0.063-0.039 0.137-0.039 0.213s0.014 0.15 0.040 0.218l-0.001-0.004c-0.039 0.132-0.063 0.285-0.065 0.442l-0 0.001v8.064c0.004 0.192 0.091 0.364 0.226 0.48l0.001 0.001c0.13 0.118 0.304 0.19 0.494 0.19 0.010 0 0.019-0 0.029-0.001l-0.001 0h3.010c0.003 0 0.007 0 0.011 0 0.194 0 0.371-0.073 0.505-0.194l-0.001 0.001c0.132-0.118 0.217-0.287 0.224-0.477l0-0.001v-2.062h26.623v2.018c0.006 0.191 0.091 0.36 0.223 0.478l0.001 0.001c0.133 0.119 0.31 0.192 0.503 0.192 0.004 0 0.009-0 0.013-0h2.954c0.004 0 0.008 0 0.012 0 0.194 0 0.37-0.073 0.504-0.193l-0.001 0.001c0.132-0.119 0.217-0.288 0.223-0.478l0-0.001v-8.020c0.001-0.024 0.002-0.053 0.002-0.082 0-0.143-0.018-0.283-0.051-0.416l0.002 0.012zM5.69 4.395c0.012-0.544 0.252-1.061 0.667-1.439 0.399-0.36 0.93-0.58 1.513-0.58 0.013 0 0.025 0 0.038 0l-0.002-0h22.163c0.011-0 0.024-0 0.037-0 0.583 0 1.114 0.22 1.515 0.582l-0.002-0.002c0.415 0.378 0.655 0.895 0.667 1.439v7.386h-2.014l-0.683-2.497c-0.14-0.462-0.422-0.846-0.796-1.11l-0.007-0.004c-0.368-0.261-0.826-0.418-1.321-0.418-0.013 0-0.027 0-0.040 0l0.002-0h-4.755c-0.012-0-0.026-0-0.041-0-0.286 0-0.56 0.052-0.813 0.148l0.016-0.005c-0.265 0.1-0.51 0.248-0.715 0.435-0.2 0.182-0.363 0.4-0.479 0.645l-0.005 0.012c-0.109 0.23-0.175 0.498-0.18 0.781l-0 0.002v2.010h-2.963v-2.010c-0.017-0.572-0.27-1.082-0.665-1.437l-0.002-0.002c-0.399-0.36-0.93-0.58-1.513-0.58-0.013 0-0.026 0-0.039 0l0.002-0h-4.763c-0.006-0-0.014-0-0.021-0-0.498 0-0.96 0.158-1.337 0.427l0.007-0.005c-0.378 0.268-0.66 0.649-0.797 1.095l-0.004 0.015-0.683 2.497h-2.014l0.027-7.386zM28.777 12.869c-0.072 0.081-0.16 0.146-0.259 0.19l-0.005 0.002c-0.095 0.043-0.206 0.068-0.323 0.068-0.001 0-0.003 0-0.004 0h-5.541c-0.004 0-0.008 0-0.012 0-0.194 0-0.37-0.073-0.504-0.193l0.001 0.001c-0.132-0.118-0.217-0.288-0.223-0.477l-0-0.001v-2.688c0.002-0.191 0.086-0.362 0.22-0.479l0.001-0.001c0.129-0.118 0.301-0.19 0.491-0.19 0.010 0 0.019 0 0.029 0.001l-0.001-0h4.764c0.005-0 0.011-0 0.018-0 0.162 0 0.311 0.051 0.434 0.138l-0.002-0.002c0.125 0.088 0.218 0.215 0.262 0.363l0.001 0.005 0.83 2.732c0.005 0.030 0.008 0.066 0.008 0.101 0 0.167-0.067 0.319-0.174 0.43l0-0h-0.008zM16.025 9.771v2.679c-0.007 0.191-0.092 0.36-0.225 0.478l-0.001 0.001c-0.133 0.119-0.309 0.192-0.503 0.192-0.004 0-0.008-0-0.012-0h-5.539c-0.23-0.004-0.436-0.103-0.58-0.26l-0.001-0.001c-0.095-0.108-0.153-0.251-0.153-0.407 0-0.059 0.008-0.117 0.024-0.171l-0.001 0.004 0.738-2.689c0.048-0.153 0.143-0.279 0.268-0.366l0.002-0.002c0.122-0.085 0.274-0.136 0.438-0.136 0.004 0 0.009 0 0.013 0h4.755c0.016-0.001 0.034-0.002 0.053-0.002 0.188 0 0.361 0.068 0.493 0.182l-0.001-0.001c0.141 0.119 0.23 0.296 0.23 0.494 0 0.002 0 0.003-0 0.005v-0zM5.478 13.128h2.238c0.076 0.205 0.188 0.397 0.332 0.565 0.211 0.244 0.478 0.441 0.78 0.575s0.632 0.201 0.966 0.2h5.541c0.45 0.002 0.89-0.124 1.262-0.364 0.371-0.239 0.655-0.581 0.815-0.977h3.232c0.161 0.398 0.447 0.74 0.82 0.979s0.815 0.366 1.268 0.361h5.54c0.335 0.002 0.667-0.065 0.972-0.199 0.303-0.134 0.571-0.331 0.782-0.576 0.142-0.171 0.254-0.361 0.333-0.565h2.226l2.281 6.743c-0.039-0.002-0.084-0.004-0.13-0.004s-0.091 0.001-0.136 0.004l0.006-0h-31.131c-0.039-0.002-0.084-0.004-0.129-0.004s-0.091 0.001-0.135 0.004l0.006-0 2.264-6.743zM2.709 29.248v-1.339h1.477v1.339h-1.477zM35.243 29.248h-1.477v-1.339h1.478v1.339zM35.243 26.56h-32.505v-4.654c0.002-0.191 0.086-0.362 0.22-0.479l0.001-0.001c0.129-0.118 0.301-0.19 0.49-0.19 0.010 0 0.019 0 0.029 0.001l-0.001-0h31.020c0.004-0 0.010-0 0.015-0 0.193 0 0.37 0.072 0.504 0.191l-0.001-0.001c0.131 0.12 0.215 0.29 0.22 0.479l0 0.001 0.009 4.654z"></path>
<path d="M36.693 21.419c0.024-0.063 0.039-0.137 0.039-0.213s-0.014-0.15-0.040-0.218l0.001 0.004-2.9-8.655v-7.968c-0.027-0.953-0.45-1.803-1.109-2.394l-0.003-0.003c-0.663-0.597-1.545-0.962-2.513-0.962-0.025 0-0.049 0-0.073 0.001l0.004-0h-22.163c-0.020-0-0.043-0.001-0.066-0.001-0.477 0-0.933 0.087-1.354 0.246l0.026-0.009c-0.461 0.172-0.857 0.416-1.195 0.723l0.003-0.003c-0.343 0.312-0.616 0.685-0.807 1.096-0.19 0.412-0.293 0.855-0.301 1.304v7.968l-2.991 8.699c-0.024 0.063-0.039 0.137-0.039 0.213s0.014 0.15 0.040 0.218l-0.001-0.004c-0.039 0.132-0.063 0.285-0.065 0.442l-0 0.001v8.064c0.004 0.192 0.091 0.364 0.226 0.48l0.001 0.001c0.13 0.118 0.304 0.19 0.494 0.19 0.010 0 0.019-0 0.029-0.001l-0.001 0h3.010c0.003 0 0.007 0 0.011 0 0.194 0 0.371-0.073 0.505-0.194l-0.001 0.001c0.132-0.118 0.217-0.287 0.224-0.477l0-0.001v-2.062h26.623v2.018c0.006 0.191 0.091 0.36 0.223 0.478l0.001 0.001c0.133 0.119 0.31 0.192 0.503 0.192 0.004 0 0.009-0 0.013-0h2.954c0.004 0 0.008 0 0.012 0 0.194 0 0.37-0.073 0.504-0.193l-0.001 0.001c0.132-0.119 0.217-0.288 0.223-0.478l0-0.001v-8.020c0.001-0.024 0.002-0.053 0.002-0.082 0-0.143-0.018-0.283-0.051-0.416l0.002 0.012zM5.69 4.395c0.012-0.544 0.252-1.061 0.667-1.439 0.399-0.36 0.93-0.58 1.513-0.58 0.013 0 0.025 0 0.038 0l-0.002-0h22.163c0.011-0 0.024-0 0.037-0 0.583 0 1.114 0.22 1.515 0.582l-0.002-0.002c0.415 0.378 0.655 0.895 0.667 1.439v7.386h-2.014l-0.683-2.497c-0.14-0.462-0.422-0.846-0.796-1.11l-0.007-0.004c-0.368-0.261-0.826-0.418-1.321-0.418-0.013 0-0.027 0-0.040 0l0.002-0h-4.755c-0.012-0-0.026-0-0.041-0-0.286 0-0.56 0.052-0.813 0.148l0.016-0.005c-0.265 0.1-0.51 0.248-0.715 0.435-0.2 0.182-0.363 0.4-0.479 0.645l-0.005 0.012c-0.109 0.23-0.175 0.498-0.18 0.781l-0 0.002v2.010h-2.963v-2.010c-0.017-0.572-0.27-1.082-0.665-1.437l-0.002-0.002c-0.399-0.36-0.93-0.58-1.513-0.58-0.013 0-0.026 0-0.039 0l0.002-0h-4.763c-0.006-0-0.014-0-0.021-0-0.498 0-0.96 0.158-1.337 0.427l0.007-0.005c-0.378 0.268-0.66 0.649-0.797 1.095l-0.004 0.015-0.683 2.497h-2.014l0.027-7.386zM28.777 12.869c-0.072 0.081-0.16 0.146-0.259 0.19l-0.005 0.002c-0.095 0.043-0.206 0.068-0.323 0.068-0.001 0-0.003 0-0.004 0h-5.541c-0.004 0-0.008 0-0.012 0-0.194 0-0.37-0.073-0.504-0.193l0.001 0.001c-0.132-0.118-0.217-0.288-0.223-0.477l-0-0.001v-2.688c0.002-0.191 0.086-0.362 0.22-0.479l0.001-0.001c0.129-0.118 0.301-0.19 0.491-0.19 0.010 0 0.019 0 0.029 0.001l-0.001-0h4.764c0.005-0 0.011-0 0.018-0 0.162 0 0.311 0.051 0.434 0.138l-0.002-0.002c0.125 0.088 0.218 0.215 0.262 0.363l0.001 0.005 0.83 2.732c0.005 0.030 0.008 0.066 0.008 0.101 0 0.167-0.067 0.319-0.174 0.43l0-0h-0.008zM16.025 9.771v2.679c-0.007 0.191-0.092 0.36-0.225 0.478l-0.001 0.001c-0.133 0.119-0.309 0.192-0.503 0.192-0.004 0-0.008-0-0.012-0h-5.539c-0.23-0.004-0.436-0.103-0.58-0.26l-0.001-0.001c-0.095-0.108-0.153-0.251-0.153-0.407 0-0.059 0.008-0.117 0.024-0.171l-0.001 0.004 0.738-2.689c0.048-0.153 0.143-0.279 0.268-0.366l0.002-0.002c0.122-0.085 0.274-0.136 0.438-0.136 0.004 0 0.009 0 0.013 0h4.755c0.016-0.001 0.034-0.002 0.053-0.002 0.188 0 0.361 0.068 0.493 0.182l-0.001-0.001c0.141 0.119 0.23 0.296 0.23 0.494 0 0.002 0 0.003-0 0.005v-0zM5.478 13.128h2.238c0.076 0.205 0.188 0.397 0.332 0.565 0.211 0.244 0.478 0.441 0.78 0.575s0.632 0.201 0.966 0.2h5.541c0.45 0.002 0.89-0.124 1.262-0.364 0.371-0.239 0.655-0.581 0.815-0.977h3.232c0.161 0.398 0.447 0.74 0.82 0.979s0.815 0.366 1.268 0.361h5.54c0.335 0.002 0.667-0.065 0.972-0.199 0.303-0.134 0.571-0.331 0.782-0.576 0.142-0.171 0.254-0.361 0.333-0.565h2.226l2.281 6.743c-0.039-0.002-0.084-0.004-0.13-0.004s-0.091 0.001-0.136 0.004l0.006-0h-31.131c-0.039-0.002-0.084-0.004-0.129-0.004s-0.091 0.001-0.135 0.004l0.006-0 2.264-6.743zM2.709 29.248v-1.339h1.477v1.339h-1.477zM35.243 29.248h-1.477v-1.339h1.478v1.339zM35.243 26.56h-32.505v-4.654c0.002-0.191 0.086-0.362 0.22-0.479l0.001-0.001c0.129-0.118 0.301-0.19 0.49-0.19 0.010 0 0.019 0 0.029 0.001l-0.001-0h31.020c0.004-0 0.010-0 0.015-0 0.193 0 0.37 0.072 0.504 0.191l-0.001-0.001c0.131 0.12 0.215 0.29 0.22 0.479l0 0.001 0.009 4.654z"></path>
</symbol>
<symbol id="arrow-down" viewBox="0 0 53 32">
<path fill="#787878" style="fill: var(--color1, #787878)" d="M28.128 29.797l24.603-24.677c0.348-0.369 0.562-0.869 0.562-1.418 0-1.143-0.926-2.069-2.069-2.069-0.553 0-1.056 0.217-1.427 0.571l0.001-0.001-23.131 23.205-23.136-23.2c-0.381-0.437-0.939-0.711-1.561-0.711-1.143 0-2.069 0.926-2.069 2.069 0 0.618 0.271 1.172 0.7 1.552l0.002 0.002 24.603 24.672c0.374 0.375 0.89 0.606 1.461 0.606s1.088-0.232 1.461-0.606l0-0z"></path>
</symbol>
<symbol id="location" viewBox="0 0 21 32">
<path fill="#006bbe" style="fill: var(--color2, #006bbe)" d="M10.020 0c-5.534 0-10.020 4.486-10.020 10.020v0c0 4.622 6.994 17.322 9.295 21.376 0.146 0.253 0.416 0.421 0.724 0.421s0.578-0.168 0.722-0.417l0.002-0.004c2.303-4.053 9.295-16.754 9.295-21.376 0-5.534-4.485-10.019-10.019-10.020h-0zM10.020 13.592c-2.274 0-4.118-1.844-4.118-4.118s1.844-4.118 4.118-4.118v0c2.274 0 4.118 1.844 4.118 4.118s-1.844 4.118-4.118 4.118v0z"></path>
</symbol>
<symbol id="house" viewBox="0 0 35 32">
<path fill="#fff" style="fill: var(--color1, #fff)" d="M3.546 32v-15.82h-3.546l17.73-16.18 17.73 16.18h-3.546v15.82h-28.368z"></path>
</symbol>
<symbol id="location-2" viewBox="0 0 21 32">
<path d="M10.020 0c-5.534 0-10.020 4.486-10.020 10.020v0c0 4.622 6.994 17.322 9.295 21.376 0.146 0.253 0.416 0.421 0.724 0.421s0.578-0.168 0.722-0.417l0.002-0.004c2.303-4.053 9.295-16.754 9.295-21.376 0-5.534-4.485-10.019-10.019-10.020h-0zM10.020 13.592c-2.274 0-4.118-1.844-4.118-4.118s1.844-4.118 4.118-4.118v0c2.274 0 4.118 1.844 4.118 4.118s-1.844 4.118-4.118 4.118v0z"></path>
</symbol>
<symbol id="plus" viewBox="0 0 32 32">
<path d="M30.74 13.9h-29.248v3.35h29.248v-3.348z"></path>
<path d="M17.792 30.198v-29.246h-3.35v29.246h3.348z"></path>
</symbol>
<symbol id="minus" viewBox="0 0 128 32">
<path d="M127.531 6.901h-126.741v14.517h126.741v-14.507z"></path>
</symbol>
<symbol  viewBox="0 0 11 11" id="pencil">
    <path d="M0.386719 8.17956V10.2632H2.47036L8.61846 4.11509L6.53483 2.03147L0.386719 8.17956Z" ></path>
    <path d="M10.2242 1.7231L8.92677 0.425706C8.71007 0.209009 8.35723 0.209009 8.14054 0.425706L7.12372 1.44251L9.20736 3.52614L10.2242 2.50933C10.4409 2.29263 10.4409 1.9398 10.2242 1.7231Z" ></path>
  </symbol>
</defs>
</svg>
