<svg width="17" height="15" viewBox="0 0 17 15" fill="none" xmlns="http://www.w3.org/2000/svg">
<mask id="path-1-inside-1_9908_26769" fill="white">
<path d="M8.49917 4.28565L8.49763 8.03357C8.49763 8.17588 8.55364 8.3119 8.65327 8.41234L11.3121 11.093L12.0633 10.3355L9.56011 7.81173L9.56165 4.28565H8.49917Z"/>
<path d="M9.56251 0C5.82308 0 2.72824 2.80047 2.20991 6.42858H0L2.65625 9.10714L5.3125 6.42858H3.28346C3.79171 3.39308 6.40983 1.07144 9.56251 1.07144C13.0779 1.07144 15.9375 3.95508 15.9375 7.50001C15.9375 11.0449 13.0779 13.9286 9.56251 13.9286C7.58641 13.9286 5.75402 13.0267 4.53534 11.454L3.698 12.1132C5.11949 13.9474 7.25695 15 9.56251 15C13.6636 15 17 11.635 17 7.50001C17 3.36499 13.6636 3.11049e-05 9.56251 0Z"/>
</mask>
<path d="M8.49917 4.28565L8.49763 8.03357C8.49763 8.17588 8.55364 8.3119 8.65327 8.41234L11.3121 11.093L12.0633 10.3355L9.56011 7.81173L9.56165 4.28565H8.49917Z" fill="#0090FF"/>
<path d="M9.56251 0C5.82308 0 2.72824 2.80047 2.20991 6.42858H0L2.65625 9.10714L5.3125 6.42858H3.28346C3.79171 3.39308 6.40983 1.07144 9.56251 1.07144C13.0779 1.07144 15.9375 3.95508 15.9375 7.50001C15.9375 11.0449 13.0779 13.9286 9.56251 13.9286C7.58641 13.9286 5.75402 13.0267 4.53534 11.454L3.698 12.1132C5.11949 13.9474 7.25695 15 9.56251 15C13.6636 15 17 11.635 17 7.50001C17 3.36499 13.6636 3.11049e-05 9.56251 0Z" fill="#0090FF"/>
<path d="M8.49917 4.28565V1.28565H5.5004L5.49917 4.28441L8.49917 4.28565ZM8.49763 8.03357L5.49763 8.03234V8.03357H8.49763ZM8.65327 8.41234L10.7832 6.2997L10.7831 6.29958L8.65327 8.41234ZM11.3121 11.093L9.18214 13.2056L11.3123 15.3533L13.4423 13.2054L11.3121 11.093ZM12.0633 10.3355L14.1935 12.4479L16.2885 10.3352L14.1933 8.22281L12.0633 10.3355ZM9.56011 7.81173L6.56011 7.81042L6.55957 9.04666L7.43015 9.92438L9.56011 7.81173ZM9.56165 4.28565L12.5616 4.28696L12.563 1.28565H9.56165V4.28565ZM9.56251 0L9.56253 -3H9.56251V0ZM2.20991 6.42858V9.42858H4.81178L5.17976 6.85286L2.20991 6.42858ZM0 6.42858V3.42858H-7.2L-2.13018 8.541L0 6.42858ZM2.65625 9.10714L0.526071 11.2196L2.65625 13.3676L4.78642 11.2196L2.65625 9.10714ZM5.3125 6.42858L7.44267 8.541L12.5125 3.42858H5.3125V6.42858ZM3.28346 6.42858L0.324652 5.93317L-0.260597 9.42858H3.28346V6.42858ZM4.53534 11.454L6.90666 9.61643L5.05496 7.22692L2.67967 9.09682L4.53534 11.454ZM3.698 12.1132L1.84233 9.75599L-0.497051 11.5976L1.32675 13.9509L3.698 12.1132ZM5.49917 4.28441L5.49763 8.03234L11.4976 8.03481L11.4992 4.28688L5.49917 4.28441ZM5.49763 8.03357C5.49763 8.9648 5.86462 9.86095 6.52342 10.5251L10.7831 6.29958C11.2427 6.76284 11.4976 7.38695 11.4976 8.03357H5.49763ZM6.5233 10.525L9.18214 13.2056L13.4421 8.98035L10.7832 6.2997L6.5233 10.525ZM13.4423 13.2054L14.1935 12.4479L9.93315 8.22303L9.18193 8.98056L13.4423 13.2054ZM14.1933 8.22281L11.6901 5.69908L7.43015 9.92438L9.93337 12.4481L14.1933 8.22281ZM12.5601 7.81304L12.5616 4.28696L6.56165 4.28433L6.56011 7.81042L12.5601 7.81304ZM9.56165 1.28565H8.49917V7.28565H9.56165V1.28565ZM9.56251 -3C4.28216 -3 -0.0373149 0.946246 -0.759935 6.00429L5.17976 6.85286C5.4938 4.65469 7.36401 3 9.56251 3V-3ZM2.20991 3.42858H0V9.42858H2.20991V3.42858ZM-2.13018 8.541L0.526071 11.2196L4.78642 6.99472L2.13018 4.31615L-2.13018 8.541ZM4.78642 11.2196L7.44267 8.541L3.18232 4.31615L0.526071 6.99472L4.78642 11.2196ZM5.3125 3.42858H3.28346V9.42858H5.3125V3.42858ZM6.24228 6.92398C6.51682 5.28426 7.9254 4.07144 9.56251 4.07144V-1.92856C4.89426 -1.92856 1.0666 1.5019 0.324652 5.93317L6.24228 6.92398ZM9.56251 4.07144C11.3974 4.07144 12.9375 5.58823 12.9375 7.50001H18.9375C18.9375 2.32193 14.7583 -1.92856 9.56251 -1.92856V4.07144ZM12.9375 7.50001C12.9375 9.41181 11.3974 10.9286 9.56251 10.9286V16.9286C14.7584 16.9286 18.9375 12.6781 18.9375 7.50001H12.9375ZM9.56251 10.9286C8.52138 10.9286 7.56163 10.4616 6.90666 9.61643L2.16401 13.2917C3.94641 15.5917 6.65145 16.9286 9.56251 16.9286V10.9286ZM2.67967 9.09682L1.84233 9.75599L5.55367 14.4704L6.39101 13.8113L2.67967 9.09682ZM1.32675 13.9509C3.31175 16.5122 6.32168 18 9.56251 18V12C8.19222 12 6.92724 11.3826 6.06925 10.2755L1.32675 13.9509ZM9.56251 18C15.3442 18 20 13.268 20 7.50001H14C14 10.002 11.983 12 9.56251 12V18ZM20 7.50001C20 1.73199 15.3442 -2.99996 9.56253 -3L9.56249 3C11.983 3.00002 14 4.99799 14 7.50001H20Z" fill="#0090FF" mask="url(#path-1-inside-1_9908_26769)"/>
</svg>
