<svg aria-hidden="true" style="position: absolute; width: 0; height: 0; overflow: hidden;" version="1.1" xmlns="http://www.w3.org/2000/svg" xmlns:xlink="http://www.w3.org/1999/xlink">
<defs>
<symbol id="icon-clock" viewBox="0 0 17 32">
<path fill="#0090ff" style="fill: var(--color1, #0090ff)" d="M18.133 9.143l-0.004 7.996c0 0.303 0.119 0.593 0.331 0.806l5.675 5.719 1.6-1.617-5.34-5.38 0.004-7.522h-2.268z"></path>
<path fill="#0090ff" style="fill: var(--color1, #0090ff)" d="M20.401 0c-7.979 0-14.581 5.973-15.686 13.715h-4.715l5.666 5.713 5.666-5.711h-4.326c1.084-6.479 6.669-11.435 13.395-11.435 7.499 0 13.598 6.153 13.598 13.715s-6.101 13.715-13.598 13.715c-0.007 0-0.015 0-0.023 0-4.347 0-8.213-2.056-10.68-5.249l-0.023-0.031-1.786 1.408c2.905 3.761 7.416 6.159 12.487 6.159 0.009 0 0.018 0 0.027-0h-0.001c8.747 0 15.866-7.179 15.866-16s-7.117-16-15.866-16z"></path>
<path fill="#0090ff" style="fill: var(--color1, #0090ff)" d="M18.133 9.143v-6.4h-6.4v6.396l6.4 0.004zM18.129 17.139v0zM18.46 17.946v0zM24.134 23.665l-4.544 4.508 4.544 4.58 4.544-4.582-4.544-4.506zM25.734 22.048l4.544 4.508 4.469-4.508-4.469-4.506-4.544 4.506zM20.395 16.668l-6.4-0.004v2.639l1.856 1.871 4.544-4.506zM20.399 9.146l6.4 0.002 0.002-6.402h-6.402v6.4zM20.399 0.002v0zM4.715 13.715v6.4h5.551l0.785-5.495-6.336-0.905zM0 13.715v-6.4h-15.36l10.816 10.906 4.544-4.506zM5.666 19.428l-4.544 4.508 4.544 4.582 4.544-4.582-4.544-4.508zM11.332 13.717l4.544 4.506 10.816-10.906h-15.36v6.4zM7.004 13.717l-6.31-1.060-1.25 7.46h7.561v-6.4zM9.675 24.437l5.060-3.921-3.951-5.099-5.067 3.989 3.957 5.030zM7.889 25.845l-3.959-5.035-4.992 3.93 3.893 5.020 5.058-3.921zM11.731 9.141l-0.002 7.996 12.8 0.006 0.002-7.996-12.8-0.006zM11.729 17.141c0 1.984 0.783 3.898 2.187 5.314l9.088-9.013c0.981 0.988 1.525 2.319 1.525 3.699h-12.8zM13.916 22.455l5.675 5.717 9.088-9.013-5.675-5.717-9.088 9.013zM28.678 28.173l1.6-1.615-9.088-9.013-1.602 1.617 9.088 9.011zM30.278 17.545l-5.34-5.387-9.088 9.013 5.34 5.385 9.088-9.013zM26.795 16.67l0.004-7.522-12.8-0.006-0.004 7.52 12.8 0.006zM20.399 2.743h-2.268v12.8h2.268v-12.8zM20.399-6.4c-11.262 0-20.478 8.418-22.020 19.209l12.672 1.811c0.67-4.689 4.659-8.22 9.35-8.22v-12.8zM4.715 7.315h-4.715v12.8h4.715v-12.8zM-4.544 18.219l5.666 5.717 9.088-9.013-5.666-5.715-9.088 9.013zM10.21 23.934l5.668-5.715-9.088-9.013-5.67 5.717 9.088 9.013zM11.334 7.313h-4.331v12.8h4.331v-12.8zM13.318 14.769c0.585-3.499 3.588-6.086 7.083-6.086v-12.8c-9.961 0-18.125 7.317-19.708 16.772l12.623 2.114zM20.401 8.683c3.913 0 7.198 3.236 7.198 7.315h12.8c0-11.046-8.915-20.115-19.998-20.115v12.8zM27.599 16c0 4.079-3.285 7.315-7.198 7.315v12.8c11.083 0 19.998-9.067 19.998-20.115h-12.8zM20.401 23.315c-2.223 0-4.269-0.996-5.666-2.801l-10.118 7.842c3.672 4.738 9.364 7.759 15.762 7.759 0.008 0 0.016 0 0.024 0h-0.001v-12.8zM5.717 19.407l-1.788 1.406 7.919 10.057 1.786-1.406-7.917-10.057zM2.831 29.76c4.087 5.276 10.424 8.64 17.547 8.64 0.008 0 0.016 0 0.025 0h-0.001v-12.8c-0.008 0-0.016 0-0.025 0-3.020 0-5.705-1.434-7.412-3.658l-0.016-0.022-10.116 7.842zM20.401 38.4c12.333 0 22.266-10.095 22.266-22.4h-12.8c0 5.338-4.303 9.6-9.466 9.6v12.8zM42.667 16c0-12.305-9.933-22.4-22.266-22.4v12.8c5.161 0 9.466 4.262 9.466 9.6h12.8z"></path>
</symbol>
<symbol id="icon-weekly-calendar" viewBox="0 0 32 32">
<path fill="#eff2fa" style="fill: var(--color2, #eff2fa)" d="M30.898 30.345h-29.796c-0.609 0-1.102-0.493-1.102-1.102v-25.383c0-0.609 0.493-1.102 1.102-1.102v0h29.796c0.609 0 1.102 0.493 1.102 1.102v0 25.38c0 0.001 0 0.001 0 0.002 0 0.609-0.493 1.102-1.102 1.102 0 0 0 0 0 0v0z"></path>
<path fill="#8894ff" style="fill: var(--color3, #8894ff)" d="M32 8.276h-32v-4.414c0-0.609 0.493-1.102 1.102-1.102v0h29.796c0.609 0 1.102 0.493 1.102 1.102v0 4.414z"></path>
<path fill="#e4eaf6" style="fill: var(--color4, #e4eaf6)" d="M32 8.276h-32v1.102h32v-1.102z"></path>
<path fill="#ff6000" style="fill: var(--color5, #ff6000)" d="M4.69 6.898c0.915 0 1.656-0.741 1.656-1.656s-0.741-1.656-1.656-1.656v0c-0.914 0-1.655 0.741-1.655 1.655s0.741 1.655 1.655 1.655v0z"></path>
<path fill="#c7cfe2" style="fill: var(--color6, #c7cfe2)" d="M4.69 6.069c-0.458 0-0.828-0.371-0.828-0.828v0-2.757c0.021-0.441 0.384-0.79 0.828-0.79s0.806 0.349 0.827 0.788l0 0.002v2.757c0 0.001 0 0.001 0 0.002 0 0.457-0.37 0.827-0.827 0.827 0 0 0 0 0 0v0z"></path>
<path fill="#afb9d2" style="fill: var(--color7, #afb9d2)" d="M4.69 4.414c-0.458 0-0.828-0.371-0.828-0.828v0 1.655c0.021 0.441 0.384 0.79 0.828 0.79s0.806-0.349 0.827-0.788l0-0.002v-1.653c-0.001 0.456-0.371 0.826-0.827 0.827h-0z"></path>
<path fill="#ff6000" style="fill: var(--color5, #ff6000)" d="M27.31 6.898c0.915 0 1.656-0.741 1.656-1.656s-0.741-1.656-1.656-1.656v0c-0.914 0-1.655 0.741-1.655 1.655s0.741 1.655 1.655 1.655v0z"></path>
<path fill="#c7cfe2" style="fill: var(--color6, #c7cfe2)" d="M27.31 6.069c-0.458 0-0.828-0.371-0.828-0.828v0-2.757c0-0.457 0.37-0.828 0.828-0.828s0.828 0.37 0.828 0.828v2.757c0 0 0 0 0 0 0 0.457-0.37 0.827-0.827 0.828h-0z"></path>
<path fill="#afb9d2" style="fill: var(--color7, #afb9d2)" d="M27.31 4.414c-0.458 0-0.828-0.371-0.828-0.828v0 1.655c0 0.457 0.37 0.828 0.828 0.828s0.828-0.37 0.828-0.828v-1.653c-0.001 0.456-0.371 0.826-0.827 0.827h-0z"></path>
<path fill="#0090ff" style="fill: var(--color1, #0090ff)" d="M14.693 19.461c-0.029-0.002-0.052-0.027-0.052-0.057 0-0.027 0.018-0.049 0.043-0.055l0-0c1.305-0.505 2.085-1.625 2.085-3.063 0-2.036-1.769-3.511-4.208-3.511-2.11 0-3.721 1.102-4.203 2.88-0.017 0.059-0.026 0.126-0.026 0.196 0 0.405 0.326 0.734 0.73 0.739h0.001c0.338-0.001 0.622-0.233 0.703-0.546l0.001-0.005c0.302-1.175 1.353-1.908 2.74-1.908 1.666 0 2.741 0.907 2.741 2.311 0 1.419-1.15 2.411-2.795 2.411h-1.010c-0.35 0.019-0.627 0.307-0.627 0.66s0.277 0.642 0.625 0.66l0.002 0h1.063c2.068 0 3.301 0.965 3.301 2.585 0 1.488-1.339 2.567-3.182 2.567-1.589 0-2.821-0.775-3.136-1.973-0.082-0.324-0.368-0.561-0.71-0.567h-0.001c-0.001 0-0.001 0-0.002 0-0.235 0-0.443 0.111-0.576 0.283l-0.001 0.002c-0.098 0.125-0.158 0.285-0.158 0.459 0 0.067 0.009 0.133 0.026 0.195l-0.001-0.005c0.466 1.801 2.258 2.964 4.569 2.964 2.683 0 4.704-1.703 4.704-3.961 0-1.668-1.013-2.884-2.645-3.26zM22.581 12.967c-0.373 0.002-0.729 0.112-1.035 0.32l-1.493 1.033c-0.54 0.377-1.067 0.741-1.378 0.955-0.161 0.127-0.264 0.323-0.264 0.543 0 0.381 0.309 0.69 0.69 0.69 0.127 0 0.247-0.035 0.349-0.095l-0.003 0.002c0.551-0.373 2.021-1.41 2.414-1.685 0.041-0.028 0.096 0.002 0.096 0.053v10.956c0 0.405 0.329 0.734 0.734 0.734s0.734-0.329 0.734-0.734v0-11.934c-0.002-0.462-0.377-0.836-0.839-0.836-0.002 0-0.004 0-0.006 0h0z"></path>
</symbol>
<symbol id="icon-gear" viewBox="0 0 35 32">
<path fill="none" stroke="#0090ff" style="stroke: var(--color1, #0090ff)" stroke-linejoin="round" stroke-linecap="round" stroke-miterlimit="4" stroke-width="1.536" d="M16.908 12.109c-1.132 0-2.214 0.428-3.014 1.188-0.765 0.721-1.243 1.741-1.248 2.871v0.001c0 1.075 0.448 2.109 1.248 2.871s1.883 1.189 3.014 1.189c1.13 0 2.214-0.428 3.013-1.19 0.765-0.721 1.243-1.739 1.248-2.869v-0.001c0-1.078-0.448-2.111-1.248-2.872-0.781-0.736-1.836-1.189-2.997-1.189-0.006 0-0.011 0-0.017 0h0.001z"></path>
<path fill="none" stroke="#0090ff" style="stroke: var(--color1, #0090ff)" stroke-linejoin="round" stroke-linecap="round" stroke-miterlimit="4" stroke-width="1.536" d="M27.419 20.229c-0.126 0.264-0.199 0.574-0.199 0.901 0 0.141 0.014 0.28 0.040 0.413l-0.002-0.014c0.083 0.439 0.303 0.845 0.63 1.162l0.086 0.082c0.264 0.251 0.474 0.55 0.617 0.878 0.137 0.305 0.216 0.662 0.216 1.037s-0.080 0.731-0.223 1.053l0.007-0.017c-0.152 0.343-0.36 0.635-0.616 0.877l-0.001 0.001c-0.258 0.247-0.564 0.446-0.902 0.582l-0.019 0.007c-0.322 0.131-0.696 0.207-1.088 0.207s-0.766-0.076-1.108-0.214l0.020 0.007c-0.357-0.143-0.663-0.342-0.923-0.59l0.001 0.001-0.086-0.081c-0.328-0.305-0.745-0.519-1.207-0.6l-0.014-0.002c-0.126-0.023-0.271-0.036-0.419-0.036-0.341 0-0.666 0.070-0.961 0.196l0.016-0.006c-0.424 0.174-0.775 0.457-1.027 0.813l-0.005 0.007c-0.241 0.341-0.386 0.765-0.389 1.223v0.231c0 0.718-0.3 1.408-0.832 1.915-0.534 0.507-1.256 0.794-2.010 0.794-0.003 0-0.007 0-0.011 0-0.775 0-1.479-0.302-2-0.795l0.001 0.001c-0.51-0.481-0.829-1.16-0.832-1.914v-0.122c-0.013-0.472-0.174-0.903-0.439-1.252l0.004 0.005c-0.277-0.363-0.65-0.639-1.082-0.792l-0.016-0.005c-0.279-0.12-0.604-0.19-0.945-0.19-0.148 0-0.293 0.013-0.434 0.038l0.015-0.002c-0.461 0.079-0.887 0.289-1.221 0.602l-0.086 0.081c-0.258 0.246-0.564 0.445-0.902 0.581l-0.019 0.007c-0.322 0.131-0.696 0.207-1.088 0.207s-0.766-0.076-1.108-0.214l0.020 0.007c-0.357-0.143-0.663-0.342-0.923-0.59l0.001 0.001c-0.257-0.243-0.465-0.535-0.61-0.861l-0.007-0.017c-0.137-0.305-0.216-0.662-0.216-1.037s0.080-0.731 0.223-1.053l-0.007 0.017c0.142-0.328 0.352-0.627 0.616-0.878l0.086-0.081c0.328-0.32 0.547-0.724 0.631-1.164 0.024-0.12 0.037-0.257 0.037-0.398 0-0.328-0.074-0.638-0.205-0.916l0.006 0.013c-0.19-0.41-0.485-0.744-0.851-0.976l-0.009-0.005c-0.365-0.232-0.809-0.37-1.285-0.371h-0.241c-0.003 0-0.007 0-0.011 0-0.775 0-1.478-0.302-2-0.795l0.001 0.001c-0.51-0.48-0.828-1.159-0.832-1.912v-0.001c0-0.717 0.3-1.407 0.832-1.914 0.532-0.508 1.256-0.794 2.010-0.794h0.128c0.489-0.010 0.941-0.164 1.316-0.421l-0.008 0.005c0.383-0.261 0.675-0.625 0.836-1.046 0.126-0.264 0.2-0.575 0.2-0.902 0-0.14-0.014-0.278-0.039-0.41l0.002 0.013c-0.091-0.461-0.315-0.859-0.63-1.164l-0.001-0.001-0.084-0.081c-0.257-0.243-0.465-0.535-0.61-0.861l-0.007-0.017c-0.137-0.305-0.216-0.662-0.216-1.037s0.080-0.731 0.223-1.053l-0.007 0.017c0.143-0.328 0.352-0.627 0.617-0.878 0.258-0.247 0.564-0.446 0.902-0.582l0.019-0.007c0.322-0.131 0.696-0.207 1.088-0.207s0.766 0.076 1.108 0.214l-0.020-0.007c0.346 0.137 0.658 0.337 0.922 0.589l0.086 0.081c0.335 0.312 0.76 0.522 1.221 0.602s0.936 0.026 1.364-0.154h0.114c0.42-0.173 0.778-0.457 1.030-0.82s0.388-0.788 0.39-1.224v-0.23c0-0.718 0.298-1.407 0.832-1.915 0.532-0.507 1.254-0.792 2.010-0.792 0.753 0 1.476 0.285 2.008 0.794 0.532 0.507 0.832 1.196 0.832 1.914v0.122c0.001 0.435 0.137 0.861 0.389 1.224 0.253 0.364 0.612 0.649 1.032 0.819 0.429 0.18 0.904 0.234 1.364 0.155s0.886-0.288 1.221-0.602l0.084-0.081c0.265-0.251 0.577-0.451 0.922-0.588 0.322-0.131 0.696-0.207 1.088-0.207s0.766 0.076 1.108 0.214l-0.020-0.007c0.346 0.137 0.659 0.337 0.923 0.589 0.265 0.251 0.474 0.549 0.617 0.878 0.137 0.305 0.216 0.662 0.216 1.037s-0.079 0.731-0.223 1.053l0.007-0.017c-0.143 0.328-0.352 0.627-0.617 0.878l-0.084 0.081c-0.328 0.32-0.548 0.724-0.631 1.164-0.024 0.12-0.038 0.258-0.038 0.4 0 0.327 0.073 0.637 0.205 0.914l-0.006-0.013v0.108c0.18 0.401 0.48 0.742 0.86 0.983 0.381 0.241 0.828 0.369 1.285 0.371h0.242c0.754 0 1.476 0.285 2.010 0.794 0.532 0.507 0.832 1.196 0.832 1.914 0 0.717-0.3 1.405-0.832 1.914-0.534 0.508-1.256 0.794-2.010 0.794h-0.128c-0.477 0.001-0.921 0.139-1.295 0.377l0.010-0.006c-0.375 0.237-0.671 0.572-0.854 0.968l-0.006 0.014z"></path>
</symbol>
</defs>
</svg>
