<svg width="15" height="13" viewBox="0 0 15 13" fill="none" xmlns="http://www.w3.org/2000/svg">
<g clip-path="url(#clip0_3460_13826)">
<path d="M5.23991 6.94896C3.51434 6.60841 1.87303 6.50309 0.475717 7.83545C0.335284 7.73539 0.193095 7.63357 0 7.4949C0.235225 7.29302 0.433587 7.08764 0.663546 6.92965C1.62551 6.26435 2.71211 6.05897 3.85489 6.16605C4.69573 6.24504 5.52779 6.41707 6.36864 6.50484C6.86893 6.55751 7.38151 6.55575 7.88531 6.52415C8.22937 6.50309 8.52077 6.29068 8.38736 5.95013C7.52721 6.12392 6.67057 5.99929 5.76829 5.88167C6.17905 5.33398 6.56349 4.82316 6.97074 4.27898C6.57051 4.17717 6.20714 4.07711 5.84026 3.99987C5.77355 3.98583 5.66998 4.05429 5.61205 4.11397C5.20655 4.52123 4.80808 4.93726 4.40609 5.34803C4.1849 5.57448 3.93037 5.58676 3.68812 5.38665C3.43885 5.17951 3.38619 4.88811 3.57578 4.64762C4.02516 4.07535 4.48332 3.51011 4.93622 2.94136C5.0907 2.74826 5.2873 2.67453 5.53657 2.68331C6.48274 2.71842 7.43066 2.73773 8.37858 2.76933C9.11235 2.79215 9.77589 3.46974 9.78467 4.2035C9.79169 4.72837 9.78643 5.25324 9.80749 5.77635C9.81276 5.89221 9.88122 6.03615 9.96899 6.10988C10.4675 6.52591 10.9801 6.92614 11.4909 7.32813C11.7104 7.50192 11.756 7.77576 11.5998 8.02328C11.44 8.27606 11.175 8.36383 10.9257 8.2269C10.1972 7.83194 9.47221 7.4317 8.74898 7.02445C8.61381 6.94721 8.50322 6.93492 8.3505 6.98934C8.12229 7.07009 7.87829 7.10695 7.63605 7.14381C7.38327 7.18068 7.34114 7.25089 7.48684 7.46505C7.81159 7.94077 8.13283 8.41649 8.46636 8.88518C8.61205 9.09057 8.64014 9.28717 8.55061 9.52591C8.18724 10.5002 7.83792 11.4797 7.47981 12.4557C7.34465 12.8243 7.0866 12.9384 6.69163 12.8085C6.34582 12.6944 6.21241 12.4416 6.31071 12.073C6.49854 11.3708 6.68812 10.6687 6.88648 9.96827C6.93037 9.81555 6.9093 9.70321 6.81276 9.5733C6.37741 8.99051 5.95787 8.39542 5.52253 7.81438C5.3347 7.56336 5.19076 7.30356 5.23991 6.94896Z" fill="#505050"/>
<path d="M13.0395 11.2704C12.9553 11.2265 12.8921 11.2002 12.8359 11.165C12.2285 10.7824 11.6247 10.3927 11.012 10.017C10.847 9.91695 10.8383 9.83796 10.9418 9.67822C11.486 8.83562 12.0197 7.986 12.5533 7.13813C12.8131 6.72561 12.8096 6.72737 13.2362 6.99419C13.7663 7.32421 14.2964 7.65422 14.8336 7.97371C15.0197 8.0843 15.0513 8.18787 14.9284 8.37745C14.3456 9.27798 13.7768 10.1855 13.1993 11.0896C13.1572 11.158 13.094 11.2107 13.0395 11.2704Z" fill="#505050"/>
<path d="M11.9218 1.88243C11.92 2.6671 11.2846 3.29729 10.4999 3.29729C9.71172 3.29905 9.07275 2.64603 9.07977 1.84908C9.08679 1.08547 9.72576 0.451767 10.4929 0.448257C11.2898 0.444746 11.9253 1.08196 11.9218 1.88243Z" fill="#505050"/>
<path d="M4.93647 8.14355C5.31037 8.65789 5.66321 9.14063 6.01078 9.62512C6.03184 9.65496 6.04413 9.70412 6.03536 9.73922C5.97567 10.0218 5.64916 10.2834 5.35601 10.2904C4.35016 10.3115 3.34431 10.3308 2.33846 10.3484C1.95227 10.3554 1.75566 10.1781 1.72231 9.80242C1.69071 9.43378 1.86625 9.20031 2.24015 9.15643C2.93705 9.07217 3.63395 8.99142 4.33085 8.92822C4.53448 8.90891 4.65385 8.84221 4.71529 8.64385C4.7697 8.48586 4.85221 8.33665 4.93647 8.14355Z" fill="#505050"/>
</g>
<defs>
<clipPath id="clip0_3460_13826">
<rect width="15" height="12.4125" fill="white" transform="translate(0 0.448242)"/>
</clipPath>
</defs>
</svg>
