<svg width="41" height="37" viewBox="0 0 41 37" fill="none" xmlns="http://www.w3.org/2000/svg">
<mask id="path-1-outside-1_10229_26050" maskUnits="userSpaceOnUse" x="0" y="0" width="41" height="37" fill="black">
<rect fill="white" width="41" height="37"/>
<path d="M39.1017 24.8649C39.1105 24.8237 39.1105 24.7813 39.1017 24.7401L31.8762 11.761V3.19141C31.8736 2.6094 31.6156 2.05202 31.1587 1.6413C30.7017 1.23059 30.083 0.999995 29.4381 1H11.5224C10.8775 0.999995 10.2588 1.23059 9.80187 1.6413C9.34492 2.05202 9.08689 2.6094 9.08428 3.19141V11.761L1.85878 24.7401C1.85639 24.7846 1.85639 24.8293 1.85878 24.8738C1.59106 25.0753 1.37544 25.3272 1.22709 25.6119C1.07873 25.8966 1.00122 26.2072 1 26.5218V35.2695C1.0026 35.4641 1.09006 35.6499 1.24343 35.7866C1.39679 35.9233 1.6037 36 1.81929 36H5.06683C5.2815 36 5.48737 35.923 5.63916 35.7861C5.79096 35.6491 5.87624 35.4633 5.87624 35.2695V33.087H35.1238V35.2695C35.1264 35.4641 35.2138 35.6499 35.3672 35.7866C35.5206 35.9233 35.7275 36 35.9431 36H39.1906C39.4052 36 39.6111 35.923 39.7629 35.7861C39.9147 35.6491 40 35.4633 40 35.2695V26.5218C39.9927 26.2033 39.9086 25.89 39.7535 25.6039C39.5983 25.3177 39.3759 25.0655 39.1017 24.8649ZM10.713 3.19141C10.713 2.99768 10.7983 2.81188 10.9501 2.67489C11.1019 2.5379 11.3077 2.46094 11.5224 2.46094H29.3986C29.6133 2.46094 29.8192 2.5379 29.971 2.67489C30.1228 2.81188 30.2081 2.99768 30.2081 3.19141V11.2087H27.7897L27.4639 9.7656C27.28 8.94169 26.7867 8.20025 26.0675 7.66635C25.3482 7.13245 24.4469 6.83879 23.5156 6.83486H17.4647C16.5339 6.84045 15.6335 7.13474 14.9146 7.66836C14.1957 8.20198 13.702 8.94245 13.5163 9.7656L13.1906 11.2087H10.7722L10.713 3.19141ZM25.697 13.3288C25.4675 13.5788 25.1793 13.7795 24.8532 13.9167C24.5271 14.0538 24.1714 14.1238 23.8117 14.1217H17.1093C16.7507 14.1224 16.3963 14.0514 16.0717 13.9138C15.7471 13.7762 15.4603 13.5754 15.2319 13.3258C15.0035 13.0762 14.8392 12.7841 14.7508 12.4704C14.6624 12.1568 14.6521 11.8293 14.7206 11.5116L15.0463 10.0507C15.156 9.5491 15.455 9.09735 15.8924 8.77247C16.3298 8.44759 16.8785 8.26969 17.445 8.26905H23.486C24.0513 8.27005 24.5986 8.44829 25.0343 8.77328C25.4701 9.09828 25.7672 9.54983 25.8747 10.0507L26.2005 11.5116C26.272 11.8292 26.2639 12.1573 26.1768 12.4717C26.0897 12.7861 25.9258 13.079 25.697 13.3288ZM10.407 12.6697H13.1511C13.2755 13.2483 13.557 13.7901 13.9704 14.2464C14.3526 14.666 14.8334 15.0035 15.378 15.2346C15.9226 15.4657 16.5174 15.5846 17.1192 15.5826H23.8117C24.4123 15.5858 25.0061 15.4674 25.5493 15.2362C26.0925 15.0049 26.5714 14.6667 26.9506 14.2464C27.3628 13.7883 27.6472 13.2475 27.7798 12.6697H30.5733L37.0683 24.3303H3.9218L10.407 12.6697ZM2.58922 34.5391V33.087H4.21793V34.5391H2.58922ZM38.3417 34.5391H36.713V33.087H38.3417V34.5391ZM38.3417 31.6261H2.58922V26.5218C2.58922 26.328 2.6745 26.1422 2.82629 26.0052C2.97809 25.8682 3.18397 25.7913 3.39864 25.7913H37.4829C37.6985 25.7913 37.9054 25.868 38.0588 26.0047C38.2121 26.1414 38.2996 26.3272 38.3022 26.5218L38.3417 31.6261Z"/>
</mask>
<path d="M39.1017 24.8649C39.1105 24.8237 39.1105 24.7813 39.1017 24.7401L31.8762 11.761V3.19141C31.8736 2.6094 31.6156 2.05202 31.1587 1.6413C30.7017 1.23059 30.083 0.999995 29.4381 1H11.5224C10.8775 0.999995 10.2588 1.23059 9.80187 1.6413C9.34492 2.05202 9.08689 2.6094 9.08428 3.19141V11.761L1.85878 24.7401C1.85639 24.7846 1.85639 24.8293 1.85878 24.8738C1.59106 25.0753 1.37544 25.3272 1.22709 25.6119C1.07873 25.8966 1.00122 26.2072 1 26.5218V35.2695C1.0026 35.4641 1.09006 35.6499 1.24343 35.7866C1.39679 35.9233 1.6037 36 1.81929 36H5.06683C5.2815 36 5.48737 35.923 5.63916 35.7861C5.79096 35.6491 5.87624 35.4633 5.87624 35.2695V33.087H35.1238V35.2695C35.1264 35.4641 35.2138 35.6499 35.3672 35.7866C35.5206 35.9233 35.7275 36 35.9431 36H39.1906C39.4052 36 39.6111 35.923 39.7629 35.7861C39.9147 35.6491 40 35.4633 40 35.2695V26.5218C39.9927 26.2033 39.9086 25.89 39.7535 25.6039C39.5983 25.3177 39.3759 25.0655 39.1017 24.8649ZM10.713 3.19141C10.713 2.99768 10.7983 2.81188 10.9501 2.67489C11.1019 2.5379 11.3077 2.46094 11.5224 2.46094H29.3986C29.6133 2.46094 29.8192 2.5379 29.971 2.67489C30.1228 2.81188 30.2081 2.99768 30.2081 3.19141V11.2087H27.7897L27.4639 9.7656C27.28 8.94169 26.7867 8.20025 26.0675 7.66635C25.3482 7.13245 24.4469 6.83879 23.5156 6.83486H17.4647C16.5339 6.84045 15.6335 7.13474 14.9146 7.66836C14.1957 8.20198 13.702 8.94245 13.5163 9.7656L13.1906 11.2087H10.7722L10.713 3.19141ZM25.697 13.3288C25.4675 13.5788 25.1793 13.7795 24.8532 13.9167C24.5271 14.0538 24.1714 14.1238 23.8117 14.1217H17.1093C16.7507 14.1224 16.3963 14.0514 16.0717 13.9138C15.7471 13.7762 15.4603 13.5754 15.2319 13.3258C15.0035 13.0762 14.8392 12.7841 14.7508 12.4704C14.6624 12.1568 14.6521 11.8293 14.7206 11.5116L15.0463 10.0507C15.156 9.5491 15.455 9.09735 15.8924 8.77247C16.3298 8.44759 16.8785 8.26969 17.445 8.26905H23.486C24.0513 8.27005 24.5986 8.44829 25.0343 8.77328C25.4701 9.09828 25.7672 9.54983 25.8747 10.0507L26.2005 11.5116C26.272 11.8292 26.2639 12.1573 26.1768 12.4717C26.0897 12.7861 25.9258 13.079 25.697 13.3288ZM10.407 12.6697H13.1511C13.2755 13.2483 13.557 13.7901 13.9704 14.2464C14.3526 14.666 14.8334 15.0035 15.378 15.2346C15.9226 15.4657 16.5174 15.5846 17.1192 15.5826H23.8117C24.4123 15.5858 25.0061 15.4674 25.5493 15.2362C26.0925 15.0049 26.5714 14.6667 26.9506 14.2464C27.3628 13.7883 27.6472 13.2475 27.7798 12.6697H30.5733L37.0683 24.3303H3.9218L10.407 12.6697ZM2.58922 34.5391V33.087H4.21793V34.5391H2.58922ZM38.3417 34.5391H36.713V33.087H38.3417V34.5391ZM38.3417 31.6261H2.58922V26.5218C2.58922 26.328 2.6745 26.1422 2.82629 26.0052C2.97809 25.8682 3.18397 25.7913 3.39864 25.7913H37.4829C37.6985 25.7913 37.9054 25.868 38.0588 26.0047C38.2121 26.1414 38.2996 26.3272 38.3022 26.5218L38.3417 31.6261Z" fill="#787878"/>
<path d="M39.1017 24.8649C39.1105 24.8237 39.1105 24.7813 39.1017 24.7401L31.8762 11.761V3.19141C31.8736 2.6094 31.6156 2.05202 31.1587 1.6413C30.7017 1.23059 30.083 0.999995 29.4381 1H11.5224C10.8775 0.999995 10.2588 1.23059 9.80187 1.6413C9.34492 2.05202 9.08689 2.6094 9.08428 3.19141V11.761L1.85878 24.7401C1.85639 24.7846 1.85639 24.8293 1.85878 24.8738C1.59106 25.0753 1.37544 25.3272 1.22709 25.6119C1.07873 25.8966 1.00122 26.2072 1 26.5218V35.2695C1.0026 35.4641 1.09006 35.6499 1.24343 35.7866C1.39679 35.9233 1.6037 36 1.81929 36H5.06683C5.2815 36 5.48737 35.923 5.63916 35.7861C5.79096 35.6491 5.87624 35.4633 5.87624 35.2695V33.087H35.1238V35.2695C35.1264 35.4641 35.2138 35.6499 35.3672 35.7866C35.5206 35.9233 35.7275 36 35.9431 36H39.1906C39.4052 36 39.6111 35.923 39.7629 35.7861C39.9147 35.6491 40 35.4633 40 35.2695V26.5218C39.9927 26.2033 39.9086 25.89 39.7535 25.6039C39.5983 25.3177 39.3759 25.0655 39.1017 24.8649ZM10.713 3.19141C10.713 2.99768 10.7983 2.81188 10.9501 2.67489C11.1019 2.5379 11.3077 2.46094 11.5224 2.46094H29.3986C29.6133 2.46094 29.8192 2.5379 29.971 2.67489C30.1228 2.81188 30.2081 2.99768 30.2081 3.19141V11.2087H27.7897L27.4639 9.7656C27.28 8.94169 26.7867 8.20025 26.0675 7.66635C25.3482 7.13245 24.4469 6.83879 23.5156 6.83486H17.4647C16.5339 6.84045 15.6335 7.13474 14.9146 7.66836C14.1957 8.20198 13.702 8.94245 13.5163 9.7656L13.1906 11.2087H10.7722L10.713 3.19141ZM25.697 13.3288C25.4675 13.5788 25.1793 13.7795 24.8532 13.9167C24.5271 14.0538 24.1714 14.1238 23.8117 14.1217H17.1093C16.7507 14.1224 16.3963 14.0514 16.0717 13.9138C15.7471 13.7762 15.4603 13.5754 15.2319 13.3258C15.0035 13.0762 14.8392 12.7841 14.7508 12.4704C14.6624 12.1568 14.6521 11.8293 14.7206 11.5116L15.0463 10.0507C15.156 9.5491 15.455 9.09735 15.8924 8.77247C16.3298 8.44759 16.8785 8.26969 17.445 8.26905H23.486C24.0513 8.27005 24.5986 8.44829 25.0343 8.77328C25.4701 9.09828 25.7672 9.54983 25.8747 10.0507L26.2005 11.5116C26.272 11.8292 26.2639 12.1573 26.1768 12.4717C26.0897 12.7861 25.9258 13.079 25.697 13.3288ZM10.407 12.6697H13.1511C13.2755 13.2483 13.557 13.7901 13.9704 14.2464C14.3526 14.666 14.8334 15.0035 15.378 15.2346C15.9226 15.4657 16.5174 15.5846 17.1192 15.5826H23.8117C24.4123 15.5858 25.0061 15.4674 25.5493 15.2362C26.0925 15.0049 26.5714 14.6667 26.9506 14.2464C27.3628 13.7883 27.6472 13.2475 27.7798 12.6697H30.5733L37.0683 24.3303H3.9218L10.407 12.6697ZM2.58922 34.5391V33.087H4.21793V34.5391H2.58922ZM38.3417 34.5391H36.713V33.087H38.3417V34.5391ZM38.3417 31.6261H2.58922V26.5218C2.58922 26.328 2.6745 26.1422 2.82629 26.0052C2.97809 25.8682 3.18397 25.7913 3.39864 25.7913H37.4829C37.6985 25.7913 37.9054 25.868 38.0588 26.0047C38.2121 26.1414 38.2996 26.3272 38.3022 26.5218L38.3417 31.6261Z" stroke="#787878" mask="url(#path-1-outside-1_10229_26050)"/>
</svg>
