<svg width="54" height="44" viewBox="0 0 54 44" fill="none" xmlns="http://www.w3.org/2000/svg">
<mask id="path-1-outside-1_10139_26255" maskUnits="userSpaceOnUse" x="0" y="0" width="54" height="44" fill="black">
<rect fill="white" width="54" height="44"/>
<path d="M52.9296 29.929C53.0047 29.7334 53.0047 29.5203 52.9296 29.3248L48.6888 17.0556V5.76048C48.6604 4.47622 48.0761 3.2545 47.0637 2.36253C46.0513 1.47056 44.6932 0.98096 43.2865 1.00078H10.8727C10.1757 0.989346 9.48297 1.10338 8.8342 1.33641C8.18543 1.56944 7.59329 1.91688 7.09162 2.35888C6.58995 2.80088 6.18857 3.32877 5.9104 3.91243C5.63223 4.49609 5.48272 5.12406 5.47042 5.76048V17.0556L1.09455 29.3864C1.0194 29.582 1.0194 29.7951 1.09455 29.9906C1.03477 30.1959 1.00301 30.4071 1 30.6195V42.0503C1.0035 42.1782 1.0346 42.3042 1.09148 42.4212C1.14836 42.5382 1.22993 42.6437 1.33152 42.7319C1.43312 42.8201 1.55275 42.8892 1.68357 42.9351C1.8144 42.9811 1.95386 43.003 2.09398 42.9997H6.49685C6.77753 43.003 7.04834 42.9053 7.25059 42.7275C7.45284 42.5498 7.57023 42.3065 7.57731 42.0503V39.1278H46.5144V41.9885C46.5214 42.2447 46.6388 42.4881 46.8411 42.6658C47.0433 42.8435 47.3141 42.9414 47.5948 42.938H51.9167C52.1973 42.9414 52.4682 42.8435 52.6704 42.6658C52.8726 42.4881 52.99 42.2447 52.9971 41.9885V30.6195C53.0086 30.3876 52.9859 30.1554 52.9296 29.929ZM7.59081 5.79747C7.60855 5.02669 7.95917 4.29352 8.56629 3.75769C9.17341 3.22186 9.98786 2.92677 10.8322 2.9367H43.246C44.0903 2.92677 44.9047 3.22186 45.5119 3.75769C46.119 4.29352 46.4696 5.02669 46.4873 5.79747V16.2664H43.5431L42.5437 12.7274C42.355 12.0969 41.9422 11.5416 41.3701 11.1487C40.798 10.7559 40.0991 10.5477 39.3833 10.5572H32.4279C32.0093 10.5506 31.5934 10.6195 31.2039 10.7597C30.8145 10.8999 30.4591 11.1089 30.1581 11.3745C29.8571 11.6402 29.6164 11.9574 29.4497 12.308C29.2829 12.6586 29.1935 13.0358 29.1865 13.4179V16.2664H24.8511V13.4179C24.8334 12.6472 24.4828 11.914 23.8757 11.3782C23.2685 10.8424 22.4541 10.5472 21.6098 10.5572H14.6408C13.9279 10.5526 13.2332 10.7628 12.6643 11.1551C12.0954 11.5475 11.6841 12.1001 11.494 12.7274L10.4946 16.2664H7.55029L7.59081 5.79747ZM41.3552 17.8077C41.2498 17.9237 41.1177 18.017 40.9683 18.0809C40.8188 18.1449 40.6558 18.1779 40.4908 18.1776H32.3873C32.1067 18.181 31.8359 18.0832 31.6336 17.9055C31.4314 17.7278 31.314 17.4844 31.3069 17.2282V13.4179C31.3086 13.2906 31.3381 13.1648 31.3935 13.0479C31.4489 12.931 31.5292 12.8253 31.6297 12.737C31.7302 12.6486 31.849 12.5794 31.979 12.5333C32.1091 12.4872 32.2479 12.4652 32.3873 12.4685H39.3563C39.5924 12.4641 39.8232 12.5322 40.0118 12.6619C40.2004 12.7916 40.3358 12.9753 40.3963 13.1836L41.6118 17.0556C41.6341 17.1895 41.6239 17.3263 41.5819 17.4563C41.5399 17.5863 41.4671 17.7063 41.3687 17.8077H41.3552ZM22.7037 13.4179V17.2159C22.6967 17.4721 22.5793 17.7154 22.377 17.8931C22.1748 18.0709 21.904 18.1687 21.6233 18.1654H13.5198C13.3571 18.1638 13.1967 18.1298 13.0498 18.0659C12.9028 18.0021 12.7729 17.9097 12.669 17.7954C12.57 17.6826 12.5014 17.5503 12.4685 17.409C12.4357 17.2677 12.4396 17.1213 12.4799 16.9816L13.5603 13.1713C13.6256 12.963 13.7641 12.7802 13.9545 12.6509C14.1449 12.5217 14.3765 12.4532 14.6138 12.4562H21.5693C21.7143 12.446 21.86 12.4632 21.9973 12.507C22.1346 12.5507 22.2605 12.62 22.3671 12.7103C22.4737 12.8007 22.5586 12.9101 22.6165 13.0319C22.6745 13.1537 22.7042 13.2852 22.7037 13.4179ZM7.28018 18.1776H10.5486C10.6594 18.4681 10.8239 18.7392 11.0348 18.9792C11.3428 19.3252 11.7322 19.6036 12.1741 19.7936C12.6159 19.9836 13.099 20.0803 13.5874 20.0766H21.6908C22.349 20.0807 22.9928 19.901 23.5359 19.5616C24.079 19.2222 24.4955 18.7393 24.7296 18.1776H29.4566C29.6915 18.7413 30.1101 19.2256 30.6559 19.5652C31.2017 19.9047 31.8484 20.0833 32.5089 20.0766H40.6123C41.1028 20.0813 41.5882 19.985 42.0324 19.795C42.4766 19.605 42.8683 19.3262 43.1784 18.9792C43.3844 18.7362 43.5483 18.4659 43.6646 18.1776H46.9195L50.2554 27.7341C50.1295 27.7273 50.0032 27.7273 49.8773 27.7341H4.34944C4.22349 27.7273 4.09723 27.7273 3.97128 27.7341L7.28018 18.1776ZM3.22846 41.0268V39.1278H5.38937V41.0268H3.22846ZM50.8092 41.0268H48.6483V39.1278H50.8092V41.0268ZM50.8092 37.2165H3.26898V30.6195C3.27072 30.4921 3.30015 30.3664 3.35557 30.2495C3.41099 30.1326 3.49128 30.0269 3.5918 29.9385C3.69232 29.8502 3.81105 29.781 3.94111 29.7349C4.07117 29.6888 4.20997 29.6667 4.34944 29.67H49.7152C49.8547 29.6667 49.9935 29.6888 50.1235 29.7349C50.2536 29.781 50.3723 29.8502 50.4728 29.9385C50.5733 30.0269 50.6537 30.1326 50.7091 30.2495C50.7645 30.3664 50.7939 30.4921 50.7957 30.6195L50.8092 37.2165Z"/>
</mask>
<path d="M52.9296 29.929C53.0047 29.7334 53.0047 29.5203 52.9296 29.3248L48.6888 17.0556V5.76048C48.6604 4.47622 48.0761 3.2545 47.0637 2.36253C46.0513 1.47056 44.6932 0.98096 43.2865 1.00078H10.8727C10.1757 0.989346 9.48297 1.10338 8.8342 1.33641C8.18543 1.56944 7.59329 1.91688 7.09162 2.35888C6.58995 2.80088 6.18857 3.32877 5.9104 3.91243C5.63223 4.49609 5.48272 5.12406 5.47042 5.76048V17.0556L1.09455 29.3864C1.0194 29.582 1.0194 29.7951 1.09455 29.9906C1.03477 30.1959 1.00301 30.4071 1 30.6195V42.0503C1.0035 42.1782 1.0346 42.3042 1.09148 42.4212C1.14836 42.5382 1.22993 42.6437 1.33152 42.7319C1.43312 42.8201 1.55275 42.8892 1.68357 42.9351C1.8144 42.9811 1.95386 43.003 2.09398 42.9997H6.49685C6.77753 43.003 7.04834 42.9053 7.25059 42.7275C7.45284 42.5498 7.57023 42.3065 7.57731 42.0503V39.1278H46.5144V41.9885C46.5214 42.2447 46.6388 42.4881 46.8411 42.6658C47.0433 42.8435 47.3141 42.9414 47.5948 42.938H51.9167C52.1973 42.9414 52.4682 42.8435 52.6704 42.6658C52.8726 42.4881 52.99 42.2447 52.9971 41.9885V30.6195C53.0086 30.3876 52.9859 30.1554 52.9296 29.929ZM7.59081 5.79747C7.60855 5.02669 7.95917 4.29352 8.56629 3.75769C9.17341 3.22186 9.98786 2.92677 10.8322 2.9367H43.246C44.0903 2.92677 44.9047 3.22186 45.5119 3.75769C46.119 4.29352 46.4696 5.02669 46.4873 5.79747V16.2664H43.5431L42.5437 12.7274C42.355 12.0969 41.9422 11.5416 41.3701 11.1487C40.798 10.7559 40.0991 10.5477 39.3833 10.5572H32.4279C32.0093 10.5506 31.5934 10.6195 31.2039 10.7597C30.8145 10.8999 30.4591 11.1089 30.1581 11.3745C29.8571 11.6402 29.6164 11.9574 29.4497 12.308C29.2829 12.6586 29.1935 13.0358 29.1865 13.4179V16.2664H24.8511V13.4179C24.8334 12.6472 24.4828 11.914 23.8757 11.3782C23.2685 10.8424 22.4541 10.5472 21.6098 10.5572H14.6408C13.9279 10.5526 13.2332 10.7628 12.6643 11.1551C12.0954 11.5475 11.6841 12.1001 11.494 12.7274L10.4946 16.2664H7.55029L7.59081 5.79747ZM41.3552 17.8077C41.2498 17.9237 41.1177 18.017 40.9683 18.0809C40.8188 18.1449 40.6558 18.1779 40.4908 18.1776H32.3873C32.1067 18.181 31.8359 18.0832 31.6336 17.9055C31.4314 17.7278 31.314 17.4844 31.3069 17.2282V13.4179C31.3086 13.2906 31.3381 13.1648 31.3935 13.0479C31.4489 12.931 31.5292 12.8253 31.6297 12.737C31.7302 12.6486 31.849 12.5794 31.979 12.5333C32.1091 12.4872 32.2479 12.4652 32.3873 12.4685H39.3563C39.5924 12.4641 39.8232 12.5322 40.0118 12.6619C40.2004 12.7916 40.3358 12.9753 40.3963 13.1836L41.6118 17.0556C41.6341 17.1895 41.6239 17.3263 41.5819 17.4563C41.5399 17.5863 41.4671 17.7063 41.3687 17.8077H41.3552ZM22.7037 13.4179V17.2159C22.6967 17.4721 22.5793 17.7154 22.377 17.8931C22.1748 18.0709 21.904 18.1687 21.6233 18.1654H13.5198C13.3571 18.1638 13.1967 18.1298 13.0498 18.0659C12.9028 18.0021 12.7729 17.9097 12.669 17.7954C12.57 17.6826 12.5014 17.5503 12.4685 17.409C12.4357 17.2677 12.4396 17.1213 12.4799 16.9816L13.5603 13.1713C13.6256 12.963 13.7641 12.7802 13.9545 12.6509C14.1449 12.5217 14.3765 12.4532 14.6138 12.4562H21.5693C21.7143 12.446 21.86 12.4632 21.9973 12.507C22.1346 12.5507 22.2605 12.62 22.3671 12.7103C22.4737 12.8007 22.5586 12.9101 22.6165 13.0319C22.6745 13.1537 22.7042 13.2852 22.7037 13.4179ZM7.28018 18.1776H10.5486C10.6594 18.4681 10.8239 18.7392 11.0348 18.9792C11.3428 19.3252 11.7322 19.6036 12.1741 19.7936C12.6159 19.9836 13.099 20.0803 13.5874 20.0766H21.6908C22.349 20.0807 22.9928 19.901 23.5359 19.5616C24.079 19.2222 24.4955 18.7393 24.7296 18.1776H29.4566C29.6915 18.7413 30.1101 19.2256 30.6559 19.5652C31.2017 19.9047 31.8484 20.0833 32.5089 20.0766H40.6123C41.1028 20.0813 41.5882 19.985 42.0324 19.795C42.4766 19.605 42.8683 19.3262 43.1784 18.9792C43.3844 18.7362 43.5483 18.4659 43.6646 18.1776H46.9195L50.2554 27.7341C50.1295 27.7273 50.0032 27.7273 49.8773 27.7341H4.34944C4.22349 27.7273 4.09723 27.7273 3.97128 27.7341L7.28018 18.1776ZM3.22846 41.0268V39.1278H5.38937V41.0268H3.22846ZM50.8092 41.0268H48.6483V39.1278H50.8092V41.0268ZM50.8092 37.2165H3.26898V30.6195C3.27072 30.4921 3.30015 30.3664 3.35557 30.2495C3.41099 30.1326 3.49128 30.0269 3.5918 29.9385C3.69232 29.8502 3.81105 29.781 3.94111 29.7349C4.07117 29.6888 4.20997 29.6667 4.34944 29.67H49.7152C49.8547 29.6667 49.9935 29.6888 50.1235 29.7349C50.2536 29.781 50.3723 29.8502 50.4728 29.9385C50.5733 30.0269 50.6537 30.1326 50.7091 30.2495C50.7645 30.3664 50.7939 30.4921 50.7957 30.6195L50.8092 37.2165Z" fill="#787878"/>
<path d="M52.9296 29.929C53.0047 29.7334 53.0047 29.5203 52.9296 29.3248L48.6888 17.0556V5.76048C48.6604 4.47622 48.0761 3.2545 47.0637 2.36253C46.0513 1.47056 44.6932 0.98096 43.2865 1.00078H10.8727C10.1757 0.989346 9.48297 1.10338 8.8342 1.33641C8.18543 1.56944 7.59329 1.91688 7.09162 2.35888C6.58995 2.80088 6.18857 3.32877 5.9104 3.91243C5.63223 4.49609 5.48272 5.12406 5.47042 5.76048V17.0556L1.09455 29.3864C1.0194 29.582 1.0194 29.7951 1.09455 29.9906C1.03477 30.1959 1.00301 30.4071 1 30.6195V42.0503C1.0035 42.1782 1.0346 42.3042 1.09148 42.4212C1.14836 42.5382 1.22993 42.6437 1.33152 42.7319C1.43312 42.8201 1.55275 42.8892 1.68357 42.9351C1.8144 42.9811 1.95386 43.003 2.09398 42.9997H6.49685C6.77753 43.003 7.04834 42.9053 7.25059 42.7275C7.45284 42.5498 7.57023 42.3065 7.57731 42.0503V39.1278H46.5144V41.9885C46.5214 42.2447 46.6388 42.4881 46.8411 42.6658C47.0433 42.8435 47.3141 42.9414 47.5948 42.938H51.9167C52.1973 42.9414 52.4682 42.8435 52.6704 42.6658C52.8726 42.4881 52.99 42.2447 52.9971 41.9885V30.6195C53.0086 30.3876 52.9859 30.1554 52.9296 29.929ZM7.59081 5.79747C7.60855 5.02669 7.95917 4.29352 8.56629 3.75769C9.17341 3.22186 9.98786 2.92677 10.8322 2.9367H43.246C44.0903 2.92677 44.9047 3.22186 45.5119 3.75769C46.119 4.29352 46.4696 5.02669 46.4873 5.79747V16.2664H43.5431L42.5437 12.7274C42.355 12.0969 41.9422 11.5416 41.3701 11.1487C40.798 10.7559 40.0991 10.5477 39.3833 10.5572H32.4279C32.0093 10.5506 31.5934 10.6195 31.2039 10.7597C30.8145 10.8999 30.4591 11.1089 30.1581 11.3745C29.8571 11.6402 29.6164 11.9574 29.4497 12.308C29.2829 12.6586 29.1935 13.0358 29.1865 13.4179V16.2664H24.8511V13.4179C24.8334 12.6472 24.4828 11.914 23.8757 11.3782C23.2685 10.8424 22.4541 10.5472 21.6098 10.5572H14.6408C13.9279 10.5526 13.2332 10.7628 12.6643 11.1551C12.0954 11.5475 11.6841 12.1001 11.494 12.7274L10.4946 16.2664H7.55029L7.59081 5.79747ZM41.3552 17.8077C41.2498 17.9237 41.1177 18.017 40.9683 18.0809C40.8188 18.1449 40.6558 18.1779 40.4908 18.1776H32.3873C32.1067 18.181 31.8359 18.0832 31.6336 17.9055C31.4314 17.7278 31.314 17.4844 31.3069 17.2282V13.4179C31.3086 13.2906 31.3381 13.1648 31.3935 13.0479C31.4489 12.931 31.5292 12.8253 31.6297 12.737C31.7302 12.6486 31.849 12.5794 31.979 12.5333C32.1091 12.4872 32.2479 12.4652 32.3873 12.4685H39.3563C39.5924 12.4641 39.8232 12.5322 40.0118 12.6619C40.2004 12.7916 40.3358 12.9753 40.3963 13.1836L41.6118 17.0556C41.6341 17.1895 41.6239 17.3263 41.5819 17.4563C41.5399 17.5863 41.4671 17.7063 41.3687 17.8077H41.3552ZM22.7037 13.4179V17.2159C22.6967 17.4721 22.5793 17.7154 22.377 17.8931C22.1748 18.0709 21.904 18.1687 21.6233 18.1654H13.5198C13.3571 18.1638 13.1967 18.1298 13.0498 18.0659C12.9028 18.0021 12.7729 17.9097 12.669 17.7954C12.57 17.6826 12.5014 17.5503 12.4685 17.409C12.4357 17.2677 12.4396 17.1213 12.4799 16.9816L13.5603 13.1713C13.6256 12.963 13.7641 12.7802 13.9545 12.6509C14.1449 12.5217 14.3765 12.4532 14.6138 12.4562H21.5693C21.7143 12.446 21.86 12.4632 21.9973 12.507C22.1346 12.5507 22.2605 12.62 22.3671 12.7103C22.4737 12.8007 22.5586 12.9101 22.6165 13.0319C22.6745 13.1537 22.7042 13.2852 22.7037 13.4179ZM7.28018 18.1776H10.5486C10.6594 18.4681 10.8239 18.7392 11.0348 18.9792C11.3428 19.3252 11.7322 19.6036 12.1741 19.7936C12.6159 19.9836 13.099 20.0803 13.5874 20.0766H21.6908C22.349 20.0807 22.9928 19.901 23.5359 19.5616C24.079 19.2222 24.4955 18.7393 24.7296 18.1776H29.4566C29.6915 18.7413 30.1101 19.2256 30.6559 19.5652C31.2017 19.9047 31.8484 20.0833 32.5089 20.0766H40.6123C41.1028 20.0813 41.5882 19.985 42.0324 19.795C42.4766 19.605 42.8683 19.3262 43.1784 18.9792C43.3844 18.7362 43.5483 18.4659 43.6646 18.1776H46.9195L50.2554 27.7341C50.1295 27.7273 50.0032 27.7273 49.8773 27.7341H4.34944C4.22349 27.7273 4.09723 27.7273 3.97128 27.7341L7.28018 18.1776ZM3.22846 41.0268V39.1278H5.38937V41.0268H3.22846ZM50.8092 41.0268H48.6483V39.1278H50.8092V41.0268ZM50.8092 37.2165H3.26898V30.6195C3.27072 30.4921 3.30015 30.3664 3.35557 30.2495C3.41099 30.1326 3.49128 30.0269 3.5918 29.9385C3.69232 29.8502 3.81105 29.781 3.94111 29.7349C4.07117 29.6888 4.20997 29.6667 4.34944 29.67H49.7152C49.8547 29.6667 49.9935 29.6888 50.1235 29.7349C50.2536 29.781 50.3723 29.8502 50.4728 29.9385C50.5733 30.0269 50.6537 30.1326 50.7091 30.2495C50.7645 30.3664 50.7939 30.4921 50.7957 30.6195L50.8092 37.2165Z" stroke="#787878" mask="url(#path-1-outside-1_10139_26255)"/>
</svg>
