<svg width="28" height="28" viewBox="0 0 28 28" fill="none" xmlns="http://www.w3.org/2000/svg">
<path d="M27.0345 26.552H0.965508C0.43225 26.552 0 26.1197 0 25.5865V3.37957C0 2.84631 0.43225 2.41406 0.965508 2.41406H27.0345C27.5678 2.41406 28 2.84631 28 3.37957V25.5865C28 26.1197 27.5677 26.552 27.0345 26.552Z" fill="#EFF2FA"/>
<path d="M28 7.24166H0V3.37957C0 2.84631 0.43225 2.41406 0.965508 2.41406H27.0345C27.5678 2.41406 28 2.84631 28 3.37957V7.24166Z" fill="#8894FF"/>
<path d="M28 7.24121H0V8.20672H28V7.24121Z" fill="#E4EAF6"/>
<path d="M4.10332 6.03427C4.90318 6.03427 5.5516 5.38585 5.5516 4.58598C5.5516 3.78612 4.90318 3.1377 4.10332 3.1377C3.30345 3.1377 2.65503 3.78612 2.65503 4.58598C2.65503 5.38585 3.30345 6.03427 4.10332 6.03427Z" fill="#FF6000"/>
<path d="M4.10345 5.31027C3.70352 5.31027 3.37933 4.98603 3.37933 4.58616V2.17236C3.37933 1.77243 3.70358 1.44824 4.10345 1.44824C4.50338 1.44824 4.82757 1.77248 4.82757 2.17236V4.58616C4.82762 4.98609 4.50338 5.31027 4.10345 5.31027Z" fill="#C7CFE2"/>
<path d="M4.10345 3.86187C3.70352 3.86187 3.37933 3.53763 3.37933 3.13775V4.58604C3.37933 4.98597 3.70358 5.31016 4.10345 5.31016C4.50338 5.31016 4.82757 4.98592 4.82757 4.58604V3.1377C4.82762 3.53763 4.50338 3.86187 4.10345 3.86187Z" fill="#AFB9D2"/>
<path d="M23.8967 6.03427C24.6965 6.03427 25.3449 5.38585 25.3449 4.58598C25.3449 3.78612 24.6965 3.1377 23.8967 3.1377C23.0968 3.1377 22.4484 3.78612 22.4484 4.58598C22.4484 5.38585 23.0968 6.03427 23.8967 6.03427Z" fill="#FF6000"/>
<path d="M23.8967 5.31027C23.4967 5.31027 23.1725 4.98603 23.1725 4.58616V2.17236C23.1725 1.77243 23.4968 1.44824 23.8967 1.44824C24.2966 1.44824 24.6208 1.77248 24.6208 2.17236V4.58616C24.6208 4.98609 24.2965 5.31027 23.8967 5.31027Z" fill="#C7CFE2"/>
<path d="M23.8967 3.86187C23.4967 3.86187 23.1725 3.53763 23.1725 3.13775V4.58604C23.1725 4.98597 23.4968 5.31016 23.8967 5.31016C24.2965 5.31016 24.6208 4.98592 24.6208 4.58604V3.1377C24.6208 3.53763 24.2965 3.86187 23.8967 3.86187Z" fill="#AFB9D2"/>
<path d="M12.8566 17.029C12.8046 17.0169 12.7994 16.9506 12.8492 16.9313C13.9911 16.489 14.6741 15.5095 14.6741 14.2503C14.6741 12.4699 13.1252 11.1777 10.9918 11.1777C9.14509 11.1777 7.73617 12.1435 7.3147 13.6983C7.26056 13.8967 7.30108 14.1037 7.42511 14.2658C7.54652 14.4246 7.73081 14.5157 7.93053 14.5157C8.2195 14.5157 8.47292 14.3179 8.54637 14.0347C8.81166 13.0051 9.73008 12.3657 10.9433 12.3657C12.4007 12.3657 13.342 13.1591 13.342 14.3868C13.342 15.6288 12.336 16.4963 10.8957 16.4963H10.0129C9.69399 16.4963 9.43488 16.7554 9.43488 17.0741C9.43488 17.3927 9.69399 17.6521 10.0129 17.6521H10.9433C12.7517 17.6521 13.8312 18.4976 13.8312 19.9138C13.8312 21.2152 12.6606 22.1597 11.0476 22.1597C9.6562 22.1597 8.57935 21.4818 8.30399 20.4324C8.22699 20.1412 7.97051 19.9378 7.68023 19.9378C7.48056 19.9378 7.29621 20.0284 7.17344 20.1863C7.04853 20.3478 7.00626 20.5548 7.05778 20.754C7.46509 22.3295 9.03418 23.3474 11.0555 23.3474C13.4019 23.3474 15.1711 21.8575 15.1711 19.8817C15.1712 18.4229 14.2836 17.3588 12.8566 17.029Z" fill="#0090FF"/>
<path d="M19.7584 11.3467C19.4333 11.3479 19.1206 11.4448 18.8535 11.6273C18.5157 11.8578 18.0239 12.1996 17.5479 12.5304C17.0728 12.8604 16.614 13.1793 16.3408 13.3649C16.1754 13.4775 16.0765 13.6637 16.0765 13.8632C16.0765 14.0876 16.1996 14.2919 16.3975 14.3968C16.5968 14.5029 16.8286 14.4903 17.016 14.3628C17.498 14.0352 18.7856 13.1294 19.1284 12.888C19.1648 12.8623 19.2132 12.8897 19.2132 12.9343V22.5214C19.2132 22.8753 19.5013 23.1632 19.855 23.1632C20.2087 23.1632 20.4968 22.8752 20.4968 22.5214V12.0788C20.4969 11.6728 20.1644 11.3452 19.7584 11.3467Z" fill="#0090FF"/>
</svg>
