<svg width="15" height="13" viewBox="0 0 15 13" fill="none" xmlns="http://www.w3.org/2000/svg">
<g clip-path="url(#clip0_10139_26308)">
<path d="M5.23991 6.94854C3.51434 6.60799 1.87303 6.50266 0.475717 7.83502C0.335284 7.73496 0.193095 7.63315 0 7.49447C0.235225 7.2926 0.433587 7.08721 0.663546 6.92923C1.62551 6.26393 2.71211 6.05854 3.85489 6.16562C4.69573 6.24462 5.52779 6.41665 6.36864 6.50442C6.86893 6.55708 7.38151 6.55532 7.88531 6.52373C8.22937 6.50266 8.52077 6.29026 8.38736 5.94971C7.52721 6.12349 6.67057 5.99886 5.76829 5.88125C6.17905 5.33356 6.56349 4.82273 6.97074 4.27855C6.57051 4.17674 6.20714 4.07668 5.84026 3.99944C5.77355 3.9854 5.66998 4.05386 5.61205 4.11355C5.20655 4.5208 4.80808 4.93683 4.40609 5.3476C4.1849 5.57405 3.93037 5.58634 3.68812 5.38622C3.43885 5.17908 3.38619 4.88768 3.57578 4.64719C4.02516 4.07493 4.48332 3.50968 4.93622 2.94093C5.0907 2.74784 5.2873 2.67411 5.53657 2.68288C6.48274 2.71799 7.43066 2.7373 8.37858 2.7689C9.11235 2.79172 9.77589 3.46931 9.78467 4.20307C9.79169 4.72794 9.78643 5.25281 9.80749 5.77592C9.81276 5.89178 9.88122 6.03572 9.96899 6.10945C10.4675 6.52548 10.9801 6.92572 11.4909 7.3277C11.7104 7.50149 11.756 7.77534 11.5998 8.02285C11.44 8.27563 11.175 8.3634 10.9257 8.22648C10.1972 7.83151 9.47221 7.43127 8.74898 7.02402C8.61381 6.94678 8.50322 6.93449 8.3505 6.98891C8.12229 7.06966 7.87829 7.10652 7.63605 7.14339C7.38327 7.18025 7.34114 7.25047 7.48684 7.46463C7.81159 7.94034 8.13283 8.41606 8.46636 8.88476C8.61205 9.09014 8.64014 9.28675 8.55061 9.52548C8.18724 10.4997 7.83792 11.4793 7.47981 12.4553C7.34465 12.8239 7.0866 12.938 6.69163 12.8081C6.34582 12.694 6.21241 12.4412 6.31071 12.0726C6.49854 11.3704 6.68812 10.6683 6.88648 9.96785C6.93037 9.81512 6.9093 9.70278 6.81276 9.57288C6.37741 8.99008 5.95787 8.395 5.52253 7.81395C5.3347 7.56293 5.19076 7.30313 5.23991 6.94854Z" fill="#505050"/>
<path d="M13.0395 11.2703C12.9553 11.2264 12.8921 11.2001 12.8359 11.165C12.2285 10.7823 11.6247 10.3926 11.012 10.0169C10.847 9.91689 10.8383 9.8379 10.9418 9.67815C11.486 8.83556 12.0197 7.98594 12.5533 7.13807C12.8131 6.72555 12.8096 6.7273 13.2362 6.99413C13.7663 7.32414 14.2964 7.65416 14.8336 7.97365C15.0197 8.08424 15.0512 8.18781 14.9284 8.37739C14.3456 9.27792 13.7768 10.1855 13.1993 11.0895C13.1572 11.158 13.094 11.2106 13.0395 11.2703Z" fill="#505050"/>
<path d="M11.9217 1.88243C11.9199 2.6671 11.2844 3.29729 10.4998 3.29729C9.71159 3.29905 9.07263 2.64603 9.07965 1.84908C9.08667 1.08547 9.72564 0.451767 10.4928 0.448257C11.2897 0.444746 11.9252 1.08196 11.9217 1.88243Z" fill="#505050"/>
<path d="M4.93653 8.14398C5.31043 8.65832 5.66327 9.14106 6.01084 9.62555C6.03191 9.65539 6.04419 9.70454 6.03542 9.73965C5.97573 10.0223 5.64923 10.2838 5.35607 10.2908C4.35022 10.3119 3.34437 10.3312 2.33852 10.3488C1.95233 10.3558 1.75572 10.1785 1.72237 9.80285C1.69077 9.43421 1.86631 9.20074 2.24022 9.15685C2.93711 9.07259 3.63401 8.99185 4.33091 8.92865C4.53454 8.90934 4.65391 8.84264 4.71535 8.64427C4.76976 8.48629 4.85227 8.33708 4.93653 8.14398Z" fill="#505050"/>
</g>
<defs>
<clipPath id="clip0_10139_26308">
<rect width="15" height="12.4125" fill="white" transform="translate(0 0.448242)"/>
</clipPath>
</defs>
</svg>
