<svg width="18" height="27" viewBox="0 0 18 27" fill="none" xmlns="http://www.w3.org/2000/svg">
<path d="M6.27444 3.15052C4.80414 3.27521 2.21515 4.7481 1.57717 5.93519C-0.522913 9.84235 1.09978 12.0569 1.24297 12.3175C3.01192 15.5366 8.07765 15.8643 11.2046 17.0379C12.3075 17.4519 11.961 18.641 11.5529 18.8208C7.5954 20.5658 2.96104 17.1312 2.96104 17.1312C2.96104 17.1312 1.03227 20.0047 0 21.6257C2.20211 23.2061 6.25475 24.0672 6.25475 24.0672V27H12.1735L12.1556 24.0158C12.1556 24.0158 15.8206 23.246 17.1139 20.9017C18.9957 17.4903 17.3285 14.6174 17.1139 14.1982C15.6365 11.313 6.89247 10.3204 6.70836 9.21713C6.66029 8.92834 6.79044 8.21509 7.06609 8.09987C7.4003 7.96022 10.6426 6.99534 14.8318 9.72913C15.8009 8.22557 17.6624 5.30199 17.6624 5.30199C17.6624 5.30199 15.5012 3.5039 12.1735 3.02583C12.1735 1.77889 12.1735 2.71672e-08 12.1735 2.71672e-08H6.255C6.255 -0.000249361 6.25449 1.71654 6.27444 3.15052Z" fill="#0090FF"/>
</svg>
