<svg width="13" height="11" viewBox="0 0 13 11" fill="none" xmlns="http://www.w3.org/2000/svg">
<path d="M12.5305 8.07288L10.731 6.5378C10.0883 5.98956 8.99569 6.20888 8.73862 6.92157C8.54581 7.41501 7.90312 7.68913 7.32469 7.57946C6.03931 7.30534 4.30404 5.87991 3.9827 4.7286C3.78989 4.23516 4.17551 3.68691 4.75393 3.52246C5.58943 3.30317 5.8465 2.37115 5.20381 1.82291L3.40428 0.287828C2.89012 -0.0959426 2.11889 -0.0959426 1.66901 0.287828L0.447896 1.32949C-0.773217 2.42598 0.576434 5.33167 3.59708 7.90841C6.61773 10.4852 10.024 11.6913 11.3094 10.5948L12.5305 9.55314C12.9804 9.11454 12.9804 8.45665 12.5305 8.07288Z" fill="#4C4C4C"/>
</svg>
