<svg width="23" height="32" viewBox="0 0 23 32" fill="none" xmlns="http://www.w3.org/2000/svg">
<g clip-path="url(#clip0_6359_24284)">
<path d="M22.1772 9.00098H0.820454C0.366783 9.00098 -0.000976562 9.36874 -0.000976562 9.82241V13.9295C-0.000928433 14.1622 0.0978819 14.384 0.270908 14.5398L8.21318 21.6877V31.1792C8.21299 31.6328 8.58056 32.0007 9.03423 32.001C9.16182 32.001 9.28768 31.9714 9.40179 31.9143L14.3303 29.4501C14.6088 29.311 14.7847 29.0263 14.7845 28.7149V21.6877L22.7268 14.5414C22.9003 14.3853 22.9991 14.1628 22.9987 13.9295V9.82241C22.9986 9.36874 22.6309 9.00098 22.1772 9.00098ZM21.3558 13.5639L13.4136 20.7102C13.2401 20.8663 13.1413 21.0888 13.1417 21.3222V28.2073L9.85599 29.8501V21.3222C9.85595 21.0894 9.75714 20.8676 9.58411 20.7119L1.64184 13.5639V10.6438H21.3558V13.5639Z" fill="#FF6000"/>
<line x1="3.83203" y1="13.8623" x2="6.38759" y2="13.8623" stroke="#FF6000" stroke-width="0.5"/>
<line x1="-0.000976562" y1="13.8623" x2="2.55458" y2="13.8623" stroke="#FF6000" stroke-width="0.5"/>
<line x1="7.66602" y1="13.8623" x2="10.2216" y2="13.8623" stroke="#FF6000" stroke-width="0.5"/>
<line x1="11.499" y1="13.8623" x2="14.0546" y2="13.8623" stroke="#FF6000" stroke-width="0.5"/>
<line x1="15.332" y1="13.8623" x2="17.8876" y2="13.8623" stroke="#FF6000" stroke-width="0.5"/>
<line x1="19.166" y1="13.8623" x2="21.7216" y2="13.8623" stroke="#FF6000" stroke-width="0.5"/>
</g>
<path d="M10.7239 1.71181L8.16634 4.39383L5.60881 1.71181L10.7239 1.71181Z" stroke="#FF6000" stroke-width="0.9"/>
<defs>
<clipPath id="clip0_6359_24284">
<rect width="23" height="23" fill="white" transform="translate(-0.000976562 9.00098)"/>
</clipPath>
</defs>
</svg>
