<svg  width="15" height="23" viewBox="0 0 15 23" fill="none" xmlns="http://www.w3.org/2000/svg">
<defs>
<symbol id="locationIcon" viewBox="0 0 32 32">
<path d="M7.20177 0C3.22449 0 0 3.22403 0 7.20177C0 10.5244 5.0267 19.6525 6.68106 22.5664C6.91063 22.9706 7.49291 22.9706 7.72247 22.5664C9.37683 19.6525 14.4035 10.5244 14.4035 7.20177C14.4035 3.22403 11.1788 0 7.20177 0ZM7.20177 9.76868C5.56732 9.76868 4.24233 8.44368 4.24233 6.80923C4.24233 5.17433 5.56732 3.84933 7.20177 3.84933C8.83621 3.84933 10.1612 5.17433 10.1612 6.80923C10.1612 8.44368 8.83621 9.76868 7.20177 9.76868Z" fill="#AEAFBC"/>    
</symbol>
</defs>
</svg>
