<svg width="16" height="14" viewBox="0 0 16 14" fill="none" xmlns="http://www.w3.org/2000/svg">
<path d="M7.63342 13.9072C9.58751 13.8899 11.5219 13.1489 12.9129 11.8904C14.5649 10.3957 15.4156 8.18434 15.1189 6.07304C14.6105 2.4552 11.3617 0 7.58485 0C4.71519 0 1.92634 1.6434 0.703045 4.02635C-0.2334 5.85072 -0.235297 8.05339 0.703045 9.88089C1.91762 12.2472 4.66093 13.8819 7.53591 13.9072C7.56854 13.9072 7.60117 13.9072 7.63342 13.9072ZM7.54387 12.7481C4.62564 12.7224 1.90282 10.6562 1.36136 8.00719C0.979653 6.13973 1.7002 4.11875 3.20124 2.79249C4.95347 1.24358 7.70779 0.724957 9.99806 1.60276C12.047 2.38816 13.5807 4.21184 13.8634 6.22102C14.1054 7.94327 13.4304 9.7482 12.1039 10.9914C10.9402 12.0822 9.30824 12.7331 7.62545 12.7481C7.59813 12.7481 7.57119 12.7481 7.54387 12.7481Z" fill="#A5A5A5"/>
</svg>
