<svg width="114" height="114" viewBox="0 0 114 114" fill="none" xmlns="http://www.w3.org/2000/svg">
<rect width="114" height="114" fill="#E5E5E5"/>
<g id="&#208;&#148;&#208;&#182;&#208;&#181;&#208;&#186;&#208;&#184; &#208;&#167;&#208;&#176;&#208;&#189;">
<g id="Rectangle 34" filter="url(#filter0_d_198_605)">
<rect x="7" y="11" width="100" height="100" rx="4" fill="white"/>
</g>
<path id="Vector" d="M59.5156 49.5849H59.5166C60.499 49.589 61.4526 49.8986 62.2165 50.4656C62.9806 51.0328 63.5098 51.8245 63.7078 52.7106L59.5156 49.5849ZM59.5156 49.5849L53.4647 49.5849L53.4632 49.5849C52.4815 49.5908 51.529 49.901 50.7656 50.4676C50.0019 51.0345 49.4722 51.8253 49.2725 52.7106C49.2725 52.7106 49.2725 52.7106 49.2725 52.7106L48.9907 53.9587H47.0204L46.963 46.1914C46.963 46.1911 46.963 46.1909 46.963 46.1906C46.9632 46.0722 47.0152 45.9528 47.1176 45.8605C47.221 45.7672 47.3662 45.7109 47.5224 45.7109H65.3986C65.5548 45.7109 65.7001 45.7672 65.8035 45.8605C65.906 45.953 65.9581 46.0727 65.9581 46.1914V53.9587H63.9895L63.7079 52.7111L59.5156 49.5849ZM49.7856 57.4148L49.7851 57.4143C49.3904 56.9786 49.1067 56.4682 48.9552 55.9197H46.554L40.3469 67.0803H72.6429L66.4264 55.9197H63.9733C63.8155 56.467 63.5298 56.9765 63.1365 57.4136L63.1363 57.4139C62.7316 57.8623 62.2224 58.2214 61.6472 58.4662C61.0723 58.7109 60.445 58.8359 59.8111 58.8326C59.8108 58.8326 59.8106 58.8326 59.8104 58.8326L59.8117 58.5826L49.7856 57.4148ZM49.7856 57.4148C50.193 57.8621 50.704 58.2202 51.2803 58.4647C51.8566 58.7093 52.4848 58.8347 53.1197 58.8326L49.7856 57.4148ZM42.1262 78.2695V76.337H70.8738L70.8737 78.2695L70.8738 78.2729C70.8774 78.5418 70.9984 78.7927 71.2008 78.9732C71.4024 79.1529 71.6694 79.25 71.9431 79.25H75.1906C75.4637 79.25 75.7302 79.1523 75.9304 78.9716C76.1315 78.7902 76.25 78.5383 76.25 78.2695V69.5218H76.2501L76.2499 69.5161C76.2417 69.157 76.1469 68.805 75.9732 68.4847C75.8204 68.2028 75.6101 67.952 75.3553 67.7448C75.3533 67.7258 75.3503 67.7068 75.3462 67.6879L75.3384 67.6513L75.3202 67.6185L68.1262 54.6961L68.1262 46.1914L68.1262 46.1903C68.1233 45.5334 67.8319 44.9103 67.3258 44.4554C66.8205 44.0012 66.1414 43.75 65.4381 43.75H47.5224C46.8191 43.75 46.14 44.0012 45.6348 44.4554C45.1286 44.9103 44.8372 45.5334 44.8343 46.1903V46.1914V54.6961L37.6403 67.6185L37.6122 67.669L37.6091 67.7267C37.6087 67.7357 37.6083 67.7447 37.6079 67.7537C37.3576 67.9623 37.1525 68.2141 37.0054 68.4964C36.839 68.8157 36.7514 69.1654 36.75 69.5208V69.5218L36.75 78.2695L36.75 78.2729C36.7536 78.5418 36.8747 78.7927 37.0771 78.9732C37.2786 79.1529 37.5457 79.25 37.8193 79.25H41.0668C41.34 79.25 41.6065 79.1523 41.8067 78.9716C42.0077 78.7902 42.1262 78.5383 42.1262 78.2695ZM59.8132 56.8717H59.8117H53.1093H53.1089C52.7833 56.8723 52.4623 56.8078 52.1693 56.6836C51.8762 56.5594 51.6194 56.379 51.4163 56.157C51.2132 55.9351 51.0688 55.6773 50.9914 55.4026C50.9141 55.1284 50.9051 54.8426 50.9648 54.5652C50.9648 54.5649 50.9649 54.5646 50.965 54.5643L51.2903 53.1051L51.2906 53.1041C51.3865 52.6653 51.6493 52.2644 52.0414 51.9732C52.434 51.6816 52.9301 51.5196 53.4452 51.519L59.4855 51.519C59.4856 51.519 59.4857 51.519 59.4858 51.519C59.9996 51.52 60.4941 51.6822 60.8849 51.9737C61.2753 52.2649 61.5363 52.6653 61.6303 53.1032L61.6307 53.1051L61.9565 54.566L61.9566 54.5665C62.019 54.8439 62.012 55.1301 61.9359 55.405C61.8597 55.6799 61.7158 55.938 61.5127 56.16C61.3085 56.3822 61.0505 56.5625 60.7563 56.6862C60.4619 56.81 60.1397 56.8736 59.8132 56.8717ZM38.8392 77.2891V76.337H39.9679V77.2891H38.8392ZM74.0917 77.2891H72.963V76.337H74.0917V77.2891ZM74.0897 74.3761H38.8392V69.5218C38.8392 69.4031 38.8912 69.2834 38.9938 69.1908C39.0972 69.0975 39.2425 69.0413 39.3986 69.0413H73.4829C73.6405 69.0413 73.7872 69.0975 73.8924 69.1913C73.9965 69.2841 74.0504 69.4045 74.0522 69.5244C74.0522 69.5246 74.0522 69.5249 74.0522 69.5251L74.0897 74.3761Z" fill="#787878" stroke="#787878" stroke-width="0.5"/>
</g>
<g id="&#208;&#159;&#208;&#190;&#208;&#180;&#209;&#129;&#208;&#186;&#208;&#176;&#208;&#183;&#208;&#186;&#208;&#176;">
<g id="Vector_2" filter="url(#filter1_d_198_605)">
<path d="M-26 -55.7857C-26 -63.0838 -22.7834 -69 -18.8155 -69H114.816C118.783 -69 122 -63.0838 122 -55.7857V-16.1429C122 -8.84481 118.783 -2.92857 114.816 -2.92857H-18.8155C-22.7834 -2.92857 -26 -8.84481 -26 -16.1429V-55.7857Z" fill="black"/>
</g>
</g>
<defs>
<filter id="filter0_d_198_605" x="0" y="0" width="114" height="114" filterUnits="userSpaceOnUse" color-interpolation-filters="sRGB">
<feFlood flood-opacity="0" result="BackgroundImageFix"/>
<feColorMatrix in="SourceAlpha" type="matrix" values="0 0 0 0 0 0 0 0 0 0 0 0 0 0 0 0 0 0 127 0" result="hardAlpha"/>
<feMorphology radius="1" operator="dilate" in="SourceAlpha" result="effect1_dropShadow_198_605"/>
<feOffset dy="-4"/>
<feGaussianBlur stdDeviation="3"/>
<feColorMatrix type="matrix" values="0 0 0 0 0 0 0 0 0 0 0 0 0 0 0 0 0 0 0.25 0"/>
<feBlend mode="normal" in2="BackgroundImageFix" result="effect1_dropShadow_198_605"/>
<feBlend mode="normal" in="SourceGraphic" in2="effect1_dropShadow_198_605" result="shape"/>
</filter>
<filter id="filter1_d_198_605" x="-30" y="-73" width="156" height="74.0715" filterUnits="userSpaceOnUse" color-interpolation-filters="sRGB">
<feFlood flood-opacity="0" result="BackgroundImageFix"/>
<feColorMatrix in="SourceAlpha" type="matrix" values="0 0 0 0 0 0 0 0 0 0 0 0 0 0 0 0 0 0 127 0" result="hardAlpha"/>
<feOffset/>
<feGaussianBlur stdDeviation="2"/>
<feColorMatrix type="matrix" values="0 0 0 0 0 0 0 0 0 0 0 0 0 0 0 0 0 0 0.25 0"/>
<feBlend mode="normal" in2="BackgroundImageFix" result="effect1_dropShadow_198_605"/>
<feBlend mode="normal" in="SourceGraphic" in2="effect1_dropShadow_198_605" result="shape"/>
</filter>
</defs>
</svg>
