<svg width="23" height="23" viewBox="0 0 23 23" fill="none" xmlns="http://www.w3.org/2000/svg">
<rect x="0.1" y="0.1" width="22.8" height="22.8" rx="0.9" fill="#C4C4C4" stroke="#4C4C4C" stroke-width="0.2"/>
<path d="M18.9246 14.5754C17.781 13.4318 16.4198 12.5852 14.9346 12.0727C16.5253 10.9771 17.5703 9.14357 17.5703 7.07031C17.5703 3.72315 14.8472 1 11.5 1C8.15284 1 5.42969 3.72315 5.42969 7.07031C5.42969 9.14357 6.47472 10.9771 8.06543 12.0727C6.58026 12.5852 5.21903 13.4318 4.07539 14.5754C2.09221 16.5586 1 19.1954 1 22H2.64062C2.64062 17.1149 6.61492 13.1406 11.5 13.1406C16.3851 13.1406 20.3594 17.1149 20.3594 22H22C22 19.1954 20.9078 16.5586 18.9246 14.5754ZM11.5 11.5C9.05748 11.5 7.07031 9.51287 7.07031 7.07031C7.07031 4.62775 9.05748 2.64062 11.5 2.64062C13.9425 2.64062 15.9297 4.62775 15.9297 7.07031C15.9297 9.51287 13.9425 11.5 11.5 11.5Z" fill="#787878"/>
</svg>
