<svg width="11" height="14" viewBox="0 0 11 14" fill="none" xmlns="http://www.w3.org/2000/svg">
<path d="M6.97725 12.7907H1.74466C1.42373 12.7907 1.16328 12.5302 1.16328 12.2093V1.7442C1.16328 1.42327 1.42376 1.16282 1.74466 1.16282H6.97725C7.29875 1.16282 7.55863 0.902945 7.55863 0.581437C7.55863 0.25993 7.29875 0 6.97725 0H1.74466C0.783039 0 0.000488281 0.782578 0.000488281 1.7442V12.2093C0.000488281 13.1709 0.783039 13.9535 1.74466 13.9535H6.97725C7.29875 13.9535 7.55863 13.6936 7.55863 13.3721C7.55863 13.0506 7.29875 12.7907 6.97725 12.7907Z" fill="#282222"/>
<path d="M10.8709 6.67162L8.22413 4.10016C8.05348 3.93387 7.77749 3.93603 7.60858 4.10445C7.43967 4.27288 7.44141 4.54417 7.61294 4.71046L9.50442 6.54818H4.43594C4.19521 6.54818 4.00062 6.73975 4.00062 6.97675C4.00062 7.21375 4.19521 7.40533 4.43594 7.40533H9.50442L7.61294 9.24306C7.44143 9.40935 7.44012 9.68064 7.60858 9.84906C7.6939 9.93392 7.80621 9.97678 7.91853 9.97678C8.02911 9.97678 8.13967 9.93564 8.22413 9.85334L10.8709 7.28188C10.9536 7.20131 11.0006 7.09158 11.0006 6.97673C11.0006 6.86192 10.954 6.75263 10.8709 6.67162Z" fill="#282222"/>
</svg>
