<svg width="14" height="14" viewBox="0 0 14 14" fill="none" xmlns="http://www.w3.org/2000/svg">
<path d="M10.9212 7.73279L6.99971 0.913696L3.07938 7.73082C3.99239 7.01786 5.40628 6.17666 6.99593 6.17666C8.58707 6.17666 10.0055 7.0195 10.9212 7.73279Z" fill="#282222"/>
<path d="M7.01923 10.6957C8.01385 10.6957 8.82301 9.88651 8.82301 8.89189C8.82301 8.44197 8.65703 8.03034 8.38362 7.71403C8.34821 8.43596 7.74979 9.01245 7.01923 9.01245C6.28863 9.01245 5.69021 8.43598 5.6548 7.71406C5.38136 8.03034 5.21541 8.44197 5.21541 8.89189C5.21541 9.88649 6.0246 10.6957 7.01923 10.6957Z" fill="#282222"/>
<path d="M14 13.0861L11.7904 9.24374C11.1794 9.85326 9.26289 11.5637 6.99623 11.5637C4.72858 11.5637 2.81837 9.85203 2.21025 9.24267L0 13.0861H14Z" fill="#282222"/>
<path d="M3.00922 8.8702C3.37234 9.20487 3.96857 9.69787 4.70054 10.0943C4.51299 9.73419 4.40678 9.32526 4.40678 8.89194C4.40678 8.43391 4.52546 8.00313 4.73343 7.6285C3.98654 8.02777 3.37781 8.53049 3.00922 8.8702Z" fill="#282222"/>
<path d="M6.46078 7.64636C6.46078 7.95417 6.71119 8.20459 7.01903 8.20459C7.32684 8.20459 7.57725 7.95417 7.57725 7.64636C7.57725 7.33855 7.32684 7.08814 7.01903 7.08814C6.71119 7.08814 6.46078 7.33855 6.46078 7.64636Z" fill="#282222"/>
<path d="M10.991 8.87015C10.6308 8.53948 10.0427 8.05448 9.32143 7.66071C9.51847 8.02774 9.63042 8.44698 9.63042 8.89189C9.63042 9.31235 9.53039 9.70982 9.35312 10.062C10.0598 9.67151 10.636 9.196 10.991 8.87015Z" fill="#282222"/>
</svg>
