<svg width="22" height="22" viewBox="0 0 22 22" fill="none" xmlns="http://www.w3.org/2000/svg">
<path d="M17.3711 13.5527C16.9393 12.6526 15.3947 11.4031 13.9024 10.1959C13.0701 9.52305 12.2836 8.8869 11.7822 8.38549C11.6566 8.25899 11.4687 8.21865 11.3028 8.27824C10.9939 8.39009 10.8032 8.47624 10.6529 8.54315C10.4237 8.6458 10.3467 8.68065 10.0378 8.7118C9.90118 8.72555 9.77837 8.7989 9.70228 8.91255C9.05418 9.88145 8.38318 9.79895 7.93493 9.64865C7.79193 9.60099 7.76628 9.53955 7.75253 9.4809C7.65628 9.07849 8.13937 8.14165 8.76543 7.51555C10.255 6.02505 11.0232 5.65195 12.6457 6.37705C14.4863 7.2002 16.3307 7.84465 16.349 7.85105C16.5901 7.93445 16.8495 7.80795 16.9329 7.5687C17.0154 7.32945 16.8898 7.0682 16.6506 6.9848C16.6322 6.9784 14.8246 6.3468 13.0206 5.5392C10.9187 4.5996 9.76548 5.21835 8.11823 6.86655C7.49123 7.49355 6.63964 8.7622 6.85964 9.69265C6.95404 10.0886 7.23273 10.382 7.64704 10.5185C8.68564 10.8614 9.63344 10.5332 10.3393 9.5964C10.6308 9.55149 10.7894 9.48549 11.0277 9.37824C11.1138 9.33974 11.2147 9.29484 11.3485 9.24074C11.8729 9.73299 12.5805 10.3059 13.3258 10.9081C14.6733 11.998 16.2014 13.2337 16.5451 13.9487C16.7147 14.3016 16.5323 14.5317 16.4085 14.6371C16.227 14.793 15.9786 14.8425 15.8439 14.748C15.6954 14.6463 15.502 14.6399 15.3489 14.7315C15.1949 14.8232 15.1087 14.9965 15.128 15.1743C15.1591 15.4658 14.8924 15.6326 14.7769 15.6904C14.4835 15.8389 14.1774 15.8132 14.0628 15.7069C13.9344 15.5877 13.7502 15.5529 13.587 15.6134C13.4239 15.6748 13.3102 15.8251 13.2937 15.9993C13.2662 16.3 13.0434 16.5887 12.7528 16.7015C12.6126 16.7546 12.4091 16.7867 12.2267 16.6199C12.113 16.5172 11.9553 16.4778 11.8078 16.5135C11.6584 16.5502 11.5383 16.6584 11.486 16.8023C11.4686 16.8481 11.4292 16.9581 11.0002 16.9581C10.6949 16.9581 10.1458 16.7519 9.87729 16.574C9.55554 16.3623 7.53794 14.8571 5.79539 13.3978C5.55064 13.1915 5.12714 12.7497 4.75314 12.3592C4.42129 12.0127 4.11789 11.6983 3.96204 11.5663C3.76679 11.4013 3.47804 11.426 3.31579 11.6204C3.15264 11.8138 3.17644 12.1035 3.36989 12.2666C3.51198 12.3867 3.78698 12.6773 4.09039 12.9935C4.49923 13.4207 4.92179 13.8625 5.20598 14.1009C6.91283 15.53 8.96433 17.0727 9.37314 17.3413C9.71048 17.5631 10.4374 17.8748 11.0002 17.8748C11.4521 17.8748 11.7996 17.7712 12.0406 17.5686C12.3633 17.6942 12.73 17.6951 13.0829 17.5576C13.5 17.3963 13.8428 17.0709 14.0371 16.6767C14.3983 16.7537 14.8117 16.6996 15.1875 16.5108C15.5551 16.3256 15.8209 16.0424 15.9529 15.7115C16.3178 15.7307 16.6936 15.6015 17.0043 15.3347C17.5306 14.8846 17.6754 14.1843 17.3711 13.5527Z" fill="#4C4C4C"/>
<path d="M9.16684 5.95819H5.04184C4.78884 5.95819 4.5835 6.16354 4.5835 6.41654C4.5835 6.66954 4.78884 6.87489 5.04184 6.87489H9.16684C9.41984 6.87489 9.62519 6.66954 9.62519 6.41654C9.62519 6.16354 9.41984 5.95819 9.16684 5.95819Z" fill="#4C4C4C"/>
<path d="M18.7136 12.5774C18.5715 12.3675 18.2873 12.3098 18.0774 12.4528L16.7373 13.3529C16.5274 13.4941 16.4714 13.7792 16.6126 13.9891C16.7015 14.1202 16.8464 14.1917 16.994 14.1917C17.0811 14.1917 17.17 14.1669 17.2488 14.1138L18.589 13.2136C18.7988 13.0724 18.8547 12.7874 18.7136 12.5774Z" fill="#4C4C4C"/>
<path d="M15.8682 14.7646C15.5401 14.5061 14.0725 13.0037 13.165 12.0577C12.9899 11.8744 12.6993 11.868 12.5169 12.044C12.3335 12.2191 12.328 12.5096 12.5031 12.6921C12.7387 12.9377 14.8168 15.1038 15.2999 15.4852C15.3833 15.5512 15.4841 15.5833 15.5831 15.5833C15.7179 15.5833 15.8526 15.5228 15.9443 15.4082C16.1011 15.2101 16.0672 14.9214 15.8682 14.7646Z" fill="#4C4C4C"/>
<path d="M14.0367 15.684C13.4876 15.2449 12.108 13.7792 11.7963 13.44C11.624 13.253 11.3352 13.242 11.1482 13.4125C10.9621 13.5839 10.9493 13.8745 11.1207 14.0606C11.1372 14.078 12.7836 15.8555 13.4637 16.4C13.5481 16.4669 13.6498 16.4999 13.7497 16.4999C13.8836 16.4999 14.0174 16.4403 14.1081 16.3285C14.2659 16.1305 14.2338 15.8417 14.0367 15.684Z" fill="#4C4C4C"/>
<path d="M12.2127 16.6071C11.5591 16.0562 10.2217 14.6326 9.96041 14.353C9.78716 14.1679 9.49656 14.1578 9.31231 14.331C9.12716 14.5043 9.11796 14.7939 9.29031 14.9791C9.66616 15.3815 10.9458 16.7382 11.6214 17.3084C11.7076 17.3808 11.8121 17.4165 11.9166 17.4165C12.0467 17.4165 12.1769 17.3606 12.2677 17.2534C12.4308 17.059 12.4061 16.7703 12.2127 16.6071Z" fill="#4C4C4C"/>
<path d="M5.357 5.16709C4.5714 4.42275 1.43 4.18165 0.485848 4.12575C0.355695 4.11934 0.235598 4.1624 0.143945 4.2495C0.05225 4.33565 0 4.45665 0 4.58315V12.8332C0 13.0862 0.205348 13.2915 0.458348 13.2915H3.20835C3.40635 13.2915 3.58235 13.1641 3.64375 12.9753C3.71065 12.7699 5.2901 7.9226 5.49815 5.53925C5.5101 5.3999 5.45875 5.2624 5.357 5.16709ZM2.87375 12.3749H0.916652V5.0745C2.38975 5.1909 3.97925 5.4439 4.55675 5.7244C4.31385 7.7319 3.21475 11.2987 2.87375 12.3749Z" fill="#4C4C4C"/>
<path d="M21.5416 5.04153C17.9428 5.04153 15.9463 5.96278 15.8629 6.00128C15.7437 6.05719 15.6548 6.16078 15.6181 6.28638C15.5815 6.41198 15.5998 6.54673 15.6685 6.65853C16.235 7.57063 18.0088 12.6361 18.3498 13.8718C18.4048 14.0707 18.5854 14.2082 18.7916 14.2082H21.5416C21.7946 14.2082 22 14.0028 22 13.7498V5.49984C22 5.24594 21.7946 5.04153 21.5416 5.04153ZM21.0833 13.2915H19.1345C18.7 11.8762 17.4166 8.18568 16.7007 6.66038C17.4001 6.42298 18.9026 6.01503 21.0833 5.96373V13.2915Z" fill="#4C4C4C"/>
</svg>
