<svg width="14" height="13" viewBox="0 0 14 13" fill="none" xmlns="http://www.w3.org/2000/svg">
<path d="M6.99932 3.49995L6.99805 6.56075C6.99805 6.67697 7.04418 6.78805 7.12623 6.87008L9.31586 9.05928L9.93451 8.44063L7.87303 6.37958L7.8743 3.49995H6.99932Z" fill="#282222"/>
<path d="M7.87501 0C4.79548 0 2.24679 2.28705 1.81993 5.25001H0L2.1875 7.4375L4.375 5.25001H2.70403C3.12258 2.77102 5.27869 0.87501 7.87501 0.87501C10.77 0.87501 13.125 3.22999 13.125 6.12502C13.125 9.02005 10.77 11.375 7.87501 11.375C6.24763 11.375 4.73861 10.6385 3.73498 9.35414L3.04541 9.89246C4.21605 11.3904 5.97631 12.25 7.87501 12.25C11.2524 12.25 14 9.50195 14 6.12502C14 2.74808 11.2524 2.54024e-05 7.87501 0Z" fill="#282222"/>
</svg>
