<svg width="16" height="14" viewBox="0 0 16 14" fill="none" xmlns="http://www.w3.org/2000/svg">
<path d="M0.250122 12.9624L0.250196 12.9622C0.250786 12.9605 0.254144 12.9553 0.262874 12.9542L0.263444 12.9541L6.43327 12.1265L6.65003 12.0974V11.8787V11.2103V10.9224L6.36493 10.9628L1.33941 11.6755C1.33922 11.6755 1.33902 11.6755 1.33883 11.6755C1.33402 11.676 1.32855 11.6752 1.32376 11.673C1.31899 11.6709 1.31753 11.6687 1.31743 11.6685L1.10539 11.8009M0.250122 12.9624L15.73 10.8797L6.96657 12.0549L6.68334 12.0929V11.8071V11.1346V10.9176L6.89825 10.8871L14.1363 9.861C14.1363 9.86099 14.1363 9.86099 14.1364 9.86098C14.1439 9.85987 14.1479 9.85584 14.149 9.85424L14.1493 9.85367C14.1502 9.85239 14.15 9.85183 14.1498 9.85127L14.1497 9.85101C12.4763 4.83042 9.27469 2.46604 6.83009 1.35743L6.68334 1.29088V1.12975V0.259146C6.68334 0.258852 6.68332 0.258144 6.6825 0.256874C6.68167 0.255589 6.67998 0.253732 6.6767 0.252205L6.67626 0.252C6.67299 0.250471 6.66871 0.249634 6.66402 0.250152C6.65938 0.250664 6.65602 0.252305 6.65394 0.253933L6.65352 0.254261L3.98684 2.32833L3.98661 2.32851C3.98381 2.33068 3.98334 2.33232 3.98322 2.33283C3.9831 2.33331 3.98303 2.33364 3.98356 2.33474L3.75817 2.4429M0.250122 12.9624C0.249975 12.9629 0.249966 12.963 0.250064 12.9634M0.250122 12.9624L0.250064 12.9634M1.10539 11.8009L1.31768 11.6689C1.31687 11.6676 1.31686 11.6669 1.31687 11.6665C1.31689 11.6661 1.31698 11.6653 1.31797 11.6639C1.31799 11.6639 1.31801 11.6639 1.31802 11.6639L1.78491 11.0382L1.78495 11.0381L1.78585 11.0369C4.00798 8.06051 5.14195 6.54163 6.6289 3.15848L6.65003 3.11041V3.05789V2.13102V1.82772L6.35231 1.88562L4.00468 2.34215C3.99942 2.34317 3.99429 2.34237 3.98999 2.34026C3.98575 2.33818 3.98404 2.33574 3.98336 2.33432L3.75817 2.4429M1.10539 11.8009C1.16111 11.8901 1.26777 11.9371 1.37205 11.9233L1.58458 10.8886L1.11739 11.5147C1.05474 11.599 1.04992 11.7118 1.10539 11.8009ZM3.75817 2.4429C3.70617 2.33452 3.7371 2.20567 3.83335 2.13099M3.75817 2.4429C3.81042 2.55127 3.93201 2.61091 4.05229 2.58757L3.83335 2.13099M3.83335 2.13099L6.50003 0.0569221M3.83335 2.13099L6.50003 0.0569221M6.50003 0.0569221C6.58003 -0.00557404 6.69016 -0.0174838 6.78216 0.0255373M6.50003 0.0569221L6.78216 0.0255373M6.78216 0.0255373C6.87469 0.0685889 6.93334 0.159583 6.93334 0.259146M6.78216 0.0255373L6.93334 0.259146M1.05289 13.7452L1.05245 13.7448L0.252487 12.9671L1.05289 13.7452ZM1.05289 13.7452C1.05491 13.7472 1.05972 13.75 1.06671 13.75H12.8C14.4331 13.75 15.75 12.4597 15.75 10.8889C15.75 10.8888 15.75 10.8867 15.7469 10.8841L1.05289 13.7452ZM15.7399 10.8803C15.7424 10.881 15.7447 10.8822 15.7469 10.884L15.7399 10.8803ZM15.7399 10.8803C15.7374 10.8796 15.7342 10.8792 15.73 10.8797L15.7399 10.8803ZM0.250064 12.9634C0.250167 12.9639 0.250573 12.9652 0.252449 12.967L0.250064 12.9634ZM6.93334 0.259146V1.12975V0.259146ZM14.3869 9.77196C14.4112 9.84454 14.4013 9.9239 14.3597 9.9887L14.3869 9.77196ZM7.1583 10.1162L6.68337 10.0071V3.27436L7.17696 3.2181C7.40201 4.19233 7.6279 5.43296 7.68431 6.66597C7.74046 7.89317 7.63044 9.14303 7.1583 10.1162Z" fill="#C4C4C4" stroke="black" stroke-width="0.5"/>
</svg>
