<svg width="22" height="16" viewBox="0 0 22 16" fill="none" xmlns="http://www.w3.org/2000/svg">
<path d="M19.8478 0.586945H2.15218C0.965379 0.586945 0 1.55357 0 2.73912V13.2609C0 14.4478 0.966711 15.4131 2.15218 15.4131H19.8478C21.0328 15.4131 22 14.4483 22 13.2609V2.73912C22 1.554 21.0351 0.586945 19.8478 0.586945ZM19.7898 2.02176C19.4248 2.38673 11.7602 10.0514 11.5073 10.3043C11.2268 10.5847 10.7732 10.5847 10.4927 10.3043C10.2396 10.0511 2.57499 2.38656 2.21018 2.02176H19.7898ZM1.43477 13.2029V3.27541L6.39848 8.23912L1.43477 13.2029ZM2.68843 13.9782L7.41301 9.25365L9.47813 11.3188C10.3171 12.1579 11.6826 12.1579 12.5218 11.3188L14.5869 9.25365L19.3115 13.9782H2.68843ZM20.5652 13.2029L15.6015 8.23912L20.5652 3.27541V13.2029H20.5652Z" fill="#4C4C4C"/>
</svg>
