<svg aria-hidden="true" style="position: absolute; width: 0; height: 0; overflow: hidden;" version="1.1" xmlns="http://www.w3.org/2000/svg" xmlns:xlink="http://www.w3.org/1999/xlink">
    <defs>
        <symbol id="settingAccount" viewBox="0 0 32 32">
            <path d="M25.673 1.426v3.565c-1.042 0.265-1.961 0.845-2.617 1.651s-1.011 1.792-1.011 2.806 0.355 2.001 1.011 2.806c0.656 0.806 1.576 1.386 2.617 1.651v16.74c-0.005 0.347 0.135 0.682 0.391 0.932s0.606 0.396 0.975 0.405c0.184-0.002 0.366-0.039 0.536-0.107s0.323-0.168 0.451-0.292c0.128-0.124 0.23-0.271 0.298-0.432s0.102-0.333 0.099-0.506v-16.74c1.031-0.277 1.937-0.861 2.582-1.665s0.995-1.784 0.995-2.791-0.349-1.987-0.994-2.791c-0.645-0.804-1.552-1.389-2.582-1.666v-3.565c0-0.347-0.145-0.679-0.404-0.926s-0.611-0.388-0.98-0.393c-0.182 0.002-0.361 0.038-0.528 0.106s-0.318 0.165-0.445 0.288c-0.127 0.122-0.227 0.267-0.294 0.426s-0.101 0.328-0.098 0.499zM29.106 9.377c-0.011 0.382-0.142 0.752-0.376 1.065s-0.561 0.553-0.939 0.692c-0.378 0.139-0.792 0.17-1.189 0.089s-0.76-0.27-1.044-0.544c-0.284-0.274-0.475-0.62-0.55-0.995s-0.031-0.763 0.127-1.115c0.158-0.352 0.423-0.652 0.762-0.864s0.736-0.324 1.142-0.324c0.275 0.002 0.548 0.056 0.801 0.158s0.483 0.25 0.675 0.435c0.192 0.186 0.343 0.405 0.445 0.646s0.151 0.498 0.146 0.757zM6.346 30.52v-16.74c1.030-0.277 1.937-0.861 2.582-1.665s0.994-1.784 0.994-2.791c0-1.007-0.349-1.987-0.994-2.791s-1.552-1.389-2.582-1.665v-3.565c0-0.345-0.146-0.676-0.406-0.92s-0.612-0.381-0.979-0.381c-0.367 0-0.719 0.137-0.979 0.381s-0.405 0.575-0.405 0.92v3.565c-1.030 0.277-1.937 0.861-2.582 1.665s-0.994 1.784-0.994 2.791c0 1.007 0.349 1.987 0.994 2.791s1.552 1.389 2.582 1.665v16.74c0 0.345 0.146 0.676 0.405 0.92s0.612 0.381 0.979 0.381c0.367 0 0.719-0.137 0.979-0.381s0.406-0.575 0.406-0.92zM2.894 9.377c0.007-0.383 0.135-0.755 0.367-1.070s0.557-0.558 0.935-0.7c0.378-0.142 0.793-0.175 1.191-0.096s0.763 0.267 1.049 0.54c0.285 0.273 0.479 0.619 0.555 0.995s0.034 0.765-0.124 1.118c-0.158 0.353-0.423 0.655-0.762 0.867s-0.737 0.325-1.144 0.325c-0.542-0.023-1.053-0.242-1.428-0.61s-0.583-0.859-0.583-1.369h-0.057zM14.596 1.426v16.758c-1.030 0.277-1.937 0.861-2.582 1.665s-0.994 1.784-0.994 2.791c0 1.007 0.349 1.987 0.994 2.791s1.552 1.389 2.582 1.665v3.566c-0.002 0.173 0.031 0.345 0.1 0.506s0.17 0.308 0.298 0.432c0.129 0.124 0.282 0.223 0.451 0.292s0.351 0.105 0.536 0.107c0.369-0.009 0.719-0.155 0.975-0.405s0.396-0.585 0.391-0.932v-3.566c1.042-0.265 1.962-0.845 2.617-1.651s1.011-1.792 1.011-2.806c0-1.014-0.355-2-1.011-2.806s-1.576-1.386-2.617-1.651v-16.758c0.003-0.171-0.031-0.34-0.098-0.499s-0.167-0.304-0.294-0.426c-0.127-0.122-0.278-0.22-0.445-0.288s-0.347-0.104-0.528-0.106c-0.359 0.018-0.697 0.165-0.944 0.411s-0.384 0.57-0.384 0.908h-0.057zM18.029 22.587c-0.008 0.383-0.136 0.756-0.368 1.072s-0.559 0.559-0.939 0.7c-0.379 0.141-0.795 0.173-1.194 0.093s-0.764-0.27-1.048-0.545c-0.285-0.275-0.476-0.623-0.551-1s-0.029-0.766 0.132-1.119 0.428-0.653 0.77-0.863c0.342-0.21 0.742-0.32 1.15-0.317 0.277-0.002 0.552 0.047 0.809 0.146s0.49 0.244 0.686 0.428c0.196 0.184 0.351 0.403 0.456 0.645s0.158 0.499 0.155 0.76h-0.057z"></path>
        </symbol>
        <symbol id="settingSMS" viewBox="0 0 32 32">
            <path d="M30.574 25.673h-3.566c-0.265-1.042-0.845-1.961-1.651-2.617s-1.792-1.011-2.806-1.011c-1.014 0-2.001 0.355-2.806 1.011s-1.386 1.576-1.651 2.617h-16.74c-0.347-0.005-0.682 0.135-0.932 0.391s-0.396 0.606-0.405 0.975c0.002 0.184 0.039 0.366 0.107 0.536s0.168 0.323 0.292 0.451c0.124 0.128 0.271 0.23 0.432 0.298s0.333 0.102 0.506 0.099h16.74c0.277 1.031 0.861 1.937 1.665 2.582s1.784 0.995 2.791 0.995c1.007 0 1.987-0.349 2.791-0.994s1.389-1.552 1.666-2.582h3.566c0.347 0 0.68-0.145 0.926-0.404s0.388-0.611 0.393-0.98c-0.003-0.182-0.039-0.361-0.106-0.528s-0.166-0.318-0.288-0.445c-0.122-0.127-0.267-0.227-0.426-0.294s-0.328-0.101-0.499-0.098zM22.623 29.106c-0.382-0.011-0.752-0.142-1.065-0.376s-0.553-0.561-0.692-0.939c-0.139-0.378-0.17-0.792-0.089-1.189s0.27-0.76 0.544-1.044c0.274-0.284 0.62-0.475 0.995-0.55s0.763-0.031 1.115 0.127c0.352 0.158 0.652 0.423 0.864 0.762s0.324 0.736 0.324 1.142c-0.002 0.275-0.056 0.548-0.158 0.801s-0.25 0.483-0.435 0.675-0.405 0.343-0.646 0.445c-0.241 0.101-0.498 0.151-0.757 0.146zM1.48 6.346h16.74c0.277 1.030 0.861 1.937 1.665 2.582s1.784 0.994 2.791 0.994c1.007 0 1.987-0.349 2.791-0.994s1.389-1.552 1.666-2.582h3.566c0.345 0 0.676-0.146 0.92-0.406s0.381-0.612 0.381-0.979c0-0.367-0.137-0.719-0.381-0.979s-0.575-0.405-0.92-0.405h-3.566c-0.277-1.030-0.861-1.937-1.666-2.582s-1.784-0.994-2.791-0.994-1.987 0.349-2.791 0.994c-0.804 0.645-1.389 1.552-1.665 2.582h-16.74c-0.345 0-0.676 0.146-0.92 0.405s-0.381 0.612-0.381 0.979c0 0.367 0.137 0.719 0.381 0.979s0.575 0.406 0.92 0.406zM22.623 2.894c0.383 0.007 0.755 0.135 1.070 0.367s0.558 0.557 0.7 0.935 0.175 0.793 0.096 1.191c-0.079 0.399-0.267 0.763-0.54 1.049s-0.619 0.479-0.995 0.555c-0.376 0.077-0.765 0.034-1.118-0.124s-0.655-0.423-0.867-0.762c-0.212-0.339-0.325-0.737-0.325-1.144 0.023-0.542 0.242-1.053 0.61-1.428s0.859-0.583 1.369-0.583v-0.057zM30.574 14.596h-16.758c-0.277-1.030-0.861-1.937-1.665-2.582s-1.784-0.994-2.791-0.994c-1.007 0-1.987 0.349-2.791 0.994s-1.389 1.552-1.665 2.582h-3.565c-0.173-0.002-0.345 0.031-0.506 0.1s-0.308 0.17-0.432 0.298c-0.124 0.129-0.223 0.282-0.292 0.451s-0.105 0.351-0.107 0.536c0.009 0.369 0.155 0.719 0.405 0.975s0.585 0.396 0.932 0.391h3.565c0.265 1.042 0.845 1.962 1.651 2.617s1.792 1.011 2.806 1.011c1.014 0 2-0.355 2.806-1.011s1.386-1.576 1.651-2.617h16.758c0.171 0.003 0.34-0.031 0.499-0.098s0.304-0.167 0.426-0.294c0.122-0.127 0.22-0.278 0.288-0.445s0.104-0.347 0.106-0.528c-0.018-0.359-0.166-0.697-0.411-0.944s-0.57-0.384-0.908-0.384v-0.057zM9.413 18.029c-0.383-0.008-0.756-0.136-1.072-0.368s-0.559-0.559-0.7-0.939c-0.141-0.379-0.173-0.795-0.093-1.194s0.27-0.764 0.545-1.048c0.275-0.285 0.623-0.476 1-0.551s0.766-0.029 1.119 0.132c0.353 0.16 0.653 0.428 0.863 0.77s0.32 0.742 0.317 1.15c0.002 0.277-0.047 0.552-0.146 0.809s-0.244 0.49-0.428 0.686c-0.184 0.196-0.403 0.351-0.645 0.456s-0.499 0.158-0.76 0.155v-0.057z"></path>
        </symbol>
        <symbol id="Ship" viewBox="0 0 37 32">
            <path d="M0.571 29.627c0-0.005 0.009-0.016 0.030-0.018l14.599-1.959v-2.686l-0.651 0.091-11.488 1.63c-0.002 0-0.005 0-0.008 0-0.009 0-0.018-0.002-0.026-0.005l0 0c-0.011-0.005-0.014-0.009-0.016-0.011l-0.485 0.304M0.571 29.627l14.704-1.986v-2.686l0.491-0.069 16.544-2.347c0.012-0.001 0.023-0.007 0.030-0.016l0-0v-0.009c-3.824-11.474-11.141-16.88-16.729-19.415l-0.336-0.151v-2.361c-0.003-0.005-0.008-0.009-0.014-0.011l-0-0c-0.007-0.003-0.014-0.005-0.022-0.005-0.011 0-0.022 0.004-0.030 0.010l0-0-6.105 4.757-0.514 0.247M2.526 26.971l0.487-0.302-0.002-0.007 0.002-0.005 1.067-1.431v-0.002c5.083-6.802 7.675-10.272 11.074-18.007l0.048-0.11v-2.93l-6.046 1.175c-0.003 0.001-0.007 0.001-0.011 0.001-0.009 0-0.017-0.002-0.024-0.006l0 0c-0.007-0.003-0.012-0.007-0.016-0.014l-0-0-0.514 0.249M2.526 26.971c0.128 0.206 0.373 0.311 0.61 0.279l0.487-2.363-1.070 1.431c-0.072 0.096-0.115 0.216-0.115 0.347 0 0.114 0.033 0.22 0.089 0.309l-0.001-0.002zM8.59 5.582c-0.036-0.074-0.057-0.16-0.057-0.251 0-0.188 0.089-0.355 0.227-0.461l0.001-0.001M8.59 5.582c0.103 0.205 0.312 0.343 0.553 0.343 0.042 0 0.083-0.004 0.123-0.012l-0.004 0.001-0.501-1.045M8.761 4.869l6.096-4.738M8.761 4.869l6.096-4.738M14.857 0.13c0.104-0.081 0.237-0.129 0.381-0.129 0.096 0 0.187 0.022 0.268 0.060l-0.004-0.002M14.857 0.128l0.645-0.069M15.502 0.059c0.204 0.095 0.343 0.297 0.345 0.532v0M15.504 0.059l0.343 0.533M2.407 31.417v0zM2.407 31.417c0.008 0.007 0.019 0.011 0.030 0.011 0.001 0 0.001 0 0.002-0h26.818c3.733 0 6.743-2.949 6.743-6.539 0 0 0-0.005-0.007-0.011l-33.586 6.539zM35.977 24.869v0zM35.977 24.869c-0.003-0.001-0.007-0.001-0.011-0.001s-0.008 0-0.012 0.001l0-0h0.023zM0.571 29.63v0zM15.847 0.594v0zM32.885 22.338c0.019 0.055 0.030 0.118 0.030 0.184 0 0.116-0.034 0.224-0.093 0.314l0.001-0.002 0.062-0.496zM16.361 23.125l-1.086-0.249v-15.392l1.129-0.128c0.514 2.226 1.029 5.063 1.159 7.881 0.128 2.805-0.123 5.662-1.202 7.886z"></path>
        </symbol>
        <symbol id="Clock" viewBox="0 0 34 32">
            <path d="M17.231 8.615l-0.005 7.532c0 0.288 0.113 0.561 0.315 0.763l5.391 5.391 1.524-1.526-5.076-5.071 0.002-7.089h-2.151z"></path>
            <path d="M19.385 0c-7.582 0-13.854 5.63-14.905 12.923h-4.48l5.386 5.386 5.381-5.386h-4.111c1.031-6.102 6.338-10.769 12.729-10.769 7.134 0.008 12.915 5.789 12.923 12.922v0.001c-0.008 7.134-5.789 12.915-12.922 12.923h-0.001c-0.011 0-0.023 0-0.035 0-4.116 0-7.781-1.935-10.134-4.944l-0.021-0.028-1.698 1.322c2.77 3.546 7.046 5.804 11.85 5.804 0.014 0 0.028-0 0.042-0h-0.002c8.323-0.010 15.067-6.754 15.077-15.076v-0.001c-0.010-8.323-6.754-15.067-15.076-15.077h-0.001z"></path>
        </symbol>
        <symbol id="envelope" viewBox="0 0 47 32">
            <path fill="#787878" style="fill: var(--color1, #787878)" d="M42.342 0h-37.751c-2.534 0.004-4.587 2.057-4.591 4.591v22.447c0 2.532 2.063 4.591 4.591 4.591h37.751c2.534-0.004 4.587-2.057 4.591-4.591v-22.447c-0.004-2.534-2.057-4.587-4.591-4.591h-0zM42.219 3.061l-17.67 17.668c-0.277 0.277-0.659 0.448-1.082 0.448s-0.805-0.171-1.082-0.448l-17.67-17.668h37.504zM3.061 26.912v-21.175l10.588 10.59-10.588 10.59zM5.734 28.567l10.080-10.078 4.405 4.405c1.792 1.79 4.704 1.79 6.494 0l4.405-4.405 10.078 10.078h-35.462zM43.872 26.914l-10.59-10.59 10.59-10.59v21.18z"></path>
        </symbol>
        <symbol id="house" viewBox="0 0 32 32">
            <path fill="#787878" style="fill: var(--color1, #787878)" d="M31.137 13.919l-13.056-13.056c-0.53-0.533-1.264-0.863-2.074-0.863-0.003 0-0.005 0-0.008 0h0c-0.785 0-1.527 0.305-2.083 0.863l-13.047 13.047c-0.537 0.534-0.869 1.274-0.869 2.091 0 0.813 0.329 1.55 0.862 2.084l-0-0c0.523 0.526 1.245 0.854 2.043 0.863h0.522v9.606c0.002 1.902 1.544 3.444 3.446 3.447h5.107c0.518 0 0.938-0.42 0.938-0.938v0-7.53c0-0.868 0.705-1.574 1.574-1.574h3.011c0.868 0 1.574 0.705 1.574 1.574v7.53c0 0.518 0.42 0.938 0.938 0.938h5.105c1.904-0.002 3.446-1.544 3.449-3.447v-9.606h0.483c1.625-0.007 2.939-1.326 2.939-2.951 0-0.81-0.326-1.544-0.855-2.077l0 0zM29.809 16.758c-0.193 0.193-0.459 0.313-0.754 0.313-0.001 0-0.002 0-0.003 0h-1.421c-0.518 0.001-0.937 0.421-0.937 0.938v0 10.544c0 0.867-0.705 1.572-1.574 1.572h-4.169v-6.593c-0.002-1.903-1.544-3.445-3.447-3.447h-3.014c-1.903 0.002-3.446 1.544-3.449 3.447v6.594h-4.169c-0.868-0.002-1.571-0.705-1.572-1.572v-10.546c-0.001-0.518-0.421-0.937-0.938-0.937h-1.395c-0.008 0-0.017 0-0.026 0-0.295 0-0.562-0.12-0.755-0.314l-0-0c-0.193-0.194-0.312-0.461-0.312-0.756s0.119-0.563 0.312-0.756l-0-0.001 13.055-13.053c0.192-0.194 0.459-0.314 0.754-0.314 0.001 0 0.002 0 0.002 0h-0c0.287 0 0.554 0.112 0.756 0.314l13.050 13.050c0.196 0.194 0.317 0.464 0.317 0.761 0 0.295-0.119 0.563-0.313 0.757l0-0z"></path>
        </symbol>
        <symbol id="pen" viewBox="0 0 32 32">
            <path d="M0 25.333v6.667h6.667l19.673-19.673-6.666-6.669-19.674 19.673zM31.48 4.672l-4.152-4.152c-0.322-0.321-0.767-0.52-1.258-0.52s-0.936 0.199-1.258 0.52l-3.254 3.253 6.669 6.669 3.253-3.254c0.321-0.322 0.52-0.767 0.52-1.258s-0.199-0.936-0.52-1.258l0 0z"></path>
        </symbol>
        <symbol id="star" viewBox="0 0 32 32" xmlns="http://www.w3.org/2000/svg">
            <path d="M18.5 0L22.6535 11.4012H36.0945L25.2205 18.4476L29.374 29.8488L18.5 22.8024L7.62597 29.8488L11.7795 18.4476L0.905455 11.4012H14.3465L18.5 0Z" />
        </symbol>
        <symbol id="vectorFinance" viewBox="0 0 40 40" xmlns="http://www.w3.org/2000/svg">
            <path d="M34.3236 20.1675L21.9991 0L9.67805 20.1617C12.5475 18.0531 16.9912 15.5652 21.9872 15.5652C26.9879 15.5652 31.4459 18.058 34.3236 20.1675Z" />
            <path d="M22.0604 28.9303C25.1864 28.9303 27.7295 26.5372 27.7295 23.5956C27.7295 22.2649 27.2078 21.0475 26.3485 20.112C26.2372 22.2471 24.3565 23.9521 22.0604 23.9521C19.7643 23.9521 17.8835 22.2472 17.7722 20.1121C16.9129 21.0475 16.3913 22.2649 16.3913 23.5956C16.3913 26.5371 18.9344 28.9303 22.0604 28.9303Z" />
            <path d="M44 36L37.0554 24.6362C35.1352 26.4388 29.1119 31.4974 21.9881 31.4974C14.8613 31.4974 8.85775 26.4352 6.9465 24.633L0 36H44Z" />
            <path d="M9.45754 23.5314C10.5988 24.5212 12.4727 25.9793 14.7731 27.1516C14.1837 26.0867 13.8499 24.8773 13.8499 23.5957C13.8499 22.2411 14.2229 20.9671 14.8765 19.8591C12.5291 21.0399 10.616 22.5267 9.45754 23.5314Z" />
            <path d="M20.3053 19.9119C20.3053 20.8223 21.0923 21.5629 22.0598 21.5629C23.0272 21.5629 23.8142 20.8223 23.8142 19.9119C23.8142 19.0016 23.0272 18.261 22.0598 18.261C21.0923 18.261 20.3053 19.0016 20.3053 19.9119Z" />
            <path d="M34.5432 23.5313C33.411 22.5533 31.5627 21.1189 29.2959 19.9543C29.9152 21.0398 30.267 22.2797 30.267 23.5956C30.267 24.8391 29.9527 26.0146 29.3955 27.0563C31.6166 25.9013 33.4275 24.495 34.5432 23.5313Z" />
        </symbol>
        <symbol id="men" viewBox="0 0 32 32">
            <path fill="#787878" style="fill: var(--color1, #787878)" d="M27.069 20.805c-1.641-1.647-3.644-2.931-5.881-3.724l-0.11-0.034c2.388-1.645 3.958-4.398 3.958-7.511-0-5.025-4.089-9.114-9.115-9.114s-9.114 4.088-9.114 9.114c0 3.113 1.569 5.866 3.958 7.511-2.346 0.826-4.35 2.111-5.991 3.757l-0 0c-2.977 2.977-4.617 6.936-4.617 11.147h2.463c0-7.335 5.967-13.302 13.302-13.302s13.302 5.967 13.302 13.302h2.463c0-4.211-1.64-8.169-4.617-11.147zM15.922 16.187c-3.667 0-6.651-2.984-6.651-6.651s2.984-6.651 6.651-6.651c3.667 0 6.651 2.984 6.651 6.651s-2.984 6.651-6.651 6.651z"></path>
        </symbol>
        <symbol id="zoom-in" viewBox="0 0 32 32">
            <path d="M31.008 27.231l-7.58-6.447c-0.784-0.705-1.622-1.029-2.299-0.998 1.789-2.096 2.87-4.815 2.87-7.787 0-6.627-5.373-12-12-12s-12 5.373-12 12 5.373 12 12 12c2.972 0 5.691-1.081 7.787-2.87-0.031 0.677 0.293 1.515 0.998 2.299l6.447 7.58c1.104 1.226 2.907 1.33 4.007 0.23s0.997-2.903-0.23-4.007zM12 20c-4.418 0-8-3.582-8-8s3.582-8 8-8 8 3.582 8 8-3.582 8-8 8zM14 6h-4v4h-4v4h4v4h4v-4h4v-4h-4z"></path>
        </symbol>
        <symbol id="zoom-out" viewBox="0 0 32 32">
            <path d="M31.008 27.231l-7.58-6.447c-0.784-0.705-1.622-1.029-2.299-0.998 1.789-2.096 2.87-4.815 2.87-7.787 0-6.627-5.373-12-12-12s-12 5.373-12 12 5.373 12 12 12c2.972 0 5.691-1.081 7.787-2.87-0.031 0.677 0.293 1.515 0.998 2.299l6.447 7.58c1.104 1.226 2.907 1.33 4.007 0.23s0.997-2.903-0.23-4.007zM12 20c-4.418 0-8-3.582-8-8s3.582-8 8-8 8 3.582 8 8-3.582 8-8 8zM6 10h12v4h-12z"></path>
        </symbol>
        <symbol id="arrow-back" viewBox="0 0 29 32">
            <path fill="#0090ff" style="fill: var(--color1, #0090ff)" d="M7.896 18.181l-5.201-7.828 5.201-7.83c0.421-0.633 0.371-1.595-0.109-2.147-0.482-0.552-1.213-0.488-1.634 0.145l-5.866 8.83c-0.382 0.573-0.382 1.432 0 2.004l5.866 8.83c0.229 0.344 0.549 0.522 0.872 0.522 0.308-0.008 0.58-0.153 0.76-0.375l0.002-0.002c0.482-0.554 0.531-1.516 0.109-2.149z"></path>
            <path fill="#0090ff" style="fill: var(--color1, #0090ff)" d="M19.914 8.83h-18.757c-0.64 0-1.157 0.682-1.157 1.523 0 0.842 0.519 1.523 1.157 1.523h18.757c3.362 0 6.097 3.597 6.097 8.019s-2.735 8.019-6.097 8.019h-17.213c-0.64 0-1.157 0.682-1.157 1.523 0 0.842 0.517 1.523 1.157 1.523h17.213c4.638 0 8.413-4.963 8.413-11.064s-3.773-11.065-8.413-11.065z"></path>
        </symbol>
        <symbol id="locationIcon" viewBox="0 0 32 32">
            <path d="M7.20177 0C3.22449 0 0 3.22403 0 7.20177C0 10.5244 5.0267 19.6525 6.68106 22.5664C6.91063 22.9706 7.49291 22.9706 7.72247 22.5664C9.37683 19.6525 14.4035 10.5244 14.4035 7.20177C14.4035 3.22403 11.1788 0 7.20177 0ZM7.20177 9.76868C5.56732 9.76868 4.24233 8.44368 4.24233 6.80923C4.24233 5.17433 5.56732 3.84933 7.20177 3.84933C8.83621 3.84933 10.1612 5.17433 10.1612 6.80923C10.1612 8.44368 8.83621 9.76868 7.20177 9.76868Z" fill="#AEAFBC" />
        </symbol>
    </defs>
</svg>