<svg width="22" height="22" viewBox="0 0 22 22" fill="none" xmlns="http://www.w3.org/2000/svg">
<path d="M22 10.3555H20.7898C20.6933 8.85822 20.2618 7.42582 19.5308 6.14573C19.9628 5.63436 20.2239 4.97419 20.2239 4.25391C20.2239 2.63489 18.9068 1.31772 17.2877 1.31772C16.4937 1.31772 15.7728 1.63509 15.2437 2.149C14.1252 1.61163 12.908 1.2916 11.6445 1.21017V0H10.3555V1.21017C7.97741 1.3634 5.7628 2.36208 4.06244 4.06244C2.36212 5.76275 1.3634 7.97741 1.21021 10.3555H0V11.6445H1.21021C1.3053 13.1204 1.72597 14.5333 2.43818 15.7994C2.10517 16.2049 1.90498 16.7234 1.90498 17.2878C1.90498 18.583 2.9587 19.6367 4.25391 19.6367C4.75969 19.6367 5.22827 19.4755 5.61206 19.2025C7.02204 20.1327 8.64643 20.6797 10.3555 20.7898V22H11.6445V20.7898C14.0226 20.6366 16.2372 19.6379 17.9376 17.9376C19.6379 16.2372 20.6366 14.0226 20.7898 11.6445H22V10.3555ZM17.2877 2.60679C18.196 2.60679 18.9349 3.34568 18.9349 4.25391C18.9349 5.16214 18.196 5.90103 17.2877 5.90103C16.3795 5.90103 15.6406 5.16214 15.6406 4.25391C15.6406 3.34568 16.3795 2.60679 17.2877 2.60679ZM14.5305 3.24427C14.4148 3.55923 14.3516 3.89933 14.3516 4.25391C14.3516 5.87293 15.6687 7.19009 17.2877 7.19009C17.715 7.19009 18.1208 7.09762 18.4873 6.93279C19.0498 7.96404 19.4053 9.12364 19.4978 10.3554H15.7258C15.4388 8.24012 13.7598 6.56116 11.6445 6.27413V2.50211C12.667 2.57894 13.6396 2.8371 14.5305 3.24427ZM10.3555 10.3555H7.58033C7.84425 8.95237 8.95237 7.84425 10.3555 7.58033V10.3555ZM10.3555 11.6445V14.4197C8.95237 14.1558 7.84425 13.0476 7.58033 11.6445H10.3555ZM11.6445 11.6445H14.4197C14.1558 13.0476 13.0476 14.1558 11.6445 14.4197V11.6445ZM11.6445 10.3555V7.58033C13.0476 7.84425 14.1558 8.95237 14.4197 10.3555H11.6445ZM10.3555 2.50211V6.27417C8.24012 6.5612 6.5612 8.24016 6.27417 10.3555H2.50211C2.81664 6.16907 6.16907 2.81664 10.3555 2.50211ZM4.25391 18.3477C3.66949 18.3477 3.19404 17.8722 3.19404 17.2877C3.19404 16.7033 3.66949 16.2279 4.25391 16.2279C4.83837 16.2279 5.31382 16.7033 5.31382 17.2878C5.31382 17.8723 4.83837 18.3477 4.25391 18.3477ZM6.42387 18.1864C6.53903 17.9094 6.60288 17.6059 6.60288 17.2877C6.60288 15.9925 5.54916 14.9388 4.25391 14.9388C3.99356 14.9388 3.74322 14.982 3.50896 15.0606C2.9486 14.031 2.5945 12.8737 2.50211 11.6445H6.27417C6.5612 13.7598 8.24012 15.4388 10.3555 15.7258V19.4979C8.91657 19.3898 7.57625 18.9228 6.42387 18.1864ZM11.6445 19.4979V15.7258C13.7598 15.4388 15.4388 13.7598 15.7258 11.6445H19.4979C19.1833 15.8309 15.8309 19.1834 11.6445 19.4979Z" fill="#4C4C4C"/>
</svg>
