<svg width="22" height="23" viewBox="0 0 22 23" fill="none" xmlns="http://www.w3.org/2000/svg">
<path d="M21.4071 10.526C21.4064 10.5255 21.4059 10.5248 21.4054 10.5243L12.4311 1.55037C12.0486 1.16768 11.54 0.957031 10.999 0.957031C10.4581 0.957031 9.9495 1.16768 9.5668 1.55037L0.597223 10.5198C0.594201 10.5228 0.591012 10.526 0.588159 10.529C-0.197366 11.3191 -0.196023 12.6009 0.592019 13.389C0.952051 13.7492 1.42739 13.9576 1.9358 13.9796C1.95662 13.9816 1.97743 13.9826 1.99841 13.9826H2.35592V20.5867C2.35592 21.8938 3.4194 22.9571 4.72643 22.9571H8.23745C8.59346 22.9571 8.88199 22.6684 8.88199 22.3125V17.1348C8.88199 16.5384 9.36723 16.0534 9.96359 16.0534H12.0345C12.6309 16.0534 13.1159 16.5384 13.1159 17.1348V22.3125C13.1159 22.6684 13.4045 22.9571 13.7605 22.9571H17.2715C18.5787 22.9571 19.642 21.8938 19.642 20.5867V13.9826H19.9737C20.5145 13.9826 21.023 13.772 21.4059 13.3891C22.1948 12.5999 22.1951 11.3157 21.4071 10.526ZM20.4943 12.4777C20.3552 12.6169 20.1702 12.6936 19.9737 12.6936H18.9975C18.6415 12.6936 18.3529 12.9821 18.3529 13.3381V20.5867C18.3529 21.1829 17.8678 21.668 17.2715 21.668H14.405V17.1348C14.405 15.8278 13.3417 14.7643 12.0345 14.7643H9.96359C8.6564 14.7643 7.59292 15.8278 7.59292 17.1348V21.668H4.72643C4.13024 21.668 3.64499 21.1829 3.64499 20.5867V13.3381C3.64499 12.9821 3.35646 12.6936 3.00046 12.6936H2.04104C2.03097 12.6929 2.02107 12.6924 2.01083 12.6922C1.81881 12.6889 1.63871 12.6127 1.50376 12.4775C1.21675 12.1905 1.21675 11.7234 1.50376 11.4362C1.50393 11.4362 1.50393 11.4361 1.5041 11.4359L1.5046 11.4354L10.4785 2.46178C10.6175 2.32263 10.8023 2.2461 10.999 2.2461C11.1956 2.2461 11.3804 2.32263 11.5195 2.46178L20.4915 11.4335C20.4928 11.4349 20.4943 11.4362 20.4957 11.4376C20.7812 11.7251 20.7807 12.1912 20.4943 12.4777Z" fill="#787878"/>
</svg>
