<svg width="14" height="14" viewBox="0 0 14 14" fill="none" xmlns="http://www.w3.org/2000/svg">
<path d="M13.3761 11.2319H11.8162C11.7002 10.7762 11.4464 10.3738 11.094 10.0868C10.7415 9.79989 10.3101 9.6444 9.86634 9.6444C9.42255 9.6444 8.99106 9.79989 8.63863 10.0868C8.2862 10.3738 8.03245 10.7762 7.91647 11.2319H0.592767C0.441014 11.2297 0.294473 11.2911 0.18499 11.403C0.0755068 11.5148 0.0118943 11.668 0.00780708 11.8294C0.00882443 11.91 0.0247007 11.9896 0.0546496 12.0637C0.0845985 12.1378 0.128004 12.2049 0.182324 12.2612C0.236644 12.3174 0.300893 12.3617 0.371312 12.3916C0.441732 12.4214 0.516971 12.4362 0.592767 12.4351H7.91647C8.03752 12.886 8.29328 13.2825 8.6451 13.5649C8.99692 13.8472 9.42565 14 9.86634 14C10.307 14 10.7357 13.8472 11.0875 13.5649C11.4393 13.2825 11.6952 12.886 11.8162 12.4351H13.3761C13.5278 12.4351 13.6734 12.3716 13.7814 12.2582C13.8894 12.1449 13.9512 11.9908 13.9533 11.8294C13.9522 11.7498 13.9364 11.6713 13.9069 11.5982C13.8773 11.5251 13.8345 11.4589 13.7809 11.4035C13.7273 11.348 13.664 11.3043 13.5945 11.2748C13.525 11.2454 13.4509 11.2308 13.3761 11.2319ZM9.89747 12.7339C9.7304 12.729 9.56841 12.6718 9.43172 12.5695C9.29502 12.4672 9.18972 12.3242 9.12895 12.1586C9.06818 11.993 9.05462 11.8119 9.09001 11.6382C9.12541 11.4644 9.20816 11.3056 9.32794 11.1816C9.44771 11.0575 9.59918 10.9738 9.76342 10.9409C9.92766 10.908 10.0974 10.9273 10.2514 10.9964C10.4053 11.0655 10.5368 11.1814 10.6292 11.3296C10.7217 11.4777 10.7709 11.6516 10.771 11.8294C10.77 11.9499 10.7465 12.0691 10.702 12.18C10.6574 12.2909 10.5927 12.3913 10.5115 12.4754C10.4303 12.5595 10.3342 12.6256 10.2288 12.67C10.1234 12.7143 10.0108 12.7361 9.89747 12.7339ZM0.647321 2.77636H7.97103C8.09207 3.22719 8.34784 3.62378 8.69966 3.90613C9.05148 4.18849 9.4802 4.34121 9.9209 4.34121C10.3616 4.34121 10.7903 4.18849 11.1421 3.90613C11.494 3.62378 11.7497 3.22719 11.8708 2.77636H13.4307C13.5817 2.77636 13.7265 2.71252 13.8333 2.59892C13.9401 2.48532 14 2.33126 14 2.17061C14 2.00995 13.9401 1.85586 13.8333 1.74226C13.7265 1.62866 13.5817 1.56485 13.4307 1.56485H11.8708C11.7497 1.11402 11.494 0.717432 11.1421 0.435078C10.7903 0.152725 10.3616 0 9.9209 0C9.4802 0 9.05148 0.152725 8.69966 0.435078C8.34784 0.717432 8.09207 1.11402 7.97103 1.56485H0.647321C0.496317 1.56485 0.351556 1.62866 0.244781 1.74226C0.138005 1.85586 0.0779756 2.00995 0.0779756 2.17061C0.0779756 2.33126 0.138005 2.48532 0.244781 2.59892C0.351556 2.71252 0.496317 2.77636 0.647321 2.77636ZM9.89747 1.26614C10.0649 1.26941 10.2278 1.32521 10.3655 1.42656C10.5033 1.52791 10.6097 1.6703 10.6717 1.83583C10.7337 2.00137 10.7483 2.18267 10.7138 2.35701C10.6792 2.53135 10.5971 2.69095 10.4776 2.81579C10.3581 2.94063 10.2066 3.02514 10.0421 3.05872C9.87762 3.09229 9.70754 3.07344 9.55311 3.00453C9.39867 2.93561 9.26673 2.81968 9.17399 2.67132C9.08124 2.52296 9.03177 2.34878 9.03174 2.17061C9.04179 1.93359 9.13743 1.70982 9.29871 1.54596C9.45999 1.3821 9.67447 1.29079 9.89747 1.29103V1.26614ZM13.3761 6.38594H6.04458C5.92354 5.93511 5.66778 5.53852 5.31596 5.25617C4.96414 4.97381 4.53541 4.82109 4.09472 4.82109C3.65403 4.82109 3.2253 4.97381 2.87348 5.25617C2.52166 5.53852 2.2659 5.93511 2.14485 6.38594H0.58496C0.509164 6.38484 0.433925 6.39964 0.363505 6.42949C0.293086 6.45934 0.228837 6.50366 0.174517 6.55991C0.120197 6.61616 0.0767914 6.68324 0.0468425 6.75733C0.0168936 6.83141 0.00101735 6.91105 0 6.99169C0.0040872 7.1531 0.0676998 7.30629 0.177183 7.41811C0.286666 7.52993 0.433207 7.59139 0.58496 7.58915H2.14485C2.26083 8.04489 2.51458 8.44732 2.86701 8.73426C3.21944 9.0212 3.65093 9.17668 4.09472 9.17668C4.53851 9.17668 4.9699 9.0212 5.32233 8.73426C5.67476 8.44732 5.92861 8.04489 6.04458 7.58915H13.3761C13.4509 7.59024 13.525 7.57565 13.5945 7.54622C13.664 7.51679 13.7273 7.47309 13.7809 7.41761C13.8345 7.36213 13.8773 7.29595 13.9069 7.22287C13.9364 7.14979 13.9522 7.07124 13.9533 6.99169C13.9453 6.83466 13.8809 6.68687 13.7735 6.5788C13.6661 6.47073 13.5239 6.4106 13.3761 6.41083V6.38594ZM4.11814 7.88786C3.95037 7.88458 3.78723 7.82855 3.64933 7.72683C3.51144 7.6251 3.40486 7.48225 3.34314 7.31624C3.28142 7.15023 3.26731 6.96848 3.30249 6.79392C3.33767 6.61936 3.42062 6.45979 3.54089 6.33529C3.66116 6.21079 3.8134 6.12695 3.97837 6.09431C4.14335 6.06168 4.31364 6.08171 4.46794 6.1519C4.62223 6.22209 4.75354 6.33928 4.84534 6.48872C4.93714 6.63817 4.98538 6.81318 4.98387 6.99169C4.98491 7.11296 4.96322 7.23324 4.92008 7.34549C4.87694 7.45773 4.81321 7.55971 4.73261 7.64546C4.65201 7.73122 4.55611 7.79901 4.45061 7.84491C4.3451 7.89081 4.23212 7.91386 4.11814 7.91275V7.88786Z" fill="#282222"/>
</svg>
