<svg width="14" height="14" viewBox="0 0 14 14" fill="none" xmlns="http://www.w3.org/2000/svg">
<path d="M11.2319 0.6239V2.18379C10.7762 2.29977 10.3738 2.55361 10.0868 2.90604C9.79989 3.25847 9.6444 3.68987 9.6444 4.13366C9.6444 4.57745 9.79989 5.00894 10.0868 5.36137C10.3738 5.7138 10.7762 5.96755 11.2319 6.08353V13.4072C11.2297 13.559 11.2911 13.7055 11.403 13.815C11.5148 13.9245 11.668 13.9881 11.8294 13.9922C11.91 13.9912 11.9896 13.9753 12.0637 13.9454C12.1378 13.9154 12.2049 13.872 12.2612 13.8177C12.3174 13.7634 12.3617 13.6991 12.3916 13.6287C12.4214 13.5583 12.4362 13.483 12.4351 13.4072V6.08353C12.886 5.96248 13.2825 5.70672 13.5649 5.3549C13.8472 5.00308 14 4.57435 14 4.13366C14 3.69297 13.8472 3.26434 13.5649 2.91252C13.2825 2.5607 12.886 2.30484 12.4351 2.18379V0.6239C12.4351 0.47217 12.3716 0.326616 12.2582 0.218598C12.1449 0.110581 11.9908 0.0487986 11.8294 0.0467482C11.7498 0.0477648 11.6713 0.0635576 11.5982 0.0931139C11.5251 0.122671 11.4589 0.165479 11.4035 0.219075C11.348 0.272671 11.3043 0.33602 11.2748 0.405493C11.2454 0.474966 11.2308 0.549129 11.2319 0.6239ZM12.7339 4.10253C12.729 4.2696 12.6718 4.43159 12.5695 4.56828C12.4672 4.70498 12.3242 4.81028 12.1586 4.87105C11.993 4.93182 11.8119 4.94538 11.6382 4.90999C11.4644 4.87459 11.3056 4.79184 11.1816 4.67206C11.0575 4.55229 10.9738 4.40082 10.9409 4.23658C10.908 4.07234 10.9273 3.90262 10.9964 3.74864C11.0655 3.59465 11.1814 3.46318 11.3296 3.37076C11.4777 3.27833 11.6516 3.22905 11.8294 3.22899C11.9499 3.23 12.0691 3.25347 12.18 3.29802C12.2909 3.34256 12.3913 3.40731 12.4754 3.48853C12.5595 3.56975 12.6256 3.66581 12.67 3.7712C12.7143 3.87659 12.7361 3.98921 12.7339 4.10253ZM2.77636 13.3527V6.02897C3.22719 5.90793 3.62378 5.65216 3.90613 5.30034C4.18849 4.94852 4.34121 4.5198 4.34121 4.0791C4.34121 3.63841 4.18849 3.20969 3.90613 2.85787C3.62378 2.50605 3.22719 2.25028 2.77636 2.12924L2.77636 0.569346C2.77636 0.418343 2.71252 0.273486 2.59892 0.16671C2.48532 0.0599346 2.33126 0 2.17061 0C2.00995 0 1.85586 0.0599346 1.74226 0.16671C1.62866 0.273486 1.56485 0.418343 1.56485 0.569346V2.12924C1.11402 2.25028 0.717432 2.50605 0.435078 2.85787C0.152725 3.20969 0 3.63841 0 4.0791C0 4.5198 0.152725 4.94852 0.435078 5.30034C0.717432 5.65216 1.11402 5.90793 1.56485 6.02897L1.56485 13.3527C1.56485 13.5037 1.62866 13.6484 1.74226 13.7552C1.85586 13.862 2.00995 13.922 2.17061 13.922C2.33126 13.922 2.48532 13.862 2.59892 13.7552C2.71252 13.6484 2.77636 13.5037 2.77636 13.3527ZM1.26614 4.10253C1.26941 3.93508 1.32521 3.77222 1.42656 3.63448C1.52791 3.49674 1.6703 3.39025 1.83583 3.32829C2.00137 3.26633 2.18267 3.25167 2.35701 3.28621C2.53135 3.32075 2.69095 3.40293 2.81579 3.52242C2.94063 3.64191 3.02514 3.79343 3.05872 3.9579C3.09229 4.12238 3.07344 4.29246 3.00453 4.44689C2.93561 4.60133 2.81968 4.73327 2.67132 4.82601C2.52296 4.91876 2.34878 4.96823 2.17061 4.96826C1.93359 4.95821 1.70982 4.86257 1.54596 4.70129C1.3821 4.54001 1.29079 4.32553 1.29103 4.10253H1.26614ZM6.38594 0.6239V7.95542C5.93511 8.07646 5.53852 8.33222 5.25617 8.68404C4.97381 9.03586 4.82109 9.46459 4.82109 9.90528C4.82109 10.346 4.97381 10.7747 5.25617 11.1265C5.53852 11.4783 5.93511 11.7341 6.38594 11.8551V13.415C6.38484 13.4908 6.39964 13.5661 6.42949 13.6365C6.45934 13.7069 6.50366 13.7712 6.55991 13.8255C6.61616 13.8798 6.68324 13.9232 6.75733 13.9532C6.83141 13.9831 6.91105 13.999 6.99169 14C7.1531 13.9959 7.30629 13.9323 7.41811 13.8228C7.52993 13.7133 7.59139 13.5668 7.58915 13.415V11.8551C8.04489 11.7392 8.44732 11.4854 8.73426 11.133C9.0212 10.7806 9.17668 10.3491 9.17668 9.90528C9.17668 9.46149 9.0212 9.0301 8.73426 8.67767C8.44732 8.32524 8.04489 8.07139 7.58915 7.95542V0.6239C7.59024 0.549129 7.57565 0.474966 7.54622 0.405493C7.51679 0.33602 7.47309 0.272671 7.41761 0.219075C7.36213 0.165479 7.29595 0.122671 7.22287 0.0931139C7.14979 0.0635576 7.07124 0.0477648 6.99169 0.0467482C6.83466 0.054738 6.68687 0.119116 6.5788 0.226501C6.47073 0.333886 6.4106 0.476083 6.41083 0.6239H6.38594ZM7.88786 9.88186C7.88458 10.0496 7.82855 10.2128 7.72683 10.3507C7.6251 10.4886 7.48225 10.5951 7.31624 10.6569C7.15023 10.7186 6.96848 10.7327 6.79392 10.6975C6.61936 10.6623 6.45979 10.5794 6.33529 10.4591C6.21079 10.3388 6.12695 10.1866 6.09431 10.0216C6.06168 9.85665 6.08171 9.68636 6.1519 9.53206C6.22209 9.37777 6.33928 9.24646 6.48872 9.15466C6.63817 9.06286 6.81318 9.01462 6.99169 9.01613C7.11296 9.01509 7.23324 9.03678 7.34549 9.07992C7.45773 9.12306 7.55971 9.18679 7.64546 9.26739C7.73122 9.34799 7.79901 9.44389 7.84491 9.54939C7.89081 9.6549 7.91386 9.76788 7.91275 9.88186H7.88786Z" fill="#282222"/>
</svg>
