<svg width="21" height="14" viewBox="0 0 21 14" fill="none" xmlns="http://www.w3.org/2000/svg">
<path d="M20.0204 1.97587L14.2944 7.38785L19.8799 12.6676C20.0577 12.3917 20.1523 12.0705 20.1525 11.7422V2.6534C20.1543 2.42098 20.1094 2.19058 20.0204 1.97587ZM10.601 9.12299L19.1693 1.02567C18.8679 0.860081 18.5299 0.772062 18.186 0.769531H1.96656C1.65397 0.77207 1.34606 0.845526 1.06597 0.98436L9.67561 9.12299C9.80641 9.22618 9.96965 9.27951 10.1361 9.27345C10.3026 9.2674 10.4615 9.20236 10.5845 9.08994L10.601 9.12299ZM0.165379 1.89324C0.0543845 2.12236 -0.00223068 2.37403 6.72576e-05 2.62861V11.7174C0.00245984 12.0416 0.0939833 12.3589 0.264526 12.6346L5.90783 7.29697L0.165379 1.89324ZM11.5347 9.99882C11.1537 10.3484 10.6553 10.5423 10.1383 10.5423C9.62119 10.5423 9.12297 10.3484 8.74193 9.99882L6.8415 8.19758L1.25599 13.4691C1.48315 13.5549 1.72374 13.5997 1.96656 13.6013H18.186C18.4226 13.5985 18.6572 13.5566 18.8801 13.4774L13.3607 8.27195L11.5347 9.99882Z" fill="black"/>
</svg>
