<svg width="10" height="10" viewBox="0 0 10 10" fill="none" xmlns="http://www.w3.org/2000/svg">
<path d="M8.625 0H1.125C0.826631 0 0.540483 0.118526 0.329505 0.329505C0.118526 0.540483 0 0.826631 0 1.125V7.125C0 7.42337 0.118526 7.70952 0.329505 7.9205C0.540483 8.13147 0.826631 8.25 1.125 8.25H7.1025C7.19853 8.24937 7.29115 8.28561 7.36125 8.35125L9.15375 9.675C9.21763 9.72292 9.29515 9.7492 9.375 9.75C9.4337 9.74965 9.4915 9.73552 9.54375 9.70875C9.60559 9.67759 9.6576 9.62991 9.694 9.571C9.73041 9.51209 9.74979 9.44425 9.75 9.375V1.125C9.75 0.826631 9.63147 0.540483 9.4205 0.329505C9.20952 0.118526 8.92337 0 8.625 0ZM9 8.625L7.8225 7.7625C7.62062 7.59343 7.36583 7.50054 7.1025 7.5H1.125C1.02554 7.5 0.930161 7.46049 0.859835 7.39017C0.789509 7.31984 0.75 7.22446 0.75 7.125V1.125C0.75 1.02554 0.789509 0.930161 0.859835 0.859835C0.930161 0.789509 1.02554 0.75 1.125 0.75H8.625C8.72446 0.75 8.81984 0.789509 8.89017 0.859835C8.96049 0.930161 9 1.02554 9 1.125V8.625Z" fill="#787878"/>
</svg>
