<svg width="13" height="13" viewBox="0 0 13 13" fill="none" xmlns="http://www.w3.org/2000/svg">
<path opacity="0.9" d="M12.4225 12.7593C12.6986 12.7593 12.9225 12.5354 12.9225 12.2593L12.9225 7.75929C12.9225 7.48314 12.6986 7.25929 12.4225 7.25929C12.1464 7.25929 11.9225 7.48314 11.9225 7.75929L11.9225 11.7593L7.92249 11.7593C7.64635 11.7593 7.42249 11.9831 7.42249 12.2593C7.42249 12.5354 7.64635 12.7593 7.92249 12.7593L12.4225 12.7593ZM7.87936 8.42326L12.0689 12.6128L12.776 11.9057L8.58646 7.71615L7.87936 8.42326Z" fill="#656565"/>
<path opacity="0.9" d="M0.990218 0.50012C0.714128 0.505501 0.494675 0.733678 0.500056 1.00977L0.587741 5.50891C0.593121 5.785 0.821298 6.00446 1.09739 5.99908C1.37348 5.99369 1.59293 5.76552 1.58755 5.48943L1.50961 1.49019L5.50885 1.41225C5.78494 1.40686 6.00439 1.17869 5.99901 0.902598C5.99363 0.626508 5.76545 0.407055 5.48936 0.412435L0.990218 0.50012ZM5.61698 4.7468L1.34656 0.63965L0.653364 1.3604L4.92379 5.46755L5.61698 4.7468Z" fill="#656565"/>
</svg>
