<svg width="10" height="9" viewBox="0 0 10 9" fill="none" xmlns="http://www.w3.org/2000/svg">
<path d="M4.87032 9.00013C4.70732 8.99975 4.54642 8.96323 4.39923 8.89319C4.25203 8.82316 4.1222 8.72136 4.01907 8.59513L0.569071 4.47013C0.206442 3.97341 0.00760678 3.37605 0.000213891 2.76109C-0.007179 2.14614 0.177238 1.54416 0.527821 1.03888L0.666571 0.866376C0.874791 0.594315 1.14344 0.374421 1.45129 0.224077C1.75914 0.0737333 2.09774 -0.00293739 2.44032 0.000126395C2.79068 0.0214692 3.13119 0.124489 3.43463 0.300949C3.73806 0.477409 3.996 0.722414 4.18782 1.01638L4.87032 1.99888L5.55282 1.01638C5.74464 0.722414 6.00258 0.477409 6.30602 0.300949C6.60945 0.124489 6.94996 0.0214692 7.30032 0.000126395C7.64223 -0.00352814 7.98033 0.0721125 8.28809 0.221111C8.59584 0.370109 8.86488 0.58841 9.07407 0.858876L9.21282 1.03138C9.5631 1.53591 9.74768 2.13694 9.74096 2.75111C9.73424 3.36528 9.53655 3.96213 9.17532 4.45888L5.72157 8.58388C5.61955 8.71218 5.4902 8.81611 5.34295 8.88812C5.19569 8.96012 5.03423 8.99839 4.87032 9.00013ZM2.36532 0.750126C2.14585 0.754597 3.93286 1.89811 3.73784 1.99888C3.54281 2.09964 0.797202 2.69246 0.666571 2.86888L1.12032 1.50013C0.877549 1.8702 4.86364 2.58669 4.87032 3.02924C4.87701 3.47179 5.24616 5.63743 5.5 6L4.60407 8.10763C4.63615 8.14854 4.14199 6.47547 4.18782 6.5C4.23366 6.52453 4.81849 3.02524 4.87032 3.02924C4.92351 3.02771 5.2951 6.39274 5.34295 6.36946C5.39079 6.34619 5.11379 8.15603 5.14782 8.11513L1.15782 3.7561C1.41104 3.39126 4.86631 3.47333 4.87032 3.02924C4.87433 2.58515 8.86691 1.86948 8.62032 1.50013L8.12337 4.71227C7.9903 4.53238 8.26709 4.72504 8.06708 4.62471C7.86707 4.52438 8.29084 4.99911 8.06708 5C7.83281 5.0174 6.86539 0.839716 6.66412 0.960867C6.46285 1.08202 7.90147 0.551248 7.77643 0.750126L8.06708 4.62471C8.03252 4.67422 5.09726 2.95882 5.04372 2.98674C4.99019 3.01466 4.9307 3.02924 4.87032 3.02924C4.80994 3.02924 4.75046 3.01466 4.69692 2.98674C4.64338 2.95882 4.59738 2.91839 4.56282 2.86888L1 2C0.874965 1.80112 3.27779 1.08202 3.07652 0.960867C2.87525 0.839716 5.10459 3.04664 4.87032 3.02924L3.35596 2.3702L2.36532 0.750126Z" fill="#0090FF"/>
</svg>
