<svg width="14" height="14" viewBox="0 0 14 14" fill="none" xmlns="http://www.w3.org/2000/svg">
<path opacity="0.9" d="M8.13087 7.54982C7.85473 7.54982 7.63087 7.77368 7.63087 8.04982L7.63087 12.5498C7.63087 12.826 7.85473 13.0498 8.13087 13.0498C8.40702 13.0498 8.63087 12.826 8.63087 12.5498L8.63087 8.54982L12.6309 8.54982C12.907 8.54982 13.1309 8.32596 13.1309 8.04982C13.1309 7.77368 12.907 7.54982 12.6309 7.54982L8.13087 7.54982ZM12.6377 11.8496L8.48443 7.69627L7.77732 8.40337L11.9306 12.5567L12.6377 11.8496Z" fill="#787878"/>
<path opacity="0.9" d="M5.1533 5.6533C5.42945 5.6533 5.6533 5.42945 5.6533 5.1533L5.6533 0.653305C5.6533 0.377162 5.42945 0.153305 5.1533 0.153305C4.87716 0.153305 4.6533 0.377162 4.6533 0.653305L4.6533 4.6533L0.653305 4.6533C0.377162 4.6533 0.153305 4.87716 0.153305 5.1533C0.153305 5.42945 0.377162 5.6533 0.653305 5.6533L5.1533 5.6533ZM0.646447 1.35355L4.79975 5.50686L5.50686 4.79975L1.35355 0.646447L0.646447 1.35355Z" fill="#787878"/>
</svg>
